<svg width="24" height="24" viewBox="0 0 24 24">
  <path fill-rule="evenodd"
    d="M1.125 3.40002L1.125 20.6C1.125 21.15 1.575 21.6 2.125 21.6L21.725 21.6C22.275 21.6 22.725 21.15 22.725 20.6L22.725 3.40002C22.725 2.85002 22.275 2.40002 21.725 2.40002L2.125 2.40002C1.575 2.40002 1.125 2.85002 1.125 3.40002ZM2.925 3.20002L2.925 3.20002C3.475 3.20002 3.925 3.65002 3.925 4.20002L3.925 19.8C3.925 20.35 3.475 20.8 2.925 20.8L2.925 20.8C2.375 20.8 1.925 20.35 1.925 19.8L1.925 4.20002C1.925 3.65002 2.375 3.20002 2.925 3.20002ZM20.925 20.8L5.725 20.8C5.175 20.8 4.725 20.35 4.725 19.8L4.725 4.20002C4.725 3.65002 5.175 3.20002 5.725 3.20002L20.925 3.20002C21.475 3.20002 21.925 3.65002 21.925 4.20002L21.925 19.8C21.925 20.35 21.475 20.8 20.925 20.8Z">
  </path>
  <path fill-rule="evenodd"
    d="M18.7232 9.05959L16.2759 13.3914C16.2586 13.4386 16.24 13.4851 16.2201 13.5312C16.2001 13.5772 16.1789 13.6226 16.1563 13.6674C16.1337 13.7122 16.1099 13.7563 16.0848 13.7998C16.0597 13.8432 16.0333 13.8859 16.0058 13.9278C15.9782 13.9697 15.9494 14.0107 15.9195 14.051C15.8895 14.0912 15.8584 14.1306 15.8262 14.169C15.794 14.2075 15.7607 14.245 15.7263 14.2815C15.6919 14.318 15.6565 14.3535 15.62 14.388C15.5836 14.4225 15.5461 14.4558 15.5078 14.4882C15.4694 14.5205 15.4301 14.5517 15.39 14.5817C15.3498 14.6117 15.3088 14.6406 15.2669 14.6683C15.2251 14.696 15.1825 14.7224 15.1391 14.7476C15.0958 14.7728 15.0517 14.7968 15.0069 14.8194C14.9622 14.8421 14.9168 14.8635 14.8708 14.8835C14.8248 14.9035 14.7783 14.9223 14.7312 14.9396C14.6842 14.957 14.6367 14.973 14.5887 14.9876C14.5407 15.0022 14.4923 15.0154 14.4435 15.0272C14.3948 15.039 14.3457 15.0494 14.2964 15.0584C14.247 15.0674 14.1974 15.0749 14.1477 15.0811C14.0979 15.0872 14.0479 15.0919 13.9979 15.0951C13.9478 15.0983 13.8977 15.1001 13.8475 15.1004C13.7974 15.1008 13.7472 15.0997 13.6971 15.0971C13.647 15.0945 13.597 15.0905 13.5472 15.0851C13.4973 15.0796 13.4476 15.0728 13.3981 15.0644C13.3487 15.0561 13.2995 15.0464 13.2506 15.0352C13.2017 15.0241 13.1531 15.0115 13.1049 14.9975C13.0568 14.9836 13.009 14.9682 12.9617 14.9515C12.9144 14.9348 12.8677 14.9167 12.8214 14.8973C12.7751 14.8778 12.7295 14.8571 12.6844 14.835C12.6394 14.813 12.595 14.7896 12.5513 14.765C12.5076 14.7404 12.4646 14.7145 12.4224 14.6874C12.3802 14.6603 12.3388 14.632 12.2983 14.6025C12.2577 14.573 12.218 14.5423 12.1792 14.5105C12.1404 14.4787 12.1025 14.4458 12.0656 14.4119C12.0287 14.3779 11.9928 14.3429 11.958 14.3068C11.9231 14.2707 11.8893 14.2337 11.8565 14.1957C11.8238 14.1577 11.7922 14.1188 11.7617 14.0789C11.7312 14.0391 11.7019 13.9984 11.6737 13.9569C11.6456 13.9153 11.6187 13.873 11.593 13.8299C11.5673 13.7869 11.5429 13.7431 11.5197 13.6986C11.4965 13.6541 11.4747 13.6089 11.4541 13.5632C11.4335 13.5174 11.4143 13.4711 11.3965 13.4242C11.3786 13.3774 11.3621 13.33 11.3469 13.2822C11.3318 13.2344 11.318 13.1861 11.3057 13.1375C11.2933 13.0889 11.2824 13.04 11.2728 12.9907C11.2633 12.9415 11.2552 12.892 11.2485 12.8423C11.2418 12.7925 11.2366 12.7426 11.2328 12.6926C11.229 12.6426 11.2267 12.5925 11.2258 12.5423C11.2249 12.4922 11.2254 12.442 11.2275 12.3919C11.2295 12.3418 11.2329 12.2918 11.2378 12.2418C11.2427 12.1919 11.249 12.1422 11.2568 12.0926C11.2646 12.0431 11.2738 11.9937 11.2844 11.9447C11.295 11.8957 11.307 11.847 11.3204 11.7987C11.3338 11.7503 11.3487 11.7024 11.3649 11.6549C11.381 11.6075 11.3986 11.5605 11.4175 11.514C11.4364 11.4676 11.4567 11.4217 11.4782 11.3764C11.4998 11.3311 11.5226 11.2864 11.5468 11.2425C11.5709 11.1985 11.5963 11.1553 11.6229 11.1127C11.6496 11.0702 11.6774 11.0285 11.7065 10.9876C11.7355 10.9467 11.7657 10.9067 11.7971 10.8675C11.8284 10.8284 11.8609 10.7902 11.8945 10.7529C11.928 10.7156 11.9627 10.6793 11.9984 10.644C12.034 10.6088 12.0707 10.5746 12.1083 10.5414C12.1459 10.5082 12.1845 10.4762 12.224 10.4453C12.2635 10.4143 12.3039 10.3846 12.3451 10.356C12.3863 10.3274 12.4283 10.3 12.4711 10.2738C12.5139 10.2476 12.5574 10.2227 12.6017 10.199C12.6459 10.1754 12.6908 10.153 12.7363 10.132C12.7818 10.1109 12.8279 10.0912 12.8746 10.0728C12.9213 10.0544 12.9684 10.0373 13.0161 10.0216C13.0637 10.006 13.1118 9.99167 13.1603 9.97878C13.2088 9.96588 13.2576 9.95439 13.3067 9.94431C13.3559 9.93424 13.4053 9.92557 13.4549 9.91835C13.5045 9.91113 13.5544 9.90535 13.6043 9.90099C13.6543 9.89666 13.7044 9.89375 13.7545 9.8923C13.8047 9.89084 13.8548 9.89084 13.905 9.89228C13.9551 9.89373 14.0052 9.89662 14.0551 9.90095C14.1051 9.90528 14.1549 9.91104 14.2046 9.91827C14.2542 9.92549 14.3036 9.93412 14.3528 9.94419C14.4019 9.95426 14.4507 9.96574 14.4992 9.97862C14.5477 9.9915 14.5958 10.0058 14.6434 10.0215C14.6911 10.0371 14.7382 10.0542 14.7849 10.0726C14.8316 10.0909 14.8777 10.1107 14.9232 10.1317C14.9688 10.1528 15.0137 10.1751 15.0579 10.1988C15.1021 10.2224 15.1457 10.2473 15.1885 10.2735C15.2313 10.2997 15.2733 10.327 15.3145 10.3556C15.3557 10.3842 15.3961 10.414 15.4356 10.4449C15.4751 10.4758 15.5137 10.5079 15.5513 10.541C15.589 10.5742 15.6256 10.6084 15.6613 10.6437C15.697 10.6789 15.7316 10.7152 15.7652 10.7525C15.7988 10.7897 15.8312 10.8279 15.8626 10.8671C15.894 10.9062 15.9242 10.9463 15.9532 10.9872C15.9823 11.0281 16.0102 11.0697 16.0368 11.1123C16.0635 11.1548 16.0888 11.198 16.113 11.242C16.1372 11.2859 16.16 11.3306 16.1816 11.3759C16.2031 11.4212 16.2234 11.467 16.2423 11.5135L18.0897 8.24433C18.0546 8.2063 18.019 8.16872 17.983 8.1316C17.9469 8.09446 17.9104 8.05782 17.8734 8.02164C17.8363 7.98548 17.7989 7.94978 17.761 7.91456C17.723 7.87936 17.6846 7.84464 17.6458 7.81044C17.607 7.77621 17.5677 7.74249 17.528 7.7093C17.4883 7.67609 17.4482 7.64341 17.4077 7.61124C17.3671 7.57907 17.3262 7.54745 17.2848 7.51633C17.2435 7.48522 17.2017 7.45466 17.1596 7.42464C17.1174 7.39461 17.0749 7.36513 17.032 7.33621C16.9891 7.30727 16.9458 7.2789 16.9021 7.25109C16.8585 7.22328 16.8145 7.19604 16.7702 7.16937C16.7258 7.1427 16.6811 7.1166 16.6361 7.09108C16.5911 7.06557 16.5457 7.04063 16.5001 7.01628C16.4544 6.99195 16.4084 6.9682 16.3622 6.94504C16.3159 6.92188 16.2693 6.89932 16.2224 6.87736C16.1756 6.85541 16.1284 6.83406 16.081 6.81332C16.0336 6.79259 15.9859 6.77248 15.938 6.75297C15.8901 6.73346 15.8419 6.71458 15.7934 6.69634C15.745 6.67808 15.6964 6.66044 15.6475 6.64343C15.5986 6.62643 15.5495 6.61007 15.5002 6.59435C15.4509 6.57861 15.4014 6.56351 15.3517 6.54905C15.302 6.53461 15.2522 6.5208 15.2021 6.50764C15.1521 6.49447 15.1019 6.48196 15.0515 6.4701C15.0011 6.45823 14.9506 6.44701 14.8999 6.43644C14.8493 6.42589 14.7985 6.41599 14.7476 6.40673C14.6966 6.3975 14.6456 6.38891 14.5945 6.38097C14.5433 6.37305 14.4921 6.36579 14.4408 6.35918C14.3894 6.35257 14.338 6.34663 14.2866 6.34135C14.2351 6.33608 14.1835 6.33146 14.1319 6.32752C14.0803 6.32358 14.0287 6.32031 13.977 6.31769C13.9253 6.31508 13.8736 6.31314 13.8219 6.31187C13.7701 6.31059 13.7184 6.30999 13.6666 6.31006C10.3399 6.31006 7.6434 9.00652 7.6434 12.3333C7.6434 15.6601 10.3399 18.3566 13.6666 18.3566C16.9931 18.3566 19.6899 15.6598 19.6899 12.3333C19.6899 11.1261 19.335 10.0021 18.7232 9.05959ZM15.3001 13.1951L15.2946 13.1922L15.3281 13.1329C15.3418 13.1004 15.3545 13.0675 15.3661 13.0342C15.3777 13.0009 15.3882 12.9672 15.3976 12.9332C15.4071 12.8992 15.4154 12.8649 15.4225 12.8303C15.4297 12.7958 15.4358 12.761 15.4407 12.7261C15.4456 12.6912 15.4494 12.6561 15.4521 12.6209C15.4547 12.5857 15.4562 12.5505 15.4566 12.5152C15.4569 12.4799 15.4561 12.4446 15.4542 12.4094C15.4523 12.3741 15.4492 12.339 15.4449 12.304C15.4407 12.2689 15.4353 12.2341 15.4289 12.1994C15.4224 12.1647 15.4148 12.1303 15.406 12.0961C15.3973 12.0619 15.3874 12.028 15.3765 11.9945C15.3656 11.9609 15.3536 11.9277 15.3405 11.895C15.3274 11.8622 15.3133 11.8299 15.2981 11.798C15.2829 11.7662 15.2667 11.7348 15.2494 11.7041C15.2322 11.6733 15.214 11.6431 15.1948 11.6134C15.1756 11.5838 15.1554 11.5549 15.1344 11.5266C15.1133 11.4983 15.0913 11.4707 15.0684 11.4438C15.0456 11.4169 15.0218 11.3908 14.9973 11.3655C14.9727 11.3402 14.9473 11.3156 14.9212 11.292C14.895 11.2683 14.8681 11.2455 14.8405 11.2235C14.8128 11.2016 14.7845 11.1806 14.7555 11.1605C14.7265 11.1404 14.6968 11.1213 14.6666 11.1031C14.6363 11.085 14.6055 11.0678 14.5741 11.0517C14.5427 11.0355 14.5109 11.0204 14.4785 11.0063C14.4462 10.9922 14.4134 10.9792 14.3802 10.9672C14.347 10.9553 14.3134 10.9444 14.2795 10.9346C14.2456 10.9249 14.2114 10.9162 14.177 10.9086C14.1425 10.9011 14.1078 10.8947 14.0729 10.8894C14.038 10.8841 14.003 10.88 13.9678 10.8769C13.9327 10.8739 13.8974 10.872 13.8622 10.8713C13.8269 10.8706 13.7916 10.871 13.7563 10.8726C13.7211 10.8742 13.6859 10.8769 13.6509 10.8807C13.6158 10.8846 13.5809 10.8896 13.5461 10.8957C13.5113 10.9018 13.4768 10.9091 13.4425 10.9175C13.4083 10.9258 13.3743 10.9353 13.3406 10.9459C13.3069 10.9565 13.2737 10.9681 13.2408 10.9809C13.2079 10.9936 13.1754 11.0074 13.1434 11.0223C13.1114 11.0371 13.0799 11.053 13.0489 11.0699C13.0179 11.0868 12.9875 11.1047 12.9577 11.1236C12.9279 11.1425 12.8987 11.1623 12.8702 11.1831C12.8417 11.2039 12.8139 11.2256 12.7868 11.2481C12.7596 11.2707 12.7333 11.2942 12.7077 11.3185C12.6821 11.3428 12.6573 11.3679 12.6334 11.3938C12.6094 11.4197 12.5863 11.4464 12.5641 11.4738C12.5419 11.5012 12.5206 11.5293 12.5002 11.5581C12.4798 11.5869 12.4604 11.6164 12.4419 11.6464C12.4234 11.6765 12.4059 11.7071 12.3894 11.7383C12.3729 11.7695 12.3575 11.8012 12.3431 11.8334C12.3286 11.8656 12.3153 11.8983 12.303 11.9314C12.2907 11.9644 12.2794 11.9979 12.2693 12.0317C12.2592 12.0655 12.2502 12.0996 12.2423 12.134C12.2343 12.1684 12.2276 12.203 12.2219 12.2378C12.2162 12.2726 12.2117 12.3076 12.2083 12.3427C12.205 12.3779 12.2027 12.4131 12.2016 12.4483C12.2005 12.4836 12.2006 12.5189 12.2018 12.5542C12.203 12.5894 12.2053 12.6246 12.2088 12.6597C12.2123 12.6948 12.2169 12.7298 12.2227 12.7646C12.2284 12.7995 12.2353 12.834 12.2433 12.8684C12.2513 12.9028 12.2605 12.9369 12.2707 12.9706C12.2809 13.0044 12.2922 13.0378 12.3046 13.0708C12.317 13.1039 12.3305 13.1365 12.345 13.1687C12.3595 13.2008 12.3751 13.2325 12.3917 13.2636C12.4082 13.2948 12.4258 13.3254 12.4444 13.3554C12.4629 13.3854 12.4824 13.4148 12.5029 13.4435C12.5234 13.4722 12.5448 13.5003 12.5671 13.5276C12.5894 13.555 12.6126 13.5816 12.6366 13.6074C12.6606 13.6333 12.6855 13.6583 12.7111 13.6825C12.7368 13.7068 12.7632 13.7301 12.7904 13.7527C12.8176 13.7752 12.8455 13.7968 12.874 13.8174C12.9026 13.8381 12.9319 13.8579 12.9617 13.8767C12.9916 13.8955 13.022 13.9133 13.0531 13.9301C13.0841 13.9469 13.1156 13.9627 13.1477 13.9775C13.1797 13.9922 13.2122 14.006 13.2452 14.0186C13.2781 14.0313 13.3115 14.0428 13.3452 14.0533C13.3789 14.0638 13.4129 14.0731 13.4471 14.0814C13.4815 14.0897 13.516 14.0969 13.5508 14.1029C13.5855 14.1089 13.6205 14.1138 13.6556 14.1176C13.6907 14.1213 13.7258 14.1239 13.7611 14.1254C13.7964 14.1269 13.8316 14.1272 13.8669 14.1263C13.9022 14.1255 13.9374 14.1235 13.9726 14.1204C14.0077 14.1173 14.0427 14.1131 14.0776 14.1077C14.1125 14.1023 14.1471 14.0957 14.1816 14.0881C14.216 14.0804 14.2502 14.0717 14.2841 14.0618C14.318 14.0519 14.3515 14.041 14.3847 14.0289C14.4178 14.0169 14.4506 14.0038 14.4829 13.9896C14.5152 13.9754 14.547 13.9602 14.5783 13.9439C14.6097 13.9277 14.6404 13.9104 14.6706 13.8922C14.7008 13.8739 14.7304 13.8547 14.7594 13.8345C14.7883 13.8144 14.8166 13.7933 14.8442 13.7713C14.8718 13.7493 14.8986 13.7264 14.9247 13.7026C14.9508 13.6789 14.9761 13.6543 15.0006 13.6289C15.0251 13.6035 15.0487 13.5773 15.0715 13.5503C15.0943 13.5234 15.1162 13.4958 15.1372 13.4674C15.1582 13.439 15.1782 13.41 15.1973 13.3803C15.2165 13.3507 15.2346 13.3204 15.2517 13.2896C15.2689 13.2587 15.285 13.2273 15.3001 13.1954L15.3001 13.1951ZM20.6666 12.3333C20.6666 16.1993 17.5326 19.3333 13.6666 19.3333C9.8007 19.3333 6.66666 16.1993 6.66666 12.3333C6.66666 8.46736 9.8007 5.33331 13.6666 5.33331C17.5326 5.33331 20.6666 8.46736 20.6666 12.3333Z">
  </path>

</svg>