<svg width="24" height="24" viewBox="0 0 24 24">
  <path fill-rule="evenodd"
    d="M18.683 9.84453C17.6607 7.01328 15.0558 5 12.0045 5C8.95312 5 6.34821 7.01094 5.32589 9.84219C3.41295 10.3695 2 12.1977 2 14.375C2 16.9648 3.99777 19.0625 6.46205 19.0625L17.5379 19.0625C20.0022 19.0625 22 16.9648 22 14.375C22 12.2023 20.5915 10.3742 18.683 9.84453ZM19.4933 16.4305C18.971 16.9789 18.2768 17.2812 17.5379 17.2812L6.46205 17.2812C5.72321 17.2812 5.02902 16.9789 4.5067 16.4305C3.98438 15.882 3.69643 15.1508 3.69643 14.375C3.69643 13.7187 3.89955 13.1023 4.28125 12.5867C4.65402 12.0875 5.17857 11.7242 5.7567 11.5625L6.60268 11.3305L6.91295 10.4727C7.10491 9.93828 7.37277 9.43906 7.70982 8.98672C8.04241 8.53672 8.4375 8.14531 8.87946 7.81719C9.79688 7.13984 10.8772 6.78125 12.0045 6.78125C13.1317 6.78125 14.2121 7.13984 15.1295 7.81719C15.5737 8.14531 15.9665 8.53906 16.2991 8.98672C16.6362 9.43906 16.904 9.94062 17.096 10.4727L17.404 11.3281L18.2478 11.5625C19.4598 11.9023 20.3036 13.0578 20.3036 14.375C20.3036 15.1508 20.0156 15.882 19.4933 16.4305Z">
  </path>
</svg>