<svg width="24" height="24" viewBox="0 0 24 24">
  <path fill-rule="evenodd"
    d="M21.3506 4L2.89938 4C1.86829 4 1 4.82582 1 5.80646L1 18.1935C1 19.1742 1.86829 20 2.89938 20L21.3506 20C22.3817 20 23.25 19.1742 23.25 18.1935L23.25 5.80646C23.25 4.82582 22.3817 4 21.3506 4ZM2.89938 5.54839L21.3506 5.54839C21.5134 5.54839 21.6219 5.65162 21.6219 5.80646L21.6219 6.42581L12.125 12.1032L2.62806 6.42581L2.62806 5.80646C2.62806 5.65162 2.73658 5.54839 2.89938 5.54839ZM21.3506 18.4516L2.89938 18.4516C2.73658 18.4516 2.62806 18.3484 2.62806 18.1935L2.62806 8.23227L11.6908 13.6516C11.7994 13.7548 11.9622 13.7548 12.125 13.7548C12.2878 13.7548 12.4506 13.7032 12.5592 13.6516L21.6219 8.23227L21.6219 18.1935C21.6219 18.3484 21.5134 18.4516 21.3506 18.4516Z">
  </path>
</svg>