<svg width="24" height="24" viewBox="0 0 24 24">
  <path
    d="M5 12.0495C5 12.5475 5.269 12.951 5.60099 12.951L11.9249 12.9585L10.5489 15.033C10.3139 15.384 10.3139 15.9555 10.5489 16.308C10.7839 16.6605 11.1639 16.659 11.3989 16.308L13.7069 12.831C13.7489 12.795 13.7879 12.7485 13.8239 12.6945C13.9449 12.513 14.0029 12.2745 13.9999 12.0375C14.0029 11.8005 13.9449 11.562 13.8239 11.3805C13.7879 11.328 13.7489 11.283 13.7069 11.244L11.3989 7.76404C11.1639 7.41304 10.7839 7.41304 10.5489 7.76404C10.3139 8.11654 10.3139 8.68804 10.5489 9.04054L11.9539 11.1555L5.60099 11.148C5.269 11.148 5 11.5515 5 12.0495Z">
  </path>
  <path
    d="M6.66625 21L18.3325 21C19.25 21 20 20.1 20 19.0005L20 4.9995C20 3.9 19.25 3 18.3337 3L6.66625 3C5.74125 3 5 3.9 5 4.9995L5 7.509C5 8.1585 5.35375 8.1945 5.83625 8.4C6.3175 8.196 6.6675 8.1615 6.6675 7.5105L6.6675 4.9995L18.3337 4.9995L18.3337 18.999L6.66625 18.999L6.66625 16.488C6.66625 15.8385 6.31125 15.804 5.83 15.5985C5.34875 15.8055 5 15.8385 5 16.4895L5 19.0005C5 20.1 5.74125 21 6.66625 21Z">
  </path>
</svg>