<svg width="24" height="24" viewBox="0 0 24 24">
  <path
    d="M21.75 1L2.25 1C2.22955 1.00002 2.20911 1.00066 2.18868 1.00192C2.16826 1.00318 2.14787 1.00504 2.12752 1.00751C2.10717 1.00999 2.08688 1.01307 2.06666 1.01676C2.04643 1.02044 2.02629 1.02474 2.00623 1.02965C1.98618 1.03454 1.96623 1.04003 1.9464 1.04612C1.92657 1.05221 1.90687 1.0589 1.8873 1.06617C1.86773 1.07345 1.84833 1.08131 1.82907 1.08975C1.80982 1.09817 1.79075 1.10717 1.77186 1.11676C1.75297 1.12633 1.73429 1.13646 1.71581 1.14715C1.69732 1.15787 1.67906 1.16912 1.66103 1.1809C1.643 1.1927 1.62521 1.20503 1.60768 1.21788C1.59014 1.23073 1.57287 1.24411 1.55587 1.25801C1.53887 1.2719 1.52215 1.28629 1.50573 1.30118C1.48931 1.31608 1.47319 1.33145 1.45739 1.3473C1.44158 1.36317 1.4261 1.3795 1.41095 1.39629C1.39579 1.41307 1.38099 1.4303 1.36653 1.44796C1.35207 1.46565 1.33797 1.48375 1.32423 1.50228C1.3105 1.52078 1.29714 1.5397 1.28417 1.55902C1.27119 1.57835 1.25861 1.59805 1.24642 1.61812C1.23424 1.63819 1.22246 1.65862 1.21109 1.67939C1.19973 1.70017 1.18878 1.72128 1.17826 1.74273C1.16774 1.76416 1.15766 1.78589 1.14801 1.80793C1.13836 1.82996 1.12916 1.85228 1.12041 1.87487C1.11166 1.89747 1.10336 1.9203 1.09552 1.94339C1.08769 1.96648 1.08032 1.98979 1.07342 2.01332C1.06651 2.03684 1.06009 2.06056 1.05414 2.08447C1.04819 2.10838 1.04272 2.13246 1.03774 2.15672C1.03275 2.18095 1.02826 2.20533 1.02425 2.22985C1.02024 2.25435 1.01673 2.27897 1.01371 2.3037C1.01069 2.32841 1.00817 2.35321 1.00615 2.37809C1.00412 2.40296 1.0026 2.42787 1.00157 2.45283C1.00055 2.47779 1.00002 2.50277 1 2.52777L1 21.4722C1.00002 21.4972 1.00055 21.5222 1.00157 21.5472C1.0026 21.5721 1.00412 21.597 1.00615 21.6219C1.00817 21.6468 1.01069 21.6716 1.01371 21.6963C1.01673 21.721 1.02024 21.7457 1.02425 21.7701C1.02826 21.7947 1.03275 21.819 1.03774 21.8433C1.04272 21.8675 1.04819 21.8916 1.05414 21.9155C1.06009 21.9394 1.06651 21.9632 1.07342 21.9867C1.08032 22.0102 1.08769 22.0335 1.09552 22.0566C1.10336 22.0797 1.11166 22.1025 1.12041 22.1251C1.12916 22.1477 1.13836 22.17 1.14801 22.1921C1.15766 22.2141 1.16774 22.2358 1.17826 22.2573C1.18878 22.2787 1.19973 22.2998 1.21109 22.3206C1.22246 22.3414 1.23424 22.3618 1.24642 22.3819C1.25861 22.402 1.27119 22.4216 1.28417 22.441C1.29714 22.4603 1.3105 22.4792 1.32423 22.4977C1.33797 22.5163 1.35207 22.5343 1.36653 22.552C1.38099 22.5697 1.39579 22.5869 1.41095 22.6037C1.4261 22.6205 1.44158 22.6368 1.45739 22.6527C1.47319 22.6685 1.48931 22.6839 1.50573 22.6988C1.52215 22.7137 1.53887 22.7281 1.55587 22.742C1.57287 22.7559 1.59014 22.7693 1.60768 22.7821C1.62521 22.795 1.643 22.8073 1.66103 22.8191C1.67906 22.8309 1.69732 22.8421 1.71581 22.8528C1.73429 22.8635 1.75297 22.8737 1.77186 22.8832C1.79075 22.8928 1.80982 22.9018 1.82908 22.9103C1.84833 22.9187 1.86773 22.9266 1.8873 22.9338C1.90687 22.9411 1.92657 22.9478 1.9464 22.9539C1.96623 22.96 1.98618 22.9655 2.00623 22.9704C2.02629 22.9753 2.04643 22.9795 2.06666 22.9832C2.08688 22.9869 2.10717 22.99 2.12752 22.9925C2.14787 22.995 2.16826 22.9968 2.18868 22.9981C2.20911 22.9993 2.22955 23 2.25 23L21.75 23C21.7705 23 21.7909 22.9993 21.8113 22.9981C21.8318 22.9968 21.8521 22.995 21.8725 22.9925C21.8928 22.99 21.9131 22.9869 21.9334 22.9832C21.9536 22.9795 21.9737 22.9753 21.9938 22.9704C22.0138 22.9655 22.0338 22.96 22.0536 22.9539C22.0734 22.9478 22.0931 22.9411 22.1127 22.9338C22.1323 22.9266 22.1517 22.9187 22.1709 22.9103C22.1902 22.9018 22.2093 22.8928 22.2281 22.8832C22.247 22.8737 22.2657 22.8635 22.2842 22.8528C22.3027 22.8421 22.3209 22.8309 22.339 22.8191C22.357 22.8073 22.3748 22.795 22.3923 22.7821C22.4099 22.7693 22.4271 22.7559 22.4441 22.742C22.4611 22.7281 22.4779 22.7137 22.4943 22.6988C22.5107 22.6839 22.5268 22.6685 22.5426 22.6527C22.5584 22.6368 22.5739 22.6205 22.5891 22.6037C22.6042 22.5869 22.619 22.5697 22.6335 22.552C22.6479 22.5344 22.662 22.5163 22.6758 22.4977C22.6895 22.4792 22.7029 22.4603 22.7158 22.441C22.7288 22.4216 22.7414 22.402 22.7536 22.3819C22.7658 22.3618 22.7775 22.3414 22.7889 22.3206C22.8003 22.2998 22.8112 22.2787 22.8217 22.2573C22.8323 22.2358 22.8424 22.2141 22.852 22.1921C22.8616 22.17 22.8709 22.1477 22.8796 22.1251C22.8884 22.1025 22.8967 22.0797 22.9045 22.0566C22.9123 22.0335 22.9197 22.0102 22.9266 21.9867C22.9335 21.9632 22.9399 21.9394 22.9459 21.9155C22.9518 21.8916 22.9573 21.8675 22.9623 21.8433C22.9673 21.819 22.9718 21.7947 22.9758 21.7701C22.9798 21.7457 22.9833 21.721 22.9863 21.6963C22.9893 21.6716 22.9918 21.6468 22.9939 21.6219C22.9959 21.597 22.9974 21.5721 22.9984 21.5472C22.9995 21.5222 23 21.4972 23 21.4722L23 2.52777C23 2.50277 22.9995 2.47779 22.9984 2.45283C22.9974 2.42787 22.9959 2.40296 22.9939 2.37809C22.9918 2.35321 22.9893 2.32841 22.9863 2.3037C22.9833 2.27897 22.9798 2.25435 22.9758 2.22985C22.9718 2.20533 22.9673 2.18095 22.9623 2.15672C22.9573 2.13246 22.9518 2.10838 22.9459 2.08447C22.9399 2.06056 22.9335 2.03684 22.9266 2.01332C22.9197 1.98979 22.9123 1.96648 22.9045 1.94339C22.8967 1.9203 22.8884 1.89747 22.8796 1.87487C22.8709 1.85228 22.8616 1.82996 22.852 1.80793C22.8424 1.78589 22.8323 1.76416 22.8217 1.74273C22.8112 1.72128 22.8003 1.70017 22.7889 1.67939C22.7775 1.65862 22.7658 1.63819 22.7536 1.61812C22.7414 1.59805 22.7288 1.57835 22.7158 1.55902C22.7029 1.5397 22.6895 1.52078 22.6758 1.50228C22.662 1.48375 22.6479 1.46565 22.6335 1.44796C22.619 1.4303 22.6042 1.41307 22.5891 1.39629C22.5739 1.3795 22.5584 1.36317 22.5426 1.3473C22.5268 1.33145 22.5107 1.31608 22.4943 1.30118C22.4779 1.28629 22.4611 1.2719 22.4441 1.25801C22.4271 1.24411 22.4099 1.23073 22.3923 1.21788C22.3748 1.20503 22.357 1.1927 22.339 1.1809C22.3209 1.16912 22.3027 1.15787 22.2842 1.14715C22.2657 1.13646 22.247 1.12633 22.2281 1.11676C22.2093 1.10717 22.1902 1.09816 22.1709 1.08972C22.1517 1.0813 22.1323 1.07345 22.1127 1.06617C22.0931 1.0589 22.0734 1.05221 22.0536 1.04612C22.0338 1.04003 22.0138 1.03454 21.9938 1.02965C21.9737 1.02474 21.9536 1.02044 21.9334 1.01676C21.9131 1.01307 21.8928 1.00999 21.8725 1.00751C21.8521 1.00504 21.8318 1.00318 21.8113 1.00192C21.7909 1.00066 21.7705 1.00002 21.75 1ZM22 21.4722C22 21.4772 21.9999 21.4822 21.9997 21.4872C21.9995 21.4922 21.9992 21.4972 21.9988 21.5022C21.9984 21.5072 21.9979 21.5121 21.9973 21.5171C21.9967 21.522 21.996 21.5269 21.9952 21.5318C21.9944 21.5367 21.9935 21.5416 21.9925 21.5465C21.9915 21.5513 21.9904 21.5561 21.9892 21.5609C21.9881 21.5657 21.9868 21.5705 21.9854 21.5752C21.984 21.5799 21.9825 21.5846 21.981 21.5892C21.9794 21.5938 21.9777 21.5984 21.976 21.6029C21.9743 21.6074 21.9724 21.6119 21.9705 21.6163C21.9686 21.6207 21.9665 21.625 21.9644 21.6293C21.9623 21.6336 21.9601 21.6378 21.9579 21.642C21.9556 21.6461 21.9533 21.6502 21.9508 21.6542C21.9484 21.6583 21.9459 21.6622 21.9432 21.6661C21.9407 21.6699 21.938 21.6737 21.9353 21.6774C21.9325 21.6811 21.9297 21.6848 21.9268 21.6883C21.9239 21.6918 21.9209 21.6953 21.9179 21.6986C21.9149 21.702 21.9118 21.7052 21.9086 21.7084C21.9054 21.7116 21.9022 21.7147 21.8989 21.7176C21.8956 21.7206 21.8923 21.7235 21.8889 21.7263C21.8855 21.7291 21.882 21.7317 21.8785 21.7343C21.875 21.7369 21.8715 21.7393 21.8678 21.7417C21.8642 21.7441 21.8606 21.7463 21.8569 21.7484C21.8532 21.7506 21.8495 21.7526 21.8457 21.7545C21.8419 21.7564 21.8381 21.7582 21.8342 21.7599C21.8304 21.7616 21.8265 21.7632 21.8226 21.7646C21.8187 21.7661 21.8147 21.7674 21.8108 21.7686C21.8068 21.7698 21.8028 21.7709 21.7988 21.7719C21.7948 21.7729 21.7907 21.7737 21.7867 21.7745C21.7826 21.7752 21.7786 21.7758 21.7745 21.7763C21.7704 21.7768 21.7664 21.7772 21.7623 21.7774C21.7582 21.7777 21.7541 21.7778 21.75 21.7778L2.25 21.7778C2.24591 21.7778 2.24182 21.7777 2.23773 21.7774C2.23365 21.7772 2.22957 21.7768 2.2255 21.7763C2.22142 21.7758 2.21737 21.7752 2.21332 21.7745C2.20927 21.7737 2.20524 21.7729 2.20123 21.7719C2.19721 21.7709 2.19322 21.7698 2.18925 21.7686C2.18529 21.7674 2.18134 21.7661 2.17743 21.7646C2.17351 21.7632 2.16963 21.7616 2.16578 21.7599C2.16193 21.7582 2.15811 21.7564 2.15433 21.7545C2.15055 21.7526 2.14681 21.7506 2.14311 21.7484C2.13941 21.7463 2.13576 21.7441 2.13215 21.7417C2.12854 21.7393 2.12498 21.7369 2.12147 21.7343C2.11796 21.7317 2.11451 21.7291 2.11111 21.7263C2.10771 21.7235 2.10436 21.7206 2.10108 21.7176C2.09779 21.7147 2.09456 21.7116 2.0914 21.7084C2.08824 21.7052 2.08514 21.702 2.08211 21.6986C2.07908 21.6953 2.07612 21.6918 2.07322 21.6883C2.07033 21.6848 2.06751 21.6811 2.06476 21.6774C2.06201 21.6737 2.05934 21.6699 2.05675 21.6661C2.05415 21.6622 2.05163 21.6583 2.0492 21.6542C2.04676 21.6502 2.04441 21.6461 2.04213 21.642C2.03986 21.6378 2.03767 21.6336 2.03557 21.6293C2.03347 21.625 2.03145 21.6207 2.02952 21.6163C2.02759 21.6119 2.02575 21.6074 2.024 21.6029C2.02225 21.5984 2.0206 21.5938 2.01903 21.5892C2.01746 21.5846 2.01599 21.5799 2.01461 21.5752C2.01323 21.5705 2.01195 21.5657 2.01076 21.5609C2.00958 21.5561 2.00849 21.5513 2.00749 21.5465C2.0065 21.5416 2.0056 21.5367 2.0048 21.5318C2.004 21.5269 2.00331 21.522 2.00271 21.5171C2.00211 21.5121 2.0016 21.5072 2.0012 21.5022C2.0008 21.4972 2.0005 21.4922 2.0003 21.4872C2.0001 21.4822 2 21.4772 2 21.4722L2 2.52777C2 2.52276 2.0001 2.51777 2.0003 2.51279C2.0005 2.50778 2.0008 2.5028 2.0012 2.49783C2.0016 2.49285 2.00211 2.48788 2.00271 2.48294C2.00331 2.47799 2.004 2.47306 2.0048 2.46816C2.0056 2.46327 2.0065 2.4584 2.00749 2.45355C2.00849 2.4487 2.00958 2.44387 2.01076 2.43908C2.01195 2.43429 2.01324 2.42954 2.01461 2.42484C2.01599 2.42013 2.01746 2.41546 2.01903 2.41084C2.0206 2.40622 2.02225 2.40165 2.024 2.39714C2.02575 2.39262 2.02759 2.38815 2.02952 2.38374C2.03145 2.37933 2.03347 2.37498 2.03557 2.3707C2.03767 2.36641 2.03986 2.36218 2.04213 2.35801C2.04441 2.35387 2.04676 2.34978 2.0492 2.34575C2.05163 2.34174 2.05415 2.3378 2.05675 2.33392C2.05934 2.33006 2.06201 2.32628 2.06476 2.32258C2.06751 2.31887 2.07033 2.31525 2.07322 2.31172C2.07612 2.30819 2.07908 2.30474 2.08211 2.30138C2.08514 2.29802 2.08824 2.29475 2.0914 2.29158C2.09456 2.28841 2.09779 2.28534 2.10108 2.28236C2.10436 2.27938 2.10771 2.2765 2.11111 2.27371C2.11451 2.27094 2.11796 2.26827 2.12147 2.26569C2.12498 2.26313 2.12854 2.26067 2.13215 2.2583C2.13576 2.25595 2.13941 2.25371 2.14311 2.25156C2.14681 2.24943 2.15055 2.2474 2.15433 2.24549C2.15811 2.24356 2.16193 2.24176 2.16578 2.24008C2.16963 2.2384 2.17351 2.23683 2.17743 2.23538C2.18134 2.23393 2.18529 2.23259 2.18925 2.23137C2.19322 2.23017 2.19721 2.22908 2.20123 2.2281C2.20524 2.22713 2.20927 2.22627 2.21332 2.22553C2.21737 2.2248 2.22142 2.22419 2.2255 2.22369C2.22957 2.2232 2.23365 2.22283 2.23773 2.2226C2.24182 2.22235 2.24591 2.22223 2.25 2.22223L21.75 2.22223C21.7541 2.22223 21.7582 2.22235 21.7623 2.2226C21.7664 2.22283 21.7704 2.2232 21.7745 2.22369C21.7786 2.22419 21.7826 2.2248 21.7867 2.22553C21.7907 2.22627 21.7948 2.22713 21.7988 2.2281C21.8028 2.22908 21.8068 2.23017 21.8108 2.23137C21.8147 2.23259 21.8187 2.23393 21.8226 2.23538C21.8265 2.23683 21.8304 2.2384 21.8342 2.24008C21.8381 2.24176 21.8419 2.24356 21.8457 2.24549C21.8495 2.2474 21.8532 2.24943 21.8569 2.25156C21.8606 2.25371 21.8642 2.25595 21.8678 2.2583C21.8715 2.26067 21.875 2.26313 21.8785 2.26569C21.882 2.26827 21.8855 2.27094 21.8889 2.27371C21.8923 2.2765 21.8956 2.27938 21.8989 2.28236C21.9022 2.28534 21.9054 2.28841 21.9086 2.29158C21.9118 2.29475 21.9149 2.29802 21.9179 2.30138C21.9209 2.30474 21.9239 2.30819 21.9268 2.31172C21.9297 2.31525 21.9325 2.31887 21.9352 2.32258C21.938 2.32628 21.9407 2.33006 21.9432 2.33392C21.9458 2.3378 21.9484 2.34174 21.9508 2.34575C21.9533 2.34976 21.9556 2.35385 21.9579 2.35801C21.9601 2.36218 21.9623 2.36641 21.9644 2.3707C21.9665 2.37498 21.9686 2.37933 21.9705 2.38374C21.9724 2.38815 21.9743 2.39262 21.976 2.39714C21.9777 2.40165 21.9794 2.40622 21.981 2.41084C21.9825 2.41546 21.984 2.42013 21.9854 2.42484C21.9868 2.42954 21.9881 2.43429 21.9892 2.43908C21.9904 2.44387 21.9915 2.4487 21.9925 2.45355C21.9935 2.4584 21.9944 2.46327 21.9952 2.46816C21.996 2.47306 21.9967 2.47799 21.9973 2.48294C21.9979 2.48788 21.9984 2.49285 21.9988 2.49783C21.9992 2.5028 21.9995 2.50778 21.9997 2.51279C21.9999 2.51777 22 2.52276 22 2.52777L22 21.4722Z">
  </path>
  <path
    d="M10.2587 12.7136L5.19152 17.7814L4.10537 16.6951C3.89177 16.4815 3.52821 16.6065 3.4873 16.9042L3.00331 20.5881C2.9715 20.8244 3.17373 21.0267 3.41232 20.9971L7.0957 20.5131C7.39564 20.4744 7.51835 20.1086 7.30475 19.8949L6.2186 18.8086L11.2858 13.7408C11.5698 13.4567 11.5698 12.9954 11.2858 12.7113C11.0018 12.4295 10.5428 12.4295 10.2587 12.7136ZM20.5863 3.00288L16.9029 3.48694C16.6029 3.52557 16.4802 3.89145 16.6938 4.10508L17.78 5.19137L12.7128 10.2592C12.4288 10.5433 12.4288 11.0046 12.7128 11.2887C12.9968 11.5728 13.4581 11.5728 13.7421 11.2887L18.8093 6.22085L19.8955 7.30714C20.1091 7.52076 20.4726 7.39577 20.5135 7.09807L20.9975 3.41421C21.0248 3.17559 20.8226 2.97333 20.5863 3.00288Z">
  </path>
</svg>