<svg width="24" height="24" viewBox="0 0 24 24">
  <path
    d="M21.75 1L2.25 1C2.22955 1 2.21043 1 2.19 1C2.16957 1 2.15035 1.01 2.13 1.01C2.10965 1.01 2.09023 1.02 2.07 1.02C2.04977 1.02 2.03006 1.03 2.01 1.03C1.98994 1.03 1.96984 1.05 1.95 1.05C1.93017 1.05 1.90957 1.07 1.89 1.07C1.87043 1.07 1.84925 1.09 1.83 1.09C1.81075 1.09 1.78889 1.12 1.77 1.12C1.75111 1.12 1.73848 1.13931 1.72 1.15C1.70151 1.16071 1.67803 1.16822 1.66 1.18C1.64197 1.1918 1.62754 1.20715 1.61 1.22C1.59246 1.23285 1.577 1.2461 1.56 1.26C1.543 1.27388 1.52642 1.2851 1.51 1.3C1.49357 1.3149 1.47581 1.33415 1.46 1.35C1.44419 1.36587 1.42515 1.38321 1.41 1.4C1.39485 1.41679 1.38446 1.43233 1.37 1.45C1.35554 1.46768 1.33374 1.48147 1.32 1.5C1.30627 1.51851 1.29298 1.54067 1.28 1.56C1.26702 1.57933 1.26219 1.59993 1.25 1.62C1.23781 1.64007 1.22137 1.65922 1.21 1.68C1.19863 1.70078 1.19052 1.71855 1.18 1.74C1.16948 1.76143 1.15 1.78796 1.15 1.81C1.15 1.83204 1.12 1.84741 1.12 1.87C1.12 1.89259 1.1 1.91691 1.1 1.94C1.1 1.96309 1.07 1.98647 1.07 2.01C1.07 2.03353 1.05 2.05609 1.05 2.08C1.05 2.10391 1.04 2.13575 1.04 2.16C1.04 2.18423 1.02 2.20548 1.02 2.23C1.02 2.2545 1.01 2.27527 1.01 2.3C1.01 2.32471 1.01 2.35512 1.01 2.38C1.01 2.40486 1 2.42504 1 2.45C1 2.47496 1 2.505 1 2.53L1 21.47C1 21.495 1 21.525 1 21.55C1 21.575 1.01 21.5951 1.01 21.62C1.01 21.6449 1.01 21.6753 1.01 21.7C1.01 21.7247 1.02 21.7455 1.02 21.77C1.02 21.7945 1.04 21.8158 1.04 21.84C1.04 21.8643 1.05 21.8961 1.05 21.92C1.05 21.9439 1.07 21.9665 1.07 21.99C1.07 22.0135 1.1 22.0369 1.1 22.06C1.1 22.0831 1.12 22.1074 1.12 22.13C1.12 22.1526 1.15 22.168 1.15 22.19C1.15 22.212 1.16948 22.2386 1.18 22.26C1.19052 22.2815 1.19863 22.2992 1.21 22.32C1.22137 22.3408 1.23781 22.3599 1.25 22.38C1.26219 22.4001 1.26702 22.4207 1.28 22.44C1.29298 22.4593 1.30627 22.4815 1.32 22.5C1.33374 22.5185 1.35554 22.5323 1.37 22.55C1.38446 22.5677 1.39485 22.5832 1.41 22.6C1.42515 22.6168 1.44419 22.6342 1.46 22.65C1.47581 22.6659 1.49358 22.6851 1.51 22.7C1.52642 22.7149 1.543 22.7261 1.56 22.74C1.577 22.7539 1.59246 22.7671 1.61 22.78C1.62754 22.7929 1.64197 22.8082 1.66 22.82C1.67803 22.8318 1.70151 22.8393 1.72 22.85C1.73848 22.8607 1.75111 22.88 1.77 22.88C1.78889 22.88 1.81075 22.91 1.83 22.91C1.84925 22.91 1.87043 22.93 1.89 22.93C1.90957 22.93 1.93016 22.95 1.95 22.95C1.96983 22.95 1.98994 22.97 2.01 22.97C2.03006 22.97 2.04977 22.98 2.07 22.98C2.09023 22.98 2.10965 22.99 2.13 22.99C2.15035 22.99 2.16957 23 2.19 23C2.21043 23 2.22955 23 2.25 23L21.75 23C21.7705 23 21.7896 23 21.81 23C21.8304 23 21.8497 22.99 21.87 22.99C21.8903 22.99 21.9098 22.98 21.93 22.98C21.9502 22.98 21.9699 22.97 21.99 22.97C22.0101 22.97 22.0302 22.95 22.05 22.95C22.0699 22.95 22.0905 22.93 22.11 22.93C22.1296 22.93 22.1508 22.91 22.17 22.91C22.1893 22.91 22.2111 22.88 22.23 22.88C22.2489 22.88 22.2615 22.8607 22.28 22.85C22.2985 22.8393 22.322 22.8318 22.34 22.82C22.358 22.8082 22.3725 22.7929 22.39 22.78C22.4075 22.7671 22.423 22.7539 22.44 22.74C22.457 22.7261 22.4736 22.7149 22.49 22.7C22.5065 22.6851 22.5242 22.6659 22.54 22.65C22.5558 22.6342 22.5749 22.6168 22.59 22.6C22.6051 22.5832 22.6155 22.5677 22.63 22.55C22.6445 22.5323 22.6663 22.5185 22.68 22.5C22.6937 22.4815 22.707 22.4593 22.72 22.44C22.733 22.4207 22.7378 22.4001 22.75 22.38C22.7622 22.3599 22.7786 22.3408 22.79 22.32C22.8014 22.2992 22.8095 22.2815 22.82 22.26C22.8305 22.2386 22.85 22.212 22.85 22.19C22.85 22.168 22.88 22.1526 22.88 22.13C22.88 22.1074 22.9 22.0831 22.9 22.06C22.9 22.0369 22.93 22.0135 22.93 21.99C22.93 21.9665 22.95 21.9439 22.95 21.92C22.95 21.8961 22.96 21.8643 22.96 21.84C22.96 21.8158 22.98 21.7945 22.98 21.77C22.98 21.7455 22.99 21.7247 22.99 21.7C22.99 21.6753 22.99 21.6449 22.99 21.62C22.99 21.5951 23 21.575 23 21.55C23 21.525 23 21.495 23 21.47L23 2.53C23 2.505 23 2.47496 23 2.45C23 2.42504 22.99 2.40486 22.99 2.38C22.99 2.35512 22.99 2.32471 22.99 2.3C22.99 2.27527 22.98 2.2545 22.98 2.23C22.98 2.20548 22.96 2.18423 22.96 2.16C22.96 2.13575 22.95 2.10391 22.95 2.08C22.95 2.05609 22.93 2.03353 22.93 2.01C22.93 1.98647 22.9 1.96309 22.9 1.94C22.9 1.91691 22.88 1.89259 22.88 1.87C22.88 1.84741 22.85 1.83204 22.85 1.81C22.85 1.78796 22.8305 1.76143 22.82 1.74C22.8095 1.71855 22.8014 1.70078 22.79 1.68C22.7786 1.65922 22.7622 1.64007 22.75 1.62C22.7378 1.59993 22.733 1.57933 22.72 1.56C22.707 1.54067 22.6937 1.51851 22.68 1.5C22.6663 1.48147 22.6445 1.46768 22.63 1.45C22.6155 1.43233 22.6051 1.41679 22.59 1.4C22.5749 1.38321 22.5558 1.36587 22.54 1.35C22.5242 1.33415 22.5065 1.3149 22.49 1.3C22.4736 1.2851 22.457 1.27388 22.44 1.26C22.423 1.2461 22.4075 1.23285 22.39 1.22C22.3725 1.20715 22.358 1.1918 22.34 1.18C22.322 1.16822 22.2985 1.16071 22.28 1.15C22.2615 1.13931 22.2489 1.12 22.23 1.12C22.2111 1.12 22.1893 1.09 22.17 1.09C22.1508 1.09 22.1296 1.07 22.11 1.07C22.0905 1.07 22.0699 1.05 22.05 1.05C22.0302 1.05 22.0101 1.03 21.99 1.03C21.9699 1.03 21.9502 1.02 21.93 1.02C21.9098 1.02 21.8903 1.01 21.87 1.01C21.8497 1.01 21.8304 1 21.81 1C21.7896 1 21.7705 1 21.75 1ZM22 21.47L22 21.49L22 21.5L22 21.52L22 21.53L21.99 21.55L21.99 21.56L21.99 21.58L21.98 21.59L21.98 21.6L21.97 21.62L21.96 21.63L21.96 21.64L21.95 21.65L21.94 21.67L21.94 21.68L21.93 21.69L21.92 21.7L21.91 21.71L21.9 21.72L21.89 21.73L21.88 21.73L21.87 21.74L21.86 21.75L21.85 21.75L21.83 21.76L21.82 21.76L21.81 21.77L21.8 21.77L21.79 21.77L21.77 21.78L21.76 21.78L21.75 21.78L2.25 21.78L2.24 21.78L2.23 21.78L2.21 21.77L2.2 21.77L2.19 21.77L2.18 21.76L2.17 21.76L2.15 21.75L2.14 21.75L2.13 21.74L2.12 21.73L2.11 21.73L2.1 21.72L2.09 21.71L2.08 21.7L2.07 21.69L2.06 21.68L2.06 21.67L2.05 21.65L2.04 21.64L2.04 21.63L2.03 21.62L2.02 21.6L2.02 21.59L2.01 21.58L2.01 21.56L2.01 21.55L2 21.53L2 21.52L2 21.5L2 21.49L2 21.47L2 2.53L2 2.51L2 2.5L2 2.48L2 2.47L2.01 2.45L2.01 2.44L2.01 2.42L2.02 2.41L2.02 2.4L2.03 2.38L2.04 2.37L2.04 2.36L2.05 2.35L2.06 2.33L2.06 2.32L2.07 2.31L2.08 2.3L2.09 2.29L2.1 2.28L2.11 2.27L2.12 2.27L2.13 2.26L2.14 2.25L2.15 2.25L2.17 2.24L2.18 2.24L2.19 2.23L2.2 2.23L2.21 2.23L2.23 2.22L2.24 2.22L2.25 2.22L21.75 2.22L21.76 2.22L21.77 2.22L21.79 2.23L21.8 2.23L21.81 2.23L21.82 2.24L21.83 2.24L21.85 2.25L21.86 2.25L21.87 2.26L21.88 2.27L21.89 2.27L21.9 2.28L21.91 2.29L21.92 2.3L21.93 2.31L21.94 2.32L21.94 2.33L21.95 2.35L21.96 2.36L21.96 2.37L21.97 2.38L21.98 2.4L21.98 2.41L21.99 2.42L21.99 2.44L21.99 2.45L22 2.47L22 2.48L22 2.5L22 2.51L22 2.53L22 21.47Z">
  </path>
  <path
    d="M10.817 12.775L7.13492 13.2591C6.83717 13.2977 6.71216 13.6636 6.92581 13.8773L8.01225 14.9636L3.21195 19.7659C2.92784 20.05 2.93011 20.5068 3.21422 20.7886C3.35514 20.9295 3.54151 21 3.72562 21C3.91199 21 4.09837 20.9295 4.23928 20.7864L9.03504 15.9864L10.1215 17.0727C10.3351 17.2864 10.6988 17.1614 10.7397 16.8636L11.2238 13.1818C11.2556 12.9477 11.0533 12.7455 10.817 12.775ZM13.1853 11.225L16.8673 10.7409C17.1651 10.7023 17.2901 10.3364 17.0765 10.1227L15.99 9.03636L20.788 4.23409C21.0722 3.95 21.0699 3.49318 20.7858 3.21136C20.6449 3.07045 20.4585 3 20.2744 3C20.088 3 19.9016 3.07045 19.7607 3.21364L14.965 8.01364L13.8785 6.92727C13.6649 6.71364 13.3012 6.83864 13.2603 7.13636L12.7762 10.8182C12.7466 11.0523 12.9489 11.2545 13.1853 11.225Z">
  </path>
</svg>