<svg width="24" height="24" viewBox="0 0 24 24">
  <path
    d="M14.5858 22.4142L5.58579 13.4142C4.80474 12.6332 4.80474 11.3668 5.58579 10.5858L14.5858 1.58579Q14.6553 1.51631 14.7312 1.45398Q14.8072 1.39165 14.8889 1.33706Q14.9706 1.28247 15.0572 1.23616Q15.1439 1.18984 15.2346 1.15224Q15.3254 1.11464 15.4194 1.08612Q15.5135 1.0576 15.6098 1.03843Q15.7062 1.01926 15.804 1.00963Q15.9017 1 16 1Q16.0983 1 16.196 1.00963Q16.2938 1.01926 16.3902 1.03843Q16.4865 1.0576 16.5806 1.08612Q16.6746 1.11464 16.7654 1.15224Q16.8561 1.18984 16.9428 1.23616Q17.0294 1.28247 17.1111 1.33706Q17.1928 1.39165 17.2688 1.45398Q17.3447 1.51631 17.4142 1.58579Q17.4837 1.65526 17.546 1.73121Q17.6084 1.80716 17.6629 1.88886Q17.7175 1.97055 17.7638 2.05721Q17.8102 2.14386 17.8478 2.23463Q17.8854 2.32541 17.9139 2.41943Q17.9424 2.51345 17.9616 2.60982Q17.9807 2.70619 17.9904 2.80397Q18 2.90175 18 3Q18 3.09825 17.9904 3.19603Q17.9807 3.29381 17.9616 3.39018Q17.9424 3.48655 17.9139 3.58057Q17.8854 3.67459 17.8478 3.76537Q17.8102 3.85614 17.7638 3.94279Q17.7175 4.02945 17.6629 4.11114Q17.6084 4.19284 17.546 4.26879Q17.4837 4.34474 17.4142 4.41421L8.41421 13.4142L7 12L8.41421 10.5858L17.4142 19.5858Q17.4837 19.6553 17.546 19.7312Q17.6084 19.8072 17.6629 19.8889Q17.7175 19.9706 17.7638 20.0572Q17.8102 20.1439 17.8478 20.2346Q17.8854 20.3254 17.9139 20.4194Q17.9424 20.5135 17.9616 20.6098Q17.9807 20.7062 17.9904 20.804Q18 20.9017 18 21Q18 21.0983 17.9904 21.196Q17.9807 21.2938 17.9616 21.3902Q17.9424 21.4865 17.9139 21.5806Q17.8854 21.6746 17.8478 21.7654Q17.8102 21.8561 17.7638 21.9428Q17.7175 22.0294 17.6629 22.1111Q17.6084 22.1928 17.546 22.2688Q17.4837 22.3447 17.4142 22.4142Q17.3447 22.4837 17.2688 22.546Q17.1928 22.6084 17.1111 22.6629Q17.0294 22.7175 16.9428 22.7638Q16.8561 22.8102 16.7654 22.8478Q16.6746 22.8854 16.5806 22.9139Q16.4865 22.9424 16.3902 22.9616Q16.2938 22.9807 16.196 22.9904Q16.0983 23 16 23Q15.9017 23 15.804 22.9904Q15.7062 22.9807 15.6098 22.9616Q15.5135 22.9424 15.4194 22.9139Q15.3254 22.8854 15.2346 22.8478Q15.1439 22.8102 15.0572 22.7638Q14.9706 22.7175 14.8889 22.6629Q14.8072 22.6084 14.7312 22.546Q14.6553 22.4837 14.5858 22.4142Z">
  </path>
</svg>