<svg width="24" height="24" viewBox="0 0 24 24">
  <path
    d="M7.4071 4.67015C8.40919 4.67015 9.57829 5.17119 10.2463 5.83925L10.9144 6.50731L12.0835 7.67641L13.2526 6.50731L13.9207 5.83925C14.7557 5.00418 15.7578 4.67015 16.7599 4.67015C17.261 4.67015 17.762 4.83716 18.263 5.00418C19.4321 5.67223 20.1002 6.50731 20.2672 7.84342C20.4342 9.01253 20.1002 10.1816 19.2651 11.0167L12.0835 18.3653L4.90188 11.0167C4.06681 10.1816 3.56576 9.01253 3.73278 7.84342C3.89979 6.67432 4.73486 5.67223 5.73695 5.00418C6.238 4.83716 6.90605 4.67015 7.4071 4.67015ZM7.4071 3C6.57202 3 5.73695 3.16701 5.06889 3.50104C1.56159 5.3382 1.06054 9.68058 3.56576 12.1858L10.9144 19.5344C11.2484 19.8685 11.7495 20.0355 12.0835 20.0355C12.4175 20.0355 12.9186 19.8685 13.0856 19.5344L20.4342 12.1858C22.9395 9.68058 22.4384 5.3382 18.9311 3.50104C18.263 3.16701 17.428 3 16.5929 3C15.0898 3 13.5866 3.66806 12.5846 4.67015L12.0835 5.3382L11.4154 4.67015C10.4134 3.66806 8.91023 3 7.4071 3Z">
  </path>
</svg>