<svg width="24" height="24" viewBox="0 0 24 24">
  <path
    d="M20.75 6L3.25001 6C3.22955 6 3.20912 6.00054 3.1887 6.00157C3.16826 6.00261 3.14787 6.00413 3.12752 6.00615C3.10718 6.00816 3.08689 6.01069 3.06666 6.01372C3.04642 6.01672 3.02628 6.02023 3.00624 6.02426C2.98619 6.02825 2.96624 6.03275 2.9464 6.03774C2.92657 6.04271 2.90688 6.04819 2.88731 6.05415C2.86774 6.0601 2.84832 6.06652 2.82907 6.07343C2.80982 6.08033 2.79075 6.08768 2.77186 6.09554C2.75297 6.10336 2.73428 6.11166 2.7158 6.12043C2.69731 6.12917 2.67905 6.13836 2.66102 6.14801C2.64299 6.15767 2.62521 6.16775 2.60768 6.17827C2.59015 6.18877 2.57288 6.19972 2.55586 6.21111C2.53886 6.22245 2.52215 6.23424 2.50573 6.24643C2.4893 6.25861 2.47319 6.27118 2.45738 6.28416C2.44158 6.29714 2.4261 6.3105 2.41095 6.32424C2.39579 6.33797 2.38099 6.35206 2.36653 6.36654C2.35206 6.38098 2.33796 6.39579 2.32423 6.41096C2.3105 6.4261 2.29715 6.44157 2.28417 6.45739C2.27119 6.47318 2.25861 6.48931 2.24642 6.50574C2.23424 6.52214 2.22246 6.53886 2.21109 6.55587C2.19973 6.57286 2.18879 6.59014 2.17827 6.60769C2.16775 6.62522 2.15766 6.64299 2.14801 6.66104C2.13836 6.67906 2.12916 6.69732 2.12041 6.71581C2.11166 6.73428 2.10336 6.75298 2.09553 6.77187C2.08769 6.79076 2.08032 6.80982 2.07342 6.82908C2.06652 6.84832 2.06009 6.86773 2.05414 6.8873C2.04819 6.90685 2.04272 6.92656 2.03774 6.94641C2.03275 6.96624 2.02826 6.98618 2.02425 7.00625C2.02024 7.02629 2.01673 7.04642 2.01371 7.06667C2.01069 7.08687 2.00817 7.10717 2.00615 7.12753C2.00412 7.14788 2.0026 7.16825 2.00157 7.18868C2.00055 7.2091 2.00002 7.22954 2 7.25L2 20.75C2.00002 20.7704 2.00055 20.7909 2.00157 20.8113C2.0026 20.8317 2.00412 20.8521 2.00615 20.8725C2.00817 20.8928 2.01069 20.9131 2.01371 20.9333C2.01673 20.9536 2.02024 20.9737 2.02425 20.9938C2.02826 21.0138 2.03275 21.0337 2.03774 21.0536C2.04272 21.0734 2.04819 21.0931 2.05414 21.1127C2.06009 21.1322 2.06652 21.1517 2.07342 21.1709C2.08032 21.1902 2.08769 21.2092 2.09553 21.2281C2.10336 21.247 2.11166 21.2657 2.12041 21.2842C2.12916 21.3027 2.13836 21.3209 2.14801 21.339C2.15766 21.357 2.16775 21.3748 2.17827 21.3923C2.18879 21.4098 2.19973 21.4271 2.21109 21.4441C2.22246 21.4611 2.23424 21.4778 2.24642 21.4943C2.25861 21.5107 2.27119 21.5268 2.28417 21.5426C2.29715 21.5584 2.3105 21.5739 2.32423 21.589C2.33796 21.6042 2.35206 21.619 2.36653 21.6335C2.38099 21.6479 2.39579 21.662 2.41095 21.6758C2.4261 21.6895 2.44158 21.7028 2.45738 21.7158C2.47319 21.7288 2.4893 21.7414 2.50573 21.7536C2.52215 21.7657 2.53886 21.7775 2.55586 21.7889C2.57288 21.8002 2.59015 21.8112 2.60768 21.8217C2.62521 21.8322 2.64299 21.8423 2.66102 21.852C2.67905 21.8616 2.69731 21.8708 2.7158 21.8796C2.73428 21.8883 2.75297 21.8966 2.77186 21.9045C2.79075 21.9123 2.80982 21.9197 2.82907 21.9266C2.84832 21.9335 2.86774 21.9399 2.88731 21.9459C2.90688 21.9518 2.92657 21.9573 2.9464 21.9623C2.96624 21.9672 2.98619 21.9717 3.00624 21.9757C3.02628 21.9797 3.04642 21.9832 3.06666 21.9863C3.08689 21.9893 3.10718 21.9918 3.12752 21.9938C3.14787 21.9959 3.16826 21.9974 3.1887 21.9984C3.20912 21.9994 3.22955 22 3.25001 22L12 22L20.75 22C20.7704 22 20.7909 21.9994 20.8113 21.9984C20.8317 21.9974 20.8521 21.9959 20.8725 21.9938C20.8928 21.9918 20.9131 21.9893 20.9334 21.9863C20.9536 21.9832 20.9737 21.9797 20.9938 21.9757C21.0138 21.9717 21.0338 21.9672 21.0536 21.9623C21.0734 21.9573 21.0931 21.9518 21.1127 21.9459C21.1323 21.9399 21.1517 21.9335 21.1709 21.9266C21.1902 21.9197 21.2093 21.9123 21.2281 21.9045C21.247 21.8966 21.2657 21.8883 21.2842 21.8796C21.3027 21.8708 21.3209 21.8616 21.339 21.852C21.357 21.8423 21.3748 21.8322 21.3923 21.8217C21.4099 21.8112 21.4271 21.8002 21.4441 21.7889C21.4611 21.7775 21.4779 21.7657 21.4943 21.7536C21.5107 21.7414 21.5268 21.7288 21.5426 21.7158C21.5584 21.7028 21.5739 21.6895 21.5891 21.6758C21.6042 21.662 21.619 21.6479 21.6335 21.6335C21.6479 21.619 21.662 21.6042 21.6758 21.589C21.6895 21.5739 21.7029 21.5584 21.7158 21.5426C21.7288 21.5268 21.7414 21.5107 21.7536 21.4943C21.7658 21.4778 21.7775 21.4611 21.7889 21.4441C21.8003 21.4271 21.8112 21.4098 21.8217 21.3923C21.8322 21.3748 21.8424 21.357 21.852 21.339C21.8616 21.3209 21.8708 21.3027 21.8796 21.2842C21.8883 21.2657 21.8966 21.247 21.9045 21.2281C21.9123 21.2092 21.9197 21.1902 21.9266 21.1709C21.9335 21.1517 21.9399 21.1322 21.9459 21.1127C21.9518 21.0931 21.9573 21.0734 21.9623 21.0536C21.9672 21.0338 21.9718 21.0138 21.9758 20.9938C21.9797 20.9737 21.9833 20.9536 21.9863 20.9333C21.9893 20.9131 21.9918 20.8928 21.9939 20.8725C21.9959 20.8521 21.9974 20.8317 21.9984 20.8113C21.9995 20.7909 22 20.7704 22 20.75L22 7.25C22 7.22954 21.9995 7.2091 21.9984 7.18868C21.9974 7.16825 21.9959 7.14788 21.9939 7.12753C21.9918 7.10717 21.9893 7.08687 21.9863 7.06667C21.9833 7.04642 21.9797 7.02629 21.9758 7.00625C21.9718 6.98618 21.9672 6.96624 21.9623 6.94641C21.9573 6.92656 21.9518 6.90685 21.9459 6.8873C21.9399 6.86773 21.9335 6.84832 21.9266 6.82908C21.9197 6.80982 21.9123 6.79076 21.9045 6.77187C21.8966 6.75298 21.8883 6.73428 21.8796 6.71581C21.8708 6.69732 21.8616 6.67906 21.852 6.66104C21.8423 6.64299 21.8322 6.62522 21.8217 6.60769C21.8112 6.59014 21.8003 6.57286 21.7889 6.55587C21.7775 6.53886 21.7658 6.52214 21.7536 6.50574C21.7414 6.48931 21.7288 6.47318 21.7158 6.45739C21.7029 6.44159 21.6895 6.4261 21.6758 6.41096C21.662 6.39579 21.6479 6.38098 21.6335 6.36654C21.619 6.35206 21.6042 6.33797 21.5891 6.32424C21.5739 6.3105 21.5584 6.29714 21.5426 6.28416C21.5268 6.27118 21.5107 6.25861 21.4943 6.24643C21.4779 6.23424 21.4611 6.22245 21.4441 6.21111C21.4271 6.19972 21.4099 6.18877 21.3923 6.17827C21.3748 6.16775 21.357 6.15767 21.339 6.14801C21.3209 6.13836 21.3027 6.12917 21.2842 6.12043C21.2657 6.11166 21.247 6.10336 21.2281 6.09554C21.2093 6.08768 21.1902 6.0803 21.1709 6.07341C21.1517 6.06652 21.1323 6.0601 21.1127 6.05415C21.0931 6.04819 21.0734 6.04271 21.0536 6.03774C21.0338 6.03275 21.0138 6.02825 20.9938 6.02426C20.9737 6.02023 20.9536 6.01672 20.9334 6.01372C20.9131 6.01069 20.8928 6.00816 20.8725 6.00615C20.8521 6.00413 20.8317 6.00261 20.8113 6.00157C20.7909 6.00054 20.7704 6 20.75 6ZM21 20.75C21 20.7541 20.9999 20.7582 20.9997 20.7623C20.9995 20.7663 20.9992 20.7704 20.9988 20.7745C20.9984 20.7786 20.9979 20.7826 20.9973 20.7867C20.9967 20.7907 20.996 20.7947 20.9952 20.7988C20.9944 20.8028 20.9935 20.8068 20.9925 20.8107C20.9915 20.8147 20.9904 20.8186 20.9893 20.8226C20.9881 20.8265 20.9868 20.8304 20.9854 20.8342C20.984 20.8381 20.9825 20.8419 20.981 20.8457C20.9794 20.8494 20.9777 20.8532 20.976 20.8569C20.9742 20.8606 20.9724 20.8642 20.9705 20.8679C20.9686 20.8714 20.9665 20.875 20.9644 20.8785C20.9623 20.882 20.9601 20.8855 20.9579 20.8889C20.9556 20.8923 20.9532 20.8956 20.9508 20.8989C20.9484 20.9022 20.9458 20.9054 20.9433 20.9086C20.9407 20.9118 20.938 20.9148 20.9352 20.9179C20.9325 20.9209 20.9297 20.9239 20.9268 20.9268C20.9239 20.9297 20.9209 20.9325 20.9179 20.9352C20.9149 20.938 20.9118 20.9406 20.9086 20.9433C20.9054 20.9458 20.9022 20.9484 20.8989 20.9508C20.8956 20.9532 20.8923 20.9556 20.8889 20.9579C20.8855 20.9601 20.882 20.9623 20.8785 20.9644C20.875 20.9665 20.8715 20.9685 20.8678 20.9705C20.8642 20.9724 20.8606 20.9742 20.8569 20.976C20.8532 20.9777 20.8494 20.9794 20.8457 20.981C20.8419 20.9825 20.8381 20.984 20.8342 20.9854C20.8304 20.9868 20.8265 20.988 20.8226 20.9892C20.8186 20.9904 20.8147 20.9915 20.8107 20.9925C20.8068 20.9935 20.8028 20.9944 20.7988 20.9952C20.7947 20.996 20.7907 20.9967 20.7867 20.9973C20.7826 20.9979 20.7786 20.9984 20.7745 20.9988C20.7704 20.9992 20.7664 20.9995 20.7623 20.9997C20.7582 20.9999 20.7541 21 20.75 21L3.25001 21C3.24591 21 3.24182 20.9999 3.23773 20.9997C3.23365 20.9995 3.22957 20.9992 3.22549 20.9988C3.22143 20.9984 3.21738 20.9979 3.21333 20.9973C3.20928 20.9967 3.20525 20.996 3.20124 20.9952C3.19722 20.9944 3.19323 20.9935 3.18926 20.9925C3.18529 20.9915 3.18134 20.9904 3.17742 20.9892C3.17352 20.988 3.16963 20.9868 3.16577 20.9854C3.16193 20.984 3.15812 20.9825 3.15434 20.981C3.15056 20.9794 3.14681 20.9777 3.14311 20.976C3.13941 20.9742 3.13575 20.9724 3.13214 20.9705C3.12855 20.9685 3.12499 20.9665 3.12148 20.9644C3.11796 20.9623 3.11451 20.9601 3.11112 20.9579C3.10771 20.9556 3.10437 20.9532 3.10109 20.9508C3.09779 20.9484 3.09456 20.9458 3.09141 20.9433C3.08824 20.9406 3.08513 20.938 3.0821 20.9352C3.07907 20.9325 3.07611 20.9297 3.07322 20.9268C3.07033 20.9239 3.06751 20.9209 3.06476 20.9179C3.06201 20.9148 3.05934 20.9118 3.05674 20.9086C3.05415 20.9054 3.05163 20.9022 3.0492 20.8989C3.04676 20.8956 3.04441 20.8923 3.04214 20.8889C3.03986 20.8855 3.03767 20.882 3.03558 20.8785C3.03347 20.875 3.03145 20.8714 3.02951 20.8678C3.02759 20.8642 3.02575 20.8606 3.024 20.8569C3.02225 20.8532 3.0206 20.8494 3.01903 20.8457C3.01747 20.8419 3.016 20.8381 3.01463 20.8342C3.01324 20.8304 3.01195 20.8265 3.01076 20.8226C3.00957 20.8186 3.00849 20.8147 3.0075 20.8107C3.0065 20.8068 3.0056 20.8028 3.00481 20.7988C3.00401 20.7947 3.00331 20.7907 3.0027 20.7867C3.0021 20.7826 3.0016 20.7786 3.0012 20.7745C3.0008 20.7704 3.00051 20.7663 3.00031 20.7623C3.0001 20.7582 3 20.7541 3 20.75L3 7.25C3 7.24589 3.0001 7.24182 3.00031 7.23774C3.00051 7.23364 3.0008 7.22956 3.0012 7.2255C3.0016 7.22143 3.0021 7.21735 3.0027 7.21332C3.00331 7.20926 3.00401 7.20523 3.00481 7.20122C3.0056 7.19721 3.0065 7.19323 3.0075 7.18927C3.00849 7.18529 3.00957 7.18135 3.01076 7.17743C3.01195 7.1735 3.01324 7.16963 3.01463 7.16578C3.016 7.16192 3.01747 7.1581 3.01903 7.15432C3.0206 7.15053 3.02225 7.1468 3.024 7.14312C3.02575 7.13942 3.02759 7.13576 3.02953 7.13215C3.03145 7.12854 3.03347 7.12498 3.03558 7.12149C3.03767 7.11797 3.03986 7.1145 3.04214 7.11111C3.04441 7.10771 3.04676 7.10436 3.0492 7.10107C3.05163 7.09779 3.05415 7.09456 3.05674 7.09139C3.05934 7.08823 3.06201 7.08514 3.06476 7.08211C3.06751 7.07907 3.07033 7.07611 3.07322 7.07323C3.07611 7.07032 3.07907 7.06751 3.0821 7.06477C3.08513 7.062 3.08824 7.05933 3.09141 7.05675C3.09456 7.05415 3.09779 7.05164 3.10109 7.04921C3.10437 7.04677 3.10771 7.0444 3.11112 7.04213C3.11451 7.03986 3.11796 7.03768 3.12148 7.03557C3.12499 7.03346 3.12855 7.03144 3.13214 7.02952C3.13575 7.0276 3.13941 7.02575 3.14311 7.02401C3.14681 7.02225 3.15056 7.02059 3.15434 7.01904C3.15812 7.01745 3.16193 7.01597 3.16577 7.01461C3.16963 7.01323 3.17352 7.01194 3.17742 7.01077C3.18134 7.00957 3.18529 7.00847 3.18926 7.00749C3.19323 7.0065 3.19722 7.00561 3.20124 7.00482C3.20525 7.00402 3.20928 7.00332 3.21333 7.00271C3.21738 7.0021 3.22143 7.00161 3.22549 7.00121C3.22957 7.00079 3.23365 7.0005 3.23773 7.00032C3.24182 7.00011 3.24591 7.00001 3.25001 7.00001L20.75 7.00001C20.7541 7.00001 20.7582 7.00011 20.7623 7.00032C20.7664 7.0005 20.7704 7.00079 20.7745 7.00121C20.7786 7.00161 20.7826 7.0021 20.7867 7.00271C20.7907 7.00332 20.7947 7.00402 20.7988 7.00482C20.8028 7.00561 20.8068 7.0065 20.8107 7.00749C20.8147 7.00847 20.8186 7.00957 20.8226 7.01077C20.8265 7.01194 20.8304 7.01323 20.8342 7.01461C20.8381 7.01597 20.8419 7.01745 20.8457 7.01904C20.8494 7.02059 20.8532 7.02225 20.8569 7.02401C20.8606 7.02575 20.8643 7.0276 20.8679 7.02952C20.8715 7.03144 20.875 7.03346 20.8785 7.03557C20.882 7.03768 20.8855 7.03986 20.8889 7.04213C20.8923 7.0444 20.8956 7.04677 20.8989 7.04921C20.9022 7.05164 20.9054 7.05415 20.9086 7.05675C20.9118 7.05933 20.9149 7.062 20.9179 7.06477C20.9209 7.06751 20.9239 7.07032 20.9268 7.07323C20.9297 7.07611 20.9325 7.07907 20.9352 7.08211C20.938 7.08514 20.9407 7.08823 20.9433 7.09139C20.9458 7.09456 20.9484 7.09779 20.9508 7.10107C20.9532 7.10436 20.9556 7.10771 20.9579 7.11111C20.9601 7.1145 20.9623 7.11797 20.9644 7.12149C20.9665 7.12498 20.9686 7.12854 20.9705 7.13215C20.9724 7.13576 20.9742 7.13942 20.976 7.14312C20.9777 7.1468 20.9794 7.15053 20.981 7.15432C20.9825 7.1581 20.984 7.16192 20.9854 7.16578C20.9868 7.16963 20.9881 7.1735 20.9893 7.17743C20.9904 7.18135 20.9915 7.18529 20.9925 7.18927C20.9935 7.19323 20.9944 7.19721 20.9952 7.20122C20.996 7.20523 20.9967 7.20926 20.9973 7.21332C20.9979 7.21735 20.9984 7.22143 20.9988 7.2255C20.9992 7.22956 20.9995 7.23364 20.9997 7.23774C20.9999 7.24182 21 7.24589 21 7.25L21 20.75ZM4.00001 2.50001C4.00001 2.49182 4.0002 2.48364 4.00059 2.47547C4.001 2.4673 4.0016 2.45914 4.0024 2.451C4.00321 2.44284 4.00422 2.43472 4.00542 2.42663C4.00661 2.41853 4.00801 2.41048 4.00962 2.40246C4.01121 2.39443 4.013 2.38645 4.01499 2.37851C4.01697 2.37057 4.01915 2.36269 4.02152 2.35486C4.0239 2.34703 4.02647 2.33926 4.02923 2.33156C4.03198 2.32385 4.03493 2.31622 4.03807 2.30866C4.0412 2.3011 4.04451 2.29362 4.04801 2.28622C4.05151 2.27883 4.05519 2.27152 4.05905 2.2643C4.06291 2.25709 4.06694 2.24997 4.07114 2.24295C4.07534 2.23593 4.07972 2.22902 4.08427 2.22222C4.08881 2.21541 4.09352 2.20872 4.0984 2.20215C4.10327 2.19558 4.10831 2.18913 4.11349 2.1828C4.11868 2.17648 4.12402 2.17028 4.12952 2.16422C4.13503 2.15816 4.14066 2.15223 4.14645 2.14645C4.15223 2.14066 4.15815 2.13502 4.16421 2.12953C4.17027 2.12403 4.17647 2.11869 4.1828 2.1135C4.18913 2.1083 4.19558 2.10327 4.20216 2.0984C4.20872 2.09352 4.21541 2.08881 4.22222 2.08426C4.22902 2.07972 4.23592 2.07534 4.24294 2.07114C4.24997 2.06693 4.25709 2.0629 4.26431 2.05904C4.27152 2.05518 4.27882 2.05151 4.28623 2.04801C4.29362 2.04451 4.30109 2.04119 4.30866 2.03806C4.31622 2.03493 4.32385 2.03199 4.33156 2.02923C4.33926 2.02647 4.34703 2.02391 4.35486 2.02153C4.36269 2.01915 4.37056 2.01697 4.37851 2.01499C4.38643 2.013 4.39442 2.0112 4.40246 2.00961C4.41048 2.00801 4.41854 2.00661 4.42665 2.00541C4.43473 2.00421 4.44284 2.00321 4.451 2.00241C4.45913 2.00161 4.46729 2.001 4.47547 2.0006C4.48362 2.0002 4.4918 2 4.50001 2L19.5 2C19.5082 2 19.5164 2.0002 19.5245 2.0006C19.5327 2.001 19.5409 2.00161 19.549 2.00241C19.5571 2.00321 19.5653 2.00421 19.5734 2.00541C19.5815 2.00661 19.5895 2.00801 19.5976 2.00961C19.6056 2.0112 19.6136 2.013 19.6215 2.01499C19.6294 2.01697 19.6373 2.01915 19.6452 2.02153C19.653 2.02391 19.6607 2.02647 19.6685 2.02923C19.6761 2.03199 19.6838 2.03493 19.6914 2.03806C19.6989 2.04119 19.7064 2.04451 19.7138 2.04801C19.7212 2.05151 19.7285 2.05518 19.7357 2.05904C19.7429 2.0629 19.75 2.06693 19.757 2.07114C19.7641 2.07534 19.771 2.07972 19.7778 2.08426C19.7846 2.08881 19.7913 2.09352 19.7979 2.0984C19.8044 2.10327 19.8109 2.1083 19.8172 2.1135C19.8235 2.11869 19.8297 2.12403 19.8358 2.12953C19.8418 2.13502 19.8478 2.14066 19.8536 2.14645C19.8593 2.15223 19.865 2.15816 19.8705 2.16422C19.876 2.17028 19.8813 2.17648 19.8865 2.1828C19.8917 2.18913 19.8967 2.19558 19.9016 2.20215C19.9065 2.20872 19.9112 2.21541 19.9157 2.22222C19.9203 2.22902 19.9246 2.23593 19.9289 2.24295C19.9331 2.24997 19.9371 2.25709 19.941 2.2643C19.9448 2.27152 19.9485 2.27883 19.952 2.28622C19.9555 2.29362 19.9588 2.3011 19.9619 2.30866C19.9651 2.31622 19.968 2.32385 19.9708 2.33156C19.9735 2.33926 19.9761 2.34703 19.9785 2.35486C19.9809 2.36269 19.983 2.37057 19.985 2.37851C19.987 2.38645 19.9888 2.39443 19.9904 2.40246C19.992 2.41048 19.9934 2.41853 19.9946 2.42663C19.9958 2.43472 19.9968 2.44284 19.9976 2.451C19.9984 2.45914 19.999 2.4673 19.9994 2.47547C19.9998 2.48364 20 2.49182 20 2.50001C20 2.50818 19.9998 2.51635 19.9994 2.52452C19.999 2.53271 19.9984 2.54088 19.9976 2.54902C19.9968 2.55716 19.9958 2.56527 19.9946 2.57337C19.9934 2.58146 19.992 2.58952 19.9904 2.59755C19.9888 2.60557 19.987 2.61355 19.985 2.62148C19.983 2.62942 19.9809 2.63731 19.9785 2.64513C19.9761 2.65298 19.9735 2.66075 19.9708 2.66845C19.968 2.67616 19.9651 2.68379 19.9619 2.69135C19.9588 2.6989 19.9555 2.70638 19.952 2.71378C19.9485 2.72117 19.9448 2.72848 19.941 2.7357C19.9371 2.74291 19.9331 2.75003 19.9289 2.75705C19.9246 2.76406 19.9203 2.77098 19.9157 2.77779C19.9112 2.78459 19.9065 2.79127 19.9016 2.79785C19.8967 2.80443 19.8917 2.81088 19.8865 2.81719C19.8813 2.82352 19.876 2.82971 19.8705 2.83577C19.865 2.84184 19.8593 2.84777 19.8536 2.85356C19.8478 2.85934 19.8418 2.86498 19.8358 2.87048C19.8297 2.87597 19.8235 2.88131 19.8172 2.88652C19.8109 2.8917 19.8044 2.89673 19.7979 2.90161C19.7913 2.90648 19.7846 2.9112 19.7778 2.91574C19.771 2.92029 19.7641 2.92466 19.7571 2.92887C19.75 2.93307 19.7429 2.9371 19.7357 2.94096C19.7285 2.94482 19.7212 2.9485 19.7138 2.952C19.7064 2.9555 19.6989 2.95881 19.6914 2.96194C19.6838 2.96506 19.6761 2.96801 19.6685 2.97077C19.6607 2.97352 19.653 2.97609 19.6452 2.97846C19.6373 2.98084 19.6294 2.98302 19.6215 2.98502C19.6136 2.98701 19.6056 2.9888 19.5976 2.99039C19.5895 2.99198 19.5815 2.99338 19.5734 2.99459C19.5653 2.99579 19.5571 2.99679 19.549 2.99759C19.5409 2.9984 19.5327 2.999 19.5245 2.99939C19.5164 2.9998 19.5082 3 19.5 3L4.50001 3C4.4918 3 4.48362 2.9998 4.47547 2.99939C4.46729 2.999 4.45913 2.9984 4.451 2.99759C4.44284 2.99679 4.43473 2.99579 4.42665 2.99459C4.41854 2.99338 4.41048 2.99198 4.40246 2.99039C4.39442 2.9888 4.38643 2.98701 4.37851 2.98502C4.37056 2.98302 4.36269 2.98084 4.35486 2.97846C4.34703 2.97609 4.33926 2.97352 4.33156 2.97077C4.32385 2.96801 4.31622 2.96506 4.30866 2.96194C4.30109 2.95881 4.29362 2.9555 4.28623 2.952C4.27882 2.9485 4.27152 2.94482 4.26431 2.94096C4.25709 2.9371 4.24997 2.93307 4.24294 2.92887C4.23592 2.92466 4.22902 2.92029 4.22222 2.91574C4.21541 2.9112 4.20872 2.90648 4.20216 2.90161C4.19558 2.89673 4.18913 2.8917 4.1828 2.88652C4.17647 2.88131 4.17027 2.87597 4.16421 2.87048C4.15815 2.86498 4.15223 2.85934 4.14645 2.85356C4.14066 2.84777 4.13503 2.84184 4.12952 2.83577C4.12402 2.82971 4.11868 2.82352 4.11349 2.81719C4.10831 2.81088 4.10327 2.80443 4.0984 2.79785C4.09352 2.79127 4.08881 2.78459 4.08427 2.77779C4.07972 2.77098 4.07534 2.76406 4.07114 2.75705C4.06694 2.75003 4.06291 2.74291 4.05905 2.7357C4.05519 2.72848 4.05151 2.72117 4.04801 2.71378C4.04451 2.70638 4.0412 2.6989 4.03807 2.69135C4.03493 2.68379 4.03198 2.67616 4.02923 2.66845C4.02647 2.66075 4.0239 2.65298 4.02152 2.64513C4.01915 2.63731 4.01697 2.62942 4.01499 2.62148C4.013 2.61355 4.01121 2.60557 4.00962 2.59755C4.00801 2.58952 4.00661 2.58146 4.00542 2.57337C4.00422 2.56527 4.00321 2.55716 4.0024 2.54902C4.0016 2.54088 4.001 2.53271 4.00059 2.52452C4.0002 2.51635 4.00001 2.50818 4.00001 2.50001ZM3 4.50001C3 4.4918 3.0002 4.48362 3.00061 4.47547C3.001 4.46729 3.0016 4.45913 3.00241 4.451C3.00321 4.44284 3.00421 4.43473 3.00541 4.42665C3.00662 4.41854 3.00802 4.41047 3.00961 4.40246C3.0112 4.39442 3.01299 4.38643 3.01498 4.37851C3.01698 4.37056 3.01917 4.36269 3.02154 4.35486C3.02391 4.34703 3.02648 4.33926 3.02923 4.33155C3.03198 4.32385 3.03492 4.31622 3.03806 4.30866C3.04119 4.30109 3.0445 4.29362 3.048 4.28623C3.0515 4.27882 3.05518 4.27151 3.05904 4.26431C3.0629 4.25709 3.06693 4.24997 3.07113 4.24294C3.07534 4.23592 3.07971 4.22901 3.08426 4.22222C3.08881 4.2154 3.09352 4.20872 3.09839 4.20216C3.10327 4.19558 3.1083 4.18912 3.11349 4.1828C3.11869 4.17647 3.12403 4.17027 3.12952 4.16421C3.13502 4.15815 3.14066 4.15223 3.14644 4.14644C3.15223 4.14066 3.15816 4.13502 3.16423 4.12952C3.17029 4.12402 3.17649 4.11868 3.18281 4.11349C3.18913 4.1083 3.19557 4.10327 3.20215 4.0984C3.20873 4.09352 3.21541 4.08881 3.22221 4.08426C3.22902 4.07972 3.23594 4.07534 3.24295 4.07114C3.24997 4.06694 3.25709 4.06291 3.26431 4.05905C3.27152 4.05519 3.27883 4.05151 3.28622 4.04801C3.29363 4.04451 3.3011 4.04119 3.30865 4.03807C3.31621 4.03493 3.32384 4.03198 3.33155 4.02923C3.33925 4.02647 3.34702 4.0239 3.35487 4.02152C3.3627 4.01915 3.37058 4.01697 3.37852 4.01498C3.38645 4.013 3.39443 4.01121 3.40245 4.00962C3.41048 4.00801 3.41854 4.00661 3.42663 4.00542C3.43473 4.00422 3.44285 4.00321 3.45098 4.0024C3.45913 4.0016 3.46729 4.001 3.47548 4.00059C3.48365 4.0002 3.49182 4.00001 3.49999 4.00001L20.5 4.00001C20.5082 4.00001 20.5164 4.0002 20.5245 4.00059C20.5327 4.001 20.5409 4.0016 20.549 4.0024C20.5572 4.00321 20.5653 4.00422 20.5734 4.00542C20.5815 4.00661 20.5895 4.00801 20.5975 4.00962C20.6056 4.01121 20.6135 4.013 20.6215 4.01498C20.6294 4.01697 20.6373 4.01915 20.6451 4.02152C20.653 4.0239 20.6607 4.02647 20.6685 4.02923C20.6761 4.03198 20.6838 4.03493 20.6913 4.03807C20.6989 4.04119 20.7064 4.04451 20.7138 4.04801C20.7212 4.05151 20.7285 4.05519 20.7357 4.05905C20.7429 4.06291 20.75 4.06694 20.7571 4.07114C20.7641 4.07534 20.771 4.07972 20.7778 4.08426C20.7846 4.08881 20.7913 4.09352 20.7979 4.0984C20.8044 4.10327 20.8109 4.1083 20.8172 4.11349C20.8235 4.11868 20.8297 4.12402 20.8358 4.12952C20.8418 4.13502 20.8478 4.14066 20.8536 4.14644C20.8593 4.15223 20.865 4.15815 20.8705 4.16421C20.876 4.17027 20.8813 4.17647 20.8865 4.1828C20.8917 4.18912 20.8967 4.19558 20.9016 4.20216C20.9065 4.20872 20.9112 4.2154 20.9158 4.22222C20.9203 4.22901 20.9247 4.23592 20.9289 4.24294C20.9331 4.24997 20.9371 4.25709 20.941 4.26431C20.9448 4.27151 20.9485 4.27882 20.952 4.28623C20.9555 4.29362 20.9588 4.30109 20.9619 4.30866C20.9651 4.31622 20.968 4.32385 20.9708 4.33155C20.9735 4.33926 20.9761 4.34703 20.9785 4.35486C20.9808 4.36269 20.983 4.37056 20.985 4.37851C20.987 4.38643 20.9888 4.39442 20.9904 4.40246C20.992 4.41047 20.9934 4.41854 20.9946 4.42665C20.9958 4.43473 20.9968 4.44284 20.9976 4.451C20.9984 4.45913 20.999 4.46729 20.9994 4.47547C20.9998 4.48362 21 4.4918 21 4.50001C21 4.50819 20.9998 4.51637 20.9994 4.52454C20.999 4.5327 20.9984 4.54086 20.9976 4.54901C20.9968 4.55715 20.9958 4.56526 20.9946 4.57337C20.9934 4.58145 20.992 4.58951 20.9904 4.59755C20.9888 4.60557 20.987 4.61356 20.985 4.62151C20.983 4.62943 20.9808 4.63733 20.9785 4.64515C20.9761 4.65298 20.9735 4.66074 20.9708 4.66845C20.968 4.67614 20.9651 4.68378 20.9619 4.69135C20.9588 4.6989 20.9555 4.70637 20.952 4.71378C20.9485 4.72119 20.9448 4.72847 20.941 4.73569C20.9371 4.74291 20.9331 4.75001 20.9289 4.75704C20.9247 4.76408 20.9203 4.77099 20.9158 4.77779C20.9112 4.78458 20.9065 4.79129 20.9016 4.79785C20.8967 4.80441 20.8917 4.81088 20.8865 4.81721C20.8813 4.82354 20.876 4.82972 20.8705 4.83579C20.865 4.84184 20.8593 4.84777 20.8536 4.85356C20.8478 4.85933 20.8418 4.86497 20.8358 4.87048C20.8297 4.87597 20.8235 4.88131 20.8172 4.88651C20.8109 4.89169 20.8044 4.89673 20.7979 4.90161C20.7913 4.90648 20.7846 4.91119 20.7778 4.91574C20.771 4.92029 20.7641 4.92465 20.7571 4.92886C20.75 4.93306 20.7429 4.93709 20.7357 4.94096C20.7285 4.9448 20.7212 4.94848 20.7138 4.952C20.7064 4.95549 20.6989 4.95879 20.6913 4.96194C20.6838 4.96508 20.6761 4.96801 20.6684 4.97077C20.6607 4.97354 20.653 4.97609 20.6451 4.97848C20.6373 4.98085 20.6294 4.98303 20.6215 4.98502C20.6135 4.98699 20.6056 4.98879 20.5975 4.99039C20.5895 4.99198 20.5815 4.99339 20.5734 4.99458C20.5653 4.99578 20.5572 4.99679 20.549 4.99761C20.5409 4.9984 20.5327 4.99899 20.5245 4.99941C20.5164 4.99979 20.5082 5 20.5 5L3.49999 5C3.49182 5 3.48365 4.99979 3.47548 4.99941C3.46729 4.99899 3.45913 4.9984 3.45098 4.99761C3.44285 4.99679 3.43473 4.99578 3.42663 4.99458C3.41854 4.99339 3.41048 4.99198 3.40245 4.99039C3.39443 4.98879 3.38645 4.98699 3.37852 4.98502C3.37058 4.98303 3.3627 4.98085 3.35487 4.97848C3.34702 4.97609 3.33925 4.97354 3.33155 4.97077C3.32384 4.96801 3.31621 4.96508 3.30865 4.96194C3.3011 4.95879 3.29363 4.95549 3.28622 4.952C3.27883 4.94848 3.27152 4.9448 3.26431 4.94096C3.25709 4.93709 3.24997 4.93306 3.24295 4.92886C3.23594 4.92465 3.22902 4.92029 3.22221 4.91574C3.21541 4.91119 3.20873 4.90648 3.20215 4.90161C3.19557 4.89673 3.18913 4.89169 3.18281 4.88651C3.17649 4.88131 3.17029 4.87597 3.16423 4.87048C3.15816 4.86497 3.15223 4.85933 3.14644 4.85356C3.14066 4.84777 3.13502 4.84184 3.12952 4.83579C3.12403 4.82972 3.11869 4.82354 3.11349 4.81721C3.1083 4.81088 3.10327 4.80441 3.09839 4.79785C3.09352 4.79129 3.08881 4.78458 3.08426 4.77779C3.07971 4.77099 3.07534 4.76408 3.07113 4.75707C3.06693 4.75004 3.0629 4.74291 3.05904 4.73569C3.05518 4.72847 3.0515 4.72119 3.048 4.71378C3.0445 4.70637 3.04119 4.6989 3.03806 4.69135C3.03492 4.68378 3.03198 4.67614 3.02923 4.66845C3.02648 4.66074 3.02391 4.65298 3.02154 4.64515C3.01917 4.63733 3.01698 4.62943 3.01498 4.62151C3.01299 4.61356 3.0112 4.60557 3.00961 4.59755C3.00802 4.58951 3.00662 4.58145 3.00541 4.57337C3.00421 4.56526 3.00321 4.55715 3.00241 4.54901C3.0016 4.54086 3.001 4.5327 3.00061 4.52454C3.0002 4.51637 3 4.50819 3 4.50001Z">
  </path>
  <path
    d="M16.2577 10.8612L14.3785 14.1875C14.3653 14.2237 14.351 14.2594 14.3357 14.2948C14.3204 14.3301 14.304 14.365 14.2867 14.3994C14.2694 14.4338 14.2511 14.4677 14.2318 14.501C14.2125 14.5344 14.1923 14.5671 14.1711 14.5993C14.1499 14.6315 14.1278 14.663 14.1048 14.6939C14.0818 14.7248 14.058 14.755 14.0332 14.7846C14.0085 14.8141 13.9829 14.8429 13.9565 14.8709C13.9301 14.899 13.9029 14.9262 13.8749 14.9527C13.8469 14.9792 13.8182 15.0048 13.7887 15.0296C13.7593 15.0544 13.7291 15.0784 13.6983 15.1015C13.6674 15.1245 13.6359 15.1467 13.6038 15.1679C13.5717 15.1892 13.539 15.2095 13.5057 15.2288C13.4724 15.2482 13.4385 15.2666 13.4042 15.284C13.3698 15.3014 13.335 15.3178 13.2996 15.3332C13.2643 15.3486 13.2286 15.363 13.1925 15.3763C13.1563 15.3896 13.1198 15.4019 13.083 15.4131C13.0461 15.4243 13.009 15.4345 12.9715 15.4435C12.9341 15.4526 12.8964 15.4606 12.8585 15.4675C12.8206 15.4744 12.7826 15.4802 12.7443 15.4849C12.7061 15.4896 12.6678 15.4932 12.6293 15.4957C12.5909 15.4981 12.5524 15.4995 12.5139 15.4998C12.4754 15.5 12.4369 15.4992 12.3984 15.4972C12.3599 15.4952 12.3215 15.4922 12.2832 15.488C12.245 15.4838 12.2068 15.4785 12.1688 15.4721C12.1308 15.4657 12.0931 15.4583 12.0555 15.4497C12.018 15.4411 11.9807 15.4315 11.9437 15.4207C11.9067 15.41 11.87 15.3983 11.8337 15.3854C11.7974 15.3726 11.7615 15.3587 11.726 15.3438C11.6905 15.3288 11.6554 15.3129 11.6208 15.296C11.5862 15.279 11.5521 15.2611 11.5186 15.2422C11.485 15.2233 11.452 15.2034 11.4196 15.1826C11.3872 15.1618 11.3554 15.14 11.3243 15.1174C11.2931 15.0947 11.2626 15.0712 11.2328 15.0468C11.203 15.0224 11.174 14.9971 11.1456 14.971C11.1173 14.9449 11.0898 14.918 11.063 14.8904C11.0362 14.8627 11.0102 14.8342 10.9851 14.805C10.9599 14.7759 10.9357 14.746 10.9123 14.7154C10.8888 14.6848 10.8663 14.6536 10.8447 14.6217C10.8231 14.5898 10.8025 14.5573 10.7827 14.5242C10.763 14.4911 10.7442 14.4575 10.7264 14.4233C10.7087 14.3892 10.6919 14.3545 10.6761 14.3194C10.6603 14.2842 10.6455 14.2487 10.6318 14.2127C10.6181 14.1767 10.6054 14.1403 10.5938 14.1036C10.5821 14.0669 10.5716 14.0298 10.5621 13.9925C10.5526 13.9552 10.5442 13.9176 10.5369 13.8798C10.5296 13.842 10.5233 13.804 10.5182 13.7658C10.5131 13.7276 10.5091 13.6893 10.5062 13.6509C10.5033 13.6125 10.5015 13.574 10.5008 13.5355C10.5001 13.497 10.5005 13.4585 10.502 13.42C10.5036 13.3815 10.5062 13.3431 10.51 13.3048C10.5138 13.2664 10.5186 13.2282 10.5246 13.1902C10.5305 13.1521 10.5376 13.1143 10.5457 13.0766C10.5539 13.039 10.5631 13.0016 10.5734 12.9645C10.5837 12.9274 10.5951 12.8906 10.6075 12.8541C10.62 12.8177 10.6335 12.7816 10.648 12.7459C10.6625 12.7102 10.678 12.675 10.6946 12.6402C10.7112 12.6054 10.7287 12.5712 10.7472 12.5374C10.7658 12.5036 10.7853 12.4704 10.8057 12.4378C10.8262 12.4051 10.8476 12.3731 10.8699 12.3417C10.8922 12.3103 10.9154 12.2796 10.9394 12.2495C10.9635 12.2194 10.9885 12.1901 11.0142 12.1615C11.04 12.1328 11.0666 12.105 11.094 12.0779C11.1214 12.0508 11.1495 12.0245 11.1784 11.9991C11.2073 11.9736 11.2369 11.949 11.2673 11.9253C11.2976 11.9015 11.3286 11.8786 11.3602 11.8567C11.3919 11.8347 11.4241 11.8137 11.457 11.7936C11.4898 11.7735 11.5233 11.7544 11.5572 11.7362C11.5912 11.718 11.6257 11.7008 11.6606 11.6847C11.6956 11.6685 11.731 11.6534 11.7668 11.6392C11.8027 11.6251 11.8389 11.612 11.8755 11.6C11.912 11.5879 11.949 11.577 11.9862 11.5671C12.0234 11.5572 12.0609 11.5483 12.0986 11.5406C12.1364 11.5329 12.1743 11.5262 12.2124 11.5207C12.2505 11.5151 12.2888 11.5107 12.3272 11.5073C12.3655 11.504 12.404 11.5018 12.4425 11.5007C12.481 11.4995 12.5195 11.4995 12.558 11.5006C12.5965 11.5017 12.6349 11.504 12.6733 11.5073C12.7117 11.5106 12.7499 11.515 12.788 11.5206C12.8262 11.5261 12.8641 11.5328 12.9018 11.5405C12.9396 11.5482 12.9771 11.557 13.0143 11.5669C13.0515 11.5768 13.0884 11.5878 13.125 11.5998C13.1616 11.6119 13.1978 11.6249 13.2337 11.6391C13.2695 11.6532 13.3049 11.6683 13.3399 11.6845C13.3748 11.7007 13.4093 11.7178 13.4433 11.736C13.4773 11.7541 13.5107 11.7733 13.5435 11.7934C13.5764 11.8135 13.6087 11.8345 13.6403 11.8564C13.672 11.8784 13.703 11.9012 13.7333 11.925C13.7636 11.9487 13.7933 11.9733 13.8222 11.9988C13.8511 12.0242 13.8792 12.0505 13.9066 12.0776C13.934 12.1047 13.9606 12.1325 13.9864 12.1611C14.0122 12.1898 14.0371 12.2191 14.0612 12.2492C14.0853 12.2792 14.1085 12.31 14.1308 12.3413C14.1531 12.3727 14.1745 12.4048 14.1949 12.4374C14.2154 12.47 14.2349 12.5032 14.2535 12.537C14.272 12.5708 14.2895 12.605 14.3061 12.6398C14.3227 12.6746 14.3382 12.7098 14.3527 12.7455L15.7712 10.2353C15.7443 10.206 15.717 10.1772 15.6893 10.1487C15.6616 10.1202 15.6336 10.092 15.6052 10.0642C15.5767 10.0365 15.548 10.0091 15.5188 9.98203C15.4897 9.955 15.4602 9.92834 15.4304 9.90208C15.4006 9.8758 15.3705 9.84991 15.34 9.82442C15.3095 9.79892 15.2787 9.77383 15.2476 9.74912C15.2165 9.72442 15.185 9.70014 15.1532 9.67625C15.1215 9.65236 15.0894 9.62889 15.0571 9.60584C15.0247 9.58278 14.992 9.56015 14.9591 9.53794C14.9261 9.51572 14.8929 9.49393 14.8594 9.47258C14.8259 9.45122 14.7921 9.43031 14.7581 9.40983C14.724 9.38935 14.6897 9.36931 14.6551 9.34972C14.6205 9.33012 14.5857 9.31098 14.5507 9.29228C14.5156 9.27359 14.4803 9.25536 14.4448 9.23758C14.4092 9.2198 14.3735 9.20247 14.3375 9.18561C14.3015 9.16875 14.2653 9.15236 14.2289 9.13644C14.1925 9.12052 14.1559 9.10507 14.1191 9.09009C14.0823 9.07511 14.0453 9.06062 14.0081 9.04661C13.9709 9.03259 13.9335 9.01905 13.896 9.00598C13.8585 8.99293 13.8208 8.98037 13.7829 8.9683C13.7451 8.95621 13.7071 8.94462 13.6689 8.93352C13.6308 8.92242 13.5925 8.91182 13.554 8.90172C13.5156 8.8916 13.477 8.882 13.4384 8.87289C13.3997 8.86378 13.3609 8.85516 13.322 8.84705C13.2831 8.83894 13.2441 8.83134 13.205 8.82423C13.1659 8.81714 13.1267 8.81055 13.0874 8.80445C13.0482 8.79837 13.0088 8.79279 12.9694 8.78772C12.93 8.78265 12.8905 8.77808 12.851 8.77403C12.8115 8.76998 12.7719 8.76644 12.7323 8.76341C12.6927 8.76039 12.653 8.75787 12.6133 8.75586C12.5736 8.75386 12.5339 8.75237 12.4942 8.75139C12.4545 8.75041 12.4147 8.74995 12.375 8.75C9.8205 8.75 7.75 10.8205 7.75 13.375C7.75 15.9295 9.8205 18 12.375 18C14.9292 18 17 15.9292 17 13.375C17 12.448 16.7275 11.585 16.2577 10.8612ZM13.6292 14.0367L13.625 14.0345L13.6508 13.989C13.6613 13.964 13.671 13.9388 13.68 13.9132C13.6889 13.8876 13.6969 13.8617 13.7042 13.8356C13.7114 13.8095 13.7178 13.7832 13.7233 13.7567C13.7288 13.7301 13.7334 13.7034 13.7372 13.6766C13.741 13.6498 13.7439 13.6228 13.746 13.5958C13.748 13.5688 13.7491 13.5417 13.7494 13.5147C13.7497 13.4875 13.7491 13.4605 13.7476 13.4334C13.7461 13.4064 13.7437 13.3794 13.7405 13.3525C13.7372 13.3256 13.7331 13.2988 13.7281 13.2722C13.7231 13.2455 13.7173 13.2191 13.7106 13.1928C13.7039 13.1666 13.6963 13.1406 13.6879 13.1148C13.6795 13.089 13.6703 13.0636 13.6603 13.0384C13.6502 13.0133 13.6394 12.9884 13.6277 12.964C13.616 12.9395 13.6036 12.9155 13.5903 12.8918C13.5771 12.8682 13.5631 12.845 13.5484 12.8223C13.5337 12.7995 13.5182 12.7773 13.502 12.7555C13.4858 12.7338 13.4689 12.7126 13.4514 12.692C13.4338 12.6713 13.4156 12.6513 13.3967 12.6319C13.3779 12.6124 13.3584 12.5936 13.3383 12.5754C13.3182 12.5572 13.2976 12.5397 13.2763 12.5229C13.2551 12.506 13.2333 12.4899 13.2111 12.4745C13.1888 12.459 13.166 12.4444 13.1428 12.4304C13.1196 12.4165 13.0959 12.4033 13.0718 12.3909C13.0477 12.3785 13.0233 12.3669 12.9984 12.356C12.9736 12.3452 12.9484 12.3352 12.9229 12.326C12.8974 12.3169 12.8716 12.3085 12.8456 12.301C12.8196 12.2935 12.7933 12.2869 12.7668 12.2811C12.7404 12.2753 12.7137 12.2703 12.6869 12.2663C12.6601 12.2622 12.6333 12.259 12.6063 12.2567C12.5793 12.2544 12.5522 12.253 12.5251 12.2524C12.498 12.2518 12.471 12.2522 12.4439 12.2534C12.4168 12.2546 12.3898 12.2567 12.3629 12.2596C12.3359 12.2626 12.3091 12.2664 12.2824 12.2711C12.2558 12.2758 12.2292 12.2814 12.2029 12.2878C12.1766 12.2943 12.1505 12.3015 12.1247 12.3097C12.0988 12.3178 12.0732 12.3267 12.048 12.3365C12.0227 12.3463 11.9978 12.3569 11.9732 12.3683C11.9486 12.3797 11.9245 12.3919 11.9007 12.4049C11.8769 12.4179 11.8535 12.4316 11.8306 12.4461C11.8078 12.4606 11.7853 12.4758 11.7635 12.4918C11.7415 12.5077 11.7202 12.5244 11.6994 12.5417C11.6785 12.5591 11.6583 12.5771 11.6387 12.5957C11.619 12.6144 11.6 12.6337 11.5816 12.6536C11.5632 12.6735 11.5455 12.694 11.5284 12.715C11.5113 12.7361 11.495 12.7577 11.4793 12.7798C11.4637 12.8019 11.4487 12.8245 11.4345 12.8476C11.4204 12.8706 11.4069 12.8942 11.3943 12.9181C11.3816 12.9421 11.3698 12.9664 11.3587 12.9912C11.3476 13.0159 11.3373 13.041 11.3279 13.0664C11.3184 13.0918 11.3098 13.1174 11.302 13.1434C11.2943 13.1693 11.2873 13.1955 11.2813 13.2219C11.2752 13.2483 11.27 13.2749 11.2656 13.3017C11.2613 13.3284 11.2578 13.3553 11.2552 13.3822C11.2526 13.4092 11.2509 13.4363 11.2501 13.4633C11.2492 13.4904 11.2493 13.5175 11.2502 13.5446C11.2511 13.5717 11.2529 13.5987 11.2556 13.6257C11.2583 13.6526 11.2618 13.6795 11.2662 13.7062C11.2707 13.7329 11.276 13.7595 11.2821 13.7859C11.2882 13.8123 11.2952 13.8384 11.3031 13.8644C11.311 13.8903 11.3196 13.916 11.3292 13.9413C11.3387 13.9667 11.349 13.9917 11.3602 14.0164C11.3713 14.0411 11.3833 14.0654 11.396 14.0894C11.4087 14.1133 11.4222 14.1368 11.4365 14.1598C11.4507 14.1829 11.4657 14.2054 11.4814 14.2275C11.4972 14.2495 11.5136 14.2711 11.5307 14.2921C11.5478 14.3131 11.5656 14.3335 11.5841 14.3534C11.6025 14.3732 11.6216 14.3924 11.6413 14.411C11.661 14.4296 11.6813 14.4476 11.7022 14.4649C11.723 14.4821 11.7444 14.4987 11.7664 14.5146C11.7883 14.5305 11.8108 14.5457 11.8337 14.5601C11.8567 14.5745 11.88 14.5882 11.9039 14.6011C11.9277 14.614 11.9519 14.6262 11.9765 14.6375C12.0011 14.6488 12.0261 14.6594 12.0514 14.6691C12.0767 14.6788 12.1023 14.6877 12.1281 14.6957C12.154 14.7038 12.1801 14.711 12.2065 14.7173C12.2328 14.7237 12.2593 14.7292 12.286 14.7338C12.3127 14.7384 12.3395 14.7422 12.3665 14.745C12.3934 14.7479 12.4204 14.7499 12.4475 14.7511C12.4746 14.7522 12.5017 14.7524 12.5288 14.7518C12.5559 14.7512 12.5829 14.7496 12.6099 14.7472C12.6369 14.7449 12.6638 14.7416 12.6905 14.7375C12.7173 14.7333 12.7439 14.7283 12.7704 14.7224C12.7968 14.7165 12.8231 14.7098 12.8491 14.7022C12.8751 14.6947 12.9009 14.6863 12.9263 14.677C12.9518 14.6677 12.9769 14.6577 13.0017 14.6468C13.0266 14.6359 13.051 14.6242 13.075 14.6117C13.0991 14.5992 13.1227 14.586 13.1459 14.572C13.1691 14.558 13.1918 14.5432 13.2141 14.5277C13.2363 14.5122 13.258 14.496 13.2792 14.4791C13.3004 14.4622 13.321 14.4447 13.341 14.4264C13.361 14.4082 13.3805 14.3893 13.3993 14.3698C13.4181 14.3503 13.4362 14.3302 13.4537 14.3095C13.4712 14.2888 13.488 14.2676 13.5042 14.2458C13.5203 14.224 13.5357 14.2017 13.5504 14.179C13.565 14.1562 13.579 14.133 13.5921 14.1093C13.6053 14.0856 13.6177 14.0615 13.6292 14.037L13.6292 14.0367ZM17.75 13.375C17.75 16.3435 15.3435 18.75 12.375 18.75C9.4065 18.75 7 16.3435 7 13.375C7 10.4065 9.4065 8 12.375 8C15.3435 8 17.75 10.4065 17.75 13.375Z">
  </path>
</svg>