<svg width="24" height="24" viewBox="0 0 24 24" >
  <path fill-rule="evenodd"
    d="M3.79488 2C3.7655 2 3.73615 2.00072 3.7068 2.00216C3.67746 2.0036 3.64817 2.00576 3.61894 2.00864C3.58971 2.01152 3.56057 2.01512 3.53151 2.01943C3.50246 2.02374 3.47353 2.02876 3.44471 2.03449C3.4159 2.04022 3.38724 2.04665 3.35875 2.05379C3.33026 2.06093 3.30195 2.06876 3.27385 2.07729C3.24574 2.08581 3.21785 2.09503 3.19019 2.10493C3.16253 2.11482 3.13514 2.12538 3.108 2.13663C3.08087 2.14787 3.05403 2.15977 3.02748 2.17233C3.00092 2.18488 2.97469 2.19808 2.94877 2.21195C2.92288 2.22579 2.89732 2.24026 2.87212 2.25536C2.84692 2.27046 2.82212 2.28617 2.79769 2.3025C2.77327 2.31881 2.74926 2.33572 2.72567 2.35322C2.70208 2.37072 2.67894 2.38879 2.65623 2.40743C2.63352 2.42605 2.61128 2.44522 2.58952 2.46495C2.56774 2.48468 2.54647 2.50493 2.5257 2.5257C2.50493 2.54647 2.48468 2.56774 2.46495 2.58952C2.44522 2.61128 2.42605 2.63352 2.40743 2.65623C2.38879 2.67894 2.37072 2.70208 2.35322 2.72567C2.33572 2.74926 2.31881 2.77327 2.3025 2.79769C2.28617 2.82212 2.27046 2.84692 2.25536 2.87212C2.24026 2.89732 2.22579 2.92288 2.21195 2.94877C2.19808 2.97469 2.18488 3.00092 2.17233 3.02748C2.15977 3.05403 2.14787 3.08087 2.13663 3.108C2.12538 3.13514 2.11482 3.16253 2.10493 3.19019C2.09503 3.21785 2.08581 3.24574 2.07729 3.27385C2.06876 3.30195 2.06093 3.33026 2.05379 3.35875C2.04665 3.38724 2.04022 3.4159 2.03449 3.44471C2.02876 3.47353 2.02374 3.50246 2.01943 3.53151C2.01512 3.56057 2.01152 3.58971 2.00864 3.61894C2.00576 3.64817 2.0036 3.67746 2.00216 3.7068C2.00072 3.73615 2 3.7655 2 3.79488L2 8.41026L3.53846 8.41026L3.53846 3.79488C3.53846 3.79068 3.53856 3.78648 3.53877 3.78228C3.53898 3.7781 3.53929 3.77392 3.53969 3.76974C3.5401 3.76557 3.54062 3.76141 3.54123 3.75726C3.54185 3.75311 3.54257 3.74897 3.54339 3.74486C3.54421 3.74074 3.54513 3.73664 3.54615 3.73257C3.54716 3.7285 3.54828 3.72445 3.5495 3.72043C3.55071 3.71643 3.55204 3.71244 3.55346 3.70849C3.55487 3.70454 3.55638 3.70063 3.55798 3.69675C3.55958 3.69288 3.56128 3.68904 3.56308 3.68524C3.56487 3.68144 3.56676 3.67769 3.56875 3.67399C3.57072 3.67031 3.57279 3.66666 3.57495 3.66305C3.5771 3.65945 3.57934 3.65591 3.58168 3.65243C3.58401 3.64894 3.58642 3.6455 3.58892 3.64214C3.59142 3.63876 3.594 3.63545 3.59666 3.63221C3.59932 3.62896 3.60206 3.62578 3.60488 3.62267C3.6077 3.61956 3.61059 3.61652 3.61356 3.61356C3.61652 3.61059 3.61956 3.6077 3.62267 3.60488C3.62578 3.60206 3.62896 3.59932 3.63221 3.59666C3.63545 3.594 3.63876 3.59142 3.64214 3.58892C3.6455 3.58642 3.64894 3.58401 3.65243 3.58168C3.65591 3.57934 3.65945 3.5771 3.66305 3.57495C3.66666 3.57279 3.67031 3.57072 3.67399 3.56875C3.67769 3.56676 3.68144 3.56487 3.68524 3.56308C3.68904 3.56128 3.69288 3.55958 3.69675 3.55798C3.70063 3.55638 3.70454 3.55487 3.70849 3.55346C3.71244 3.55204 3.71643 3.55071 3.72043 3.5495C3.72445 3.54828 3.7285 3.54716 3.73257 3.54615C3.73664 3.54513 3.74074 3.54421 3.74486 3.54339C3.74897 3.54257 3.75311 3.54185 3.75726 3.54123C3.76141 3.54062 3.76557 3.5401 3.76974 3.53969C3.77392 3.53929 3.7781 3.53898 3.78228 3.53877C3.78648 3.53856 3.79068 3.53846 3.79488 3.53846L8.41026 3.53846L8.41026 2L3.79488 2ZM20.2051 2C21.1959 2 22 2.80411 22 3.79488L22 8.41026L20.4615 8.41026L20.4615 3.79488C20.4615 3.79068 20.4614 3.78648 20.4612 3.78228C20.461 3.7781 20.4607 3.77392 20.4603 3.76974C20.4599 3.76557 20.4594 3.76141 20.4588 3.75726C20.4581 3.75311 20.4574 3.74897 20.4566 3.74486C20.4558 3.74074 20.4549 3.73664 20.4538 3.73257C20.4528 3.7285 20.4517 3.72445 20.4505 3.72043C20.4493 3.71643 20.448 3.71244 20.4465 3.70849C20.4451 3.70454 20.4436 3.70063 20.442 3.69675C20.4404 3.69288 20.4387 3.68904 20.4369 3.68524C20.4351 3.68144 20.4332 3.67769 20.4312 3.67399C20.4293 3.67031 20.4272 3.66666 20.425 3.66305C20.4229 3.65945 20.4206 3.65591 20.4183 3.65243C20.416 3.64894 20.4136 3.6455 20.4111 3.64214C20.4086 3.63876 20.406 3.63545 20.4033 3.63221C20.4007 3.62896 20.3979 3.62578 20.3951 3.62267C20.3923 3.61956 20.3894 3.61652 20.3864 3.61356C20.3835 3.61059 20.3804 3.6077 20.3773 3.60488C20.3742 3.60206 20.371 3.59932 20.3678 3.59666C20.3645 3.594 20.3612 3.59142 20.3579 3.58892C20.3545 3.58642 20.3511 3.58401 20.3476 3.58168C20.3441 3.57934 20.3406 3.5771 20.3369 3.57495C20.3334 3.57279 20.3297 3.57072 20.326 3.56875C20.3223 3.56676 20.3186 3.56487 20.3148 3.56308C20.311 3.56128 20.3071 3.55958 20.3032 3.55798C20.2994 3.55638 20.2955 3.55487 20.2915 3.55346C20.2875 3.55204 20.2836 3.55071 20.2796 3.5495C20.2756 3.54828 20.2715 3.54716 20.2674 3.54615C20.2634 3.54513 20.2593 3.54421 20.2551 3.54339C20.251 3.54257 20.2469 3.54185 20.2427 3.54123C20.2386 3.54062 20.2344 3.5401 20.2303 3.53969C20.2261 3.53929 20.2219 3.53898 20.2177 3.53877C20.2135 3.53856 20.2093 3.53846 20.2051 3.53846L15.5897 3.53846L15.5897 2L20.2051 2ZM2 20.2051C2 21.1959 2.80411 22 3.79488 22L8.41026 22L8.41026 20.4615L3.79488 20.4615C3.79068 20.4615 3.78648 20.4614 3.78228 20.4612C3.7781 20.461 3.77392 20.4607 3.76974 20.4603C3.76557 20.4599 3.76141 20.4594 3.75726 20.4587C3.75311 20.4581 3.74897 20.4574 3.74486 20.4566C3.74074 20.4558 3.73664 20.4549 3.73257 20.4538C3.7285 20.4528 3.72445 20.4517 3.72043 20.4505C3.71643 20.4493 3.71244 20.448 3.70849 20.4465C3.70454 20.4451 3.70063 20.4436 3.69675 20.442C3.69288 20.4404 3.68904 20.4387 3.68524 20.4369C3.68144 20.4351 3.67769 20.4332 3.67399 20.4312C3.67031 20.4293 3.66666 20.4272 3.66305 20.425C3.65945 20.4229 3.65591 20.4206 3.65243 20.4183C3.64894 20.416 3.6455 20.4136 3.64214 20.4111C3.63876 20.4086 3.63545 20.406 3.63221 20.4033C3.62896 20.4007 3.62578 20.3979 3.62267 20.3951C3.61956 20.3923 3.61652 20.3894 3.61356 20.3864C3.61059 20.3835 3.6077 20.3804 3.60488 20.3773C3.60206 20.3742 3.59932 20.371 3.59666 20.3678C3.594 20.3645 3.59142 20.3612 3.58892 20.3579C3.58642 20.3545 3.58401 20.3511 3.58168 20.3476C3.57934 20.3441 3.5771 20.3406 3.57495 20.3369C3.57279 20.3333 3.57072 20.3297 3.56875 20.326C3.56676 20.3223 3.56487 20.3186 3.56308 20.3148C3.56128 20.311 3.55958 20.3071 3.55798 20.3032C3.55638 20.2994 3.55487 20.2955 3.55346 20.2915C3.55204 20.2875 3.55071 20.2836 3.5495 20.2796C3.54828 20.2756 3.54716 20.2715 3.54615 20.2674C3.54513 20.2634 3.54421 20.2593 3.54339 20.2551C3.54257 20.251 3.54185 20.2469 3.54123 20.2427C3.54062 20.2386 3.5401 20.2344 3.53969 20.2303C3.53929 20.2261 3.53898 20.2219 3.53877 20.2177C3.53856 20.2135 3.53846 20.2093 3.53846 20.2051L3.53846 15.5897L2 15.5897L2 20.2051ZM20.2051 22C20.2345 22 20.2638 21.9993 20.2932 21.9978C20.3225 21.9964 20.3518 21.9942 20.3811 21.9914C20.4103 21.9885 20.4394 21.9849 20.4685 21.9806C20.4975 21.9763 20.5265 21.9713 20.5553 21.9655C20.5841 21.9598 20.6128 21.9533 20.6413 21.9462C20.6697 21.9391 20.6981 21.9312 20.7262 21.9227C20.7543 21.9142 20.7821 21.905 20.8098 21.8951C20.8375 21.8852 20.8649 21.8746 20.892 21.8634C20.9191 21.8521 20.946 21.8402 20.9725 21.8277C20.9991 21.8151 21.0253 21.8019 21.0512 21.7881C21.0771 21.7742 21.1027 21.7597 21.1279 21.7446C21.1531 21.7295 21.1779 21.7138 21.2023 21.6975C21.2267 21.6812 21.2507 21.6643 21.2743 21.6468C21.2979 21.6293 21.3211 21.6112 21.3438 21.5926C21.3665 21.5739 21.3887 21.5548 21.4105 21.535C21.4322 21.5153 21.4535 21.4951 21.4743 21.4743C21.4951 21.4535 21.5153 21.4322 21.535 21.4105C21.5548 21.3887 21.5739 21.3665 21.5926 21.3438C21.6112 21.3211 21.6293 21.2979 21.6468 21.2743C21.6643 21.2507 21.6812 21.2267 21.6975 21.2023C21.7138 21.1779 21.7295 21.1531 21.7446 21.1279C21.7597 21.1027 21.7742 21.0771 21.7881 21.0512C21.8019 21.0253 21.8151 20.9991 21.8277 20.9725C21.8402 20.946 21.8521 20.9191 21.8634 20.892C21.8746 20.8649 21.8852 20.8375 21.8951 20.8098C21.905 20.7821 21.9142 20.7543 21.9227 20.7262C21.9312 20.6981 21.9391 20.6697 21.9462 20.6413C21.9533 20.6128 21.9598 20.5841 21.9655 20.5553C21.9713 20.5265 21.9763 20.4975 21.9806 20.4685C21.9849 20.4394 21.9885 20.4103 21.9914 20.3811C21.9942 20.3518 21.9964 20.3225 21.9978 20.2932C21.9993 20.2638 22 20.2345 22 20.2051L22 15.5897L20.4615 15.5897L20.4615 20.2051C20.4615 20.2093 20.4614 20.2135 20.4612 20.2177C20.461 20.2219 20.4607 20.2261 20.4603 20.2303C20.4599 20.2344 20.4594 20.2386 20.4587 20.2427C20.4581 20.2469 20.4574 20.251 20.4566 20.2551C20.4558 20.2593 20.4549 20.2634 20.4538 20.2674C20.4528 20.2715 20.4517 20.2756 20.4505 20.2796C20.4493 20.2836 20.448 20.2875 20.4465 20.2915C20.4451 20.2955 20.4436 20.2994 20.442 20.3032C20.4404 20.3071 20.4387 20.311 20.4369 20.3148C20.4351 20.3186 20.4332 20.3223 20.4312 20.326C20.4293 20.3297 20.4272 20.3333 20.425 20.3369C20.4229 20.3406 20.4206 20.3441 20.4183 20.3476C20.416 20.3511 20.4136 20.3545 20.4111 20.3579C20.4086 20.3612 20.406 20.3645 20.4033 20.3678C20.4007 20.371 20.3979 20.3742 20.3951 20.3773C20.3923 20.3804 20.3894 20.3835 20.3864 20.3864C20.3835 20.3894 20.3804 20.3923 20.3773 20.3951C20.3742 20.3979 20.371 20.4007 20.3678 20.4033C20.3645 20.406 20.3612 20.4086 20.3579 20.4111C20.3545 20.4136 20.3511 20.416 20.3476 20.4183C20.3441 20.4206 20.3406 20.4229 20.3369 20.425C20.3333 20.4272 20.3297 20.4293 20.326 20.4312C20.3223 20.4332 20.3186 20.4351 20.3148 20.4369C20.311 20.4387 20.3071 20.4404 20.3032 20.442C20.2994 20.4436 20.2955 20.4451 20.2915 20.4465C20.2875 20.448 20.2836 20.4493 20.2796 20.4505C20.2756 20.4517 20.2715 20.4528 20.2674 20.4538C20.2634 20.4549 20.2593 20.4558 20.2551 20.4566C20.251 20.4574 20.2469 20.4581 20.2427 20.4588C20.2386 20.4594 20.2344 20.4599 20.2303 20.4603C20.2261 20.4607 20.2219 20.461 20.2177 20.4612C20.2135 20.4614 20.2093 20.4615 20.2051 20.4615L15.5897 20.4615L15.5897 22L20.2051 22Z">
  </path>
</svg>