<svg width="24" height="24" viewBox="0 0 24 24">
  <path fill-rule="evenodd"
    d="M2.79959 3.86045L21.1904 3.86045C21.6302 3.86045 21.99 3.44184 21.99 2.93022C21.99 2.41861 21.6302 2 21.1904 2L2.79959 2C2.35982 2 2 2.41861 2 2.93022C2 3.44184 2.35982 3.86045 2.79959 3.86045ZM2.79959 22L21.1904 22C21.6302 22 21.99 21.5814 21.99 21.0698C21.99 20.5582 21.6302 20.1396 21.1904 20.1396L2.79959 20.1396C2.35982 20.1396 2 20.5582 2 21.0698C2 21.5814 2.35982 22 2.79959 22ZM9.59619 9.90697L21.1904 9.90697C21.6302 9.90697 21.99 9.48837 21.99 8.97675C21.99 8.46513 21.6302 8.0465 21.1904 8.0465L9.59619 8.0465C9.15641 8.0465 8.79659 8.4651 8.79659 8.97675C8.79659 9.4884 9.15641 9.90697 9.59619 9.90697ZM9.59619 15.9535L21.2004 15.9535C21.6402 15.9535 22 15.5349 22 15.0232C22 14.5116 21.6402 14.093 21.2004 14.093L9.59619 14.093C9.15641 14.093 8.79659 14.5116 8.79659 15.0232L8.79659 15.0349C8.79659 15.5349 9.15641 15.9535 9.59619 15.9535Z">
  </path>
  <path fill-rule="evenodd"
    d="M6.66555 12.809L3.19195 15.8309C3.18483 15.8371 3.17762 15.8431 3.17032 15.849C3.16304 15.8549 3.15568 15.8607 3.14824 15.8663C3.1408 15.8718 3.13329 15.8772 3.12571 15.8825C3.11812 15.8877 3.11047 15.8928 3.10276 15.8977C3.09506 15.9027 3.08727 15.9074 3.07942 15.912C3.07158 15.9166 3.06369 15.921 3.05574 15.9252C3.04777 15.9294 3.03976 15.9335 3.0317 15.9374C3.02362 15.9413 3.01551 15.945 3.00735 15.9485C2.99918 15.9521 2.99097 15.9554 2.98272 15.9586C2.97447 15.9618 2.96618 15.9648 2.95785 15.9676C2.94952 15.9704 2.94116 15.9731 2.93276 15.9755C2.92435 15.978 2.91592 15.9802 2.90746 15.9823C2.899 15.9844 2.89052 15.9863 2.88202 15.988C2.8735 15.9898 2.86496 15.9913 2.85641 15.9927C2.84786 15.994 2.83929 15.9952 2.83071 15.9961C2.82213 15.9971 2.81353 15.9979 2.80493 15.9985C2.79633 15.9991 2.78772 15.9995 2.7791 15.9998C2.77049 16 2.76187 16.0001 2.75326 15.9999C2.74464 15.9998 2.73603 15.9994 2.72742 15.9989C2.71882 15.9984 2.71022 15.9977 2.70163 15.9968C2.69304 15.9959 2.68447 15.9949 2.6759 15.9936C2.66735 15.9923 2.6588 15.9909 2.65028 15.9893C2.64176 15.9876 2.63326 15.9858 2.62479 15.9838C2.61631 15.9818 2.60787 15.9796 2.59945 15.9773C2.59104 15.9749 2.58265 15.9723 2.57431 15.9696C2.56596 15.9669 2.55765 15.9639 2.54937 15.9609C2.5411 15.9578 2.53288 15.9545 2.52469 15.951C2.5165 15.9476 2.50837 15.9439 2.50028 15.9401C2.49219 15.9364 2.48415 15.9324 2.47617 15.9282C2.46818 15.9241 2.46025 15.9197 2.45239 15.9153C2.44452 15.9107 2.43671 15.9061 2.42896 15.9013C2.42121 15.8964 2.41353 15.8914 2.40592 15.8863C2.3983 15.8811 2.39076 15.8757 2.38329 15.8702C2.37581 15.8647 2.36841 15.8591 2.36109 15.8533C2.35377 15.8474 2.34652 15.8414 2.33935 15.8353C2.33219 15.8292 2.32511 15.8229 2.31811 15.8165C2.31111 15.81 2.3042 15.8034 2.29737 15.7967C2.29054 15.79 2.28381 15.7831 2.27716 15.776C2.27052 15.769 2.26397 15.7618 2.25752 15.7545C2.25106 15.7472 2.24471 15.7397 2.23845 15.7321C2.23219 15.7245 2.22604 15.7168 2.21999 15.709C2.21393 15.7011 2.20799 15.6931 2.20214 15.685C2.1963 15.6769 2.19057 15.6686 2.18495 15.6603C2.17932 15.6519 2.17381 15.6434 2.16841 15.6348C2.16301 15.6262 2.15773 15.6174 2.15256 15.6086C2.14739 15.5998 2.14234 15.5908 2.1374 15.5818C2.13247 15.5727 2.12766 15.5635 2.12297 15.5543C2.11828 15.545 2.11371 15.5357 2.10927 15.5262C2.10483 15.5167 2.10051 15.5072 2.09632 15.4975C2.09213 15.4879 2.08807 15.4781 2.08413 15.4683C2.0802 15.4585 2.0764 15.4486 2.07273 15.4386C2.06906 15.4286 2.06552 15.4185 2.06211 15.4084C2.05871 15.3982 2.05544 15.388 2.0523 15.3777C2.04917 15.3674 2.04617 15.3571 2.04331 15.3467C2.04045 15.3362 2.03772 15.3258 2.03514 15.3152C2.03255 15.3047 2.03011 15.2941 2.02781 15.2835C2.0255 15.2728 2.02334 15.2621 2.02131 15.2514C2.01929 15.2406 2.01741 15.2299 2.01567 15.2191C2.01394 15.2082 2.01234 15.1974 2.01089 15.1865C2.00944 15.1756 2.00813 15.1647 2.00697 15.1537C2.00581 15.1428 2.00479 15.1318 2.00392 15.1209C2.00305 15.1098 2.00232 15.0988 2.00174 15.0878C2.00116 15.0768 2.00072 15.0658 2.00043 15.0548C2.00014 15.0437 2 15.0327 2 15.0216L2 8.97775C2 8.9667 2.00015 8.95565 2.00045 8.94461C2.00075 8.93358 2.00119 8.92256 2.00177 8.91153C2.00236 8.90053 2.00309 8.88953 2.00397 8.87855C2.00485 8.86757 2.00587 8.8566 2.00704 8.84566C2.0082 8.83471 2.00952 8.8238 2.01097 8.81292C2.01243 8.80204 2.01402 8.79119 2.01577 8.78037C2.01751 8.76956 2.01939 8.75879 2.02142 8.74806C2.02345 8.73731 2.02561 8.72663 2.02792 8.71599C2.03023 8.70535 2.03268 8.69476 2.03527 8.68423C2.03786 8.67371 2.04059 8.66325 2.04345 8.65283C2.04632 8.64242 2.04932 8.63207 2.05246 8.62177C2.0556 8.6115 2.05887 8.6013 2.06228 8.59115C2.06568 8.581 2.06923 8.57093 2.0729 8.56095C2.07658 8.55096 2.08038 8.54106 2.08431 8.53123C2.08825 8.52141 2.09232 8.51168 2.09651 8.50204C2.1007 8.4924 2.10502 8.48285 2.10947 8.4734C2.11391 8.46392 2.11848 8.45456 2.12317 8.44531C2.12787 8.43605 2.13268 8.4269 2.13761 8.41786C2.14255 8.40879 2.1476 8.39984 2.15277 8.39102C2.15794 8.38219 2.16323 8.37348 2.16863 8.36488C2.17403 8.35626 2.17954 8.34777 2.18517 8.33942C2.19079 8.33106 2.19653 8.32283 2.20237 8.31472C2.20821 8.30661 2.21416 8.29862 2.22021 8.29075C2.22627 8.28291 2.23242 8.27518 2.23868 8.26758C2.24494 8.26 2.25129 8.25255 2.25775 8.24524C2.2642 8.23792 2.27075 8.23075 2.2774 8.22372C2.28404 8.21669 2.29077 8.20981 2.2976 8.20308C2.30443 8.19634 2.31134 8.18975 2.31834 8.18334C2.32534 8.1769 2.33242 8.17061 2.33959 8.16447C2.34675 8.15834 2.354 8.15237 2.36132 8.14656C2.36864 8.14075 2.37604 8.1351 2.38351 8.1296C2.39099 8.12411 2.39853 8.11879 2.40614 8.11361C2.41376 8.10845 2.42144 8.10346 2.42918 8.09863C2.43693 8.0938 2.44474 8.08913 2.4526 8.08463C2.46047 8.08015 2.4684 8.07583 2.47638 8.07167C2.48436 8.06753 2.4924 8.06356 2.50049 8.05975C2.50857 8.05596 2.51671 8.05234 2.52489 8.0489C2.53308 8.04543 2.5413 8.04216 2.54957 8.03908C2.55784 8.03599 2.56615 8.03307 2.5745 8.03034C2.58285 8.02761 2.59123 8.02506 2.59964 8.0227C2.60805 8.02034 2.6165 8.01816 2.62497 8.01616C2.63344 8.01416 2.64194 8.01235 2.65046 8.01072C2.65898 8.00909 2.66751 8.00764 2.67607 8.00638C2.68463 8.00513 2.6932 8.00406 2.70179 8.00317C2.71037 8.00229 2.71897 8.00159 2.72757 8.00106C2.73618 8.00055 2.74479 8.00022 2.7534 8.00008C2.76201 7.99994 2.77063 7.99999 2.77924 8.00023C2.78785 8.00046 2.79646 8.00087 2.80506 8.00148C2.81366 8.0021 2.82225 8.00289 2.83083 8.00387C2.83941 8.00485 2.84797 8.00601 2.85652 8.00735C2.86507 8.00872 2.8736 8.01026 2.88211 8.01197C2.89062 8.0137 2.8991 8.01561 2.90756 8.01769C2.91601 8.01978 2.92444 8.02206 2.93283 8.0245C2.94124 8.02697 2.94961 8.02961 2.95794 8.03242C2.96626 8.03525 2.97454 8.03826 2.98279 8.04144C2.99104 8.04462 2.99925 8.04797 3.0074 8.05149C3.01557 8.05504 3.02369 8.05875 3.03175 8.06262C3.03981 8.06651 3.04781 8.07058 3.05576 8.07482C3.06373 8.07906 3.07163 8.08346 3.07947 8.08802C3.08731 8.09261 3.09508 8.09736 3.10279 8.10227C3.1105 8.10718 3.11815 8.11226 3.12573 8.11752C3.13331 8.12276 3.14082 8.12817 3.14826 8.13375C3.15569 8.13932 3.16305 8.14505 3.17035 8.15096C3.17763 8.15685 3.18483 8.1629 3.19195 8.16909L6.66555 11.1904C6.67836 11.2015 6.6909 11.2132 6.70318 11.2254C6.71544 11.2375 6.72741 11.2501 6.73907 11.2631C6.75073 11.2762 6.76208 11.2897 6.77312 11.3037C6.78414 11.3176 6.79482 11.332 6.80517 11.3468C6.8155 11.3616 6.82549 11.3768 6.8351 11.3923C6.84471 11.4079 6.85396 11.4238 6.86283 11.4402C6.87168 11.4564 6.88015 11.473 6.88823 11.49C6.89631 11.5069 6.90397 11.5242 6.91122 11.5418C6.91849 11.5593 6.92531 11.5771 6.93173 11.5952C6.93814 11.6133 6.9441 11.6316 6.94964 11.6502C6.95517 11.6687 6.96025 11.6875 6.9649 11.7064C6.96955 11.7254 6.97374 11.7445 6.97749 11.7638C6.98123 11.783 6.9845 11.8024 6.98731 11.822C6.99013 11.8415 6.99246 11.8611 6.99435 11.8808C6.99623 11.9005 6.99766 11.9203 6.99859 11.9402C6.99952 11.96 6.9986 11.9801 6.9986 12C6.9986 12.0199 6.99952 12.0394 6.99859 12.0592C6.99766 12.079 6.99623 12.0988 6.99435 12.1185C6.99246 12.1382 6.99013 12.1578 6.98731 12.1774C6.9845 12.1969 6.98123 12.2163 6.97749 12.2356C6.97374 12.2549 6.96955 12.274 6.9649 12.2929C6.96025 12.3119 6.95517 12.3306 6.94964 12.3492C6.9441 12.3677 6.93814 12.3861 6.93173 12.4042C6.92531 12.4222 6.91849 12.44 6.91122 12.4576C6.90397 12.4751 6.89631 12.4924 6.88823 12.5094C6.88015 12.5263 6.87168 12.5429 6.86283 12.5592C6.85396 12.5755 6.84471 12.5914 6.8351 12.607C6.82549 12.6226 6.8155 12.6378 6.80517 12.6526C6.79482 12.6673 6.78414 12.6817 6.77312 12.6957C6.76208 12.7096 6.75073 12.7231 6.73907 12.7362C6.72741 12.7493 6.71544 12.7619 6.70318 12.774C6.6909 12.7861 6.67836 12.7978 6.66555 12.809Z">
  </path>
</svg>