<svg width="24" height="24" viewBox="0 0 24 24">
  <path fill-rule="evenodd" style="fill:#FFFFFF" d="M5 19L19 19L19 5L5 5L5 19Z"></path>
  <path fill-rule="evenodd" style="fill:#D81E06"
    d="M12 22C6.47701 22 2 17.523 2 12C2 6.477 6.47701 2 12 2C17.523 2 22 6.477 22 12C22 17.523 17.523 22 12 22ZM10.914 11.568C11.154 10.728 11.989 10.027 12.904 9.92C13.091 10.614 13.292 11.293 13.449 11.983C13.502 12.213 13.486 12.478 13.431 12.71C13.218 13.602 12.183 13.952 11.453 13.395C10.923 12.99 10.711 12.275 10.914 11.568ZM14.731 11.371C14.606 10.906 14.475 10.444 14.338 9.95099C14.838 10.081 15.246 10.311 15.593 10.649C16.85 11.87 16.978 13.949 15.887 15.38C14.752 16.87 12.732 17.514 10.859 16.985C8.55701 16.335 7.05099 14.033 7.418 11.669C7.69201 9.90099 8.688 8.66499 10.318 7.93601C10.725 7.75401 10.898 7.37601 10.738 7.00599C10.581 6.642 10.198 6.50199 9.79401 6.66299C7.07299 7.752 5.47401 10.797 6.12399 13.65C6.837 16.768 9.61899 18.813 12.799 18.509C14.531 18.344 15.963 17.561 17.015 16.162C18.521 14.16 18.312 11.379 16.552 9.66299C15.886 9.01301 15.081 8.645 14.162 8.50999C14.079 8.49701 13.945 8.45801 13.93 8.40399C13.843 8.091 13.75 7.77199 13.724 7.44999C13.695 7.09301 14.014 6.81001 14.374 6.80501C14.627 6.80199 14.808 6.93499 14.977 7.10501C15.28 7.40499 15.681 7.42701 15.965 7.16699C16.255 6.903 16.261 6.48901 15.983 6.159C15.417 5.48699 14.397 5.26801 13.553 5.63599C12.706 6.00601 12.232 6.82299 12.353 7.729C12.391 8.00901 12.463 8.28601 12.52 8.57099L12.26 8.64299C12.2081 8.65677 12.1565 8.67161 12.1052 8.68756C12.0539 8.7035 12.003 8.72048 11.9524 8.73854C11.9018 8.75659 11.8516 8.77568 11.8018 8.79583C11.752 8.81597 11.7027 8.83715 11.6538 8.85935C11.6049 8.88156 11.5565 8.90477 11.5085 8.92901C11.4606 8.95322 11.4132 8.97844 11.3663 9.00464C11.3194 9.03084 11.2731 9.05801 11.2274 9.08614C11.1816 9.11427 11.1365 9.14336 11.092 9.17337C11.0474 9.20338 11.0035 9.23432 10.9603 9.26616C10.917 9.29802 10.8745 9.33076 10.8326 9.36438C10.7907 9.39799 10.7496 9.43246 10.7091 9.46781C10.6687 9.50315 10.629 9.53932 10.59 9.57631C10.5511 9.6133 10.513 9.65109 10.4756 9.68968C10.4382 9.72827 10.4017 9.76763 10.366 9.80774C10.3303 9.84784 10.2954 9.88867 10.2614 9.93023C10.2274 9.9718 10.1942 10.014 10.162 10.057C9.24099 11.277 9.226 12.885 10.121 14.004C11.395 15.598 13.868 15.288 14.644 13.436C14.928 12.76 14.919 12.068 14.731 11.371Z">
  </path>
</svg>