<svg width="24" height="24" viewBox="0 0 24 24">
  <path
    d="M14.2083 11.1111L5.20825 4.15783C5.20138 4.15247 5.19441 4.14725 5.18735 4.14215C5.1803 4.13704 5.17316 4.13206 5.16592 4.1272C5.15869 4.12234 5.15137 4.11761 5.14396 4.113C5.13657 4.10839 5.1291 4.10392 5.12156 4.09959C5.11399 4.09525 5.10636 4.09104 5.09866 4.08696C5.09097 4.08288 5.0832 4.07893 5.07536 4.07512C5.06752 4.07132 5.05961 4.06766 5.05164 4.06413C5.04369 4.0606 5.03567 4.05721 5.02757 4.05396C5.01949 4.05071 5.01135 4.04761 5.00315 4.04465C4.99496 4.04168 4.98673 4.03886 4.97845 4.03619C4.97015 4.0335 4.96181 4.03097 4.95344 4.0286C4.94505 4.02621 4.93663 4.02397 4.92817 4.02187C4.91972 4.01978 4.91123 4.01784 4.9027 4.01606C4.89417 4.01426 4.88561 4.01261 4.87703 4.01111C4.86845 4.00961 4.85984 4.00827 4.85121 4.00708C4.84258 4.00588 4.83393 4.00483 4.82526 4.00394C4.8166 4.00305 4.80792 4.00231 4.79922 4.00172C4.79053 4.00112 4.78184 4.00068 4.77314 4.0004C4.76442 4.00011 4.7557 3.99997 4.747 4C4.73828 4.00002 4.72957 4.00018 4.72087 4.0005C4.71216 4.00082 4.70347 4.0013 4.69478 4.00193C4.68608 4.00255 4.6774 4.00332 4.66874 4.00425C4.66009 4.00518 4.65145 4.00626 4.64282 4.00748C4.6342 4.00872 4.62559 4.0101 4.61702 4.01163C4.60844 4.01316 4.59988 4.01484 4.59135 4.01667C4.58284 4.0185 4.57436 4.02047 4.56592 4.0226C4.55747 4.02472 4.54906 4.027 4.54068 4.02942C4.53231 4.03184 4.52398 4.0344 4.5157 4.03711C4.50743 4.03982 4.4992 4.04268 4.49102 4.04568C4.48283 4.04867 4.47471 4.0518 4.46664 4.05508C4.45856 4.05836 4.45055 4.06179 4.4426 4.06535C4.43464 4.06891 4.42676 4.07261 4.41895 4.07646C4.41112 4.08029 4.40336 4.08425 4.39567 4.08836C4.388 4.09247 4.38039 4.09672 4.37285 4.10109C4.36531 4.10545 4.35786 4.10995 4.35049 4.11459C4.34311 4.11922 4.33581 4.12397 4.3286 4.12886C4.32138 4.13375 4.31425 4.13877 4.30722 4.14391C4.30019 4.14905 4.29324 4.15431 4.28639 4.15968C4.27952 4.16506 4.27277 4.17055 4.26611 4.17616C4.25946 4.18179 4.25289 4.18752 4.24642 4.19336C4.23996 4.19921 4.2336 4.20516 4.22735 4.21122C4.2211 4.21729 4.21495 4.22346 4.20892 4.22974C4.20288 4.23602 4.19695 4.24241 4.19113 4.24891C4.18532 4.2554 4.17962 4.26198 4.17402 4.26867C4.16845 4.27536 4.16298 4.28214 4.15762 4.28901C4.15228 4.29589 4.14705 4.30286 4.14194 4.30992C4.13684 4.31698 4.13187 4.32413 4.12701 4.33136C4.12215 4.3386 4.11742 4.34591 4.11283 4.3533C4.10822 4.36071 4.10375 4.36818 4.09942 4.37573C4.09508 4.38329 4.09087 4.39093 4.08679 4.39863C4.08273 4.40633 4.0788 4.4141 4.075 4.42193C4.07119 4.42977 4.06752 4.43768 4.06401 4.44565C4.06048 4.45361 4.05709 4.46165 4.05384 4.46974C4.0506 4.47782 4.0475 4.48595 4.04453 4.49414C4.04158 4.50234 4.03877 4.51059 4.0361 4.51889C4.03342 4.52717 4.03089 4.5355 4.0285 4.5439C4.02613 4.55227 4.02389 4.56068 4.0218 4.56914C4.01972 4.57761 4.01778 4.5861 4.01599 4.59461C4.01419 4.60315 4.01255 4.61171 4.01106 4.6203C4.00956 4.62888 4.00822 4.63748 4.00703 4.64611C4.00585 4.65475 4.00481 4.6634 4.00392 4.67205C4.00303 4.68072 4.00228 4.6894 4.00169 4.69809C4.00111 4.70679 4.00068 4.7155 4.0004 4.7242C4.00012 4.7329 3.99999 4.74161 4 4.75033L4 18.6606C4.00002 18.6693 4.00018 18.678 4.00049 18.6867C4.00081 18.6954 4.00127 18.7041 4.0019 18.7127C4.00252 18.7214 4.0033 18.7301 4.00422 18.7387C4.00513 18.7474 4.0062 18.756 4.00743 18.7646C4.00865 18.7732 4.01002 18.7818 4.01153 18.7904C4.01305 18.799 4.01471 18.8075 4.01652 18.816C4.01835 18.8245 4.02032 18.8329 4.02243 18.8414C4.02454 18.8498 4.0268 18.8582 4.0292 18.8666C4.03159 18.875 4.03414 18.8833 4.03684 18.8915C4.03953 18.8998 4.04237 18.908 4.04535 18.9162C4.04832 18.9244 4.05144 18.9325 4.05471 18.9405C4.05797 18.9486 4.06137 18.9566 4.0649 18.9646C4.06845 18.9725 4.07213 18.9804 4.07594 18.9882C4.07975 18.996 4.0837 19.0038 4.08777 19.0115C4.09187 19.0191 4.09609 19.0267 4.10043 19.0343C4.10477 19.0418 4.10925 19.0493 4.11386 19.0566C4.11847 19.064 4.1232 19.0713 4.12806 19.0785C4.13292 19.0857 4.13791 19.0929 4.14302 19.0999C4.14813 19.1069 4.15336 19.1139 4.15872 19.1208C4.16406 19.1276 4.16953 19.1344 4.17513 19.141C4.1807 19.1477 4.1864 19.1543 4.19221 19.1607C4.19804 19.1672 4.20397 19.1736 4.21 19.1798C4.21603 19.1861 4.22217 19.1923 4.22842 19.1983C4.23467 19.2044 4.24102 19.2103 4.24748 19.2161C4.25395 19.222 4.26051 19.2277 4.26716 19.2332C4.27382 19.2389 4.28057 19.2444 4.28742 19.2497C4.29426 19.2551 4.3012 19.2603 4.30823 19.2654C4.31526 19.2706 4.32238 19.2756 4.32958 19.2804C4.33678 19.2853 4.34406 19.2901 4.35142 19.2947C4.3588 19.2993 4.36624 19.3038 4.37376 19.3082C4.38129 19.3125 4.38889 19.3168 4.39656 19.3209C4.40424 19.325 4.41198 19.3289 4.41979 19.3327C4.4276 19.3366 4.43548 19.3403 4.44342 19.3438C4.45135 19.3474 4.45934 19.3508 4.46739 19.3541C4.47546 19.3574 4.48357 19.3605 4.49174 19.3635C4.4999 19.3665 4.50811 19.3693 4.51638 19.372C4.52464 19.3748 4.53295 19.3773 4.54132 19.3797C4.54967 19.3822 4.55806 19.3844 4.56649 19.3866C4.57492 19.3887 4.58339 19.3907 4.59189 19.3925C4.60039 19.3943 4.60892 19.396 4.61749 19.3976C4.62605 19.3991 4.63463 19.4005 4.64324 19.4017C4.65185 19.403 4.66049 19.404 4.66914 19.405C4.67778 19.4059 4.68644 19.4067 4.69511 19.4073C4.70378 19.408 4.71247 19.4085 4.72117 19.4088C4.72986 19.4091 4.73856 19.4093 4.74726 19.4094C4.75595 19.4094 4.76464 19.4093 4.77335 19.409C4.78203 19.4087 4.79072 19.4083 4.79941 19.4077C4.80808 19.4072 4.81674 19.4065 4.8254 19.4056C4.83406 19.4047 4.84269 19.4037 4.8513 19.4025C4.85992 19.4013 4.86853 19.4 4.8771 19.3985C4.88567 19.3971 4.8942 19.3954 4.90272 19.3936C4.91124 19.3919 4.91972 19.39 4.92817 19.3879C4.93663 19.3858 4.94504 19.3836 4.95341 19.3813C4.96177 19.3789 4.9701 19.3764 4.9784 19.3737C4.98668 19.3711 4.99492 19.3683 5.0031 19.3654C5.01129 19.3624 5.01942 19.3594 5.0275 19.3561C5.03558 19.3529 5.0436 19.3496 5.05157 19.3461C5.05954 19.3426 5.06744 19.3389 5.07527 19.3352C5.08311 19.3314 5.09088 19.3275 5.09859 19.3234C5.10629 19.3194 5.11392 19.3152 5.12146 19.3109C5.12902 19.3066 5.13651 19.3022 5.14392 19.2976C5.15131 19.293 5.15863 19.2883 5.16587 19.2835C5.17311 19.2787 5.18026 19.2737 5.18732 19.2687C5.19438 19.2636 5.20136 19.2584 5.20825 19.2531L14.2083 12.2991C14.2195 12.2904 14.2306 12.2813 14.2414 12.272C14.2521 12.2626 14.2626 12.253 14.2729 12.243C14.2831 12.2331 14.2931 12.2228 14.3027 12.2123C14.3123 12.2018 14.3217 12.191 14.3307 12.1799C14.3397 12.1689 14.3485 12.1576 14.3568 12.146C14.3652 12.1345 14.3733 12.1227 14.381 12.1107C14.3887 12.0987 14.3961 12.0865 14.4031 12.074C14.4101 12.0616 14.4167 12.049 14.423 12.0362C14.4293 12.0234 14.4352 12.0104 14.4408 11.9972C14.4464 11.9841 14.4515 11.9708 14.4563 11.9573C14.4611 11.9439 14.4655 11.9303 14.4695 11.9166C14.4735 11.9029 14.4772 11.8891 14.4804 11.8752C14.4836 11.8613 14.4865 11.8473 14.4889 11.8333C14.4913 11.8192 14.4934 11.8051 14.495 11.7909C14.4966 11.7767 14.4978 11.7625 14.4986 11.7482C14.4995 11.734 14.4999 11.7197 14.4999 11.7055C14.4999 11.6912 14.4995 11.6769 14.4986 11.6627C14.4978 11.6484 14.4966 11.6342 14.495 11.62C14.4934 11.6058 14.4913 11.5917 14.4889 11.5776C14.4865 11.5636 14.4836 11.5496 14.4804 11.5357C14.4772 11.5218 14.4735 11.508 14.4695 11.4943C14.4655 11.4806 14.4611 11.467 14.4563 11.4536C14.4515 11.4401 14.4464 11.4269 14.4408 11.4137C14.4352 11.4006 14.4293 11.3876 14.423 11.3748C14.4167 11.362 14.4101 11.3493 14.4031 11.3369C14.3961 11.3245 14.3887 11.3122 14.381 11.3002C14.3733 11.2882 14.3652 11.2765 14.3568 11.2649C14.3485 11.2533 14.3397 11.242 14.3307 11.231C14.3217 11.2199 14.3123 11.2091 14.3027 11.1986C14.2931 11.1881 14.2831 11.1779 14.2729 11.1679C14.2626 11.158 14.2521 11.1483 14.2414 11.1389C14.2306 11.1296 14.2195 11.1205 14.2083 11.1118">
  </path>
  <path
    d="M19 4C18.9836 4 18.9673 4.0004 18.9509 4.0012C18.9346 4.00199 18.9183 4.00319 18.902 4.0048C18.8857 4.00641 18.8695 4.00841 18.8533 4.0108C18.8371 4.01321 18.821 4.01601 18.8049 4.0192C18.7889 4.0224 18.7729 4.02598 18.757 4.02995C18.7411 4.03394 18.7254 4.0383 18.7097 4.04305C18.6941 4.0478 18.6785 4.05294 18.6631 4.05845C18.6477 4.06397 18.6324 4.06985 18.6173 4.0761C18.6022 4.08237 18.5872 4.089 18.5724 4.096C18.5576 4.103 18.543 4.11036 18.5286 4.11808C18.5142 4.12578 18.4999 4.13384 18.4859 4.14227C18.4719 4.15067 18.458 4.15942 18.4444 4.16852C18.4308 4.17761 18.4174 4.18703 18.4043 4.19678C18.3912 4.20653 18.3783 4.2166 18.3656 4.22699C18.353 4.23737 18.3406 4.24805 18.3284 4.25903C18.3163 4.27003 18.3045 4.28131 18.2929 4.29287C18.2813 4.30445 18.27 4.31631 18.2591 4.32843C18.2481 4.34055 18.2374 4.35295 18.227 4.3656C18.2166 4.37826 18.2065 4.39116 18.1968 4.4043C18.187 4.41744 18.1776 4.43081 18.1685 4.44442C18.1594 4.45803 18.1507 4.47185 18.1423 4.48588C18.1339 4.49993 18.1258 4.51416 18.1181 4.52859C18.1104 4.54302 18.103 4.55764 18.096 4.57244C18.089 4.58723 18.0824 4.6022 18.0761 4.61732C18.0699 4.63243 18.064 4.64769 18.0585 4.66309C18.0529 4.67852 18.0478 4.69405 18.0431 4.70971C18.0383 4.72537 18.0339 4.74113 18.03 4.75701C18.026 4.77288 18.0224 4.78884 18.0192 4.80489C18.016 4.82095 18.0132 4.83708 18.0108 4.85327C18.0084 4.86945 18.0064 4.88569 18.0048 4.90197C18.0032 4.91826 18.002 4.93459 18.0012 4.95093C18.0004 4.96727 18 4.98362 18 4.99998L18 19C18 19.0164 18.0004 19.0327 18.0012 19.0491C18.002 19.0654 18.0032 19.0817 18.0048 19.098C18.0064 19.1143 18.0084 19.1305 18.0108 19.1467C18.0132 19.1629 18.016 19.179 18.0192 19.1951C18.0224 19.2111 18.026 19.2271 18.03 19.243C18.0339 19.2588 18.0383 19.2746 18.0431 19.2903C18.0478 19.3059 18.0529 19.3215 18.0585 19.3369C18.064 19.3523 18.0699 19.3675 18.0761 19.3827C18.0824 19.3978 18.089 19.4128 18.096 19.4275C18.103 19.4423 18.1104 19.457 18.1181 19.4714C18.1258 19.4858 18.1339 19.5001 18.1423 19.5141C18.1507 19.5281 18.1594 19.5419 18.1685 19.5556C18.1776 19.5692 18.187 19.5825 18.1968 19.5957C18.2065 19.6088 18.2166 19.6217 18.227 19.6344C18.2374 19.647 18.2481 19.6594 18.2591 19.6716C18.27 19.6837 18.2813 19.6955 18.2929 19.7071C18.3045 19.7187 18.3163 19.73 18.3284 19.741C18.3406 19.7519 18.353 19.7626 18.3656 19.773C18.3783 19.7834 18.3912 19.7935 18.4043 19.8032C18.4174 19.813 18.4308 19.8224 18.4444 19.8315C18.458 19.8406 18.4719 19.8493 18.4859 19.8577C18.4999 19.8661 18.5142 19.8742 18.5286 19.8819C18.543 19.8896 18.5576 19.897 18.5724 19.904C18.5872 19.911 18.6022 19.9176 18.6173 19.9239C18.6324 19.9301 18.6477 19.936 18.6631 19.9415C18.6785 19.947 18.6941 19.9522 18.7097 19.9569C18.7254 19.9617 18.7411 19.966 18.757 19.97C18.7729 19.974 18.7889 19.9776 18.8049 19.9808C18.821 19.984 18.8371 19.9868 18.8533 19.9892C18.8695 19.9916 18.8857 19.9936 18.902 19.9952C18.9183 19.9968 18.9346 19.998 18.9509 19.9988C18.9673 19.9996 18.9836 20 19 20C19.0164 20 19.0327 19.9996 19.0491 19.9988C19.0654 19.998 19.0817 19.9968 19.098 19.9952C19.1143 19.9936 19.1305 19.9916 19.1467 19.9892C19.1629 19.9868 19.179 19.984 19.1951 19.9808C19.2111 19.9776 19.2271 19.974 19.243 19.97C19.2589 19.966 19.2746 19.9617 19.2903 19.9569C19.3059 19.9522 19.3215 19.947 19.3369 19.9415C19.3523 19.936 19.3676 19.9301 19.3827 19.9239C19.3978 19.9176 19.4128 19.911 19.4276 19.904C19.4424 19.897 19.457 19.8896 19.4714 19.8819C19.4858 19.8742 19.5001 19.8661 19.5141 19.8577C19.5281 19.8493 19.542 19.8406 19.5556 19.8315C19.5692 19.8224 19.5826 19.813 19.5957 19.8032C19.6088 19.7935 19.6217 19.7834 19.6344 19.773C19.647 19.7626 19.6594 19.7519 19.6716 19.741C19.6837 19.73 19.6955 19.7187 19.7071 19.7071C19.7187 19.6955 19.73 19.6837 19.741 19.6716C19.7519 19.6594 19.7626 19.647 19.773 19.6344C19.7834 19.6217 19.7935 19.6088 19.8032 19.5957C19.813 19.5825 19.8224 19.5692 19.8315 19.5556C19.8406 19.5419 19.8493 19.5281 19.8577 19.5141C19.8661 19.5001 19.8742 19.4858 19.8819 19.4714C19.8896 19.457 19.897 19.4423 19.904 19.4275C19.911 19.4128 19.9176 19.3978 19.9239 19.3827C19.9301 19.3675 19.936 19.3523 19.9415 19.3369C19.9471 19.3215 19.9522 19.3059 19.9569 19.2903C19.9617 19.2746 19.9661 19.2588 19.97 19.243C19.974 19.2271 19.9776 19.2111 19.9808 19.1951C19.984 19.179 19.9868 19.1629 19.9892 19.1467C19.9916 19.1305 19.9936 19.1143 19.9952 19.098C19.9968 19.0817 19.998 19.0654 19.9988 19.0491C19.9996 19.0327 20 19.0164 20 19L20 4.99998C20 4.98362 19.9996 4.96727 19.9988 4.95093C19.998 4.93459 19.9968 4.91826 19.9952 4.90197C19.9936 4.88569 19.9916 4.86945 19.9892 4.85327C19.9868 4.83708 19.984 4.82095 19.9808 4.80489C19.9776 4.78884 19.974 4.77288 19.97 4.75701C19.9661 4.74113 19.9617 4.72537 19.9569 4.70971C19.9522 4.69405 19.9471 4.67852 19.9415 4.66309C19.936 4.64769 19.9301 4.63242 19.9239 4.6173C19.9176 4.60219 19.911 4.58723 19.904 4.57244C19.897 4.55764 19.8896 4.54302 19.8819 4.52859C19.8742 4.51416 19.8661 4.49993 19.8577 4.48588C19.8493 4.47185 19.8406 4.45803 19.8315 4.44442C19.8224 4.43081 19.813 4.41744 19.8032 4.4043C19.7935 4.39116 19.7834 4.37826 19.773 4.3656C19.7626 4.35295 19.7519 4.34055 19.741 4.32843C19.73 4.31631 19.7187 4.30445 19.7071 4.29287C19.6955 4.28131 19.6837 4.27003 19.6716 4.25903C19.6594 4.24805 19.647 4.23737 19.6344 4.22699C19.6217 4.2166 19.6088 4.20653 19.5957 4.19678C19.5826 4.18703 19.5692 4.17761 19.5556 4.16852C19.542 4.15942 19.5281 4.15067 19.5141 4.14227C19.5001 4.13384 19.4858 4.12578 19.4714 4.11808C19.457 4.11036 19.4424 4.103 19.4276 4.096C19.4128 4.089 19.3978 4.08237 19.3827 4.0761C19.3676 4.06985 19.3523 4.06397 19.3369 4.05845C19.3215 4.05294 19.3059 4.0478 19.2903 4.04305C19.2746 4.0383 19.2589 4.03394 19.243 4.02995C19.2271 4.02598 19.2111 4.0224 19.1951 4.0192C19.179 4.01601 19.1629 4.01321 19.1467 4.0108C19.1305 4.00841 19.1143 4.00641 19.098 4.0048C19.0817 4.00319 19.0654 4.00199 19.0491 4.0012C19.0327 4.0004 19.0164 4 19 4Z">
  </path>
</svg>