<svg width="24" height="24" viewBox="0 0 24 24">
  <path fill-rule="evenodd"
    d="M22.0625 17.0223L20.2259 17.0223L20.2259 11.1752C20.2259 6.88609 17.5452 3.32359 13.9944 2.52672L13.9944 2.5C13.9944 2.47545 13.9938 2.45092 13.9926 2.42641C13.9914 2.40187 13.9896 2.3774 13.9872 2.35298C13.9847 2.32854 13.9817 2.30418 13.9781 2.2799C13.9745 2.25562 13.9704 2.23144 13.9655 2.20736C13.9608 2.18328 13.9554 2.15934 13.9494 2.13552C13.9434 2.11171 13.9369 2.08806 13.9298 2.06457C13.9227 2.04108 13.915 2.01778 13.9067 1.99466C13.8984 1.97155 13.8896 1.94866 13.8802 1.92598C13.8708 1.9033 13.8609 1.88086 13.8504 1.85867C13.8399 1.83647 13.8288 1.81455 13.8173 1.7929C13.8057 1.77126 13.7936 1.7499 13.781 1.72885C13.7683 1.70779 13.7552 1.68706 13.7416 1.66664C13.7279 1.64623 13.7138 1.62617 13.6992 1.60645C13.6846 1.58673 13.6695 1.56739 13.6539 1.54841C13.6383 1.52943 13.6223 1.51085 13.6058 1.49266C13.5893 1.47447 13.5724 1.4567 13.555 1.43934C13.5377 1.42198 13.5199 1.40506 13.5017 1.38857C13.4835 1.37209 13.4649 1.35606 13.446 1.34048C13.427 1.32491 13.4076 1.30981 13.3879 1.29519C13.3682 1.28057 13.3481 1.26643 13.3277 1.25279C13.3073 1.23916 13.2866 1.22603 13.2655 1.21341C13.2445 1.20079 13.2231 1.18869 13.2015 1.17712C13.1798 1.16555 13.1579 1.15451 13.1357 1.14402C13.1135 1.13352 13.0911 1.12357 13.0684 1.11418C13.0457 1.10479 13.0228 1.09595 12.9997 1.08768C12.9766 1.07941 12.9533 1.07172 12.9298 1.06459C12.9063 1.05746 12.8827 1.05092 12.8589 1.04495C12.835 1.03899 12.8111 1.03361 12.787 1.02882C12.7629 1.02403 12.7388 1.01984 12.7145 1.01624C12.6902 1.01263 12.6658 1.00963 12.6414 1.00722C12.617 1.00482 12.5925 1.00301 12.568 1.00181C12.5435 1.0006 12.5189 1 12.4944 1C12.4698 1 12.4453 1.0006 12.4208 1.00181C12.3962 1.00301 12.3718 1.00482 12.3474 1.00722C12.3229 1.00963 12.2986 1.01263 12.2743 1.01624C12.25 1.01984 12.2258 1.02403 12.2017 1.02882C12.1777 1.03361 12.1537 1.03899 12.1299 1.04495C12.1061 1.05092 12.0824 1.05746 12.059 1.06459C12.0354 1.07172 12.0121 1.07941 11.989 1.08768C11.9659 1.09595 11.943 1.10479 11.9203 1.11418C11.8977 1.12357 11.8752 1.13352 11.853 1.14402C11.8308 1.15451 11.8089 1.16555 11.7873 1.17712C11.7656 1.18869 11.7443 1.20079 11.7232 1.21341C11.7022 1.22603 11.6814 1.23916 11.661 1.25279C11.6406 1.26643 11.6205 1.28057 11.6008 1.29519C11.5811 1.30981 11.5617 1.32491 11.5428 1.34048C11.5238 1.35606 11.5052 1.37209 11.487 1.38857C11.4688 1.40506 11.4511 1.42198 11.4337 1.43934C11.4163 1.4567 11.3994 1.47447 11.3829 1.49266C11.3665 1.51085 11.3504 1.52943 11.3349 1.54841C11.3193 1.56739 11.3042 1.58673 11.2896 1.60645C11.2749 1.62617 11.2608 1.64623 11.2472 1.66664C11.2335 1.68706 11.2204 1.70779 11.2078 1.72885C11.1952 1.7499 11.1831 1.77126 11.1715 1.7929C11.1599 1.81455 11.1489 1.83647 11.1384 1.85867C11.1279 1.88086 11.118 1.90329 11.1086 1.92597C11.0992 1.94865 11.0903 1.97155 11.0821 1.99466C11.0738 2.01778 11.0661 2.04108 11.059 2.06457C11.0518 2.08806 11.0453 2.11171 11.0393 2.13552C11.0334 2.15934 11.028 2.18328 11.0232 2.20736C11.0184 2.23144 11.0142 2.25562 11.0106 2.2799C11.007 2.30418 11.004 2.32854 11.0016 2.35298C10.9992 2.3774 10.9974 2.40187 10.9962 2.42641C10.995 2.45092 10.9944 2.47545 10.9944 2.5L10.9944 2.52672C7.44359 3.32359 4.76281 6.88609 4.76281 11.1752L4.76281 17.0223L2.9375 17.0223C2.92216 17.0223 2.90682 17.0227 2.89149 17.0235C2.87618 17.0242 2.86088 17.0253 2.8456 17.0269C2.83034 17.0284 2.81512 17.0302 2.79994 17.0325C2.78476 17.0347 2.76965 17.0374 2.7546 17.0404C2.73955 17.0433 2.72459 17.0467 2.70971 17.0504C2.69482 17.0542 2.68004 17.0582 2.66536 17.0627C2.65067 17.0672 2.63611 17.072 2.62167 17.0771C2.60722 17.0823 2.59291 17.0878 2.57874 17.0937C2.56456 17.0996 2.55054 17.1058 2.53667 17.1123C2.5228 17.1189 2.5091 17.1258 2.49556 17.133C2.48203 17.1403 2.46869 17.1478 2.45553 17.1557C2.44237 17.1636 2.42941 17.1718 2.41665 17.1803C2.4039 17.1889 2.39135 17.1977 2.37903 17.2068C2.36671 17.216 2.35462 17.2254 2.34276 17.2352C2.3309 17.2449 2.31928 17.2549 2.30791 17.2652C2.29655 17.2755 2.28544 17.2861 2.27459 17.2969C2.26374 17.3078 2.25316 17.3189 2.24286 17.3303C2.23255 17.3416 2.22254 17.3532 2.2128 17.3651C2.20307 17.377 2.19363 17.389 2.18449 17.4014C2.17535 17.4137 2.16652 17.4262 2.158 17.439C2.14947 17.4518 2.14127 17.4647 2.13338 17.4779C2.12549 17.491 2.11793 17.5044 2.1107 17.5179C2.10347 17.5314 2.09657 17.5451 2.09001 17.559C2.08345 17.5729 2.07723 17.5869 2.07136 17.6011C2.06549 17.6153 2.05997 17.6296 2.0548 17.644C2.04963 17.6585 2.04482 17.673 2.04037 17.6877C2.03591 17.7024 2.03182 17.7172 2.0281 17.7321C2.02437 17.7469 2.02101 17.7619 2.01801 17.7769C2.01502 17.792 2.0124 17.8071 2.01015 17.8223C2.0079 17.8375 2.00602 17.8527 2.00451 17.8679C2.00301 17.8832 2.00188 17.8985 2.00113 17.9138C2.00038 17.9292 2 17.9445 2 17.9598C2 17.9752 2.00038 17.9905 2.00113 18.0058C2.00188 18.0212 2.00301 18.0365 2.00451 18.0517C2.00602 18.067 2.0079 18.0822 2.01015 18.0974C2.0124 18.1126 2.01502 18.1277 2.01801 18.1427C2.02101 18.1578 2.02437 18.1727 2.0281 18.1876C2.03182 18.2025 2.03591 18.2173 2.04037 18.232C2.04482 18.2467 2.04963 18.2612 2.0548 18.2757C2.05997 18.2901 2.06549 18.3044 2.07136 18.3186C2.07723 18.3328 2.08345 18.3468 2.09001 18.3607C2.09657 18.3745 2.10347 18.3883 2.1107 18.4018C2.11793 18.4153 2.12549 18.4287 2.13338 18.4418C2.14127 18.455 2.14947 18.4679 2.158 18.4807C2.16652 18.4934 2.17535 18.506 2.18449 18.5183C2.19363 18.5306 2.20307 18.5427 2.2128 18.5546C2.22254 18.5665 2.23255 18.5781 2.24286 18.5894C2.25316 18.6008 2.26374 18.6119 2.27459 18.6227C2.28544 18.6336 2.29655 18.6442 2.30791 18.6545C2.31928 18.6648 2.3309 18.6748 2.34276 18.6845C2.35462 18.6943 2.36671 18.7037 2.37903 18.7128C2.39135 18.722 2.4039 18.7308 2.41665 18.7394C2.42941 18.7479 2.44237 18.7561 2.45553 18.764C2.46869 18.7719 2.48203 18.7794 2.49556 18.7866C2.5091 18.7939 2.5228 18.8008 2.53667 18.8073C2.55054 18.8139 2.56456 18.8201 2.57874 18.826C2.59291 18.8319 2.60722 18.8374 2.62167 18.8425C2.63611 18.8477 2.65068 18.8525 2.66536 18.857C2.68004 18.8614 2.69482 18.8655 2.70971 18.8692C2.72459 18.873 2.73955 18.8763 2.7546 18.8793C2.76965 18.8823 2.78476 18.8849 2.79994 18.8872C2.81512 18.8894 2.83034 18.8913 2.8456 18.8928C2.86088 18.8943 2.87618 18.8955 2.89149 18.8962C2.90682 18.897 2.92216 18.8973 2.9375 18.8973L8.75445 18.8973C8.75734 18.9567 8.76165 19.016 8.76737 19.0752C8.77309 19.1344 8.78021 19.1934 8.78874 19.2523C8.79727 19.3111 8.80719 19.3697 8.81851 19.4281C8.82983 19.4865 8.84251 19.5446 8.85659 19.6024C8.87068 19.6601 8.88612 19.7176 8.90293 19.7746C8.91973 19.8316 8.93787 19.8883 8.95737 19.9444C8.9769 20.0006 8.99771 20.0563 9.01986 20.1115C9.04201 20.1667 9.06547 20.2213 9.09022 20.2754C9.11497 20.3294 9.14098 20.3829 9.16827 20.4357C9.19557 20.4886 9.22409 20.5407 9.25388 20.5922C9.28365 20.6437 9.31463 20.6944 9.34681 20.7444C9.37899 20.7944 9.41237 20.8436 9.44689 20.892C9.48141 20.9404 9.51709 20.988 9.55388 21.0347C9.59066 21.0815 9.62853 21.1273 9.66751 21.1722C9.70648 21.2171 9.74649 21.2611 9.78755 21.3041C9.82862 21.3471 9.87069 21.3891 9.91374 21.4301C9.9568 21.4711 10.0008 21.5111 10.0458 21.55C10.0908 21.589 10.1366 21.6268 10.1834 21.6635C10.2301 21.7002 10.2778 21.7358 10.3262 21.7703C10.3746 21.8048 10.4239 21.8381 10.4739 21.8702C10.524 21.9023 10.5748 21.9333 10.6263 21.963C10.6778 21.9927 10.73 22.0212 10.7828 22.0484C10.8357 22.0756 10.8892 22.1016 10.9433 22.1263C10.9974 22.1509 11.0521 22.1743 11.1073 22.1964C11.1625 22.2185 11.2182 22.2393 11.2744 22.2587C11.3306 22.2781 11.3872 22.2962 11.4443 22.313C11.5014 22.3297 11.5588 22.3451 11.6165 22.3591C11.6743 22.3731 11.7324 22.3857 11.7908 22.397C11.8492 22.4082 11.9079 22.4181 11.9667 22.4265C12.0256 22.435 12.0846 22.442 12.1438 22.4477C12.203 22.4533 12.2623 22.4576 12.3217 22.4604C12.3811 22.4632 12.4405 22.4646 12.5 22.4646C12.5595 22.4646 12.6189 22.4632 12.6783 22.4604C12.7377 22.4576 12.797 22.4533 12.8562 22.4477C12.9154 22.442 12.9744 22.435 13.0333 22.4265C13.0921 22.4181 13.1508 22.4082 13.2092 22.397C13.2676 22.3857 13.3257 22.3731 13.3835 22.3591C13.4412 22.3451 13.4987 22.3297 13.5557 22.313C13.6128 22.2962 13.6694 22.2781 13.7256 22.2587C13.7818 22.2393 13.8375 22.2185 13.8927 22.1964C13.9479 22.1743 14.0026 22.1509 14.0567 22.1263C14.1108 22.1016 14.1643 22.0756 14.2172 22.0484C14.27 22.0212 14.3222 21.9927 14.3737 21.963C14.4252 21.9333 14.476 21.9023 14.5261 21.8702C14.5761 21.8381 14.6254 21.8048 14.6738 21.7703C14.7222 21.7358 14.7699 21.7002 14.8166 21.6635C14.8634 21.6268 14.9093 21.589 14.9542 21.55C14.9992 21.5111 15.0432 21.4711 15.0863 21.4301C15.1293 21.3891 15.1714 21.3471 15.2124 21.3041C15.2535 21.2611 15.2935 21.2171 15.3325 21.1722C15.3715 21.1273 15.4093 21.0814 15.4461 21.0347C15.4829 20.988 15.5186 20.9404 15.5531 20.892C15.5876 20.8436 15.621 20.7944 15.6532 20.7444C15.6854 20.6944 15.7164 20.6437 15.7461 20.5922C15.7759 20.5407 15.8044 20.4886 15.8317 20.4357C15.859 20.3829 15.885 20.3294 15.9098 20.2754C15.9345 20.2213 15.958 20.1667 15.9801 20.1115C16.0023 20.0563 16.0231 20.0006 16.0426 19.9444C16.0621 19.8883 16.0803 19.8316 16.0971 19.7746C16.1139 19.7176 16.1293 19.6601 16.1434 19.6024C16.1575 19.5446 16.1702 19.4865 16.1815 19.4281C16.1928 19.3697 16.2027 19.3111 16.2113 19.2523C16.2198 19.1934 16.2269 19.1344 16.2326 19.0752C16.2383 19.016 16.2427 18.9567 16.2455 18.8973L22.0625 18.8973C22.0779 18.8973 22.0932 18.897 22.1085 18.8962C22.1238 18.8955 22.1391 18.8943 22.1544 18.8928C22.1697 18.8913 22.1849 18.8894 22.2001 18.8872C22.2152 18.8849 22.2303 18.8823 22.2454 18.8793C22.2605 18.8763 22.2754 18.873 22.2903 18.8692C22.3052 18.8655 22.32 18.8614 22.3346 18.857C22.3493 18.8525 22.3639 18.8477 22.3783 18.8425C22.3928 18.8374 22.4071 18.8319 22.4213 18.826C22.4354 18.8201 22.4495 18.8139 22.4633 18.8073C22.4772 18.8008 22.4909 18.7939 22.5044 18.7866C22.518 18.7794 22.5313 18.7719 22.5445 18.764C22.5576 18.7561 22.5706 18.7479 22.5834 18.7394C22.5961 18.7308 22.6086 18.722 22.621 18.7128C22.6333 18.7037 22.6454 18.6943 22.6572 18.6845C22.6691 18.6748 22.6807 18.6648 22.6921 18.6545C22.7034 18.6442 22.7146 18.6336 22.7254 18.6227C22.7363 18.6119 22.7469 18.6008 22.7571 18.5894C22.7674 18.5781 22.7775 18.5665 22.7872 18.5546C22.7969 18.5427 22.8064 18.5306 22.8155 18.5183C22.8246 18.506 22.8335 18.4934 22.842 18.4807C22.8505 18.4679 22.8587 18.455 22.8666 18.4418C22.8745 18.4287 22.8821 18.4153 22.8893 18.4018C22.8965 18.3883 22.9034 18.3745 22.91 18.3607C22.9165 18.3468 22.9228 18.3328 22.9286 18.3186C22.9345 18.3044 22.94 18.2901 22.9452 18.2757C22.9504 18.2612 22.9552 18.2467 22.9596 18.232C22.9641 18.2173 22.9682 18.2025 22.9719 18.1876C22.9756 18.1727 22.979 18.1578 22.982 18.1427C22.985 18.1277 22.9876 18.1126 22.9899 18.0974C22.9921 18.0822 22.994 18.067 22.9955 18.0517C22.997 18.0365 22.9981 18.0212 22.9989 18.0058C22.9996 17.9905 23 17.9752 23 17.9598C23 17.9445 22.9996 17.9292 22.9989 17.9138C22.9981 17.8985 22.997 17.8832 22.9955 17.8679C22.994 17.8527 22.9921 17.8375 22.9899 17.8223C22.9876 17.8071 22.985 17.792 22.982 17.7769C22.979 17.7619 22.9756 17.7469 22.9719 17.7321C22.9682 17.7172 22.9641 17.7024 22.9596 17.6877C22.9552 17.673 22.9504 17.6585 22.9452 17.644C22.94 17.6296 22.9345 17.6153 22.9286 17.6011C22.9228 17.5869 22.9165 17.5729 22.91 17.559C22.9034 17.5451 22.8965 17.5314 22.8893 17.5179C22.8821 17.5044 22.8745 17.491 22.8666 17.4779C22.8587 17.4647 22.8505 17.4518 22.842 17.439C22.8335 17.4262 22.8246 17.4137 22.8155 17.4014C22.8064 17.389 22.7969 17.377 22.7872 17.3651C22.7775 17.3532 22.7674 17.3416 22.7571 17.3303C22.7469 17.3189 22.7363 17.3078 22.7254 17.2969C22.7146 17.2861 22.7034 17.2755 22.6921 17.2652C22.6807 17.2549 22.6691 17.2449 22.6572 17.2352C22.6454 17.2254 22.6333 17.216 22.621 17.2068C22.6086 17.1977 22.5961 17.1889 22.5834 17.1803C22.5706 17.1718 22.5576 17.1636 22.5445 17.1557C22.5313 17.1478 22.518 17.1403 22.5044 17.133C22.4909 17.1258 22.4772 17.1189 22.4633 17.1123C22.4495 17.1058 22.4354 17.0996 22.4213 17.0937C22.4071 17.0878 22.3928 17.0823 22.3783 17.0771C22.3639 17.072 22.3493 17.0672 22.3346 17.0627C22.32 17.0582 22.3052 17.0542 22.2903 17.0504C22.2754 17.0467 22.2605 17.0433 22.2454 17.0404C22.2304 17.0374 22.2152 17.0347 22.2001 17.0325C22.1849 17.0302 22.1697 17.0284 22.1544 17.0269C22.1391 17.0253 22.1238 17.0242 22.1085 17.0235C22.0932 17.0227 22.0779 17.0223 22.0625 17.0223ZM12.5 20.59C12.4712 20.59 12.4425 20.5893 12.4137 20.588C12.3849 20.5867 12.3563 20.5847 12.3276 20.5821C12.2989 20.5794 12.2703 20.5761 12.2418 20.5721C12.2133 20.5682 12.1849 20.5636 12.1566 20.5583C12.1283 20.553 12.1002 20.5471 12.0721 20.5405C12.0441 20.534 12.0163 20.5267 11.9886 20.5189C11.9609 20.511 11.9334 20.5026 11.9061 20.4934C11.8788 20.4843 11.8517 20.4746 11.8249 20.4642C11.798 20.4538 11.7714 20.4429 11.7451 20.4313C11.7187 20.4197 11.6927 20.4075 11.6669 20.3947C11.6411 20.3819 11.6156 20.3686 11.5904 20.3546C11.5653 20.3406 11.5404 20.3261 11.516 20.311C11.4915 20.2959 11.4673 20.2802 11.4435 20.264C11.4197 20.2478 11.3964 20.231 11.3734 20.2138C11.3503 20.1965 11.3278 20.1786 11.3056 20.1603C11.2834 20.142 11.2616 20.1231 11.2403 20.1038C11.219 20.0845 11.1981 20.0646 11.1777 20.0443C11.1573 20.024 11.1374 20.0033 11.1179 19.9821C11.0985 19.9609 11.0795 19.9392 11.0611 19.9171C11.0426 19.895 11.0247 19.8725 11.0073 19.8496C10.9899 19.8267 10.973 19.8034 10.9566 19.7797C10.9403 19.756 10.9245 19.732 10.9093 19.7075C10.894 19.6831 10.8794 19.6584 10.8653 19.6333C10.8512 19.6082 10.8376 19.5827 10.8247 19.557C10.8118 19.5313 10.7995 19.5053 10.7878 19.479C10.776 19.4528 10.7649 19.4262 10.7544 19.3994C10.7439 19.3726 10.734 19.3456 10.7247 19.3183C10.7155 19.2911 10.7068 19.2636 10.6989 19.236C10.6909 19.2084 10.6835 19.1805 10.6768 19.1526C10.6701 19.1246 10.664 19.0964 10.6586 19.0682C10.6532 19.0399 10.6484 19.0115 10.6443 18.983C10.6402 18.9546 10.6367 18.926 10.6339 18.8973L14.3661 18.8973C14.3633 18.926 14.3598 18.9546 14.3557 18.983C14.3516 19.0115 14.3468 19.0399 14.3414 19.0682C14.336 19.0964 14.3299 19.1246 14.3232 19.1526C14.3165 19.1805 14.3091 19.2084 14.3011 19.236C14.2932 19.2636 14.2845 19.2911 14.2752 19.3183C14.266 19.3456 14.2561 19.3726 14.2456 19.3994C14.2351 19.4262 14.224 19.4528 14.2122 19.4791C14.2005 19.5053 14.1882 19.5314 14.1753 19.5571C14.1624 19.5828 14.1488 19.6082 14.1347 19.6333C14.1206 19.6584 14.106 19.6831 14.0907 19.7075C14.0755 19.732 14.0597 19.756 14.0434 19.7797C14.027 19.8034 14.0101 19.8267 13.9927 19.8496C13.9753 19.8725 13.9574 19.895 13.9389 19.9171C13.9205 19.9392 13.9015 19.9609 13.8821 19.9821C13.8626 20.0033 13.8427 20.0241 13.8223 20.0444C13.8019 20.0646 13.781 20.0845 13.7597 20.1038C13.7384 20.1231 13.7166 20.142 13.6944 20.1603C13.6722 20.1786 13.6496 20.1965 13.6266 20.2138C13.6036 20.2311 13.5803 20.2478 13.5565 20.264C13.5327 20.2802 13.5085 20.2959 13.484 20.311C13.4596 20.3261 13.4347 20.3406 13.4095 20.3546C13.3844 20.3686 13.3589 20.3819 13.3331 20.3947C13.3073 20.4075 13.2813 20.4197 13.2549 20.4313C13.2286 20.4429 13.202 20.4539 13.1751 20.4642C13.1483 20.4746 13.1212 20.4843 13.0939 20.4935C13.0666 20.5026 13.0391 20.5111 13.0114 20.5189C12.9837 20.5268 12.9559 20.534 12.9279 20.5405C12.8998 20.5471 12.8717 20.553 12.8434 20.5583C12.8151 20.5636 12.7867 20.5682 12.7582 20.5721C12.7297 20.5761 12.7011 20.5794 12.6724 20.5821C12.6437 20.5847 12.6151 20.5867 12.5863 20.588C12.5575 20.5893 12.5288 20.59 12.5 20.59ZM18.3509 17.0223L6.64062 17.0223L6.64062 11.173C6.64062 7.40383 9.26117 4.34969 12.4951 4.34969C15.729 4.34969 18.3509 7.40383 18.3509 11.173L18.3509 17.0223Z">
  </path>
</svg>