<svg width="24" height="24" viewBox="0 0 24 24">
  <path
    d="M17.7083 11.61L8.70825 4.65673C8.70138 4.65137 8.69441 4.64615 8.68735 4.64105C8.6803 4.63594 8.67316 4.63096 8.66592 4.6261C8.65869 4.62124 8.65137 4.61651 8.64396 4.6119C8.63657 4.60729 8.6291 4.60282 8.62156 4.59849C8.61399 4.59415 8.60636 4.58994 8.59866 4.58586C8.59097 4.58178 8.5832 4.57784 8.57536 4.57402C8.56752 4.57023 8.55961 4.56656 8.55164 4.56303C8.54369 4.5595 8.53567 4.55611 8.52757 4.55286C8.51949 4.54961 8.51135 4.54651 8.50315 4.54355C8.49496 4.54059 8.48673 4.53777 8.47845 4.53509C8.47015 4.53241 8.46181 4.52987 8.45344 4.5275C8.44505 4.52511 8.43663 4.52287 8.42817 4.52077C8.41972 4.51868 8.41123 4.51674 8.4027 4.51496C8.39417 4.51316 8.38561 4.51152 8.37703 4.51002C8.36845 4.50852 8.35984 4.50717 8.35121 4.50598C8.34258 4.50478 8.33393 4.50373 8.32526 4.50284C8.3166 4.50195 8.30792 4.50121 8.29922 4.50062C8.29053 4.50002 8.28184 4.49959 8.27314 4.4993C8.26442 4.49901 8.2557 4.49887 8.247 4.49891C8.23828 4.49892 8.22957 4.49909 8.22087 4.4994C8.21216 4.49973 8.20347 4.5002 8.19478 4.50083C8.18608 4.50145 8.1774 4.50223 8.16875 4.50315C8.16009 4.50409 8.15145 4.50516 8.14282 4.50638C8.1342 4.50762 8.12559 4.509 8.11702 4.51053C8.10844 4.51206 8.09988 4.51374 8.09135 4.51557C8.08284 4.5174 8.07436 4.51937 8.06592 4.5215C8.05747 4.52362 8.04906 4.5259 8.04068 4.52832C8.03231 4.53074 8.02398 4.5333 8.0157 4.53601C8.00743 4.53873 7.9992 4.54159 7.99102 4.54459C7.98283 4.54757 7.97471 4.5507 7.96664 4.55398C7.95856 4.55727 7.95055 4.56069 7.9426 4.56425C7.93464 4.56781 7.92676 4.57152 7.91895 4.57536C7.91112 4.57919 7.90336 4.58316 7.89567 4.58727C7.888 4.59137 7.88039 4.59562 7.87285 4.59999C7.86531 4.60435 7.85786 4.60885 7.85049 4.61349C7.84311 4.61812 7.83581 4.62287 7.8286 4.62777C7.82138 4.63266 7.81425 4.63767 7.80722 4.64281C7.80019 4.64795 7.79324 4.65321 7.78639 4.65859C7.77952 4.66396 7.77277 4.66945 7.76611 4.67506C7.75946 4.68069 7.75289 4.68642 7.74642 4.69227C7.73996 4.69811 7.7336 4.70406 7.72735 4.71012C7.7211 4.71619 7.71495 4.72236 7.70892 4.72864C7.70288 4.73492 7.69695 4.74131 7.69113 4.74781C7.68532 4.7543 7.67962 4.76088 7.67402 4.76757C7.66845 4.77426 7.66298 4.78104 7.65762 4.78791C7.65228 4.79479 7.64705 4.80176 7.64194 4.80882C7.63684 4.81588 7.63187 4.82303 7.62701 4.83027C7.62215 4.8375 7.61742 4.84481 7.61283 4.8522C7.60822 4.85961 7.60375 4.86709 7.59942 4.87463C7.59508 4.8822 7.59087 4.88983 7.58679 4.89753C7.58273 4.90523 7.5788 4.913 7.575 4.92083C7.57119 4.92867 7.56752 4.93658 7.56401 4.94455C7.56048 4.95252 7.55709 4.96055 7.55384 4.96864C7.5506 4.97672 7.5475 4.98485 7.54453 4.99304C7.54158 5.00124 7.53877 5.00949 7.5361 5.01779C7.53342 5.02607 7.53089 5.03441 7.5285 5.0428C7.52613 5.05117 7.52389 5.05959 7.5218 5.06804C7.51972 5.07651 7.51778 5.085 7.51599 5.09352C7.51419 5.10205 7.51255 5.11061 7.51106 5.1192C7.50956 5.12778 7.50822 5.13638 7.50703 5.14501C7.50585 5.15365 7.50481 5.1623 7.50392 5.17095C7.50303 5.17962 7.50228 5.1883 7.50169 5.19699C7.50111 5.20569 7.50068 5.2144 7.5004 5.2231C7.50012 5.2318 7.49999 5.24052 7.5 5.24923L7.5 19.1595C7.50002 19.1682 7.50018 19.1769 7.50049 19.1856C7.50081 19.1943 7.50127 19.203 7.5019 19.2116C7.50252 19.2203 7.5033 19.229 7.50422 19.2376C7.50513 19.2463 7.5062 19.2549 7.50743 19.2635C7.50865 19.2721 7.51002 19.2807 7.51153 19.2893C7.51305 19.2979 7.51471 19.3064 7.51652 19.3149C7.51835 19.3234 7.52032 19.3318 7.52243 19.3403C7.52454 19.3487 7.5268 19.3571 7.5292 19.3655C7.53159 19.3739 7.53414 19.3822 7.53684 19.3904C7.53953 19.3987 7.54237 19.4069 7.54535 19.4151C7.54832 19.4233 7.55144 19.4314 7.55471 19.4394C7.55797 19.4475 7.56137 19.4555 7.5649 19.4635C7.56845 19.4714 7.57213 19.4793 7.57594 19.4871C7.57975 19.4949 7.5837 19.5027 7.58777 19.5104C7.59187 19.518 7.59609 19.5256 7.60043 19.5332C7.60477 19.5407 7.60925 19.5482 7.61386 19.5555C7.61847 19.5629 7.6232 19.5702 7.62806 19.5774C7.63292 19.5846 7.63791 19.5918 7.64302 19.5988C7.64813 19.6058 7.65336 19.6128 7.65872 19.6197C7.66406 19.6265 7.66953 19.6333 7.67513 19.6399C7.6807 19.6466 7.6864 19.6532 7.69221 19.6596C7.69804 19.6661 7.70397 19.6725 7.71 19.6787C7.71603 19.685 7.72217 19.6912 7.72842 19.6972C7.73467 19.7033 7.74102 19.7092 7.74748 19.715C7.75395 19.7209 7.76051 19.7266 7.76716 19.7322C7.77382 19.7378 7.78057 19.7433 7.78742 19.7486C7.79426 19.754 7.8012 19.7592 7.80823 19.7643C7.81526 19.7695 7.82238 19.7745 7.82958 19.7793C7.83678 19.7842 7.84406 19.789 7.85142 19.7936C7.8588 19.7982 7.86624 19.8027 7.87376 19.8071C7.88129 19.8114 7.88889 19.8157 7.89656 19.8198C7.90424 19.8239 7.91198 19.8278 7.91979 19.8316C7.9276 19.8355 7.93548 19.8392 7.94342 19.8427C7.95135 19.8463 7.95934 19.8497 7.96739 19.853C7.97546 19.8563 7.98357 19.8594 7.99174 19.8624C7.9999 19.8654 8.00811 19.8682 8.01638 19.8709C8.02464 19.8737 8.03296 19.8762 8.04132 19.8786C8.04967 19.8811 8.05806 19.8833 8.06649 19.8855C8.07492 19.8876 8.08339 19.8896 8.09189 19.8914C8.10039 19.8932 8.10892 19.8949 8.11749 19.8965C8.12605 19.898 8.13463 19.8994 8.14324 19.9006C8.15185 19.9019 8.16049 19.9029 8.16914 19.9039C8.17778 19.9048 8.18644 19.9056 8.19511 19.9062C8.20378 19.9069 8.21247 19.9074 8.22117 19.9077C8.22986 19.9081 8.23856 19.9082 8.24726 19.9083C8.25595 19.9083 8.26464 19.9082 8.27335 19.9079C8.28203 19.9076 8.29072 19.9072 8.29941 19.9066C8.30808 19.9061 8.31674 19.9054 8.3254 19.9045C8.33406 19.9036 8.34269 19.9026 8.3513 19.9014C8.35992 19.9002 8.36853 19.8989 8.3771 19.8974C8.38567 19.896 8.3942 19.8943 8.40272 19.8925C8.41124 19.8908 8.41972 19.8889 8.42817 19.8868C8.43663 19.8847 8.44504 19.8825 8.45341 19.8802C8.46177 19.8778 8.4701 19.8753 8.4784 19.8726C8.48668 19.87 8.49492 19.8672 8.5031 19.8643C8.51129 19.8613 8.51942 19.8583 8.5275 19.855C8.53558 19.8518 8.5436 19.8485 8.55157 19.845C8.55954 19.8415 8.56744 19.8378 8.57527 19.8341C8.58311 19.8303 8.59088 19.8264 8.59859 19.8223C8.60629 19.8183 8.61392 19.8141 8.62146 19.8098C8.62902 19.8055 8.63651 19.8011 8.64392 19.7965C8.65131 19.7919 8.65863 19.7872 8.66587 19.7824C8.67311 19.7776 8.68026 19.7726 8.68732 19.7676C8.69438 19.7625 8.70136 19.7573 8.70825 19.752L17.7083 12.798C17.7195 12.7893 17.7306 12.7802 17.7414 12.7709C17.7521 12.7615 17.7626 12.7519 17.7729 12.7419C17.7831 12.732 17.7931 12.7217 17.8027 12.7112C17.8123 12.7007 17.8217 12.6899 17.8307 12.6788C17.8397 12.6678 17.8485 12.6565 17.8568 12.6449C17.8652 12.6334 17.8733 12.6216 17.881 12.6096C17.8887 12.5976 17.8961 12.5854 17.9031 12.5729C17.9101 12.5605 17.9167 12.5479 17.923 12.5351C17.9293 12.5223 17.9352 12.5093 17.9408 12.4961C17.9464 12.483 17.9515 12.4697 17.9563 12.4562C17.9611 12.4428 17.9655 12.4292 17.9695 12.4155C17.9735 12.4018 17.9772 12.388 17.9804 12.3741C17.9836 12.3602 17.9865 12.3462 17.9889 12.3322C17.9913 12.3181 17.9934 12.304 17.995 12.2898C17.9966 12.2756 17.9978 12.2614 17.9986 12.2472C17.9995 12.2329 17.9999 12.2187 17.9999 12.2044C17.9999 12.1901 17.9995 12.1758 17.9986 12.1616C17.9978 12.1473 17.9966 12.1331 17.995 12.1189C17.9934 12.1047 17.9913 12.0906 17.9889 12.0765C17.9865 12.0625 17.9836 12.0485 17.9804 12.0346C17.9772 12.0207 17.9735 12.0069 17.9695 11.9932C17.9655 11.9795 17.9611 11.9659 17.9563 11.9525C17.9515 11.939 17.9464 11.9258 17.9408 11.9126C17.9352 11.8995 17.9293 11.8865 17.923 11.8737C17.9167 11.8609 17.9101 11.8482 17.9031 11.8358C17.8961 11.8234 17.8887 11.8111 17.881 11.7991C17.8733 11.7871 17.8652 11.7754 17.8568 11.7638C17.8485 11.7522 17.8397 11.7409 17.8307 11.7299C17.8217 11.7188 17.8123 11.708 17.8027 11.6975C17.7931 11.687 17.7831 11.6768 17.7729 11.6668C17.7626 11.6569 17.7521 11.6472 17.7414 11.6378C17.7306 11.6285 17.7195 11.6194 17.7083 11.6107">
  </path>
</svg>