<svg width="10" height="21" viewBox="0 0 10 21">
  <path
    d="M6.22109 1.3237L1.02087 10.5L6.22109 19.6763L6.23801 19.7062L6.24929 19.7261L6.26058 19.7559C6.26058 19.7559 6.27186 19.7756 6.27186 19.7858C6.27186 19.796 6.28314 19.8052 6.28314 19.8156C6.28314 19.8261 6.29442 19.8447 6.29442 19.8554C6.29442 19.8662 6.3057 19.8743 6.3057 19.8853C6.3057 19.8964 6.31134 19.9039 6.31134 19.9152C6.31134 19.9265 6.32262 19.9435 6.32262 19.955C6.32262 19.9665 6.32826 19.9731 6.32826 19.9848C6.32826 19.9965 6.3339 20.0128 6.3339 20.0246C6.3339 20.0365 6.33954 20.0425 6.33954 20.0545C6.33954 20.0665 6.33954 20.0822 6.33954 20.0943C6.33954 20.1064 6.34518 20.122 6.34518 20.1341C6.34518 20.1463 6.34518 20.1518 6.34518 20.164C6.34518 20.1762 6.34518 20.1916 6.34518 20.2038C6.34518 20.216 6.34518 20.2314 6.34518 20.2436C6.34518 20.2558 6.34518 20.2613 6.34518 20.2735C6.34518 20.2856 6.33954 20.3012 6.33954 20.3133C6.33954 20.3254 6.33954 20.3411 6.33954 20.3531C6.33954 20.3651 6.3339 20.3711 6.3339 20.3829C6.3339 20.3948 6.32826 20.4111 6.32826 20.4227C6.32826 20.4344 6.32262 20.4411 6.32262 20.4526C6.32262 20.4641 6.31134 20.4811 6.31134 20.4924C6.31134 20.5037 6.3057 20.5112 6.3057 20.5223C6.3057 20.5333 6.29442 20.5414 6.29442 20.5521C6.29442 20.5629 6.28314 20.5815 6.28314 20.5919C6.28314 20.6024 6.27186 20.6117 6.27186 20.6218C6.27186 20.6319 6.26058 20.6517 6.26058 20.6517L6.24929 20.6815L6.23801 20.7014L6.22109 20.7313L6.20417 20.7611L6.19289 20.781L6.17597 20.8009C6.17597 20.8009 6.16482 20.8209 6.15905 20.8209C6.1533 20.8209 6.14807 20.8408 6.14213 20.8408C6.1362 20.8408 6.12568 20.8607 6.11957 20.8607C6.11346 20.8607 6.1089 20.8806 6.10265 20.8806C6.0964 20.8806 6.09213 20.8905 6.08573 20.8905C6.07933 20.8905 6.06969 20.9104 6.06317 20.9104C6.05665 20.9104 6.05287 20.9204 6.04625 20.9204C6.03963 20.9204 6.0304 20.9303 6.02369 20.9303C6.01697 20.9303 6.01356 20.9403 6.00677 20.9403C5.99999 20.9403 5.99107 20.9403 5.98421 20.9403C5.97736 20.9403 5.96853 20.9502 5.96165 20.9502C5.95476 20.9502 5.95164 20.9502 5.94473 20.9502C5.93781 20.9502 5.92909 20.9502 5.92217 20.9502C5.91525 20.9502 5.90652 20.9502 5.89961 20.9502C5.89269 20.9502 5.88957 20.9502 5.88268 20.9502C5.8758 20.9502 5.86697 20.9403 5.86012 20.9403C5.85328 20.9403 5.84436 20.9403 5.83756 20.9403C5.83078 20.9403 5.82737 20.9303 5.82064 20.9303C5.81393 20.9303 5.80471 20.9204 5.79808 20.9204C5.79146 20.9204 5.78768 20.9104 5.78116 20.9104C5.77464 20.9104 5.765 20.8905 5.7586 20.8905C5.7522 20.8905 5.74793 20.8806 5.74168 20.8806C5.73543 20.8806 5.73088 20.8607 5.72476 20.8607C5.71865 20.8607 5.70814 20.8408 5.7022 20.8408C5.69626 20.8408 5.69103 20.8209 5.68528 20.8209C5.67952 20.8209 5.66836 20.8009 5.66836 20.8009L5.65144 20.781L5.64016 20.7611L5.62324 20.7313L0.124083 11.0275L0.107163 10.9976L0.0958827 10.9777L0.0846024 10.9479C0.0846024 10.9479 0.0733221 10.9282 0.0733221 10.918C0.0733221 10.9079 0.0620417 10.8986 0.0620417 10.8882C0.0620417 10.8777 0.0507614 10.8591 0.0507614 10.8483C0.0507614 10.8376 0.0394811 10.8295 0.0394811 10.8185C0.0394811 10.8074 0.0338409 10.7999 0.0338409 10.7886C0.0338409 10.7773 0.0225606 10.7603 0.0225606 10.7488C0.0225606 10.7373 0.0169205 10.7307 0.0169205 10.719C0.0169205 10.7073 0.0112803 10.691 0.0112803 10.6791C0.0112803 10.6673 0.00564016 10.6613 0.00564016 10.6493C0.00564016 10.6373 0.00564016 10.6216 0.00564016 10.6095C0.00564016 10.5974 0 10.5818 0 10.5697C0 10.5575 0 10.552 0 10.5398C0 10.5276 0 10.5122 0 10.5C0 10.4878 0 10.4724 0 10.4602C0 10.448 0 10.4425 0 10.4303C0 10.4182 0.00564016 10.4026 0.00564016 10.3905C0.00564016 10.3784 0.00564016 10.3627 0.00564016 10.3507C0.00564016 10.3387 0.0112803 10.3327 0.0112803 10.3209C0.0112803 10.309 0.0169205 10.2928 0.0169205 10.281C0.0169205 10.2694 0.0225606 10.2627 0.0225606 10.2512C0.0225606 10.2397 0.0338409 10.2227 0.0338409 10.2114C0.0338409 10.2001 0.0394811 10.1926 0.0394811 10.1815C0.0394811 10.1705 0.0507614 10.1625 0.0507614 10.1517C0.0507614 10.1409 0.0620417 10.1223 0.0620417 10.1118C0.0620417 10.1014 0.0733221 10.0921 0.0733221 10.082C0.0733221 10.0718 0.0846024 10.0521 0.0846024 10.0521L0.0958827 10.0223L0.107163 10.0024L0.124083 9.97251L5.62324 0.26872L5.64016 0.238863L5.65144 0.218957L5.66836 0.199052C5.66836 0.199052 5.67952 0.179147 5.68528 0.179147C5.69104 0.179147 5.69626 0.159242 5.7022 0.159242C5.70814 0.159242 5.71865 0.139336 5.72476 0.139336C5.73087 0.139336 5.73541 0.119431 5.74168 0.119431C5.74793 0.119431 5.75219 0.109479 5.7586 0.109479C5.765 0.109479 5.77464 0.0895735 5.78116 0.0895735C5.78768 0.0895735 5.79146 0.0796209 5.79808 0.0796209C5.80472 0.0796209 5.81393 0.0696682 5.82064 0.0696682C5.82737 0.0696682 5.83077 0.0597156 5.83756 0.0597156C5.84435 0.0597156 5.85326 0.0597156 5.86012 0.0597156C5.86698 0.0597156 5.8758 0.049763 5.88268 0.049763C5.88957 0.049763 5.89269 0.049763 5.89961 0.049763C5.90652 0.049763 5.91523 0.049763 5.92217 0.049763C5.92909 0.049763 5.93781 0.049763 5.94473 0.049763C5.95164 0.049763 5.95476 0.049763 5.96165 0.049763C5.96853 0.049763 5.97735 0.0597156 5.98421 0.0597156C5.99107 0.0597156 5.99997 0.0597156 6.00677 0.0597156C6.01356 0.0597156 6.01697 0.0696682 6.02369 0.0696682C6.03042 0.0696682 6.03963 0.0796209 6.04625 0.0796209C6.05287 0.0796209 6.05665 0.0895735 6.06317 0.0895735C6.0697 0.0895735 6.07933 0.109479 6.08573 0.109479C6.09213 0.109479 6.09639 0.119431 6.10265 0.119431C6.1089 0.119431 6.11345 0.139336 6.11957 0.139336C6.12568 0.139336 6.1362 0.159242 6.14213 0.159242C6.14808 0.159242 6.1533 0.179147 6.15905 0.179147C6.16482 0.179147 6.17597 0.199052 6.17597 0.199052L6.19289 0.218957L6.20417 0.238863L6.22109 0.26872L6.23801 0.298578L6.24929 0.318483L6.26058 0.348341C6.26058 0.348341 6.27186 0.368036 6.27186 0.378199C6.27186 0.388362 6.28314 0.397574 6.28314 0.408057C6.28314 0.418542 6.29442 0.437086 6.29442 0.447867C6.29442 0.458649 6.3057 0.466678 6.3057 0.477725C6.3057 0.488777 6.31134 0.496291 6.31134 0.507583C6.31134 0.518878 6.32262 0.535884 6.32262 0.547393C6.32262 0.558903 6.32826 0.565555 6.32826 0.577251C6.32826 0.588949 6.3339 0.605205 6.3339 0.617062C6.3339 0.628921 6.33954 0.63493 6.33954 0.646919C6.33954 0.658909 6.33954 0.67464 6.33954 0.68673C6.33954 0.698822 6.34518 0.714376 6.34518 0.72654C6.34518 0.738707 6.34518 0.744189 6.34518 0.756398C6.34518 0.768607 6.34518 0.783985 6.34518 0.796209C6.34518 0.808434 6.34518 0.82381 6.34518 0.836019C6.34518 0.848228 6.34518 0.853712 6.34518 0.865877C6.34518 0.878044 6.33954 0.893595 6.33954 0.905687C6.33954 0.917787 6.33954 0.933508 6.33954 0.945498C6.33954 0.957487 6.3339 0.963506 6.3339 0.975355C6.3339 0.987222 6.32826 1.00347 6.32826 1.01517C6.32826 1.02686 6.32262 1.03352 6.32262 1.04502C6.32262 1.05655 6.31134 1.07354 6.31134 1.08483C6.31134 1.09612 6.3057 1.10364 6.3057 1.11469C6.3057 1.12573 6.29442 1.13376 6.29442 1.14455C6.29442 1.15533 6.28314 1.17388 6.28314 1.18436C6.28314 1.19486 6.27186 1.20406 6.27186 1.21422C6.27186 1.22439 6.26058 1.24408 6.26058 1.24408L6.24929 1.27393L6.23801 1.29384L6.22109 1.3237ZM9.54879 0C9.5414 0 9.53362 0 9.52623 0C9.51884 0 9.51103 0 9.50367 0C9.4963 0 9.48842 0.00995261 9.48111 0.00995261C9.47379 0.00995261 9.4658 0.0199052 9.45854 0.0199052C9.45129 0.0199052 9.44316 0.0199052 9.43598 0.0199052C9.42881 0.0199052 9.4205 0.0298578 9.41342 0.0298578C9.40635 0.0298578 9.40347 0.049763 9.3965 0.049763C9.38954 0.049763 9.38078 0.0597156 9.37394 0.0597156C9.36711 0.0597156 9.35807 0.0796209 9.35138 0.0796209C9.34469 0.0796209 9.34098 0.0895735 9.33446 0.0895735C9.32794 0.0895735 9.31825 0.109479 9.3119 0.109479C9.30556 0.109479 9.30113 0.129384 9.29498 0.129384C9.28883 0.129384 9.284 0.159242 9.27806 0.159242C9.27212 0.159242 9.26686 0.179147 9.26114 0.179147C9.25541 0.179147 9.24422 0.209005 9.24422 0.209005L9.2273 0.22891L9.21038 0.258768C9.21038 0.258768 9.1991 0.278546 9.1991 0.288626C9.1991 0.298707 9.18218 0.30801 9.18218 0.318483C9.18218 0.328959 9.1709 0.347449 9.1709 0.358294C9.1709 0.369138 9.15962 0.376964 9.15962 0.388152C9.15962 0.399339 9.14834 0.406507 9.14834 0.418009C9.14834 0.429514 9.13706 0.446028 9.13706 0.45782C9.13706 0.469614 9.13142 0.475627 9.13142 0.487678C9.13142 0.49973 9.12014 0.515204 9.12014 0.527488C9.12014 0.539772 9.1145 0.554814 9.1145 0.567299C9.1145 0.579783 9.10886 0.594454 9.10886 0.607109C9.10886 0.619764 9.10322 0.624172 9.10322 0.636967C9.10322 0.649764 9.09758 0.663873 9.09758 0.676777C9.09758 0.689684 9.09758 0.703604 9.09758 0.716588C9.09758 0.729571 9.09758 0.743368 9.09758 0.756398C9.09758 0.769428 9.09193 0.783162 9.09193 0.796209L9.09193 20.2038C9.09193 20.2168 9.09758 20.2306 9.09758 20.2436C9.09758 20.2566 9.09758 20.2704 9.09758 20.2834C9.09758 20.2964 9.09758 20.3103 9.09758 20.3232C9.09758 20.3361 9.10322 20.3503 9.10322 20.363C9.10322 20.3758 9.10886 20.3802 9.10886 20.3929C9.10886 20.4055 9.1145 20.4202 9.1145 20.4327C9.1145 20.4452 9.12014 20.4602 9.12014 20.4725C9.12014 20.4848 9.13142 20.5003 9.13142 20.5123C9.13142 20.5244 9.13706 20.5304 9.13706 20.5422C9.13706 20.554 9.14834 20.5705 9.14834 20.582C9.14834 20.5935 9.15962 20.6007 9.15962 20.6118C9.15962 20.623 9.1709 20.6408 9.1709 20.6517C9.1709 20.6625 9.18218 20.671 9.18218 20.6815C9.18218 20.692 9.1991 20.7013 9.1991 20.7114C9.1991 20.7215 9.21038 20.7412 9.21038 20.7412L9.2273 20.7711L9.24422 20.791C9.24422 20.791 9.25543 20.8209 9.26114 20.8209C9.26685 20.8209 9.27212 20.8408 9.27806 20.8408C9.284 20.8408 9.28883 20.8706 9.29498 20.8706C9.30113 20.8706 9.30557 20.8905 9.3119 20.8905C9.31823 20.8905 9.32794 20.9104 9.33446 20.9104C9.34098 20.9104 9.34471 20.9204 9.35138 20.9204C9.35806 20.9204 9.36712 20.9403 9.37394 20.9403C9.38078 20.9403 9.38955 20.9502 9.3965 20.9502C9.40346 20.9502 9.40635 20.9701 9.41342 20.9701C9.4205 20.9701 9.42882 20.9801 9.43598 20.9801C9.44315 20.9801 9.45129 20.99 9.45854 20.99C9.46579 20.99 9.47379 20.99 9.48111 20.99C9.48842 20.99 9.4963 21 9.50367 21C9.51102 21 9.51885 21 9.52623 21C9.53362 21 9.53576 21 9.54315 21C9.55054 21 9.55832 21 9.56571 21C9.57308 21 9.58092 21 9.58827 21C9.59563 21 9.60352 20.99 9.61083 20.99C9.61814 20.99 9.62615 20.99 9.63339 20.99C9.64065 20.99 9.64879 20.9801 9.65595 20.9801C9.66312 20.9801 9.67144 20.9701 9.67851 20.9701C9.68558 20.9701 9.68847 20.9502 9.69543 20.9502C9.70238 20.9502 9.71116 20.9403 9.71799 20.9403C9.72481 20.9403 9.73388 20.9204 9.74055 20.9204C9.74723 20.9204 9.75096 20.9104 9.75747 20.9104C9.76399 20.9104 9.7737 20.8905 9.78003 20.8905C9.78638 20.8905 9.79081 20.8706 9.79695 20.8706C9.8031 20.8706 9.80794 20.8408 9.81388 20.8408C9.81981 20.8408 9.82507 20.8209 9.8308 20.8209C9.83651 20.8209 9.84772 20.791 9.84772 20.791L9.86464 20.7711L9.88156 20.7412C9.88156 20.7412 9.89284 20.7215 9.89284 20.7114C9.89284 20.7013 9.90976 20.692 9.90976 20.6815C9.90976 20.671 9.92104 20.6625 9.92104 20.6517C9.92104 20.6408 9.93232 20.623 9.93232 20.6118C9.93232 20.6007 9.9436 20.5935 9.9436 20.582C9.9436 20.5705 9.95488 20.554 9.95488 20.5422C9.95488 20.5304 9.96052 20.5244 9.96052 20.5123C9.96052 20.5003 9.9718 20.4848 9.9718 20.4725C9.9718 20.4602 9.97744 20.4452 9.97744 20.4327C9.97744 20.4202 9.98308 20.4055 9.98308 20.3929C9.98308 20.3802 9.98872 20.3758 9.98872 20.363C9.98872 20.3503 9.99436 20.3361 9.99436 20.3232C9.99436 20.3103 9.99436 20.2964 9.99436 20.2834C9.99436 20.2704 9.99436 20.2566 9.99436 20.2436C9.99436 20.2306 10 20.2168 10 20.2038L10 0.796209C10 0.783183 9.99436 0.76941 9.99436 0.756398C9.99436 0.743387 9.99436 0.729553 9.99436 0.716588C9.99436 0.703623 9.99436 0.689663 9.99436 0.676777C9.99436 0.663892 9.98872 0.649745 9.98872 0.636967C9.98872 0.624189 9.98308 0.619747 9.98308 0.607109C9.98308 0.594473 9.97744 0.579767 9.97744 0.567299C9.97744 0.554833 9.9718 0.539756 9.9718 0.527488C9.9718 0.515221 9.96052 0.499714 9.96052 0.487678C9.96052 0.475641 9.95488 0.4696 9.95488 0.45782C9.95488 0.446042 9.9436 0.429502 9.9436 0.418009C9.9436 0.406519 9.93232 0.39933 9.93232 0.388152C9.93232 0.376976 9.92104 0.369131 9.92104 0.358294C9.92104 0.347461 9.90976 0.328952 9.90976 0.318483C9.90976 0.308017 9.89284 0.2987 9.89284 0.288626C9.89284 0.278553 9.88156 0.258768 9.88156 0.258768L9.86464 0.22891L9.84772 0.209005C9.84772 0.209005 9.83649 0.179147 9.8308 0.179147C9.8251 0.179147 9.81981 0.159242 9.81388 0.159242C9.80795 0.159242 9.8031 0.139336 9.79695 0.139336C9.79082 0.139336 9.78637 0.109479 9.78003 0.109479C9.7737 0.109479 9.76398 0.0895735 9.75747 0.0895735C9.75096 0.0895735 9.74723 0.0796209 9.74055 0.0796209C9.73388 0.0796209 9.72481 0.0597156 9.71799 0.0597156C9.71118 0.0597156 9.70802 0.049763 9.70107 0.049763C9.69413 0.049763 9.68558 0.0298578 9.67851 0.0298578C9.67145 0.0298578 9.6631 0.0199052 9.65595 0.0199052C9.64879 0.0199052 9.64062 0.0199052 9.63339 0.0199052C9.62615 0.0199052 9.61813 0.00995261 9.61083 0.00995261C9.60352 0.00995261 9.5956 0 9.58827 0C9.58092 0 9.57308 0 9.56571 0C9.55834 0 9.55618 0 9.54879 0Z">
  </path>
</svg>