<svg width="24" height="24">
  <path
    d="M18 4.31245L18 2.20503C18 2.20011 17.9999 2.1952 17.9996 2.19029C17.9994 2.18541 17.9991 2.18053 17.9986 2.17566C17.9981 2.17079 17.9975 2.16596 17.9968 2.16116C17.9961 2.15636 17.9953 2.15161 17.9944 2.14691C17.9935 2.14219 17.9924 2.13753 17.9913 2.13291C17.9901 2.12832 17.9889 2.12379 17.9875 2.11933C17.9861 2.11487 17.9847 2.11049 17.9831 2.10618C17.9815 2.10188 17.9798 2.09766 17.9781 2.09353C17.9763 2.08941 17.9744 2.08538 17.9724 2.08145C17.9705 2.07754 17.9684 2.07373 17.9663 2.07002C17.9641 2.06633 17.9619 2.06276 17.9595 2.05931C17.9572 2.05584 17.9548 2.05251 17.9523 2.04932C17.9498 2.04612 17.9473 2.04307 17.9447 2.04014C17.942 2.03722 17.9393 2.03445 17.9366 2.03181C17.9338 2.02918 17.931 2.02671 17.9281 2.02438C17.9252 2.02206 17.9223 2.0199 17.9193 2.0179C17.9163 2.01588 17.9133 2.01404 17.9102 2.01236C17.9072 2.01069 17.904 2.00918 17.9009 2.00783C17.8978 2.00648 17.8946 2.00531 17.8914 2.00432C17.8882 2.00331 17.885 2.00248 17.8817 2.00183C17.8785 2.00118 17.8752 2.0007 17.872 2.0004C17.8687 2.00009 17.8654 1.99996 17.8622 2.00001C17.8589 2.00006 17.8556 2.00029 17.8524 2.0007C17.8491 2.00111 17.8459 2.00169 17.8427 2.00245C17.8394 2.0032 17.8362 2.00412 17.833 2.00521C17.8298 2.00632 17.8267 2.0076 17.8236 2.00903C17.8204 2.01048 17.8173 2.0121 17.8143 2.01388C17.8112 2.01565 17.8082 2.01759 17.8053 2.01969C17.8023 2.02178 17.7994 2.02403 17.7966 2.02646C17.7937 2.02887 17.7909 2.03143 17.7882 2.03415C17.7855 2.03686 17.7828 2.03972 17.7802 2.04273C17.7777 2.04572 17.7751 2.04886 17.7727 2.05214L10.821 11.3881C10.8057 11.4087 10.7911 11.4306 10.7774 11.4537C10.5768 11.7916 10.5964 12.3101 10.821 12.6118L17.7727 21.9479C17.7751 21.9511 17.7776 21.9543 17.7802 21.9573C17.7828 21.9603 17.7855 21.9631 17.7882 21.9658C17.7909 21.9686 17.7937 21.9711 17.7966 21.9735C17.7994 21.9759 17.8023 21.9782 17.8053 21.9803C17.8082 21.9824 17.8112 21.9843 17.8143 21.9861C17.8173 21.9879 17.8204 21.9895 17.8235 21.991C17.8267 21.9924 17.8298 21.9937 17.833 21.9948C17.8362 21.9959 17.8394 21.9968 17.8426 21.9975C17.8459 21.9983 17.8491 21.9989 17.8524 21.9993C17.8556 21.9997 17.8589 21.9999 17.8622 22C17.8654 22 17.8687 21.9999 17.8719 21.9996C17.8752 21.9993 17.8785 21.9988 17.8817 21.9982C17.885 21.9975 17.8882 21.9967 17.8914 21.9957C17.8946 21.9947 17.8977 21.9935 17.9009 21.9922C17.904 21.9908 17.9071 21.9893 17.9102 21.9876C17.9133 21.986 17.9163 21.9841 17.9193 21.9821C17.9223 21.9801 17.9252 21.9779 17.9281 21.9756C17.931 21.9733 17.9338 21.9708 17.9366 21.9682C17.9393 21.9656 17.942 21.9628 17.9447 21.9598C17.9473 21.9569 17.9498 21.9539 17.9523 21.9507C17.9548 21.9475 17.9572 21.9442 17.9595 21.9407C17.9619 21.9372 17.9641 21.9337 17.9662 21.9299C17.9684 21.9262 17.9705 21.9225 17.9724 21.9185C17.9744 21.9146 17.9763 21.9106 17.9781 21.9065C17.9798 21.9023 17.9815 21.8981 17.9831 21.8938C17.9847 21.8895 17.9861 21.8851 17.9875 21.8807C17.9889 21.8762 17.9901 21.8717 17.9913 21.8671C17.9924 21.8625 17.9935 21.8578 17.9944 21.8531C17.9953 21.8484 17.9961 21.8437 17.9968 21.8388C17.9975 21.834 17.9981 21.8292 17.9986 21.8243C17.999 21.8195 17.9994 21.8146 17.9996 21.8097C17.9999 21.8048 18 21.7999 18 21.795L18 19.6875C18 19.6804 17.9999 19.6732 17.9996 19.666C17.9994 19.6588 17.999 19.6517 17.9985 19.6445C17.998 19.6374 17.9973 19.6302 17.9966 19.6231C17.9958 19.616 17.995 19.6089 17.994 19.6019C17.993 19.5949 17.9918 19.5879 17.9906 19.581C17.9894 19.574 17.988 19.5671 17.9865 19.5603C17.985 19.5535 17.9834 19.5467 17.9817 19.54C17.98 19.5333 17.9782 19.5266 17.9762 19.5201C17.9742 19.5135 17.9722 19.507 17.97 19.5006C17.9678 19.4942 17.9655 19.4879 17.9631 19.4817C17.9607 19.4755 17.9582 19.4694 17.9556 19.4634C17.953 19.4573 17.9503 19.4514 17.9474 19.4456C17.9446 19.4398 17.9417 19.4341 17.9387 19.4285C17.9356 19.423 17.9325 19.4175 17.9293 19.4122C17.9261 19.4068 17.9228 19.4017 17.9194 19.3966C17.916 19.3915 17.9125 19.3866 17.909 19.3818L12.4124 12L17.909 4.6182C17.9125 4.61343 17.916 4.60848 17.9194 4.60341C17.9228 4.59836 17.9261 4.59316 17.9293 4.58783C17.9325 4.5825 17.9356 4.57707 17.9387 4.57148C17.9417 4.56589 17.9446 4.56021 17.9474 4.55442C17.9503 4.54861 17.953 4.54269 17.9556 4.53666C17.9582 4.53065 17.9607 4.52453 17.9631 4.51831C17.9655 4.51209 17.9678 4.50578 17.97 4.49937C17.9722 4.49298 17.9742 4.48651 17.9762 4.47995C17.9782 4.47339 17.98 4.46675 17.9817 4.46004C17.9834 4.45332 17.985 4.44655 17.9865 4.43971C17.988 4.43288 17.9894 4.42599 17.9906 4.41906C17.9919 4.4121 17.993 4.40512 17.994 4.39809C17.995 4.39106 17.9959 4.38398 17.9966 4.37687C17.9974 4.36979 17.998 4.36266 17.9985 4.3555C17.999 4.34836 17.9994 4.34119 17.9996 4.334C17.9999 4.32682 18 4.31964 18 4.31245ZM13.3611 4.31245L13.3611 2.20503C13.3611 2.20011 13.361 2.1952 13.3608 2.19029C13.3605 2.18541 13.3602 2.18053 13.3597 2.17566C13.3592 2.17079 13.3587 2.16596 13.358 2.16116C13.3573 2.15636 13.3565 2.15161 13.3555 2.14691C13.3546 2.14219 13.3536 2.13753 13.3524 2.13291C13.3513 2.12832 13.35 2.12379 13.3486 2.11933C13.3473 2.11487 13.3458 2.11049 13.3442 2.10618C13.3426 2.10188 13.341 2.09766 13.3392 2.09353C13.3374 2.08941 13.3355 2.08538 13.3336 2.08145C13.3316 2.07754 13.3295 2.07373 13.3274 2.07002C13.3252 2.06633 13.323 2.06276 13.3207 2.05931C13.3183 2.05584 13.3159 2.05251 13.3135 2.04932C13.311 2.04612 13.3084 2.04307 13.3058 2.04014C13.3031 2.03722 13.3005 2.03445 13.2977 2.03181C13.2949 2.02918 13.2921 2.02671 13.2892 2.02438C13.2864 2.02206 13.2834 2.0199 13.2804 2.0179C13.2775 2.01588 13.2744 2.01404 13.2713 2.01236C13.2683 2.01069 13.2652 2.00918 13.262 2.00783C13.2589 2.00648 13.2557 2.00531 13.2525 2.00432C13.2493 2.00331 13.2461 2.00248 13.2428 2.00183C13.2396 2.00118 13.2363 2.0007 13.2331 2.0004C13.2298 2.00009 13.2266 1.99996 13.2233 2.00001C13.22 2.00006 13.2168 2.00029 13.2135 2.0007C13.2102 2.00111 13.207 2.00169 13.2038 2.00245C13.2005 2.0032 13.1973 2.00412 13.1941 2.00521C13.191 2.00632 13.1878 2.0076 13.1847 2.00903C13.1816 2.01048 13.1785 2.0121 13.1754 2.01388C13.1724 2.01565 13.1693 2.01759 13.1664 2.01969C13.1634 2.02178 13.1606 2.02403 13.1577 2.02646C13.1549 2.02887 13.1521 2.03143 13.1493 2.03415C13.1466 2.03686 13.144 2.03972 13.1414 2.04273C13.1388 2.04572 13.1363 2.04886 13.1338 2.05214L6.18214 11.3881C6.16679 11.4087 6.15225 11.4306 6.13856 11.4537C5.93797 11.7916 5.95747 12.3101 6.18214 12.6118L13.1338 21.9479C13.1363 21.9511 13.1388 21.9543 13.1413 21.9573C13.1439 21.9603 13.1466 21.9631 13.1493 21.9658C13.152 21.9686 13.1548 21.9711 13.1577 21.9735C13.1605 21.976 13.1634 21.9782 13.1664 21.9803C13.1693 21.9824 13.1723 21.9843 13.1754 21.9861C13.1785 21.9879 13.1815 21.9895 13.1847 21.991C13.1878 21.9924 13.1909 21.9937 13.1941 21.9948C13.1973 21.9959 13.2005 21.9968 13.2037 21.9975C13.207 21.9983 13.2102 21.9989 13.2135 21.9993C13.2167 21.9997 13.22 21.9999 13.2233 22C13.2265 22 13.2298 21.9999 13.2331 21.9996C13.2363 21.9993 13.2396 21.9988 13.2428 21.9982C13.2461 21.9975 13.2493 21.9967 13.2525 21.9957C13.2557 21.9947 13.2589 21.9935 13.262 21.9922C13.2652 21.9908 13.2683 21.9893 13.2713 21.9876C13.2744 21.986 13.2774 21.9841 13.2804 21.9821C13.2834 21.9801 13.2863 21.9779 13.2892 21.9756C13.2921 21.9733 13.2949 21.9708 13.2977 21.9682C13.3004 21.9656 13.3031 21.9628 13.3058 21.9598C13.3084 21.9569 13.311 21.9539 13.3134 21.9507C13.3159 21.9475 13.3183 21.9442 13.3206 21.9407C13.323 21.9372 13.3252 21.9337 13.3274 21.9299C13.3295 21.9262 13.3316 21.9225 13.3336 21.9185C13.3355 21.9146 13.3374 21.9106 13.3392 21.9065C13.341 21.9023 13.3426 21.8981 13.3442 21.8938C13.3458 21.8895 13.3472 21.8851 13.3486 21.8807C13.35 21.8762 13.3512 21.8717 13.3524 21.8671C13.3535 21.8625 13.3546 21.8578 13.3555 21.8531C13.3564 21.8484 13.3573 21.8437 13.358 21.8388C13.3587 21.834 13.3592 21.8292 13.3597 21.8243C13.3602 21.8195 13.3605 21.8146 13.3607 21.8097C13.361 21.8048 13.3611 21.7999 13.3611 21.795L13.3611 19.6875C13.3611 19.6804 13.361 19.6732 13.3607 19.666C13.3605 19.6588 13.3601 19.6517 13.3596 19.6445C13.3591 19.6374 13.3585 19.6302 13.3577 19.6231C13.357 19.616 13.3561 19.6089 13.3551 19.6019C13.3541 19.5949 13.353 19.5879 13.3517 19.581C13.3505 19.574 13.3491 19.5671 13.3476 19.5603C13.3462 19.5535 13.3445 19.5467 13.3428 19.54C13.3411 19.5333 13.3393 19.5266 13.3373 19.5201C13.3353 19.5135 13.3333 19.507 13.3311 19.5006C13.3289 19.4942 13.3266 19.4879 13.3242 19.4817C13.3218 19.4755 13.3193 19.4694 13.3167 19.4634C13.3141 19.4573 13.3114 19.4514 13.3085 19.4456C13.3057 19.4398 13.3028 19.4341 13.2998 19.4285C13.2968 19.423 13.2936 19.4175 13.2904 19.4122C13.2872 19.4069 13.2839 19.4017 13.2805 19.3966C13.2771 19.3915 13.2736 19.3866 13.2701 19.3818L7.77354 12L13.2701 4.6182C13.2736 4.61343 13.2771 4.60848 13.2805 4.60341C13.2839 4.59836 13.2872 4.59316 13.2904 4.58783C13.2937 4.5825 13.2968 4.57707 13.2998 4.57148C13.3028 4.56589 13.3057 4.56021 13.3086 4.55442C13.3114 4.54861 13.3141 4.54269 13.3167 4.53666C13.3193 4.53065 13.3218 4.52453 13.3242 4.51831C13.3266 4.51209 13.3289 4.50578 13.3311 4.49937C13.3333 4.49298 13.3354 4.48651 13.3373 4.47995C13.3393 4.47339 13.3411 4.46675 13.3428 4.46004C13.3445 4.45332 13.3462 4.44655 13.3477 4.43971C13.3491 4.43288 13.3505 4.42599 13.3517 4.41906C13.353 4.4121 13.3541 4.40512 13.3551 4.39809C13.3561 4.39106 13.357 4.38398 13.3577 4.37687C13.3585 4.36979 13.3591 4.36266 13.3596 4.3555C13.3601 4.34836 13.3605 4.34119 13.3607 4.334C13.361 4.32682 13.3611 4.31964 13.3611 4.31245Z">
  </path>
</svg>