<svg width="24" height="24" viewBox="0 0 24 24">
  <path
    d="M7.64101 4.5C7.40651 4.5 7.20726 4.586 7.04326 4.758C6.87926 4.93 6.79726 5.12525 6.79726 5.34375L6.79726 18.6562C6.79726 18.8752 6.87926 19.0705 7.04326 19.242C7.20726 19.4135 7.40651 19.4995 7.64101 19.5C7.87551 19.5 8.07076 19.414 8.22676 19.242C8.38276 19.07 8.45301 18.8748 8.43751 18.6562L8.43751 5.34375C8.45301 5.12475 8.38276 4.9295 8.22676 4.758C8.07076 4.5865 7.87551 4.5005 7.64101 4.5ZM16.3598 4.5C16.1408 4.5 15.9455 4.586 15.774 4.758C15.6025 4.93 15.5165 5.12525 15.516 5.34375L15.516 18.6562C15.516 18.8752 15.602 19.0705 15.774 19.242C15.946 19.4135 16.1412 19.4995 16.3598 19.5C16.5942 19.5 16.7935 19.414 16.9575 19.242C17.1215 19.07 17.2035 18.8748 17.2035 18.6562L17.2035 5.34375C17.2035 5.12475 17.1215 4.9295 16.9575 4.758C16.7935 4.5865 16.5942 4.5005 16.3598 4.5Z">
  </path>
</svg>