<svg width="24" height="24" viewBox="0 0 24 24">
  <path
    d="M6 4.31245L6 2.20503C6 2.20011 6.00012 2.1952 6.00036 2.19029C6.00059 2.18541 6.00093 2.18053 6.0014 2.17566C6.00188 2.17079 6.00246 2.16596 6.00315 2.16116C6.00386 2.15636 6.00467 2.15161 6.00559 2.14691C6.00652 2.14219 6.00757 2.13753 6.00871 2.13291C6.00986 2.12832 6.01112 2.12379 6.01248 2.11933C6.01386 2.11487 6.01533 2.11049 6.0169 2.10618C6.01848 2.10188 6.02015 2.09766 6.02193 2.09353C6.02371 2.08941 6.02559 2.08538 6.02755 2.08145C6.02952 2.07754 6.03158 2.07373 6.03374 2.07002C6.03589 2.06633 6.03813 2.06276 6.04046 2.05931C6.04278 2.05584 6.04519 2.05251 6.04767 2.04932C6.05015 2.04612 6.0527 2.04307 6.05533 2.04014C6.05797 2.03722 6.06067 2.03445 6.06343 2.03181C6.06619 2.02918 6.06901 2.02671 6.07189 2.02438C6.07476 2.02206 6.0777 2.0199 6.08069 2.0179C6.08366 2.01588 6.08669 2.01404 6.08977 2.01236C6.09284 2.01069 6.09595 2.00918 6.0991 2.00783C6.10224 2.00648 6.10541 2.00531 6.10862 2.00432C6.11181 2.00331 6.11503 2.00248 6.11828 2.00183C6.12152 2.00118 6.12477 2.0007 6.12804 2.0004C6.1313 2.00009 6.13456 1.99996 6.13782 2.00001C6.1411 2.00006 6.14437 2.00029 6.14763 2.0007C6.15088 2.00111 6.15412 2.00169 6.15735 2.00245C6.16059 2.0032 6.1638 2.00412 6.16698 2.00521C6.17016 2.00632 6.17332 2.0076 6.17645 2.00903C6.17957 2.01048 6.18266 2.0121 6.1857 2.01388C6.18876 2.01565 6.19177 2.01759 6.19472 2.01969C6.19768 2.02178 6.20058 2.02403 6.20342 2.02646C6.20627 2.02887 6.20906 2.03143 6.21177 2.03415C6.2145 2.03686 6.21716 2.03972 6.21975 2.04273C6.22235 2.04572 6.22486 2.04886 6.22729 2.05214L13.179 11.3881C13.1943 11.4087 13.2089 11.4306 13.2226 11.4537C13.4232 11.7916 13.4036 12.3101 13.179 12.6118L6.22731 21.9479C6.22488 21.9511 6.22236 21.9543 6.21977 21.9573C6.21718 21.9603 6.21452 21.9631 6.21179 21.9658C6.20908 21.9686 6.20629 21.9711 6.20344 21.9735C6.20059 21.9759 6.1977 21.9782 6.19474 21.9803C6.19179 21.9824 6.18878 21.9843 6.18572 21.9861C6.18267 21.9879 6.17959 21.9895 6.17646 21.991C6.17334 21.9924 6.17018 21.9937 6.167 21.9948C6.16382 21.9959 6.1606 21.9968 6.15736 21.9975C6.15414 21.9983 6.1509 21.9989 6.14765 21.9993C6.14438 21.9997 6.14112 21.9999 6.13784 22C6.13458 22 6.13132 21.9999 6.12805 21.9996C6.12479 21.9993 6.12154 21.9988 6.1183 21.9982C6.11505 21.9975 6.11183 21.9967 6.10863 21.9957C6.10543 21.9947 6.10226 21.9935 6.09912 21.9922C6.09597 21.9908 6.09286 21.9893 6.08979 21.9876C6.08671 21.986 6.08368 21.9841 6.0807 21.9821C6.07771 21.9801 6.07478 21.9779 6.0719 21.9756C6.06903 21.9733 6.06621 21.9708 6.06345 21.9682C6.06068 21.9656 6.05799 21.9628 6.05535 21.9598C6.05272 21.9569 6.05017 21.9539 6.04769 21.9507C6.0452 21.9475 6.0428 21.9442 6.04048 21.9407C6.03815 21.9372 6.03591 21.9337 6.03376 21.9299C6.0316 21.9262 6.02954 21.9225 6.02757 21.9185C6.02561 21.9146 6.02373 21.9106 6.02194 21.9065C6.02017 21.9023 6.01849 21.8981 6.01691 21.8938C6.01535 21.8895 6.01387 21.8851 6.0125 21.8807C6.01113 21.8762 6.00988 21.8717 6.00873 21.8671C6.00758 21.8625 6.00654 21.8578 6.00561 21.8531C6.00469 21.8484 6.00388 21.8437 6.00317 21.8388C6.00248 21.834 6.0019 21.8292 6.00143 21.8243C6.00095 21.8195 6.0006 21.8146 6.00038 21.8097C6.00014 21.8048 6.00002 21.7999 6.00002 21.795L6.00002 19.6875C6.00002 19.6804 6.00014 19.6732 6.00039 19.666C6.00064 19.6588 6.00102 19.6517 6.00152 19.6445C6.00203 19.6374 6.00266 19.6302 6.00341 19.6231C6.00416 19.616 6.00504 19.6089 6.00604 19.6019C6.00704 19.5949 6.00816 19.5879 6.0094 19.581C6.01063 19.574 6.012 19.5671 6.01349 19.5603C6.01498 19.5535 6.01658 19.5467 6.0183 19.54C6.02001 19.5333 6.02185 19.5266 6.0238 19.5201C6.02576 19.5135 6.02783 19.507 6.03001 19.5006C6.03219 19.4942 6.03448 19.4879 6.03688 19.4817C6.03928 19.4755 6.04179 19.4694 6.0444 19.4634C6.04703 19.4573 6.04975 19.4514 6.05257 19.4456C6.05539 19.4398 6.05831 19.4341 6.06133 19.4285C6.06436 19.423 6.06747 19.4175 6.07068 19.4122C6.07389 19.4068 6.0772 19.4017 6.0806 19.3966C6.08399 19.3915 6.08747 19.3866 6.09104 19.3818L11.5876 12L6.09104 4.6182C6.08747 4.61343 6.08399 4.60848 6.0806 4.60341C6.0772 4.59836 6.07389 4.59316 6.07068 4.58783C6.06747 4.5825 6.06436 4.57707 6.06133 4.57148C6.05831 4.56589 6.05538 4.56021 6.05255 4.55442C6.04973 4.54861 6.04702 4.54269 6.0444 4.53666C6.04179 4.53065 6.03928 4.52453 6.03688 4.51831C6.03447 4.51209 6.03218 4.50578 6.02999 4.49937C6.02782 4.49298 6.02576 4.48651 6.0238 4.47995C6.02185 4.47339 6.02001 4.46675 6.01828 4.46004C6.01656 4.45332 6.01496 4.44655 6.01347 4.43971C6.01199 4.43288 6.01063 4.42599 6.00938 4.41906C6.00814 4.4121 6.00702 4.40512 6.00602 4.39809C6.00502 4.39106 6.00414 4.38398 6.00339 4.37687C6.00264 4.36979 6.00201 4.36266 6.0015 4.3555C6.001 4.34836 6.00063 4.34119 6.00038 4.334C6.00012 4.32682 6 4.31964 6 4.31245ZM10.6389 4.31245L10.6389 2.20503C10.6389 2.20011 10.639 2.1952 10.6392 2.19029C10.6395 2.18541 10.6398 2.18053 10.6403 2.17566C10.6408 2.17079 10.6413 2.16596 10.642 2.16116C10.6427 2.15636 10.6435 2.15161 10.6445 2.14691C10.6454 2.14219 10.6464 2.13753 10.6476 2.13291C10.6487 2.12832 10.65 2.12379 10.6514 2.11933C10.6527 2.11487 10.6542 2.11049 10.6558 2.10618C10.6574 2.10188 10.659 2.09766 10.6608 2.09353C10.6626 2.08941 10.6645 2.08538 10.6664 2.08145C10.6684 2.07754 10.6705 2.07373 10.6726 2.07002C10.6748 2.06633 10.677 2.06276 10.6793 2.05931C10.6817 2.05584 10.6841 2.05251 10.6865 2.04932C10.689 2.04612 10.6916 2.04307 10.6942 2.04014C10.6969 2.03722 10.6995 2.03445 10.7023 2.03181C10.7051 2.02918 10.7079 2.02671 10.7108 2.02438C10.7136 2.02206 10.7166 2.0199 10.7196 2.0179C10.7225 2.01588 10.7256 2.01404 10.7287 2.01236C10.7317 2.01069 10.7348 2.00918 10.738 2.00783C10.7411 2.00648 10.7443 2.00531 10.7475 2.00432C10.7507 2.00331 10.7539 2.00248 10.7572 2.00183C10.7604 2.00118 10.7637 2.0007 10.7669 2.0004C10.7702 2.00009 10.7734 1.99996 10.7767 2.00001C10.78 2.00006 10.7832 2.00029 10.7865 2.0007C10.7898 2.00111 10.793 2.00169 10.7962 2.00245C10.7995 2.0032 10.8027 2.00412 10.8059 2.00521C10.809 2.00632 10.8122 2.0076 10.8153 2.00903C10.8184 2.01048 10.8215 2.0121 10.8246 2.01388C10.8276 2.01565 10.8307 2.01759 10.8336 2.01969C10.8366 2.02178 10.8394 2.02403 10.8423 2.02646C10.8451 2.02887 10.8479 2.03143 10.8507 2.03415C10.8534 2.03686 10.856 2.03972 10.8586 2.04273C10.8612 2.04572 10.8637 2.04886 10.8662 2.05214L17.8179 11.3881C17.8332 11.4087 17.8478 11.4306 17.8614 11.4537C18.062 11.7916 18.0425 12.3101 17.8179 12.6118L10.8662 21.9479C10.8637 21.9511 10.8612 21.9543 10.8587 21.9573C10.8561 21.9603 10.8534 21.9631 10.8507 21.9658C10.848 21.9686 10.8452 21.9711 10.8423 21.9735C10.8395 21.976 10.8366 21.9782 10.8336 21.9803C10.8307 21.9824 10.8277 21.9843 10.8246 21.9861C10.8215 21.9879 10.8185 21.9895 10.8153 21.991C10.8122 21.9924 10.8091 21.9937 10.8059 21.9948C10.8027 21.9959 10.7995 21.9968 10.7963 21.9975C10.793 21.9983 10.7898 21.9989 10.7865 21.9993C10.7833 21.9997 10.78 21.9999 10.7767 22C10.7735 22 10.7702 21.9999 10.7669 21.9996C10.7637 21.9993 10.7604 21.9988 10.7572 21.9982C10.7539 21.9975 10.7507 21.9967 10.7475 21.9957C10.7443 21.9947 10.7411 21.9935 10.738 21.9922C10.7348 21.9908 10.7317 21.9893 10.7287 21.9876C10.7256 21.986 10.7226 21.9841 10.7196 21.9821C10.7166 21.9801 10.7137 21.9779 10.7108 21.9756C10.7079 21.9733 10.7051 21.9708 10.7023 21.9682C10.6996 21.9656 10.6969 21.9628 10.6942 21.9598C10.6916 21.9569 10.689 21.9539 10.6866 21.9507C10.6841 21.9475 10.6817 21.9442 10.6794 21.9407C10.677 21.9372 10.6748 21.9337 10.6726 21.9299C10.6705 21.9262 10.6684 21.9225 10.6664 21.9185C10.6645 21.9146 10.6626 21.9106 10.6608 21.9065C10.659 21.9023 10.6574 21.8981 10.6558 21.8938C10.6542 21.8895 10.6528 21.8851 10.6514 21.8807C10.65 21.8762 10.6488 21.8717 10.6476 21.8671C10.6465 21.8625 10.6454 21.8578 10.6445 21.8531C10.6436 21.8484 10.6427 21.8437 10.642 21.8388C10.6413 21.834 10.6408 21.8292 10.6403 21.8243C10.6398 21.8195 10.6395 21.8146 10.6393 21.8097C10.639 21.8048 10.6389 21.7999 10.6389 21.795L10.6389 19.6875C10.6389 19.6804 10.639 19.6732 10.6393 19.666C10.6395 19.6588 10.6399 19.6517 10.6404 19.6445C10.6409 19.6374 10.6415 19.6302 10.6423 19.6231C10.643 19.616 10.6439 19.6089 10.6449 19.6019C10.6459 19.5949 10.647 19.5879 10.6483 19.581C10.6495 19.574 10.6509 19.5671 10.6524 19.5603C10.6538 19.5535 10.6555 19.5467 10.6572 19.54C10.6589 19.5333 10.6607 19.5266 10.6627 19.5201C10.6647 19.5135 10.6667 19.507 10.6689 19.5006C10.6711 19.4942 10.6734 19.4879 10.6758 19.4817C10.6782 19.4755 10.6807 19.4694 10.6833 19.4634C10.6859 19.4573 10.6886 19.4514 10.6915 19.4456C10.6943 19.4398 10.6972 19.4341 10.7002 19.4285C10.7032 19.423 10.7064 19.4175 10.7096 19.4122C10.7128 19.4069 10.7161 19.4017 10.7195 19.3966C10.7229 19.3915 10.7264 19.3866 10.7299 19.3818L16.2265 12L10.7299 4.6182C10.7264 4.61343 10.7229 4.60848 10.7195 4.60341C10.7161 4.59836 10.7128 4.59316 10.7096 4.58783C10.7063 4.5825 10.7032 4.57707 10.7002 4.57148C10.6972 4.56589 10.6943 4.56021 10.6914 4.55442C10.6886 4.54861 10.6859 4.54269 10.6833 4.53666C10.6807 4.53065 10.6782 4.52453 10.6758 4.51831C10.6734 4.51209 10.6711 4.50578 10.6689 4.49937C10.6667 4.49298 10.6646 4.48651 10.6627 4.47995C10.6607 4.47339 10.6589 4.46675 10.6572 4.46004C10.6555 4.45332 10.6538 4.44655 10.6523 4.43971C10.6509 4.43288 10.6495 4.42599 10.6483 4.41906C10.647 4.4121 10.6459 4.40512 10.6449 4.39809C10.6439 4.39106 10.643 4.38398 10.6423 4.37687C10.6415 4.36979 10.6409 4.36266 10.6404 4.3555C10.6399 4.34836 10.6395 4.34119 10.6393 4.334C10.639 4.32682 10.6389 4.31964 10.6389 4.31245Z">
  </path>
</svg>