<svg width="24" height="24" viewBox="0 0 24 24">
  <path
    d="M5 4C4.98362 4 4.96634 4 4.95 4C4.93366 4 4.91628 4 4.9 4C4.8837 4 4.86619 4.01 4.85 4.01C4.83381 4.01 4.81605 4.02 4.8 4.02C4.78395 4.02 4.77587 4.03 4.76 4.03C4.74411 4.03 4.72566 4.04 4.71 4.04C4.69434 4.04 4.67541 4.06 4.66 4.06C4.64459 4.06 4.63512 4.08 4.62 4.08C4.60488 4.08 4.5848 4.1 4.57 4.1C4.5552 4.1 4.54442 4.12 4.53 4.12C4.51556 4.12 4.50403 4.14 4.49 4.14C4.47595 4.14 4.45361 4.17 4.44 4.17C4.42639 4.17 4.41314 4.2 4.4 4.2C4.38686 4.2 4.38266 4.21961 4.37 4.23C4.35736 4.24038 4.34214 4.24901 4.33 4.26C4.31788 4.271 4.30156 4.27844 4.29 4.29C4.27842 4.30158 4.27099 4.31788 4.26 4.33C4.249 4.34212 4.24038 4.35734 4.23 4.37C4.21961 4.38266 4.2 4.38686 4.2 4.4C4.2 4.41314 4.17 4.42639 4.17 4.44C4.17 4.45361 4.14 4.47597 4.14 4.49C4.14 4.50405 4.12 4.51558 4.12 4.53C4.12 4.54444 4.1 4.5552 4.1 4.57C4.1 4.5848 4.08 4.60488 4.08 4.62C4.08 4.63511 4.06 4.64459 4.06 4.66C4.06 4.67542 4.04 4.69434 4.04 4.71C4.04 4.72566 4.03 4.74413 4.03 4.76C4.03 4.77587 4.02 4.78395 4.02 4.8C4.02 4.81606 4.01 4.83381 4.01 4.85C4.01 4.86619 4 4.88372 4 4.9C4 4.9163 4 4.93366 4 4.95C4 4.96634 4 4.98364 4 5L4 19C4 19.0164 4 19.0337 4 19.05C4 19.0663 4 19.0837 4 19.1C4 19.1163 4.01 19.1338 4.01 19.15C4.01 19.1662 4.02 19.1839 4.02 19.2C4.02 19.2161 4.03 19.2241 4.03 19.24C4.03 19.2559 4.04 19.2743 4.04 19.29C4.04 19.3057 4.06 19.3246 4.06 19.34C4.06 19.3554 4.08 19.3649 4.08 19.38C4.08 19.3951 4.1 19.4152 4.1 19.43C4.1 19.4448 4.12 19.4556 4.12 19.47C4.12 19.4844 4.14 19.496 4.14 19.51C4.14 19.524 4.17 19.5464 4.17 19.56C4.17 19.5736 4.2 19.5869 4.2 19.6C4.2 19.6131 4.21961 19.6173 4.23 19.63C4.24038 19.6427 4.249 19.6579 4.26 19.67C4.27099 19.6821 4.27842 19.6984 4.29 19.71C4.30156 19.7216 4.31788 19.729 4.33 19.74C4.34214 19.751 4.35736 19.7596 4.37 19.77C4.38266 19.7804 4.38686 19.8 4.4 19.8C4.41314 19.8 4.42639 19.83 4.44 19.83C4.45361 19.83 4.47595 19.86 4.49 19.86C4.50403 19.86 4.51556 19.88 4.53 19.88C4.54442 19.88 4.5552 19.9 4.57 19.9C4.5848 19.9 4.60488 19.92 4.62 19.92C4.63512 19.92 4.64459 19.94 4.66 19.94C4.67541 19.94 4.69434 19.96 4.71 19.96C4.72566 19.96 4.74413 19.97 4.76 19.97C4.77589 19.97 4.78395 19.98 4.8 19.98C4.81605 19.98 4.83381 19.99 4.85 19.99C4.86619 19.99 4.8837 20 4.9 20C4.91628 20 4.93366 20 4.95 20C4.96634 20 4.98362 20 5 20C5.01636 20 5.03366 20 5.05 20C5.06634 20 5.0837 20 5.1 20C5.11628 20 5.13381 19.99 5.15 19.99C5.16619 19.99 5.18394 19.98 5.2 19.98C5.21605 19.98 5.22413 19.97 5.24 19.97C5.25587 19.97 5.27434 19.96 5.29 19.96C5.30566 19.96 5.32458 19.94 5.34 19.94C5.35541 19.94 5.36489 19.92 5.38 19.92C5.39512 19.92 5.4152 19.9 5.43 19.9C5.4448 19.9 5.45556 19.88 5.47 19.88C5.48442 19.88 5.49595 19.86 5.51 19.86C5.52403 19.86 5.54639 19.83 5.56 19.83C5.57361 19.83 5.58686 19.8 5.6 19.8C5.61314 19.8 5.61734 19.7804 5.63 19.77C5.64266 19.7596 5.65788 19.751 5.67 19.74C5.68212 19.729 5.69842 19.7216 5.71 19.71C5.72156 19.6984 5.729 19.6821 5.74 19.67C5.75099 19.6579 5.75962 19.6427 5.77 19.63C5.78039 19.6173 5.8 19.6131 5.8 19.6C5.8 19.5869 5.83 19.5736 5.83 19.56C5.83 19.5464 5.86 19.524 5.86 19.51C5.86 19.496 5.88 19.4844 5.88 19.47C5.88 19.4556 5.9 19.4448 5.9 19.43C5.9 19.4152 5.92 19.3951 5.92 19.38C5.92 19.3649 5.94 19.3554 5.94 19.34C5.94 19.3246 5.96 19.3057 5.96 19.29C5.96 19.2743 5.97 19.2559 5.97 19.24C5.97 19.2241 5.98 19.2161 5.98 19.2C5.98 19.1839 5.99 19.1662 5.99 19.15C5.99 19.1338 6 19.1163 6 19.1C6 19.0837 6 19.0663 6 19.05C6 19.0337 6 19.0164 6 19L6 5C6 4.98364 6 4.96634 6 4.95C6 4.93366 6 4.9163 6 4.9C6 4.88372 5.99 4.86619 5.99 4.85C5.99 4.83381 5.98 4.81606 5.98 4.8C5.98 4.78395 5.97 4.77587 5.97 4.76C5.97 4.74413 5.96 4.72566 5.96 4.71C5.96 4.69434 5.94 4.67542 5.94 4.66C5.94 4.64459 5.92 4.63512 5.92 4.62C5.92 4.60489 5.9 4.5848 5.9 4.57C5.9 4.5552 5.88 4.54444 5.88 4.53C5.88 4.51558 5.86 4.50405 5.86 4.49C5.86 4.47597 5.83 4.45361 5.83 4.44C5.83 4.42639 5.8 4.41314 5.8 4.4C5.8 4.38686 5.78039 4.38266 5.77 4.37C5.75962 4.35734 5.75099 4.34212 5.74 4.33C5.729 4.31788 5.72156 4.30158 5.71 4.29C5.69842 4.27844 5.68212 4.271 5.67 4.26C5.65788 4.24901 5.64266 4.24038 5.63 4.23C5.61734 4.21961 5.61314 4.2 5.6 4.2C5.58686 4.2 5.57361 4.17 5.56 4.17C5.54639 4.17 5.52403 4.14 5.51 4.14C5.49595 4.14 5.48442 4.12 5.47 4.12C5.45556 4.12 5.4448 4.1 5.43 4.1C5.4152 4.1 5.39512 4.08 5.38 4.08C5.36489 4.08 5.35541 4.06 5.34 4.06C5.32458 4.06 5.30566 4.04 5.29 4.04C5.27434 4.04 5.25587 4.03 5.24 4.03C5.22413 4.03 5.21605 4.02 5.2 4.02C5.18394 4.02 5.16619 4.01 5.15 4.01C5.13381 4.01 5.11628 4 5.1 4C5.0837 4 5.06634 4 5.05 4C5.03366 4 5.01636 4 5 4Z">
  </path>
  <path
    d="M9.78999 12.3L18.79 19.25L18.81 19.27L18.83 19.28L18.86 19.3L18.88 19.31L18.9 19.32L18.92 19.33L18.95 19.35L18.97 19.36L19 19.37L19.02 19.37L19.05 19.38L19.07 19.39L19.1 19.39L19.12 19.4L19.15 19.4L19.17 19.41L19.2 19.41L19.23 19.41L19.25 19.41L19.28 19.41L19.31 19.41L19.33 19.41L19.36 19.4L19.38 19.4L19.41 19.39L19.43 19.39L19.46 19.38L19.48 19.37L19.51 19.36L19.53 19.35L19.56 19.34L19.58 19.33L19.6 19.32L19.63 19.31L19.65 19.3L19.67 19.28L19.69 19.27L19.71 19.25L19.73 19.23L19.75 19.22L19.77 19.2L19.79 19.18L19.81 19.16L19.83 19.14L19.84 19.12L19.86 19.1L19.87 19.08L19.89 19.06L19.9 19.03L19.91 19.01L19.92 18.99L19.94 18.96L19.95 18.94L19.96 18.92L19.96 18.89L19.97 18.87L19.98 18.84L19.98 18.82L19.99 18.79L19.99 18.76L20 18.74L20 18.71L20 18.69L20 18.66L20 4.74996L20 4.71996L20 4.69996L20 4.66996L19.99 4.64996L19.99 4.61996L19.98 4.58996L19.98 4.56996L19.97 4.53996L19.96 4.51996L19.95 4.48996L19.95 4.46996L19.94 4.44996L19.92 4.41996L19.91 4.39996L19.9 4.37996L19.89 4.34996L19.87 4.32996L19.86 4.30996L19.84 4.28996L19.82 4.26996L19.81 4.24996L19.79 4.22996L19.77 4.20996L19.75 4.18996L19.73 4.17996L19.71 4.15996L19.69 4.13996L19.67 4.12996L19.65 4.11996L19.63 4.09996L19.6 4.08996L19.58 4.07996L19.56 4.06996L19.53 4.05996L19.51 4.04996L19.48 4.03996L19.46 4.02996L19.43 4.01996L19.41 4.01996L19.38 4.00996L19.36 4.00996L19.33 4.00996L19.3 3.99996L19.28 3.99996L19.25 3.99996L19.23 3.99996L19.2 3.99996L19.17 3.99996L19.15 4.00996L19.12 4.00996L19.1 4.01996L19.07 4.01996L19.05 4.02996L19.02 4.03996L19 4.03996L18.97 4.04996L18.95 4.05996L18.92 4.06996L18.9 4.08996L18.88 4.09996L18.86 4.10996L18.83 4.12996L18.81 4.13996L18.79 4.15996L9.78999 11.11C9.77869 11.11 9.77077 11.14 9.75999 11.14C9.74921 11.14 9.74023 11.17 9.72999 11.17C9.71975 11.17 9.69999 11.1894 9.69999 11.2C9.69999 11.2105 9.66999 11.2189 9.66999 11.23C9.66999 11.241 9.63999 11.2484 9.63999 11.26C9.63999 11.2715 9.61999 11.288 9.61999 11.3C9.61999 11.312 9.59999 11.3275 9.59999 11.34C9.59999 11.3524 9.57999 11.3571 9.57999 11.37C9.57999 11.3828 9.55999 11.3968 9.55999 11.41C9.55999 11.4231 9.53999 11.4365 9.53999 11.45C9.53999 11.4634 9.52999 11.4763 9.52999 11.49C9.52999 11.5037 9.51999 11.516 9.51999 11.53C9.51999 11.5439 9.50999 11.5659 9.50999 11.58C9.50999 11.594 9.50999 11.6058 9.50999 11.62C9.50999 11.6341 9.49999 11.6457 9.49999 11.66C9.49999 11.6742 9.49999 11.6857 9.49999 11.7C9.49999 11.7142 9.49999 11.7357 9.49999 11.75C9.49999 11.7642 9.50999 11.7758 9.50999 11.79C9.50999 11.8041 9.50999 11.8159 9.50999 11.83C9.50999 11.844 9.51999 11.856 9.51999 11.87C9.51999 11.8838 9.52999 11.9063 9.52999 11.92C9.52999 11.9337 9.53999 11.9465 9.53999 11.96C9.53999 11.9734 9.55999 11.9868 9.55999 12C9.55999 12.0131 9.57999 12.0271 9.57999 12.04C9.57999 12.0528 9.59999 12.0575 9.59999 12.07C9.59999 12.0824 9.61999 12.098 9.61999 12.11C9.61999 12.122 9.63999 12.1384 9.63999 12.15C9.63999 12.1615 9.66999 12.1689 9.66999 12.18C9.66999 12.191 9.69999 12.1994 9.69999 12.21C9.69999 12.2205 9.71975 12.24 9.72999 12.24C9.74023 12.24 9.74921 12.27 9.75999 12.27C9.77077 12.27 9.77869 12.3 9.78999 12.3Z">
  </path>
</svg>