<svg width="24" height="24" viewBox="0 0 24 24">
  <path fill-rule="evenodd" style="fill:#F8C913"
    d="M3 12C3 17.5082 7.49182 22 13 22C18.5082 22 23 17.5082 23 12C23 6.49182 18.5618 2 13 2C7.49182 2 3 6.49182 3 12Z">
  </path>
  <path fill-rule="evenodd" style="fill:#02B053"
    d="M15.5054 1.22819C15.1774 1.61699 14.475 1.9578 13.5374 2.20099C11.9454 2.58979 11.6174 2.68738 11.1486 2.97939C11.0756 3.01819 11.0042 3.05956 10.9342 3.10352C10.8642 3.14745 10.7959 3.19385 10.7292 3.24271C10.6625 3.29155 10.5977 3.34273 10.5347 3.39625C10.4718 3.44976 10.4108 3.50547 10.3518 3.56338C9.97741 3.90339 9.69581 4.53538 9.79022 4.7298C9.83663 4.82739 10.7262 6.14099 11.8046 7.74578C12.8822 9.3018 13.9126 10.8578 14.147 11.1994C14.3814 11.5394 14.5214 11.8314 14.5214 11.8314C14.5214 11.8794 14.3342 11.8314 14.147 11.7834C13.3974 11.5394 12.0854 11.7834 11.1486 12.269C10.4454 12.6578 9.64941 13.485 9.32142 14.1658C8.94621 14.9442 8.8998 16.0138 9.18061 16.7434C9.46221 17.5218 10.071 18.1546 10.867 18.5914C11.4766 18.9322 11.6166 18.9322 12.4134 18.981C13.0694 19.029 13.4438 18.981 13.819 18.8842C15.5526 18.3482 16.8174 16.9386 16.911 15.2842C16.9574 14.3602 16.8638 14.0682 15.6926 11.9282C13.8654 8.62098 12.2262 5.6058 12.2262 5.55698C12.2262 5.55698 12.5542 5.50898 12.9758 5.45938C14.1934 5.41138 15.1774 4.77939 15.6926 3.75698C15.927 3.31938 15.927 3.17299 15.927 2.24978C15.927 1.66579 15.8806 1.13059 15.8334 1.0818C15.7862 0.936188 15.7398 0.984978 15.5054 1.22819Z">
  </path>
</svg>