<svg width="24" height="24" viewBox="0 0 24 24">
  <path fill-rule="evenodd"
    d="M11.7428 18C10.1401 18 8.63338 17.3759 7.50012 16.2427C6.36686 15.1094 5.74279 13.6027 5.74279 12C5.74279 10.3974 6.36689 8.8906 7.50012 7.75737C8.63338 6.62413 10.1401 6 11.7428 6C13.3454 6 14.8522 6.62413 15.9854 7.75737C17.1187 8.89063 17.7428 10.3974 17.7428 12C17.7428 13.6027 17.1187 15.1094 15.9854 16.2427C14.8521 17.3759 13.3454 18 11.7428 18ZM11.7428 7.33333C9.16955 7.33333 7.07609 9.42679 7.07609 12C7.07609 14.5732 9.16955 16.6667 11.7428 16.6667C14.316 16.6667 16.4094 14.5732 16.4094 12C16.4094 9.42679 14.316 7.33333 11.7428 7.33333ZM3.74276 12.6667L2.40944 12.6667C2.04125 12.6667 1.74277 12.3682 1.74277 12C1.74277 11.6318 2.04125 11.3333 2.40944 11.3333L3.74276 11.3333C4.11094 11.3333 4.40942 11.6318 4.40942 12C4.40942 12.3682 4.11094 12.6667 3.74276 12.6667ZM21.0761 12.6667L19.7427 12.6667C19.3746 12.6667 19.0761 12.3682 19.0761 12C19.0761 11.6318 19.3746 11.3333 19.7427 11.3333L21.0761 11.3333C21.4443 11.3333 21.7428 11.6318 21.7428 12C21.7428 12.3682 21.4443 12.6667 21.0761 12.6667ZM11.7428 22C11.3746 22 11.0761 21.7015 11.0761 21.3333L11.0761 20C11.0761 19.6318 11.3746 19.3333 11.7428 19.3333C12.111 19.3333 12.4094 19.6318 12.4094 20L12.4094 21.3333C12.4094 21.7015 12.1109 22 11.7428 22ZM11.7428 4.66668C11.3746 4.66668 11.0761 4.3682 11.0761 4.00001L11.0761 2.66666C11.0761 2.29847 11.3746 2 11.7428 2C12.111 2 12.4094 2.29848 12.4094 2.66666L12.4094 4.00001C12.4094 4.36818 12.1109 4.66668 11.7428 4.66668ZM5.21009 19.2663C5.03949 19.2663 4.86887 19.2013 4.73872 19.0711C4.47834 18.8107 4.47834 18.3886 4.73872 18.1283L5.68152 17.1855C5.94186 16.9251 6.36399 16.9251 6.62432 17.1855C6.88469 17.4458 6.88469 17.8679 6.62432 18.1283L5.68152 19.0711C5.55134 19.2013 5.38072 19.2663 5.21009 19.2663ZM17.4666 7.0098C17.296 7.0098 17.1254 6.94474 16.9952 6.81454C16.7348 6.55417 16.7348 6.13209 16.9952 5.87171L17.938 4.92891C18.1983 4.66858 18.6204 4.66856 18.8808 4.92891C19.1411 5.18926 19.1411 5.61136 18.8808 5.87171L17.938 6.81454C17.8078 6.94472 17.6372 7.0098 17.4666 7.0098ZM18.4094 19.2663C18.2388 19.2663 18.0682 19.2013 17.938 19.0711L16.9952 18.1283C16.7348 17.8679 16.7348 17.4458 16.9952 17.1855C17.2555 16.9251 17.6776 16.9251 17.938 17.1855L18.8808 18.1283C19.1411 18.3886 19.1411 18.8107 18.8808 19.0711C18.7506 19.2013 18.58 19.2663 18.4094 19.2663ZM6.15292 7.0098C5.98229 7.0098 5.81169 6.94472 5.68149 6.81454L4.73869 5.87174C4.47832 5.61139 4.47832 5.18926 4.73869 4.92894C4.99904 4.66858 5.42114 4.66858 5.68149 4.92894L6.62429 5.87174C6.88467 6.13209 6.88467 6.55421 6.62429 6.81454C6.49414 6.94472 6.32352 7.0098 6.15292 7.0098Z">
  </path>
</svg>