<svg width="24" height="24" viewBox="0 0 24 24">
  <path fill-rule="evenodd"
    d="M12 2.25C5.3835 2.25 0 7.6335 0 14.25C0 16.368 0.71025 18.3397 2.00025 19.8022C3.2955 21.27 5.02725 22.0785 6.87825 22.0785C8.79 22.0785 10.6643 21.2152 12.2985 19.5802L12.3518 19.5217C13.8938 17.6122 15.4665 16.6845 17.1585 16.6845C18.2535 16.6845 19.2495 17.0565 20.1278 17.3857C20.8388 17.6512 21.4538 17.8807 22.0312 17.8807C24 17.8807 24 15.336 24 14.25C24 7.6335 18.6165 2.25 12 2.25ZM22.0312 16.3807C21.7245 16.3807 21.204 16.1865 20.6535 15.9802C19.7048 15.6255 18.5243 15.1845 17.1585 15.1845C14.994 15.1845 13.0492 16.2847 11.211 18.5467C9.87075 19.8757 8.37375 20.5785 6.879 20.5785C5.4645 20.5785 4.13175 19.9507 3.126 18.81C2.0775 17.622 1.5 16.0028 1.5 14.25C1.5 8.46 6.21 3.75 12 3.75C17.79 3.75 22.5 8.46 22.5 14.25C22.5 14.8905 22.4543 16.3807 22.0312 16.3807ZM17.2665 12.0952C17.2665 12.1198 17.2671 12.1443 17.2683 12.1688C17.2695 12.1934 17.2713 12.2178 17.2737 12.2423C17.2761 12.2667 17.2791 12.2911 17.2827 12.3154C17.2863 12.3396 17.2905 12.3638 17.2953 12.3879C17.3001 12.412 17.3055 12.4359 17.3115 12.4597C17.3174 12.4835 17.324 12.5072 17.3311 12.5307C17.3382 12.5542 17.3459 12.5775 17.3542 12.6006C17.3625 12.6237 17.3713 12.6466 17.3807 12.6693C17.3901 12.6919 17.4 12.7144 17.4105 12.7366C17.421 12.7588 17.432 12.7807 17.4436 12.8023C17.4552 12.824 17.4673 12.8453 17.4799 12.8664C17.4925 12.8875 17.5057 12.9082 17.5193 12.9286C17.5329 12.949 17.5471 12.9691 17.5617 12.9888C17.5763 13.0085 17.5914 13.0279 17.607 13.0468C17.6226 13.0658 17.6386 13.0844 17.6551 13.1026C17.6715 13.1208 17.6885 13.1385 17.7058 13.1559C17.7232 13.1733 17.741 13.1902 17.7592 13.2067C17.7773 13.2232 17.7959 13.2392 17.8149 13.2548C17.8339 13.2703 17.8532 13.2854 17.8729 13.3001C17.8927 13.3147 17.9127 13.3288 17.9331 13.3425C17.9535 13.3561 17.9743 13.3692 17.9953 13.3818C18.0164 13.3945 18.0378 13.4066 18.0594 13.4181C18.081 13.4297 18.103 13.4407 18.1252 13.4512C18.1474 13.4617 18.1698 13.4717 18.1925 13.4811C18.2152 13.4905 18.2381 13.4993 18.2612 13.5076C18.2843 13.5158 18.3076 13.5235 18.3311 13.5307C18.3546 13.5378 18.3782 13.5443 18.402 13.5503C18.4258 13.5563 18.4498 13.5616 18.4739 13.5664C18.4979 13.5712 18.5221 13.5754 18.5464 13.579C18.5707 13.5826 18.595 13.5856 18.6195 13.588C18.6439 13.5904 18.6684 13.5922 18.6929 13.5934C18.7174 13.5946 18.742 13.5952 18.7665 13.5952C18.791 13.5952 18.8156 13.5946 18.8401 13.5934C18.8646 13.5922 18.8891 13.5904 18.9135 13.588C18.938 13.5856 18.9623 13.5826 18.9866 13.579C19.0109 13.5754 19.0351 13.5712 19.0591 13.5664C19.0832 13.5616 19.1072 13.5563 19.131 13.5503C19.1548 13.5443 19.1784 13.5378 19.2019 13.5307C19.2254 13.5235 19.2487 13.5158 19.2718 13.5076C19.2949 13.4993 19.3178 13.4905 19.3405 13.4811C19.3632 13.4717 19.3856 13.4617 19.4078 13.4512C19.43 13.4407 19.452 13.4297 19.4736 13.4181C19.4952 13.4066 19.5166 13.3945 19.5377 13.3819C19.5587 13.3692 19.5794 13.3561 19.5998 13.3425C19.6203 13.3288 19.6403 13.3147 19.6601 13.3001C19.6798 13.2854 19.6991 13.2703 19.7181 13.2548C19.7371 13.2392 19.7557 13.2232 19.7738 13.2067C19.792 13.1902 19.8098 13.1733 19.8272 13.1559C19.8445 13.1385 19.8615 13.1208 19.8779 13.1026C19.8944 13.0844 19.9104 13.0658 19.926 13.0468C19.9416 13.0279 19.9567 13.0085 19.9713 12.9888C19.9859 12.9691 20.0001 12.949 20.0137 12.9286C20.0273 12.9082 20.0405 12.8875 20.0531 12.8664C20.0657 12.8453 20.0778 12.824 20.0894 12.8023C20.1009 12.7807 20.112 12.7588 20.1225 12.7366C20.133 12.7144 20.1429 12.6919 20.1523 12.6693C20.1617 12.6466 20.1705 12.6237 20.1788 12.6006C20.1871 12.5775 20.1948 12.5542 20.2019 12.5307C20.209 12.5072 20.2156 12.4835 20.2215 12.4597C20.2275 12.4359 20.2329 12.412 20.2377 12.3879C20.2425 12.3638 20.2467 12.3396 20.2503 12.3154C20.2539 12.2911 20.2569 12.2667 20.2593 12.2423C20.2617 12.2179 20.2635 12.1934 20.2647 12.1688C20.2659 12.1443 20.2665 12.1198 20.2665 12.0952C20.2665 12.0707 20.2659 12.0462 20.2647 12.0217C20.2635 11.9971 20.2617 11.9726 20.2593 11.9482C20.2569 11.9238 20.2539 11.8994 20.2503 11.8751C20.2467 11.8509 20.2425 11.8267 20.2377 11.8026C20.2329 11.7785 20.2275 11.7546 20.2215 11.7308C20.2156 11.707 20.209 11.6833 20.2019 11.6598C20.1948 11.6363 20.1871 11.613 20.1788 11.5899C20.1705 11.5668 20.1617 11.5439 20.1523 11.5212C20.1429 11.4986 20.133 11.4761 20.1225 11.4539C20.112 11.4317 20.1009 11.4098 20.0894 11.3882C20.0778 11.3665 20.0657 11.3452 20.0531 11.3241C20.0405 11.303 20.0273 11.2823 20.0137 11.2619C20.0001 11.2415 19.9859 11.2214 19.9713 11.2017C19.9567 11.182 19.9416 11.1626 19.926 11.1437C19.9104 11.1247 19.8944 11.1061 19.8779 11.0879C19.8615 11.0697 19.8445 11.052 19.8272 11.0346C19.8098 11.0172 19.792 11.0003 19.7738 10.9838C19.7557 10.9673 19.7371 10.9513 19.7181 10.9357C19.6991 10.9202 19.6798 10.9051 19.6601 10.8904C19.6403 10.8758 19.6203 10.8617 19.5998 10.848C19.5794 10.8344 19.5587 10.8213 19.5377 10.8086C19.5166 10.796 19.4952 10.7839 19.4736 10.7724C19.452 10.7608 19.43 10.7497 19.4078 10.7393C19.3856 10.7288 19.3632 10.7188 19.3405 10.7094C19.3178 10.7 19.2949 10.6912 19.2718 10.6829C19.2487 10.6747 19.2254 10.667 19.2019 10.6598C19.1784 10.6527 19.1548 10.6462 19.131 10.6402C19.1072 10.6342 19.0832 10.6289 19.0591 10.6241C19.0351 10.6193 19.0109 10.6151 18.9866 10.6115C18.9623 10.6079 18.938 10.6049 18.9135 10.6025C18.8891 10.6001 18.8646 10.5982 18.8401 10.5971C18.8156 10.5959 18.791 10.5952 18.7665 10.5952C18.742 10.5952 18.7174 10.5959 18.6929 10.5971C18.6684 10.5982 18.6439 10.6001 18.6195 10.6025C18.595 10.6049 18.5707 10.6079 18.5464 10.6115C18.5221 10.6151 18.4979 10.6193 18.4739 10.6241C18.4498 10.6289 18.4258 10.6342 18.402 10.6402C18.3782 10.6462 18.3546 10.6527 18.3311 10.6598C18.3076 10.667 18.2843 10.6747 18.2612 10.6829C18.2381 10.6912 18.2152 10.7 18.1925 10.7094C18.1698 10.7188 18.1474 10.7288 18.1252 10.7393C18.103 10.7497 18.081 10.7608 18.0594 10.7724C18.0378 10.7839 18.0164 10.796 17.9953 10.8086C17.9743 10.8213 17.9535 10.8344 17.9331 10.848C17.9127 10.8617 17.8927 10.8758 17.8729 10.8904C17.8532 10.9051 17.8339 10.9202 17.8149 10.9357C17.7959 10.9513 17.7773 10.9673 17.7592 10.9838C17.741 11.0003 17.7232 11.0172 17.7058 11.0346C17.6885 11.052 17.6715 11.0697 17.6551 11.0879C17.6386 11.1061 17.6226 11.1247 17.607 11.1437C17.5914 11.1626 17.5763 11.182 17.5617 11.2017C17.5471 11.2214 17.5329 11.2415 17.5193 11.2619C17.5057 11.2823 17.4925 11.303 17.4799 11.3241C17.4673 11.3452 17.4552 11.3665 17.4436 11.3882C17.432 11.4098 17.421 11.4317 17.4105 11.4539C17.4 11.4761 17.3901 11.4986 17.3807 11.5212C17.3713 11.5439 17.3625 11.5668 17.3542 11.5899C17.3459 11.613 17.3382 11.6363 17.3311 11.6598C17.324 11.6833 17.3174 11.707 17.3115 11.7308C17.3055 11.7546 17.3001 11.7785 17.2953 11.8026C17.2905 11.8267 17.2863 11.8509 17.2827 11.8751C17.2791 11.8994 17.2761 11.9238 17.2737 11.9482C17.2713 11.9726 17.2695 11.9971 17.2683 12.0217C17.2671 12.0462 17.2665 12.0707 17.2665 12.0952ZM9.2115 7.34475C9.2115 7.36929 9.21211 7.39383 9.2133 7.41834C9.2145 7.44288 9.2163 7.46735 9.21872 7.49177C9.22113 7.51622 9.22413 7.54057 9.22774 7.56485C9.23133 7.58913 9.23552 7.61332 9.24033 7.63739C9.24511 7.66146 9.25048 7.68541 9.25645 7.70923C9.26243 7.73304 9.26897 7.75669 9.27609 7.78017C9.28322 7.80368 9.29091 7.82698 9.29918 7.85009C9.30745 7.8732 9.31629 7.89609 9.32569 7.91878C9.33509 7.94144 9.34502 7.96387 9.35552 7.98607C9.366 8.00827 9.37704 8.0302 9.38862 8.05184C9.4002 8.07349 9.41229 8.09484 9.4249 8.11591C9.43753 8.13696 9.45066 8.15768 9.4643 8.17809C9.47794 8.19851 9.49207 8.21859 9.5067 8.2383C9.52132 8.25801 9.53641 8.27737 9.55198 8.29634C9.56756 8.31532 9.58359 8.33391 9.60007 8.35209C9.61655 8.37028 9.63347 8.38805 9.65084 8.40541C9.6682 8.42278 9.68597 8.4397 9.70416 8.45618C9.72234 8.47266 9.74093 8.48869 9.75991 8.50427C9.77888 8.51984 9.79823 8.53493 9.81795 8.54955C9.83766 8.56418 9.85772 8.57831 9.87813 8.59195C9.89855 8.60559 9.91929 8.61872 9.94034 8.63135C9.96141 8.64396 9.98276 8.65605 10.0044 8.66763C10.026 8.67921 10.048 8.69025 10.0702 8.70073C10.0924 8.71123 10.1148 8.72116 10.1375 8.73056C10.1602 8.73996 10.1831 8.7488 10.2062 8.75707C10.2293 8.76534 10.2526 8.77303 10.2761 8.78016C10.2996 8.78728 10.3232 8.79382 10.347 8.7998C10.3708 8.80577 10.3948 8.81114 10.4189 8.81592C10.4429 8.82073 10.4671 8.82492 10.4914 8.82851C10.5157 8.83212 10.54 8.83512 10.5645 8.83753C10.5889 8.83994 10.6134 8.84175 10.6379 8.84295C10.6624 8.84414 10.687 8.84475 10.7115 8.84475C10.736 8.84475 10.7606 8.84414 10.7851 8.84295C10.8096 8.84175 10.8341 8.83994 10.8585 8.83753C10.883 8.83512 10.9073 8.83212 10.9316 8.82851C10.9559 8.82492 10.9801 8.82073 11.0041 8.81592C11.0282 8.81114 11.0522 8.80577 11.076 8.7998C11.0998 8.79382 11.1234 8.78728 11.1469 8.78016C11.1704 8.77303 11.1937 8.76534 11.2168 8.75707C11.2399 8.7488 11.2628 8.73996 11.2855 8.73056C11.3082 8.72116 11.3306 8.71123 11.3528 8.70073C11.375 8.69025 11.397 8.67921 11.4186 8.66763C11.4402 8.65605 11.4616 8.64396 11.4827 8.63135C11.5037 8.61872 11.5244 8.60559 11.5448 8.59195C11.5653 8.57831 11.5853 8.56418 11.6051 8.54955C11.6248 8.53493 11.6441 8.51984 11.6631 8.50427C11.6821 8.48869 11.7007 8.47266 11.7188 8.45618C11.737 8.4397 11.7548 8.42278 11.7722 8.40541C11.7895 8.38805 11.8065 8.37028 11.8229 8.35209C11.8394 8.33391 11.8554 8.31532 11.871 8.29634C11.8866 8.27737 11.9017 8.25801 11.9163 8.2383C11.9309 8.21859 11.9451 8.19851 11.9587 8.17809C11.9723 8.15768 11.9855 8.13696 11.9981 8.11591C12.0107 8.09484 12.0228 8.07349 12.0344 8.05184C12.046 8.0302 12.057 8.00827 12.0675 7.98607C12.078 7.96387 12.0879 7.94144 12.0973 7.91878C12.1067 7.89609 12.1155 7.8732 12.1238 7.85009C12.1321 7.82698 12.1398 7.80368 12.1469 7.78017C12.154 7.75669 12.1606 7.73304 12.1665 7.70923C12.1725 7.68541 12.1779 7.66146 12.1827 7.63739C12.1875 7.61332 12.1917 7.58913 12.1953 7.56485C12.1989 7.54057 12.2019 7.51622 12.2043 7.49177C12.2067 7.46735 12.2085 7.44288 12.2097 7.41834C12.2109 7.39383 12.2115 7.36929 12.2115 7.34475C12.2115 7.32021 12.2109 7.29567 12.2097 7.27116C12.2085 7.24662 12.2067 7.22215 12.2043 7.19773C12.2019 7.17328 12.1989 7.14893 12.1953 7.12465C12.1917 7.10037 12.1875 7.07618 12.1827 7.05211C12.1779 7.02804 12.1725 7.00409 12.1665 6.98027C12.1606 6.95646 12.154 6.93281 12.1469 6.90933C12.1398 6.88582 12.1321 6.86252 12.1238 6.83941C12.1155 6.8163 12.1067 6.79341 12.0973 6.77072C12.0879 6.74805 12.078 6.7256 12.0675 6.70341C12.057 6.68121 12.046 6.6593 12.0344 6.63766C12.0228 6.61601 12.0107 6.59466 11.9981 6.57359C11.9855 6.55254 11.9723 6.5318 11.9587 6.51138C11.9451 6.49097 11.9309 6.47091 11.9163 6.45119C11.9017 6.43148 11.8866 6.41212 11.871 6.39316C11.8554 6.37418 11.8394 6.35559 11.8229 6.33741C11.8065 6.31922 11.7895 6.30145 11.7722 6.28409C11.7548 6.26672 11.737 6.2498 11.7188 6.23332C11.7007 6.21684 11.6821 6.20081 11.6631 6.18523C11.6441 6.16966 11.6248 6.15457 11.6051 6.13995C11.5853 6.12532 11.5653 6.11119 11.5448 6.09755C11.5244 6.08391 11.5037 6.07078 11.4827 6.05815C11.4616 6.04554 11.4402 6.03345 11.4186 6.02187C11.397 6.01029 11.375 5.99925 11.3528 5.98877C11.3306 5.97827 11.3082 5.96834 11.2855 5.95894C11.2628 5.94954 11.2399 5.9407 11.2168 5.93243C11.1937 5.92416 11.1704 5.91647 11.1469 5.90934C11.1234 5.90222 11.0998 5.89568 11.076 5.8897C11.0522 5.88373 11.0282 5.87836 11.0041 5.87358C10.9801 5.86877 10.9559 5.86458 10.9316 5.86099C10.9073 5.85738 10.883 5.85438 10.8585 5.85197C10.8341 5.84955 10.8096 5.84775 10.7851 5.84655C10.7606 5.84536 10.736 5.84475 10.7115 5.84475C10.687 5.84475 10.6624 5.84536 10.6379 5.84655C10.6134 5.84775 10.5889 5.84955 10.5645 5.85197C10.54 5.85438 10.5157 5.85738 10.4914 5.86099C10.4671 5.86458 10.4429 5.86877 10.4189 5.87358C10.3948 5.87836 10.3708 5.88373 10.347 5.8897C10.3232 5.89568 10.2996 5.90222 10.2761 5.90934C10.2526 5.91647 10.2293 5.92416 10.2062 5.93243C10.1831 5.9407 10.1602 5.94954 10.1375 5.95894C10.1148 5.96834 10.0924 5.97827 10.0702 5.98877C10.048 5.99925 10.026 6.01029 10.0044 6.02187C9.98276 6.03345 9.96141 6.04554 9.94034 6.05815C9.91929 6.07078 9.89855 6.08391 9.87813 6.09755C9.85772 6.11119 9.83766 6.12532 9.81795 6.13995C9.79823 6.15457 9.77888 6.16966 9.75991 6.18523C9.74093 6.20081 9.72234 6.21684 9.70416 6.23332C9.68597 6.2498 9.6682 6.26672 9.65084 6.28409C9.63347 6.30145 9.61655 6.31922 9.60007 6.33741C9.58359 6.35559 9.56756 6.37418 9.55198 6.39316C9.53641 6.41212 9.52132 6.43148 9.5067 6.45119C9.49207 6.47091 9.47794 6.49097 9.4643 6.51138C9.45066 6.5318 9.43753 6.55254 9.4249 6.57359C9.41229 6.59466 9.4002 6.61601 9.38862 6.63766C9.37704 6.6593 9.366 6.68121 9.35552 6.70341C9.34502 6.7256 9.33509 6.74805 9.32569 6.77072C9.31629 6.79341 9.30745 6.8163 9.29918 6.83941C9.29091 6.86252 9.28322 6.88582 9.27609 6.90933C9.26897 6.93281 9.26243 6.95646 9.25645 6.98027C9.25048 7.00409 9.24511 7.02804 9.24033 7.05211C9.23552 7.07618 9.23133 7.10037 9.22774 7.12465C9.22413 7.14893 9.22113 7.17328 9.21872 7.19773C9.2163 7.22215 9.2145 7.24662 9.2133 7.27116C9.21211 7.29567 9.2115 7.32021 9.2115 7.34475ZM14.2665 7.97025C14.2665 7.99479 14.2671 8.01933 14.2683 8.04384C14.2695 8.06836 14.2713 8.09283 14.2737 8.11727C14.2761 8.14172 14.2791 8.16607 14.2827 8.19035C14.2863 8.21463 14.2905 8.23882 14.2953 8.26289C14.3001 8.28696 14.3055 8.31091 14.3115 8.33473C14.3174 8.35854 14.324 8.38219 14.3311 8.40567C14.3382 8.42918 14.3459 8.45248 14.3542 8.47559C14.3625 8.4987 14.3713 8.52159 14.3807 8.54428C14.3901 8.56695 14.4 8.58937 14.4105 8.61157C14.421 8.63377 14.432 8.6557 14.4436 8.67734C14.4552 8.69899 14.4673 8.72034 14.4799 8.74141C14.4925 8.76246 14.5057 8.78318 14.5193 8.80359C14.5329 8.82401 14.5471 8.84409 14.5617 8.8638C14.5763 8.88352 14.5914 8.90287 14.607 8.92184C14.6226 8.94082 14.6386 8.95941 14.6551 8.97759C14.6715 8.99578 14.6885 9.01355 14.7058 9.03091C14.7232 9.04828 14.741 9.0652 14.7592 9.08168C14.7773 9.09816 14.7959 9.11419 14.8149 9.12977C14.8339 9.14534 14.8532 9.16043 14.8729 9.17505C14.8927 9.18968 14.9127 9.20381 14.9331 9.21745C14.9535 9.23109 14.9743 9.24422 14.9953 9.25685C15.0164 9.26946 15.0378 9.28156 15.0594 9.29313C15.081 9.30469 15.103 9.31573 15.1252 9.32623C15.1474 9.33673 15.1698 9.34666 15.1925 9.35606C15.2152 9.36546 15.2381 9.3743 15.2612 9.38257C15.2843 9.39084 15.3076 9.39853 15.3311 9.40566C15.3546 9.41278 15.3782 9.41932 15.402 9.4253C15.4258 9.43127 15.4498 9.43664 15.4739 9.44142C15.4979 9.44623 15.5221 9.45042 15.5464 9.45401C15.5707 9.45762 15.595 9.46062 15.6195 9.46303C15.6439 9.46544 15.6684 9.46725 15.6929 9.46844C15.7174 9.46964 15.742 9.47025 15.7665 9.47025C15.791 9.47025 15.8156 9.46964 15.8401 9.46844C15.8646 9.46725 15.8891 9.46544 15.9135 9.46303C15.938 9.46062 15.9623 9.45762 15.9866 9.45401C16.0109 9.45042 16.0351 9.44623 16.0591 9.44142C16.0832 9.43664 16.1072 9.43127 16.131 9.4253C16.1548 9.41932 16.1784 9.41278 16.2019 9.40566C16.2254 9.39853 16.2487 9.39084 16.2718 9.38257C16.2949 9.3743 16.3178 9.36546 16.3405 9.35606C16.3632 9.34666 16.3856 9.33673 16.4078 9.32623C16.43 9.31573 16.452 9.30469 16.4736 9.29313C16.4952 9.28156 16.5166 9.26946 16.5377 9.25685C16.5587 9.24422 16.5794 9.23109 16.5998 9.21745C16.6203 9.20381 16.6403 9.18968 16.6601 9.17505C16.6798 9.16043 16.6991 9.14534 16.7181 9.12977C16.7371 9.11419 16.7557 9.09816 16.7738 9.08168C16.792 9.0652 16.8098 9.04828 16.8272 9.03091C16.8445 9.01355 16.8615 8.99578 16.8779 8.97759C16.8944 8.95941 16.9104 8.94082 16.926 8.92184C16.9416 8.90287 16.9567 8.88352 16.9713 8.8638C16.9859 8.84409 17.0001 8.82401 17.0137 8.80359C17.0273 8.78318 17.0405 8.76246 17.0531 8.74139C17.0657 8.72034 17.0778 8.69899 17.0894 8.67734C17.101 8.6557 17.112 8.63377 17.1225 8.61157C17.133 8.58937 17.1429 8.56695 17.1523 8.54428C17.1617 8.52159 17.1705 8.4987 17.1788 8.47559C17.1871 8.45248 17.1948 8.42918 17.2019 8.40567C17.209 8.38219 17.2156 8.35854 17.2215 8.33473C17.2275 8.31091 17.2329 8.28696 17.2377 8.26289C17.2425 8.23882 17.2467 8.21463 17.2503 8.19035C17.2539 8.16607 17.2569 8.14172 17.2593 8.11727C17.2617 8.09283 17.2635 8.06836 17.2647 8.04384C17.2659 8.01933 17.2665 7.99479 17.2665 7.97025C17.2665 7.94571 17.2659 7.92117 17.2647 7.89666C17.2635 7.87212 17.2617 7.84765 17.2593 7.82323C17.2569 7.79878 17.2539 7.77443 17.2503 7.75015C17.2467 7.72587 17.2425 7.70168 17.2377 7.67761C17.2329 7.65354 17.2275 7.62959 17.2215 7.60577C17.2156 7.58196 17.209 7.55831 17.2019 7.53483C17.1948 7.51132 17.1871 7.48802 17.1788 7.46491C17.1705 7.4418 17.1617 7.41891 17.1523 7.39622C17.1429 7.37355 17.133 7.3511 17.1225 7.32891C17.112 7.30671 17.101 7.2848 17.0894 7.26316C17.0778 7.24151 17.0657 7.22016 17.0531 7.19909C17.0405 7.17804 17.0273 7.1573 17.0137 7.13688C17.0001 7.11647 16.9859 7.09641 16.9713 7.07669C16.9567 7.05698 16.9416 7.03762 16.926 7.01866C16.9104 6.99968 16.8944 6.98109 16.8779 6.96291C16.8615 6.94472 16.8445 6.92695 16.8272 6.90959C16.8098 6.89222 16.792 6.8753 16.7738 6.85882C16.7557 6.84234 16.7371 6.82631 16.7181 6.81073C16.6991 6.79516 16.6798 6.78007 16.6601 6.76545C16.6403 6.75082 16.6203 6.73669 16.5998 6.72305C16.5794 6.70941 16.5587 6.69628 16.5377 6.68365C16.5166 6.67104 16.4952 6.65895 16.4736 6.64737C16.452 6.63579 16.43 6.62475 16.4078 6.61427C16.3856 6.60377 16.3632 6.59384 16.3405 6.58444C16.3178 6.57504 16.2949 6.5662 16.2718 6.55793C16.2487 6.54966 16.2254 6.54197 16.2019 6.53484C16.1784 6.52772 16.1548 6.52118 16.131 6.5152C16.1072 6.50923 16.0832 6.50386 16.0591 6.49908C16.0351 6.49427 16.0109 6.49008 15.9866 6.48649C15.9623 6.48288 15.938 6.47988 15.9135 6.47747C15.8891 6.47505 15.8646 6.47325 15.8401 6.47205C15.8156 6.47086 15.791 6.47025 15.7665 6.47025C15.742 6.47025 15.7174 6.47086 15.6929 6.47205C15.6684 6.47325 15.6439 6.47505 15.6195 6.47747C15.595 6.47988 15.5707 6.48288 15.5464 6.48649C15.5221 6.49008 15.4979 6.49427 15.4739 6.49908C15.4498 6.50386 15.4258 6.50923 15.402 6.5152C15.3782 6.52118 15.3546 6.52772 15.3311 6.53484C15.3076 6.54197 15.2843 6.54966 15.2612 6.55793C15.2381 6.5662 15.2152 6.57504 15.1925 6.58444C15.1698 6.59384 15.1474 6.60377 15.1252 6.61427C15.103 6.62475 15.081 6.63579 15.0594 6.64737C15.0378 6.65895 15.0164 6.67104 14.9953 6.68365C14.9743 6.69628 14.9535 6.70941 14.9331 6.72305C14.9127 6.73669 14.8927 6.75082 14.8729 6.76545C14.8532 6.78007 14.8339 6.79516 14.8149 6.81073C14.7959 6.82631 14.7773 6.84234 14.7592 6.85882C14.741 6.8753 14.7232 6.89222 14.7058 6.90959C14.6885 6.92695 14.6715 6.94472 14.6551 6.96291C14.6386 6.98109 14.6226 6.99968 14.607 7.01866C14.5914 7.03762 14.5763 7.05698 14.5617 7.07669C14.5471 7.09641 14.5329 7.11647 14.5193 7.13688C14.5057 7.1573 14.4925 7.17804 14.4799 7.19909C14.4673 7.22016 14.4552 7.24151 14.4436 7.26316C14.432 7.2848 14.421 7.30671 14.4105 7.32891C14.4 7.3511 14.3901 7.37355 14.3807 7.39622C14.3713 7.41891 14.3625 7.4418 14.3542 7.46491C14.3459 7.48802 14.3382 7.51132 14.3311 7.53483C14.324 7.55831 14.3174 7.58196 14.3115 7.60577C14.3055 7.62959 14.3001 7.65354 14.2953 7.67761C14.2905 7.70168 14.2863 7.72587 14.2827 7.75015C14.2791 7.77443 14.2761 7.79878 14.2737 7.82323C14.2713 7.84765 14.2695 7.87212 14.2683 7.89666C14.2671 7.92117 14.2665 7.94571 14.2665 7.97025ZM5.3295 10.5952C5.3295 10.6198 5.33011 10.6443 5.3313 10.6688C5.3325 10.6934 5.3343 10.7178 5.33672 10.7423C5.33913 10.7667 5.34213 10.7911 5.34574 10.8154C5.34933 10.8396 5.35352 10.8638 5.35833 10.8879C5.36311 10.912 5.36848 10.9359 5.37445 10.9597C5.38043 10.9835 5.38697 11.0072 5.39409 11.0307C5.40122 11.0542 5.40891 11.0775 5.41718 11.1006C5.42545 11.1237 5.43429 11.1466 5.44369 11.1693C5.45309 11.1919 5.46302 11.2144 5.47352 11.2366C5.484 11.2588 5.49504 11.2807 5.50662 11.3023C5.5182 11.324 5.53029 11.3453 5.5429 11.3664C5.55553 11.3875 5.56866 11.4082 5.5823 11.4286C5.59594 11.449 5.61007 11.4691 5.6247 11.4888C5.63932 11.5085 5.65441 11.5279 5.66998 11.5468C5.68556 11.5658 5.70159 11.5844 5.71807 11.6026C5.73455 11.6208 5.75147 11.6385 5.76884 11.6559C5.7862 11.6733 5.80397 11.6902 5.82216 11.7067C5.84034 11.7232 5.85893 11.7392 5.87791 11.7548C5.89687 11.7703 5.91623 11.7854 5.93595 11.8001C5.95566 11.8147 5.97572 11.8288 5.99613 11.8425C6.01655 11.8561 6.03729 11.8692 6.05834 11.8819C6.07941 11.8945 6.10076 11.9066 6.12241 11.9181C6.14405 11.9297 6.16596 11.9407 6.18816 11.9512C6.21035 11.9617 6.2328 11.9717 6.25547 11.9811C6.27816 11.9905 6.30105 11.9993 6.32416 12.0076C6.34727 12.0158 6.37057 12.0235 6.39408 12.0307C6.41756 12.0378 6.44121 12.0443 6.46502 12.0503C6.48884 12.0563 6.51279 12.0616 6.53686 12.0664C6.56093 12.0712 6.58512 12.0754 6.6094 12.079C6.63368 12.0826 6.65803 12.0856 6.68248 12.088C6.7069 12.0904 6.73137 12.0922 6.75591 12.0934C6.78042 12.0946 6.80496 12.0952 6.8295 12.0952C6.85404 12.0952 6.87858 12.0946 6.90309 12.0934C6.92763 12.0922 6.9521 12.0904 6.97652 12.088C7.00097 12.0856 7.02532 12.0826 7.0496 12.079C7.07388 12.0754 7.09807 12.0712 7.12214 12.0664C7.14621 12.0616 7.17016 12.0563 7.19398 12.0503C7.21779 12.0443 7.24144 12.0378 7.26492 12.0307C7.28843 12.0235 7.31173 12.0158 7.33484 12.0076C7.35795 11.9993 7.38084 11.9905 7.40353 11.9811C7.4262 11.9717 7.44863 11.9617 7.47082 11.9512C7.49302 11.9407 7.51495 11.9297 7.53659 11.9181C7.55824 11.9066 7.57959 11.8945 7.60064 11.8819C7.62171 11.8692 7.64243 11.8561 7.66284 11.8425C7.68326 11.8288 7.70334 11.8147 7.72305 11.8001C7.74277 11.7854 7.76213 11.7703 7.78109 11.7548C7.80007 11.7392 7.81866 11.7232 7.83684 11.7067C7.85503 11.6902 7.8728 11.6733 7.89016 11.6559C7.90753 11.6385 7.92445 11.6208 7.94093 11.6026C7.95741 11.5844 7.97344 11.5658 7.98902 11.5468C8.00459 11.5279 8.01968 11.5085 8.0343 11.4888C8.04893 11.4691 8.06306 11.449 8.0767 11.4286C8.09034 11.4082 8.10347 11.3875 8.1161 11.3664C8.12871 11.3453 8.1408 11.324 8.15238 11.3023C8.16396 11.2807 8.175 11.2588 8.18548 11.2366C8.19598 11.2144 8.20591 11.1919 8.21531 11.1693C8.22471 11.1466 8.23355 11.1237 8.24182 11.1006C8.25009 11.0775 8.25778 11.0542 8.26491 11.0307C8.27203 11.0072 8.27857 10.9835 8.28455 10.9597C8.29052 10.9359 8.29589 10.912 8.30067 10.8879C8.30548 10.8638 8.30967 10.8396 8.31326 10.8154C8.31687 10.7911 8.31987 10.7667 8.32228 10.7423C8.3247 10.7178 8.3265 10.6934 8.32769 10.6688C8.32889 10.6443 8.3295 10.6198 8.3295 10.5952C8.3295 10.5707 8.32889 10.5462 8.32769 10.5217C8.3265 10.4971 8.3247 10.4726 8.32228 10.4482C8.31987 10.4238 8.31687 10.3994 8.31326 10.3751C8.30967 10.3509 8.30548 10.3267 8.30067 10.3026C8.29589 10.2785 8.29052 10.2546 8.28455 10.2308C8.27857 10.207 8.27203 10.1833 8.26491 10.1598C8.25778 10.1363 8.25009 10.113 8.24182 10.0899C8.23355 10.0668 8.22471 10.0439 8.21531 10.0212C8.20591 9.99855 8.19598 9.9761 8.18548 9.95391C8.175 9.93171 8.16396 9.9098 8.15238 9.88816C8.1408 9.86651 8.12871 9.84516 8.1161 9.82409C8.10347 9.80304 8.09034 9.7823 8.0767 9.76188C8.06306 9.74147 8.04893 9.72141 8.0343 9.70169C8.01968 9.68198 8.00459 9.66262 7.98902 9.64366C7.97344 9.62468 7.95741 9.60609 7.94093 9.58791C7.92445 9.56972 7.90753 9.55195 7.89016 9.53459C7.8728 9.51722 7.85503 9.5003 7.83684 9.48382C7.81866 9.46734 7.80007 9.45131 7.78109 9.43573C7.76213 9.42016 7.74277 9.40507 7.72305 9.39045C7.70334 9.37582 7.68326 9.36169 7.66284 9.34805C7.64243 9.33441 7.62171 9.32128 7.60064 9.30865C7.57959 9.29604 7.55824 9.28395 7.53659 9.27237C7.51495 9.26079 7.49302 9.24975 7.47082 9.23927C7.44863 9.22877 7.4262 9.21884 7.40353 9.20944C7.38084 9.20004 7.35795 9.1912 7.33484 9.18293C7.31173 9.17466 7.28843 9.16697 7.26492 9.15984C7.24144 9.15272 7.21779 9.14618 7.19398 9.1402C7.17016 9.13423 7.14621 9.12886 7.12214 9.12408C7.09807 9.11927 7.07388 9.11508 7.0496 9.11149C7.02532 9.10788 7.00097 9.10488 6.97652 9.10247C6.9521 9.10005 6.92763 9.09825 6.90309 9.09705C6.87858 9.09586 6.85404 9.09525 6.8295 9.09525C6.80496 9.09525 6.78042 9.09586 6.75591 9.09705C6.73137 9.09825 6.7069 9.10005 6.68248 9.10247C6.65803 9.10488 6.63368 9.10788 6.6094 9.11149C6.58512 9.11508 6.56093 9.11927 6.53686 9.12408C6.51279 9.12886 6.48884 9.13423 6.46502 9.1402C6.44121 9.14618 6.41756 9.15272 6.39408 9.15984C6.37057 9.16697 6.34727 9.17466 6.32416 9.18293C6.30105 9.1912 6.27816 9.20004 6.25547 9.20944C6.2328 9.21884 6.21035 9.22877 6.18816 9.23927C6.16596 9.24975 6.14405 9.26079 6.12241 9.27237C6.10076 9.28395 6.07941 9.29604 6.05834 9.30865C6.03729 9.32128 6.01655 9.33441 5.99613 9.34805C5.97572 9.36169 5.95566 9.37582 5.93595 9.39045C5.91623 9.40507 5.89687 9.42016 5.87791 9.43573C5.85893 9.45131 5.84034 9.46734 5.82216 9.48382C5.80397 9.5003 5.7862 9.51722 5.76884 9.53459C5.75147 9.55195 5.73455 9.56972 5.71807 9.58791C5.70159 9.60609 5.68556 9.62468 5.66998 9.64366C5.65441 9.66262 5.63932 9.68198 5.6247 9.70169C5.61007 9.72141 5.59594 9.74147 5.5823 9.76188C5.56866 9.7823 5.55553 9.80304 5.5429 9.82409C5.53029 9.84516 5.5182 9.86651 5.50662 9.88816C5.49504 9.9098 5.484 9.93171 5.47352 9.95391C5.46302 9.9761 5.45309 9.99855 5.44369 10.0212C5.43429 10.0439 5.42545 10.0668 5.41718 10.0899C5.40891 10.113 5.40122 10.1363 5.39409 10.1598C5.38697 10.1833 5.38043 10.207 5.37445 10.2308C5.36848 10.2546 5.36311 10.2785 5.35833 10.3026C5.35352 10.3267 5.34933 10.3509 5.34574 10.3751C5.34213 10.3994 5.33913 10.4238 5.33672 10.4482C5.3343 10.4726 5.3325 10.4971 5.3313 10.5217C5.33011 10.5462 5.3295 10.5707 5.3295 10.5952ZM4.275 16.377C4.275 16.4138 4.27591 16.4506 4.27772 16.4874C4.27952 16.5242 4.28222 16.5609 4.28583 16.5975C4.28944 16.6342 4.29394 16.6707 4.29935 16.7071C4.30477 16.7436 4.31105 16.7798 4.31824 16.816C4.32541 16.8521 4.33348 16.888 4.34243 16.9237C4.35138 16.9594 4.3612 16.9949 4.37189 17.0301C4.38258 17.0654 4.39413 17.1003 4.40653 17.135C4.41893 17.1697 4.4322 17.204 4.44628 17.238C4.46037 17.2721 4.47527 17.3057 4.49102 17.339C4.50677 17.3723 4.52332 17.4052 4.54069 17.4376C4.55803 17.4701 4.57617 17.5021 4.59511 17.5337C4.61405 17.5653 4.63373 17.5964 4.6542 17.627C4.67466 17.6576 4.69584 17.6877 4.71778 17.7173C4.73972 17.7469 4.76236 17.7759 4.78573 17.8044C4.80909 17.8328 4.83314 17.8607 4.85787 17.888C4.88259 17.9153 4.90798 17.9419 4.93402 17.968C4.96005 17.994 4.9867 18.0194 5.01398 18.0441C5.04129 18.0689 5.06916 18.0929 5.09761 18.1163C5.12609 18.1396 5.1551 18.1623 5.18468 18.1842C5.21426 18.2062 5.24435 18.2273 5.27496 18.2478C5.30559 18.2683 5.3367 18.288 5.36827 18.3069C5.39986 18.3258 5.4319 18.3439 5.46436 18.3613C5.49682 18.3787 5.5297 18.3952 5.56301 18.411C5.59629 18.4267 5.62995 18.4416 5.66395 18.4557C5.69798 18.4698 5.73234 18.4831 5.76701 18.4955C5.80167 18.5079 5.83662 18.5194 5.87187 18.5301C5.90709 18.5408 5.94258 18.5506 5.9783 18.5596C6.01402 18.5685 6.04992 18.5766 6.08604 18.5838C6.12216 18.591 6.15844 18.5972 6.19486 18.6026C6.23128 18.6081 6.26782 18.6126 6.30445 18.6162C6.34111 18.6198 6.37784 18.6225 6.41461 18.6243C6.45138 18.6261 6.48818 18.627 6.525 18.627C6.56182 18.627 6.59864 18.6261 6.63541 18.6243C6.67219 18.6225 6.70889 18.6198 6.74555 18.6162C6.78218 18.6126 6.81872 18.6081 6.85514 18.6026C6.89156 18.5972 6.92784 18.591 6.96396 18.5838C7.00008 18.5766 7.03598 18.5685 7.0717 18.5596C7.10742 18.5506 7.14291 18.5408 7.17813 18.5301C7.21338 18.5194 7.24833 18.5079 7.28299 18.4955C7.31766 18.4831 7.35202 18.4698 7.38605 18.4557C7.42005 18.4416 7.45371 18.4267 7.48699 18.411C7.5203 18.3952 7.55318 18.3787 7.58564 18.3613C7.6181 18.344 7.65014 18.3258 7.68173 18.3069C7.7133 18.288 7.74441 18.2683 7.77504 18.2478C7.80565 18.2273 7.83574 18.2062 7.86532 18.1842C7.8949 18.1623 7.92391 18.1396 7.95239 18.1163C7.98084 18.0929 8.00871 18.0689 8.03602 18.0441C8.0633 18.0194 8.08994 17.994 8.11598 17.968C8.14202 17.9419 8.16741 17.9153 8.19213 17.888C8.21686 17.8607 8.24091 17.8328 8.26427 17.8044C8.28764 17.7759 8.31028 17.7469 8.33222 17.7173C8.35416 17.6877 8.37534 17.6576 8.3958 17.627C8.41627 17.5964 8.43595 17.5653 8.45489 17.5337C8.4738 17.5021 8.49195 17.4701 8.50931 17.4376C8.52668 17.4052 8.54323 17.3723 8.55898 17.339C8.57473 17.3057 8.58963 17.2721 8.60372 17.238C8.6178 17.204 8.63107 17.1697 8.64347 17.135C8.65587 17.1003 8.66742 17.0654 8.67811 17.0301C8.6888 16.9949 8.69862 16.9594 8.70757 16.9237C8.71652 16.888 8.72459 16.8521 8.73176 16.816C8.73895 16.7798 8.74523 16.7436 8.75065 16.7071C8.75606 16.6707 8.76056 16.6342 8.76417 16.5975C8.76778 16.5609 8.77048 16.5242 8.77228 16.4874C8.77409 16.4506 8.775 16.4138 8.775 16.377C8.775 16.3402 8.77409 16.3034 8.77228 16.2666C8.77048 16.2298 8.76778 16.1931 8.76417 16.1565C8.76056 16.1198 8.75606 16.0833 8.75065 16.0469C8.74523 16.0104 8.73895 15.9742 8.73176 15.938C8.72459 15.9019 8.71652 15.866 8.70757 15.8303C8.69862 15.7946 8.6888 15.7591 8.67811 15.7239C8.66742 15.6886 8.65587 15.6537 8.64347 15.619C8.63107 15.5843 8.6178 15.55 8.60372 15.516C8.58963 15.4819 8.57473 15.4483 8.55898 15.415C8.54323 15.3817 8.52668 15.3488 8.50931 15.3164C8.49195 15.2839 8.4738 15.2518 8.45489 15.2203C8.43595 15.1887 8.41627 15.1576 8.3958 15.127C8.37534 15.0964 8.35416 15.0663 8.33222 15.0367C8.31028 15.0071 8.28764 14.9781 8.26427 14.9496C8.24091 14.9212 8.21686 14.8933 8.19213 14.866C8.16741 14.8387 8.14202 14.8121 8.11598 14.786C8.08994 14.76 8.0633 14.7346 8.03602 14.7099C8.00873 14.6851 7.98087 14.6611 7.95239 14.6377C7.92391 14.6144 7.8949 14.5917 7.86532 14.5698C7.83574 14.5478 7.80565 14.5267 7.77504 14.5062C7.74441 14.4857 7.7133 14.466 7.68173 14.4471C7.65014 14.4282 7.6181 14.41 7.58564 14.3927C7.55318 14.3753 7.5203 14.3588 7.48699 14.343C7.45371 14.3273 7.42005 14.3124 7.38605 14.2983C7.35202 14.2842 7.31766 14.2709 7.28299 14.2585C7.24833 14.2461 7.21338 14.2346 7.17813 14.2239C7.14291 14.2132 7.10742 14.2034 7.0717 14.1944C7.03598 14.1855 7.00008 14.1774 6.96396 14.1702C6.92784 14.163 6.89156 14.1568 6.85514 14.1514C6.81872 14.1459 6.78218 14.1414 6.74555 14.1378C6.70889 14.1342 6.67219 14.1315 6.63541 14.1297C6.59864 14.1279 6.56182 14.127 6.525 14.127C6.48818 14.127 6.45138 14.1279 6.41461 14.1297C6.37784 14.1315 6.34111 14.1342 6.30445 14.1378C6.26782 14.1414 6.23128 14.1459 6.19486 14.1514C6.15844 14.1568 6.12216 14.163 6.08604 14.1702C6.04992 14.1774 6.01402 14.1855 5.9783 14.1944C5.94258 14.2034 5.90709 14.2132 5.87187 14.2239C5.83662 14.2346 5.80167 14.2461 5.76701 14.2585C5.73234 14.2709 5.69798 14.2842 5.66395 14.2983C5.62995 14.3124 5.59629 14.3273 5.56301 14.343C5.5297 14.3588 5.49682 14.3753 5.46436 14.3927C5.4319 14.41 5.39986 14.4282 5.36827 14.4471C5.3367 14.466 5.30559 14.4857 5.27496 14.5062C5.24435 14.5267 5.21426 14.5478 5.18468 14.5698C5.1551 14.5917 5.12609 14.6144 5.09761 14.6377C5.06916 14.6611 5.04129 14.6851 5.01398 14.7099C4.9867 14.7346 4.96005 14.76 4.93402 14.786C4.90798 14.8121 4.88259 14.8387 4.85787 14.866C4.83314 14.8933 4.80909 14.9212 4.78573 14.9496C4.76236 14.9781 4.73972 15.0071 4.71778 15.0367C4.69584 15.0663 4.67466 15.0964 4.6542 15.127C4.63373 15.1576 4.61405 15.1887 4.59511 15.2203C4.57617 15.2518 4.55803 15.2839 4.54069 15.3164C4.52332 15.3488 4.50677 15.3817 4.49102 15.415C4.47527 15.4483 4.46037 15.4819 4.44628 15.516C4.4322 15.55 4.41893 15.5843 4.40653 15.619C4.39413 15.6537 4.38258 15.6886 4.37189 15.7239C4.3612 15.7591 4.35138 15.7946 4.34243 15.8303C4.33348 15.866 4.32541 15.9019 4.31824 15.938C4.31105 15.9742 4.30477 16.0104 4.29935 16.0469C4.29394 16.0833 4.28944 16.1198 4.28583 16.1565C4.28222 16.1931 4.27952 16.2298 4.27772 16.2666C4.27591 16.3034 4.275 16.3402 4.275 16.377Z">
  </path>
</svg>