<svg width="24" height="24" viewBox="0 0 24 24">
  <path fill-rule="evenodd"
    d="M11.75 1.75C6.23779 1.75 1.75 6.23779 1.75 11.75C1.75 17.2622 6.23779 21.75 11.75 21.75C17.2622 21.75 21.75 17.2622 21.75 11.75C21.75 6.23779 17.2622 1.75 11.75 1.75ZM6.62804 18.5793C6.62804 15.75 8.92073 13.4573 11.75 13.4573C14.5793 13.4573 16.872 15.75 16.872 18.5793C15.4573 19.6524 13.6524 20.2866 11.75 20.2866C9.84756 20.2866 8.04269 19.6524 6.62804 18.5793ZM9.55487 9.79878C9.55487 8.57926 10.5305 7.60366 11.75 7.60366C12.9695 7.60366 13.9451 8.57926 13.9451 9.79878C13.9451 11.0183 12.9695 11.9939 11.75 11.9939C10.5305 11.9939 9.55487 11.0183 9.55487 9.79878ZM18.189 17.311C17.75 15.1159 16.2378 13.311 14.189 12.4817C14.9207 11.7988 15.3598 10.8719 15.3598 9.79878C15.3598 7.79878 13.7012 6.14025 11.7012 6.14025C9.70122 6.14025 8.04269 7.79878 8.04269 9.79878C8.04269 10.8719 8.48171 11.7988 9.21342 12.4817C7.16464 13.311 5.65243 15.1159 5.2134 17.311C3.94513 15.7988 3.11585 13.8963 3.11585 11.75C3.11585 7.06707 6.9695 3.21342 11.6524 3.21342C16.3354 3.21342 20.2866 7.06707 20.2866 11.75C20.2866 13.8963 19.5061 15.7988 18.189 17.311Z">
  </path>
</svg>