<svg width="24" height="24" viewBox="0 0 24 24">
  <path fill-rule="evenodd"
    d="M12.0386 2C18.0093 2 22 6.06784 22 12.0386C22 18.0094 18.0093 22 12.0386 22C6.06784 22 2 18.0094 2 12.0386C2 6.06784 6.06784 2 12.0386 2ZM12.0386 3.13559C7.12157 3.13559 3.13559 7.12157 3.13559 12.0386C3.13559 16.9556 7.12157 20.9416 12.0386 20.9416C16.9556 20.9416 20.9416 16.9556 20.9416 12.0386C20.9416 7.12157 16.9556 3.13559 12.0386 3.13559ZM12.9925 6.31522L12.9925 11.0847L17.762 11.0847L17.762 12.9925L12.9925 12.9925L12.9925 17.762L11.0847 17.762L11.0847 12.9919L6.31521 12.9925L6.31521 11.0847L11.0847 11.0841L11.0847 6.31522L12.9925 6.31522Z">
  </path>
</svg>