<svg width="24" height="24" viewBox="0 0 24 24">
  <path fill-rule="evenodd"
    d="M22.5585 2.85907L3.76286 21.6547C3.43113 21.9865 2.92909 22.0223 2.64156 21.7348C2.354 21.4472 2.38984 20.9452 2.72157 20.6134L21.5172 1.81778C21.849 1.48602 22.351 1.4502 22.6386 1.73776C22.9261 2.0253 22.8903 2.52731 22.5585 2.85907Z">
  </path>
  <path fill-rule="evenodd"
    d="M21.1029 22.0328L2.30718 3.2371C1.97545 2.90537 1.92814 2.41482 2.2015 2.14146C2.47488 1.86808 2.96541 1.91542 3.29714 2.24715L22.0928 21.0428C22.4246 21.3746 22.4719 21.8651 22.1985 22.1385C21.9251 22.4118 21.4346 22.3645 21.1029 22.0328Z">
  </path>
</svg>