<svg width="24" height="24" viewBox="0 0 24 24">
  <path fill-rule="evenodd"
    d="M12 3C13.0887 3 14.1473 3.16534 15.176 3.49601C16.2047 3.82666 17.107 4.25633 17.883 4.785C18.659 5.31367 19.3893 5.89833 20.074 6.53899C20.7587 7.17966 21.3343 7.82034 21.801 8.46101C22.2677 9.10167 22.6713 9.68632 23.012 10.215C23.3527 10.7437 23.6041 11.172 23.7661 11.5L24 12C23.9632 12.078 23.914 12.1833 23.8521 12.316C23.79 12.4487 23.643 12.7197 23.411 13.129C23.179 13.5383 22.9317 13.942 22.669 14.34C22.4063 14.738 22.06 15.2067 21.63 15.746C21.2 16.2853 20.756 16.788 20.298 17.254C19.84 17.72 19.297 18.19 18.669 18.664C18.041 19.138 17.3977 19.5403 16.739 19.871C16.0803 20.2017 15.3393 20.4727 14.516 20.684C13.6927 20.8953 12.854 21.0007 12 21C10.9113 21 9.85266 20.8347 8.82401 20.504C7.79534 20.1733 6.89299 19.745 6.117 19.219C5.34101 18.693 4.61067 18.1123 3.92599 17.477C3.24134 16.8417 2.66566 16.205 2.199 15.567C1.73233 14.929 1.32867 14.347 0.988001 13.821C0.647334 13.295 0.396 12.8653 0.234 12.532L0 12.04C0.0366666 11.962 0.0859999 11.8567 0.148 11.724C0.21 11.5913 0.357 11.3193 0.589001 10.908C0.821002 10.4967 1.06833 10.0917 1.331 9.693C1.59367 9.29433 1.94 8.823 2.37 8.27899C2.80001 7.73498 3.24401 7.22967 3.702 6.76301C4.15999 6.29634 4.70299 5.82499 5.331 5.349C5.95901 4.873 6.60234 4.468 7.26101 4.134C7.91967 3.8 8.66067 3.528 9.48401 3.318C10.3073 3.108 11.146 3.00266 12 3.00199L12 3ZM12 4.99999C11.2707 4.99999 10.5547 5.09633 9.852 5.289C9.14932 5.48168 8.51534 5.73033 7.95 6.03499C7.38466 6.33966 6.83266 6.708 6.294 7.14C5.75534 7.572 5.28933 7.99767 4.896 8.41699C4.50267 8.83634 4.12102 9.28702 3.75101 9.76901C3.381 10.251 3.08667 10.6637 2.868 11.007C2.64933 11.3503 2.44366 11.694 2.251 12.038C2.44366 12.3767 2.64933 12.7167 2.868 13.058C3.08667 13.3993 3.381 13.8083 3.75101 14.285C4.12102 14.7617 4.50267 15.207 4.896 15.621C5.28933 16.035 5.75534 16.4557 6.294 16.883C6.83266 17.3103 7.38466 17.675 7.95 17.977C8.51534 18.279 9.14932 18.525 9.852 18.715C10.5547 18.905 11.2707 19 12 19C12.7293 19 13.4453 18.9037 14.148 18.711C14.8507 18.5183 15.4847 18.271 16.05 17.969C16.6153 17.667 17.1673 17.301 17.706 16.871C18.2447 16.441 18.7107 16.0177 19.104 15.601C19.4973 15.1843 19.879 14.7363 20.249 14.257C20.619 13.7777 20.9133 13.3663 21.132 13.023C21.3507 12.6797 21.5563 12.3387 21.749 12C21.5563 11.6613 21.3507 11.3203 21.132 10.977C20.9133 10.6337 20.619 10.2223 20.249 9.74299C19.879 9.26367 19.4973 8.81566 19.104 8.39899C18.7107 7.98234 18.2447 7.55902 17.706 7.12901C17.1673 6.699 16.6153 6.333 16.05 6.03101C15.4847 5.72902 14.8507 5.48168 14.148 5.289C13.4453 5.09633 12.7293 4.99999 12 4.99999ZM12 7.99999C13.104 7.99999 14.0467 8.39067 14.828 9.17201C15.6093 9.95334 16 10.896 16 12C16 13.104 15.6093 14.0467 14.828 14.828C14.0467 15.6093 13.104 16 12 16C10.896 16 9.95334 15.6093 9.17201 14.828C8.39067 14.0467 7.99999 13.104 7.99999 12C7.99999 10.896 8.39067 9.95334 9.17201 9.17201C9.95334 8.39067 10.896 7.99999 12 7.99999ZM12 10C11.448 10 10.9767 10.1953 10.586 10.586C10.1953 10.9767 10 11.448 10 12C10 12.552 10.1953 13.0233 10.586 13.414C10.9767 13.8047 11.448 14 12 14C12.552 14 13.0233 13.8047 13.414 13.414C13.8047 13.0233 14 12.552 14 12C14 11.448 13.8047 10.9767 13.414 10.586C13.0233 10.1953 12.552 10 12 10Z">
  </path>
  <path fill-rule="evenodd"
    d="M1.96512 3.885L20.2155 22.1354C20.7459 22.6658 21.6086 22.6658 22.1389 22.1354L22.1389 22.1354C22.6692 21.6051 22.6692 20.7424 22.1389 20.2121L3.88845 1.96167C3.35812 1.43134 2.49545 1.43134 1.96512 1.96167L1.96512 1.96167C1.43479 2.492 1.43479 3.35467 1.96512 3.885Z">
  </path>
</svg>