<svg width="24" height="24" viewBox="0 0 24 24">
  <path fill-rule="evenodd"
    d="M20.75 5L3.25001 5C3.22955 5 3.20912 5.00054 3.1887 5.00157C3.16826 5.00261 3.14787 5.00413 3.12752 5.00615C3.10718 5.00816 3.08689 5.01069 3.06666 5.01372C3.04642 5.01672 3.02628 5.02023 3.00624 5.02426C2.98619 5.02825 2.96624 5.03275 2.9464 5.03774C2.92657 5.04271 2.90688 5.04819 2.88731 5.05415C2.86774 5.0601 2.84832 5.06652 2.82907 5.07343C2.80982 5.08033 2.79075 5.08768 2.77186 5.09554C2.75297 5.10336 2.73428 5.11166 2.7158 5.12043C2.69731 5.12917 2.67905 5.13836 2.66102 5.14801C2.64299 5.15767 2.62521 5.16775 2.60768 5.17827C2.59015 5.18877 2.57288 5.19972 2.55586 5.21111C2.53886 5.22245 2.52215 5.23424 2.50573 5.24643C2.4893 5.25861 2.47319 5.27118 2.45738 5.28416C2.44158 5.29714 2.4261 5.3105 2.41095 5.32424C2.39579 5.33797 2.38099 5.35206 2.36653 5.36654C2.35206 5.38098 2.33796 5.39579 2.32423 5.41096C2.3105 5.4261 2.29715 5.44157 2.28417 5.45739C2.27119 5.47318 2.25861 5.48931 2.24642 5.50574C2.23424 5.52214 2.22246 5.53886 2.21109 5.55587C2.19973 5.57286 2.18879 5.59014 2.17827 5.60769C2.16775 5.62522 2.15766 5.64299 2.14801 5.66104C2.13836 5.67906 2.12916 5.69732 2.12041 5.71581C2.11166 5.73428 2.10336 5.75298 2.09553 5.77187C2.08769 5.79076 2.08032 5.80982 2.07342 5.82908C2.06652 5.84832 2.06009 5.86773 2.05414 5.8873C2.04819 5.90685 2.04272 5.92656 2.03774 5.94641C2.03275 5.96624 2.02826 5.98618 2.02425 6.00625C2.02024 6.02629 2.01673 6.04642 2.01371 6.06667C2.01069 6.08687 2.00817 6.10717 2.00615 6.12753C2.00412 6.14788 2.0026 6.16825 2.00157 6.18868C2.00055 6.2091 2.00002 6.22954 2 6.25L2 19.75C2.00002 19.7704 2.00055 19.7909 2.00157 19.8113C2.0026 19.8317 2.00412 19.8521 2.00615 19.8725C2.00817 19.8928 2.01069 19.9131 2.01371 19.9333C2.01673 19.9536 2.02024 19.9737 2.02425 19.9938C2.02826 20.0138 2.03275 20.0337 2.03774 20.0536C2.04272 20.0734 2.04819 20.0931 2.05414 20.1127C2.06009 20.1322 2.06652 20.1517 2.07342 20.1709C2.08032 20.1902 2.08769 20.2092 2.09553 20.2281C2.10336 20.247 2.11166 20.2657 2.12041 20.2842C2.12916 20.3027 2.13836 20.3209 2.14801 20.339C2.15766 20.357 2.16775 20.3748 2.17827 20.3923C2.18879 20.4098 2.19973 20.4271 2.21109 20.4441C2.22246 20.4611 2.23424 20.4778 2.24642 20.4943C2.25861 20.5107 2.27119 20.5268 2.28417 20.5426C2.29715 20.5584 2.3105 20.5739 2.32423 20.589C2.33796 20.6042 2.35206 20.619 2.36653 20.6335C2.38099 20.6479 2.39579 20.662 2.41095 20.6758C2.4261 20.6895 2.44158 20.7028 2.45738 20.7158C2.47319 20.7288 2.4893 20.7414 2.50573 20.7536C2.52215 20.7657 2.53886 20.7775 2.55586 20.7889C2.57288 20.8002 2.59015 20.8112 2.60768 20.8217C2.62521 20.8322 2.64299 20.8423 2.66102 20.852C2.67905 20.8616 2.69731 20.8708 2.7158 20.8796C2.73428 20.8883 2.75297 20.8966 2.77186 20.9045C2.79075 20.9123 2.80982 20.9197 2.82907 20.9266C2.84832 20.9335 2.86774 20.9399 2.88731 20.9459C2.90688 20.9518 2.92657 20.9573 2.9464 20.9623C2.96624 20.9672 2.98619 20.9717 3.00624 20.9757C3.02628 20.9797 3.04642 20.9832 3.06666 20.9863C3.08689 20.9893 3.10718 20.9918 3.12752 20.9938C3.14787 20.9959 3.16826 20.9974 3.1887 20.9984C3.20912 20.9994 3.22955 21 3.25001 21L12 21L20.75 21C20.7704 21 20.7909 20.9994 20.8113 20.9984C20.8317 20.9974 20.8521 20.9959 20.8725 20.9938C20.8928 20.9918 20.9131 20.9893 20.9334 20.9863C20.9536 20.9832 20.9737 20.9797 20.9938 20.9757C21.0138 20.9717 21.0338 20.9672 21.0536 20.9623C21.0734 20.9573 21.0931 20.9518 21.1127 20.9459C21.1323 20.9399 21.1517 20.9335 21.1709 20.9266C21.1902 20.9197 21.2093 20.9123 21.2281 20.9045C21.247 20.8966 21.2657 20.8883 21.2842 20.8796C21.3027 20.8708 21.3209 20.8616 21.339 20.852C21.357 20.8423 21.3748 20.8322 21.3923 20.8217C21.4099 20.8112 21.4271 20.8002 21.4441 20.7889C21.4611 20.7775 21.4779 20.7657 21.4943 20.7536C21.5107 20.7414 21.5268 20.7288 21.5426 20.7158C21.5584 20.7028 21.5739 20.6895 21.5891 20.6758C21.6042 20.662 21.619 20.6479 21.6335 20.6335C21.6479 20.619 21.662 20.6042 21.6758 20.589C21.6895 20.5739 21.7029 20.5584 21.7158 20.5426C21.7288 20.5268 21.7414 20.5107 21.7536 20.4943C21.7658 20.4778 21.7775 20.4611 21.7889 20.4441C21.8003 20.4271 21.8112 20.4098 21.8217 20.3923C21.8322 20.3748 21.8424 20.357 21.852 20.339C21.8616 20.3209 21.8708 20.3027 21.8796 20.2842C21.8883 20.2657 21.8966 20.247 21.9045 20.2281C21.9123 20.2092 21.9197 20.1902 21.9266 20.1709C21.9335 20.1517 21.9399 20.1322 21.9459 20.1127C21.9518 20.0931 21.9573 20.0734 21.9623 20.0536C21.9672 20.0338 21.9718 20.0138 21.9758 19.9938C21.9797 19.9737 21.9833 19.9536 21.9863 19.9333C21.9893 19.9131 21.9918 19.8928 21.9939 19.8725C21.9959 19.8521 21.9974 19.8317 21.9984 19.8113C21.9995 19.7909 22 19.7704 22 19.75L22 6.25C22 6.22954 21.9995 6.2091 21.9984 6.18868C21.9974 6.16825 21.9959 6.14788 21.9939 6.12753C21.9918 6.10717 21.9893 6.08687 21.9863 6.06667C21.9833 6.04642 21.9797 6.02629 21.9758 6.00625C21.9718 5.98618 21.9672 5.96624 21.9623 5.94641C21.9573 5.92656 21.9518 5.90685 21.9459 5.8873C21.9399 5.86773 21.9335 5.84832 21.9266 5.82908C21.9197 5.80982 21.9123 5.79076 21.9045 5.77187C21.8966 5.75298 21.8883 5.73428 21.8796 5.71581C21.8708 5.69732 21.8616 5.67906 21.852 5.66104C21.8423 5.64299 21.8322 5.62522 21.8217 5.60769C21.8112 5.59014 21.8003 5.57286 21.7889 5.55587C21.7775 5.53886 21.7658 5.52214 21.7536 5.50574C21.7414 5.48931 21.7288 5.47318 21.7158 5.45739C21.7029 5.44159 21.6895 5.4261 21.6758 5.41096C21.662 5.39579 21.6479 5.38098 21.6335 5.36654C21.619 5.35206 21.6042 5.33797 21.5891 5.32424C21.5739 5.3105 21.5584 5.29714 21.5426 5.28416C21.5268 5.27118 21.5107 5.25861 21.4943 5.24643C21.4779 5.23424 21.4611 5.22245 21.4441 5.21111C21.4271 5.19972 21.4099 5.18877 21.3923 5.17827C21.3748 5.16775 21.357 5.15767 21.339 5.14801C21.3209 5.13836 21.3027 5.12917 21.2842 5.12043C21.2657 5.11166 21.247 5.10336 21.2281 5.09554C21.2093 5.08768 21.1902 5.0803 21.1709 5.07341C21.1517 5.06652 21.1323 5.0601 21.1127 5.05415C21.0931 5.04819 21.0734 5.04271 21.0536 5.03774C21.0338 5.03275 21.0138 5.02825 20.9938 5.02426C20.9737 5.02023 20.9536 5.01672 20.9334 5.01372C20.9131 5.01069 20.8928 5.00816 20.8725 5.00615C20.8521 5.00413 20.8317 5.00261 20.8113 5.00157C20.7909 5.00054 20.7704 5 20.75 5ZM21 19.75C21 19.7541 20.9999 19.7582 20.9997 19.7623C20.9995 19.7663 20.9992 19.7704 20.9988 19.7745C20.9984 19.7786 20.9979 19.7826 20.9973 19.7867C20.9967 19.7907 20.996 19.7947 20.9952 19.7988C20.9944 19.8028 20.9935 19.8068 20.9925 19.8107C20.9915 19.8147 20.9904 19.8186 20.9893 19.8226C20.9881 19.8265 20.9868 19.8304 20.9854 19.8342C20.984 19.8381 20.9825 19.8419 20.981 19.8457C20.9794 19.8494 20.9777 19.8532 20.976 19.8569C20.9742 19.8606 20.9724 19.8642 20.9705 19.8679C20.9686 19.8714 20.9665 19.875 20.9644 19.8785C20.9623 19.882 20.9601 19.8855 20.9579 19.8889C20.9556 19.8923 20.9532 19.8956 20.9508 19.8989C20.9484 19.9022 20.9458 19.9054 20.9433 19.9086C20.9407 19.9118 20.938 19.9148 20.9352 19.9179C20.9325 19.9209 20.9297 19.9239 20.9268 19.9268C20.9239 19.9297 20.9209 19.9325 20.9179 19.9352C20.9149 19.938 20.9118 19.9406 20.9086 19.9433C20.9054 19.9458 20.9022 19.9484 20.8989 19.9508C20.8956 19.9532 20.8923 19.9556 20.8889 19.9579C20.8855 19.9601 20.882 19.9623 20.8785 19.9644C20.875 19.9665 20.8715 19.9685 20.8678 19.9705C20.8642 19.9724 20.8606 19.9742 20.8569 19.976C20.8532 19.9777 20.8494 19.9794 20.8457 19.981C20.8419 19.9825 20.8381 19.984 20.8342 19.9854C20.8304 19.9868 20.8265 19.988 20.8226 19.9892C20.8186 19.9904 20.8147 19.9915 20.8107 19.9925C20.8068 19.9935 20.8028 19.9944 20.7988 19.9952C20.7947 19.996 20.7907 19.9967 20.7867 19.9973C20.7826 19.9979 20.7786 19.9984 20.7745 19.9988C20.7704 19.9992 20.7664 19.9995 20.7623 19.9997C20.7582 19.9999 20.7541 20 20.75 20L3.25001 20C3.24591 20 3.24182 19.9999 3.23773 19.9997C3.23365 19.9995 3.22957 19.9992 3.22549 19.9988C3.22143 19.9984 3.21738 19.9979 3.21333 19.9973C3.20928 19.9967 3.20525 19.996 3.20124 19.9952C3.19722 19.9944 3.19323 19.9935 3.18926 19.9925C3.18529 19.9915 3.18134 19.9904 3.17742 19.9892C3.17352 19.988 3.16963 19.9868 3.16577 19.9854C3.16193 19.984 3.15812 19.9825 3.15434 19.981C3.15056 19.9794 3.14681 19.9777 3.14311 19.976C3.13941 19.9742 3.13575 19.9724 3.13214 19.9705C3.12855 19.9685 3.12499 19.9665 3.12148 19.9644C3.11796 19.9623 3.11451 19.9601 3.11112 19.9579C3.10771 19.9556 3.10437 19.9532 3.10109 19.9508C3.09779 19.9484 3.09456 19.9458 3.09141 19.9433C3.08824 19.9406 3.08513 19.938 3.0821 19.9352C3.07907 19.9325 3.07611 19.9297 3.07322 19.9268C3.07033 19.9239 3.06751 19.9209 3.06476 19.9179C3.06201 19.9148 3.05934 19.9118 3.05674 19.9086C3.05415 19.9054 3.05163 19.9022 3.0492 19.8989C3.04676 19.8956 3.04441 19.8923 3.04214 19.8889C3.03986 19.8855 3.03767 19.882 3.03558 19.8785C3.03347 19.875 3.03145 19.8714 3.02951 19.8678C3.02759 19.8642 3.02575 19.8606 3.024 19.8569C3.02225 19.8532 3.0206 19.8494 3.01903 19.8457C3.01747 19.8419 3.016 19.8381 3.01463 19.8342C3.01324 19.8304 3.01195 19.8265 3.01076 19.8226C3.00957 19.8186 3.00849 19.8147 3.0075 19.8107C3.0065 19.8068 3.0056 19.8028 3.00481 19.7988C3.00401 19.7947 3.00331 19.7907 3.0027 19.7867C3.0021 19.7826 3.0016 19.7786 3.0012 19.7745C3.0008 19.7704 3.00051 19.7663 3.00031 19.7623C3.0001 19.7582 3 19.7541 3 19.75L3 6.25C3 6.24589 3.0001 6.24182 3.00031 6.23774C3.00051 6.23364 3.0008 6.22956 3.0012 6.2255C3.0016 6.22143 3.0021 6.21735 3.0027 6.21332C3.00331 6.20926 3.00401 6.20523 3.00481 6.20122C3.0056 6.19721 3.0065 6.19323 3.0075 6.18927C3.00849 6.18529 3.00957 6.18135 3.01076 6.17743C3.01195 6.1735 3.01324 6.16963 3.01463 6.16578C3.016 6.16192 3.01747 6.1581 3.01903 6.15432C3.0206 6.15053 3.02225 6.1468 3.024 6.14312C3.02575 6.13942 3.02759 6.13576 3.02953 6.13215C3.03145 6.12854 3.03347 6.12498 3.03558 6.12149C3.03767 6.11797 3.03986 6.1145 3.04214 6.11111C3.04441 6.10771 3.04676 6.10436 3.0492 6.10107C3.05163 6.09779 3.05415 6.09456 3.05674 6.09139C3.05934 6.08823 3.06201 6.08514 3.06476 6.08211C3.06751 6.07907 3.07033 6.07611 3.07322 6.07323C3.07611 6.07032 3.07907 6.06751 3.0821 6.06477C3.08513 6.062 3.08824 6.05933 3.09141 6.05675C3.09456 6.05415 3.09779 6.05164 3.10109 6.04921C3.10437 6.04677 3.10771 6.0444 3.11112 6.04213C3.11451 6.03986 3.11796 6.03768 3.12148 6.03557C3.12499 6.03346 3.12855 6.03144 3.13214 6.02952C3.13575 6.0276 3.13941 6.02575 3.14311 6.02401C3.14681 6.02225 3.15056 6.02059 3.15434 6.01904C3.15812 6.01745 3.16193 6.01597 3.16577 6.01461C3.16963 6.01323 3.17352 6.01194 3.17742 6.01077C3.18134 6.00957 3.18529 6.00847 3.18926 6.00749C3.19323 6.0065 3.19722 6.00561 3.20124 6.00482C3.20525 6.00402 3.20928 6.00332 3.21333 6.00271C3.21738 6.0021 3.22143 6.00161 3.22549 6.00121C3.22957 6.00079 3.23365 6.0005 3.23773 6.00032C3.24182 6.00011 3.24591 6.00001 3.25001 6.00001L20.75 6.00001C20.7541 6.00001 20.7582 6.00011 20.7623 6.00032C20.7664 6.0005 20.7704 6.00079 20.7745 6.00121C20.7786 6.00161 20.7826 6.0021 20.7867 6.00271C20.7907 6.00332 20.7947 6.00402 20.7988 6.00482C20.8028 6.00561 20.8068 6.0065 20.8107 6.00749C20.8147 6.00847 20.8186 6.00957 20.8226 6.01077C20.8265 6.01194 20.8304 6.01323 20.8342 6.01461C20.8381 6.01597 20.8419 6.01745 20.8457 6.01904C20.8494 6.02059 20.8532 6.02225 20.8569 6.02401C20.8606 6.02575 20.8643 6.0276 20.8679 6.02952C20.8715 6.03144 20.875 6.03346 20.8785 6.03557C20.882 6.03768 20.8855 6.03986 20.8889 6.04213C20.8923 6.0444 20.8956 6.04677 20.8989 6.04921C20.9022 6.05164 20.9054 6.05415 20.9086 6.05675C20.9118 6.05933 20.9149 6.062 20.9179 6.06477C20.9209 6.06751 20.9239 6.07032 20.9268 6.07323C20.9297 6.07611 20.9325 6.07907 20.9352 6.08211C20.938 6.08514 20.9407 6.08823 20.9433 6.09139C20.9458 6.09456 20.9484 6.09779 20.9508 6.10107C20.9532 6.10436 20.9556 6.10771 20.9579 6.11111C20.9601 6.1145 20.9623 6.11797 20.9644 6.12149C20.9665 6.12498 20.9686 6.12854 20.9705 6.13215C20.9724 6.13576 20.9742 6.13942 20.976 6.14312C20.9777 6.1468 20.9794 6.15053 20.981 6.15432C20.9825 6.1581 20.984 6.16192 20.9854 6.16578C20.9868 6.16963 20.9881 6.1735 20.9893 6.17743C20.9904 6.18135 20.9915 6.18529 20.9925 6.18927C20.9935 6.19323 20.9944 6.19721 20.9952 6.20122C20.996 6.20523 20.9967 6.20926 20.9973 6.21332C20.9979 6.21735 20.9984 6.22143 20.9988 6.2255C20.9992 6.22956 20.9995 6.23364 20.9997 6.23774C20.9999 6.24182 21 6.24589 21 6.25L21 19.75ZM4.00001 1.50001C4.00001 1.49182 4.0002 1.48364 4.00059 1.47547C4.001 1.4673 4.0016 1.45914 4.0024 1.451C4.00321 1.44284 4.00422 1.43472 4.00542 1.42663C4.00661 1.41853 4.00801 1.41048 4.00962 1.40246C4.01121 1.39443 4.013 1.38645 4.01499 1.37851C4.01697 1.37057 4.01915 1.36269 4.02152 1.35486C4.0239 1.34703 4.02647 1.33926 4.02923 1.33156C4.03198 1.32385 4.03493 1.31622 4.03807 1.30866C4.0412 1.3011 4.04451 1.29362 4.04801 1.28622C4.05151 1.27883 4.05519 1.27152 4.05905 1.2643C4.06291 1.25709 4.06694 1.24997 4.07114 1.24295C4.07534 1.23593 4.07972 1.22902 4.08427 1.22222C4.08881 1.21541 4.09352 1.20872 4.0984 1.20215C4.10327 1.19558 4.10831 1.18913 4.11349 1.1828C4.11868 1.17648 4.12402 1.17028 4.12952 1.16422C4.13503 1.15816 4.14066 1.15223 4.14645 1.14645C4.15223 1.14066 4.15815 1.13502 4.16421 1.12953C4.17027 1.12403 4.17647 1.11869 4.1828 1.1135C4.18913 1.1083 4.19558 1.10327 4.20216 1.0984C4.20872 1.09352 4.21541 1.08881 4.22222 1.08426C4.22902 1.07972 4.23592 1.07534 4.24294 1.07114C4.24997 1.06693 4.25709 1.0629 4.26431 1.05904C4.27152 1.05518 4.27882 1.05151 4.28623 1.04801C4.29362 1.04451 4.30109 1.04119 4.30866 1.03806C4.31622 1.03493 4.32385 1.03199 4.33156 1.02923C4.33926 1.02647 4.34703 1.02391 4.35486 1.02153C4.36269 1.01915 4.37056 1.01697 4.37851 1.01499C4.38643 1.013 4.39442 1.0112 4.40246 1.00961C4.41048 1.00801 4.41854 1.00661 4.42665 1.00541C4.43473 1.00421 4.44284 1.00321 4.451 1.00241C4.45913 1.00161 4.46729 1.001 4.47547 1.0006C4.48362 1.0002 4.4918 1 4.50001 1L19.5 1C19.5082 1 19.5164 1.0002 19.5245 1.0006C19.5327 1.001 19.5409 1.00161 19.549 1.00241C19.5571 1.00321 19.5653 1.00421 19.5734 1.00541C19.5815 1.00661 19.5895 1.00801 19.5976 1.00961C19.6056 1.0112 19.6136 1.013 19.6215 1.01499C19.6294 1.01697 19.6373 1.01915 19.6452 1.02153C19.653 1.02391 19.6607 1.02647 19.6685 1.02923C19.6761 1.03199 19.6838 1.03493 19.6914 1.03806C19.6989 1.04119 19.7064 1.04451 19.7138 1.04801C19.7212 1.05151 19.7285 1.05518 19.7357 1.05904C19.7429 1.0629 19.75 1.06693 19.757 1.07114C19.7641 1.07534 19.771 1.07972 19.7778 1.08426C19.7846 1.08881 19.7913 1.09352 19.7979 1.0984C19.8044 1.10327 19.8109 1.1083 19.8172 1.1135C19.8235 1.11869 19.8297 1.12403 19.8358 1.12953C19.8418 1.13502 19.8478 1.14066 19.8536 1.14645C19.8593 1.15223 19.865 1.15816 19.8705 1.16422C19.876 1.17028 19.8813 1.17648 19.8865 1.1828C19.8917 1.18913 19.8967 1.19558 19.9016 1.20215C19.9065 1.20872 19.9112 1.21541 19.9157 1.22222C19.9203 1.22902 19.9246 1.23593 19.9289 1.24295C19.9331 1.24997 19.9371 1.25709 19.941 1.2643C19.9448 1.27152 19.9485 1.27883 19.952 1.28622C19.9555 1.29362 19.9588 1.3011 19.9619 1.30866C19.9651 1.31622 19.968 1.32385 19.9708 1.33156C19.9735 1.33926 19.9761 1.34703 19.9785 1.35486C19.9809 1.36269 19.983 1.37057 19.985 1.37851C19.987 1.38645 19.9888 1.39443 19.9904 1.40246C19.992 1.41048 19.9934 1.41853 19.9946 1.42663C19.9958 1.43472 19.9968 1.44284 19.9976 1.451C19.9984 1.45914 19.999 1.4673 19.9994 1.47547C19.9998 1.48364 20 1.49182 20 1.50001C20 1.50818 19.9998 1.51635 19.9994 1.52452C19.999 1.53271 19.9984 1.54088 19.9976 1.54902C19.9968 1.55716 19.9958 1.56527 19.9946 1.57337C19.9934 1.58146 19.992 1.58952 19.9904 1.59755C19.9888 1.60557 19.987 1.61355 19.985 1.62148C19.983 1.62942 19.9809 1.63731 19.9785 1.64513C19.9761 1.65298 19.9735 1.66075 19.9708 1.66845C19.968 1.67616 19.9651 1.68379 19.9619 1.69135C19.9588 1.6989 19.9555 1.70638 19.952 1.71378C19.9485 1.72117 19.9448 1.72848 19.941 1.7357C19.9371 1.74291 19.9331 1.75003 19.9289 1.75705C19.9246 1.76406 19.9203 1.77098 19.9157 1.77779C19.9112 1.78459 19.9065 1.79127 19.9016 1.79785C19.8967 1.80443 19.8917 1.81088 19.8865 1.81719C19.8813 1.82352 19.876 1.82971 19.8705 1.83577C19.865 1.84184 19.8593 1.84777 19.8536 1.85356C19.8478 1.85934 19.8418 1.86498 19.8358 1.87048C19.8297 1.87597 19.8235 1.88131 19.8172 1.88652C19.8109 1.8917 19.8044 1.89673 19.7979 1.90161C19.7913 1.90648 19.7846 1.9112 19.7778 1.91574C19.771 1.92029 19.7641 1.92466 19.7571 1.92887C19.75 1.93307 19.7429 1.9371 19.7357 1.94096C19.7285 1.94482 19.7212 1.9485 19.7138 1.952C19.7064 1.9555 19.6989 1.95881 19.6914 1.96194C19.6838 1.96506 19.6761 1.96801 19.6685 1.97077C19.6607 1.97352 19.653 1.97609 19.6452 1.97846C19.6373 1.98084 19.6294 1.98302 19.6215 1.98502C19.6136 1.98701 19.6056 1.9888 19.5976 1.99039C19.5895 1.99198 19.5815 1.99338 19.5734 1.99459C19.5653 1.99579 19.5571 1.99679 19.549 1.99759C19.5409 1.9984 19.5327 1.999 19.5245 1.99939C19.5164 1.9998 19.5082 2 19.5 2L4.50001 2C4.4918 2 4.48362 1.9998 4.47547 1.99939C4.46729 1.999 4.45913 1.9984 4.451 1.99759C4.44284 1.99679 4.43473 1.99579 4.42665 1.99459C4.41854 1.99338 4.41048 1.99198 4.40246 1.99039C4.39442 1.9888 4.38643 1.98701 4.37851 1.98502C4.37056 1.98302 4.36269 1.98084 4.35486 1.97846C4.34703 1.97609 4.33926 1.97352 4.33156 1.97077C4.32385 1.96801 4.31622 1.96506 4.30866 1.96194C4.30109 1.95881 4.29362 1.9555 4.28623 1.952C4.27882 1.9485 4.27152 1.94482 4.26431 1.94096C4.25709 1.9371 4.24997 1.93307 4.24294 1.92887C4.23592 1.92466 4.22902 1.92029 4.22222 1.91574C4.21541 1.9112 4.20872 1.90648 4.20216 1.90161C4.19558 1.89673 4.18913 1.8917 4.1828 1.88652C4.17647 1.88131 4.17027 1.87597 4.16421 1.87048C4.15815 1.86498 4.15223 1.85934 4.14645 1.85356C4.14066 1.84777 4.13503 1.84184 4.12952 1.83577C4.12402 1.82971 4.11868 1.82352 4.11349 1.81719C4.10831 1.81088 4.10327 1.80443 4.0984 1.79785C4.09352 1.79127 4.08881 1.78459 4.08427 1.77779C4.07972 1.77098 4.07534 1.76406 4.07114 1.75705C4.06694 1.75003 4.06291 1.74291 4.05905 1.7357C4.05519 1.72848 4.05151 1.72117 4.04801 1.71378C4.04451 1.70638 4.0412 1.6989 4.03807 1.69135C4.03493 1.68379 4.03198 1.67616 4.02923 1.66845C4.02647 1.66075 4.0239 1.65298 4.02152 1.64513C4.01915 1.63731 4.01697 1.62942 4.01499 1.62148C4.013 1.61355 4.01121 1.60557 4.00962 1.59755C4.00801 1.58952 4.00661 1.58146 4.00542 1.57337C4.00422 1.56527 4.00321 1.55716 4.0024 1.54902C4.0016 1.54088 4.001 1.53271 4.00059 1.52452C4.0002 1.51635 4.00001 1.50818 4.00001 1.50001ZM3 3.50001C3 3.4918 3.0002 3.48362 3.00061 3.47547C3.001 3.46729 3.0016 3.45913 3.00241 3.451C3.00321 3.44284 3.00421 3.43473 3.00541 3.42665C3.00662 3.41854 3.00802 3.41047 3.00961 3.40246C3.0112 3.39442 3.01299 3.38643 3.01498 3.37851C3.01698 3.37056 3.01917 3.36269 3.02154 3.35486C3.02391 3.34703 3.02648 3.33926 3.02923 3.33155C3.03198 3.32385 3.03492 3.31622 3.03806 3.30866C3.04119 3.30109 3.0445 3.29362 3.048 3.28623C3.0515 3.27882 3.05518 3.27151 3.05904 3.26431C3.0629 3.25709 3.06693 3.24997 3.07113 3.24294C3.07534 3.23592 3.07971 3.22901 3.08426 3.22222C3.08881 3.2154 3.09352 3.20872 3.09839 3.20216C3.10327 3.19558 3.1083 3.18912 3.11349 3.1828C3.11869 3.17647 3.12403 3.17027 3.12952 3.16421C3.13502 3.15815 3.14066 3.15223 3.14644 3.14644C3.15223 3.14066 3.15816 3.13502 3.16423 3.12952C3.17029 3.12402 3.17649 3.11868 3.18281 3.11349C3.18913 3.1083 3.19557 3.10327 3.20215 3.0984C3.20873 3.09352 3.21541 3.08881 3.22221 3.08426C3.22902 3.07972 3.23594 3.07534 3.24295 3.07114C3.24997 3.06694 3.25709 3.06291 3.26431 3.05905C3.27152 3.05519 3.27883 3.05151 3.28622 3.04801C3.29363 3.04451 3.3011 3.04119 3.30865 3.03807C3.31621 3.03493 3.32384 3.03198 3.33155 3.02923C3.33925 3.02647 3.34702 3.0239 3.35487 3.02152C3.3627 3.01915 3.37058 3.01697 3.37852 3.01498C3.38645 3.013 3.39443 3.01121 3.40245 3.00962C3.41048 3.00801 3.41854 3.00661 3.42663 3.00542C3.43473 3.00422 3.44285 3.00321 3.45098 3.0024C3.45913 3.0016 3.46729 3.001 3.47548 3.00059C3.48365 3.0002 3.49182 3.00001 3.49999 3.00001L20.5 3.00001C20.5082 3.00001 20.5164 3.0002 20.5245 3.00059C20.5327 3.001 20.5409 3.0016 20.549 3.0024C20.5572 3.00321 20.5653 3.00422 20.5734 3.00542C20.5815 3.00661 20.5895 3.00801 20.5975 3.00962C20.6056 3.01121 20.6135 3.013 20.6215 3.01498C20.6294 3.01697 20.6373 3.01915 20.6451 3.02152C20.653 3.0239 20.6607 3.02647 20.6685 3.02923C20.6761 3.03198 20.6838 3.03493 20.6913 3.03807C20.6989 3.04119 20.7064 3.04451 20.7138 3.04801C20.7212 3.05151 20.7285 3.05519 20.7357 3.05905C20.7429 3.06291 20.75 3.06694 20.7571 3.07114C20.7641 3.07534 20.771 3.07972 20.7778 3.08426C20.7846 3.08881 20.7913 3.09352 20.7979 3.0984C20.8044 3.10327 20.8109 3.1083 20.8172 3.11349C20.8235 3.11868 20.8297 3.12402 20.8358 3.12952C20.8418 3.13502 20.8478 3.14066 20.8536 3.14644C20.8593 3.15223 20.865 3.15815 20.8705 3.16421C20.876 3.17027 20.8813 3.17647 20.8865 3.1828C20.8917 3.18912 20.8967 3.19558 20.9016 3.20216C20.9065 3.20872 20.9112 3.2154 20.9158 3.22222C20.9203 3.22901 20.9247 3.23592 20.9289 3.24294C20.9331 3.24997 20.9371 3.25709 20.941 3.26431C20.9448 3.27151 20.9485 3.27882 20.952 3.28623C20.9555 3.29362 20.9588 3.30109 20.9619 3.30866C20.9651 3.31622 20.968 3.32385 20.9708 3.33155C20.9735 3.33926 20.9761 3.34703 20.9785 3.35486C20.9808 3.36269 20.983 3.37056 20.985 3.37851C20.987 3.38643 20.9888 3.39442 20.9904 3.40246C20.992 3.41047 20.9934 3.41854 20.9946 3.42665C20.9958 3.43473 20.9968 3.44284 20.9976 3.451C20.9984 3.45913 20.999 3.46729 20.9994 3.47547C20.9998 3.48362 21 3.4918 21 3.50001C21 3.50819 20.9998 3.51637 20.9994 3.52454C20.999 3.5327 20.9984 3.54086 20.9976 3.54901C20.9968 3.55715 20.9958 3.56526 20.9946 3.57337C20.9934 3.58145 20.992 3.58951 20.9904 3.59755C20.9888 3.60557 20.987 3.61356 20.985 3.62151C20.983 3.62943 20.9808 3.63733 20.9785 3.64515C20.9761 3.65298 20.9735 3.66074 20.9708 3.66845C20.968 3.67614 20.9651 3.68378 20.9619 3.69135C20.9588 3.6989 20.9555 3.70637 20.952 3.71378C20.9485 3.72119 20.9448 3.72847 20.941 3.73569C20.9371 3.74291 20.9331 3.75001 20.9289 3.75704C20.9247 3.76408 20.9203 3.77099 20.9158 3.77779C20.9112 3.78458 20.9065 3.79129 20.9016 3.79785C20.8967 3.80441 20.8917 3.81088 20.8865 3.81721C20.8813 3.82354 20.876 3.82972 20.8705 3.83579C20.865 3.84184 20.8593 3.84777 20.8536 3.85356C20.8478 3.85933 20.8418 3.86497 20.8358 3.87048C20.8297 3.87597 20.8235 3.88131 20.8172 3.88651C20.8109 3.89169 20.8044 3.89673 20.7979 3.90161C20.7913 3.90648 20.7846 3.91119 20.7778 3.91574C20.771 3.92029 20.7641 3.92465 20.7571 3.92886C20.75 3.93306 20.7429 3.93709 20.7357 3.94096C20.7285 3.9448 20.7212 3.94848 20.7138 3.952C20.7064 3.95549 20.6989 3.95879 20.6913 3.96194C20.6838 3.96508 20.6761 3.96801 20.6684 3.97077C20.6607 3.97354 20.653 3.97609 20.6451 3.97848C20.6373 3.98085 20.6294 3.98303 20.6215 3.98502C20.6135 3.98699 20.6056 3.98879 20.5975 3.99039C20.5895 3.99198 20.5815 3.99339 20.5734 3.99458C20.5653 3.99578 20.5572 3.99679 20.549 3.99761C20.5409 3.9984 20.5327 3.99899 20.5245 3.99941C20.5164 3.99979 20.5082 4 20.5 4L3.49999 4C3.49182 4 3.48365 3.99979 3.47548 3.99941C3.46729 3.99899 3.45913 3.9984 3.45098 3.99761C3.44285 3.99679 3.43473 3.99578 3.42663 3.99458C3.41854 3.99339 3.41048 3.99198 3.40245 3.99039C3.39443 3.98879 3.38645 3.98699 3.37852 3.98502C3.37058 3.98303 3.3627 3.98085 3.35487 3.97848C3.34702 3.97609 3.33925 3.97354 3.33155 3.97077C3.32384 3.96801 3.31621 3.96508 3.30865 3.96194C3.3011 3.95879 3.29363 3.95549 3.28622 3.952C3.27883 3.94848 3.27152 3.9448 3.26431 3.94096C3.25709 3.93709 3.24997 3.93306 3.24295 3.92886C3.23594 3.92465 3.22902 3.92029 3.22221 3.91574C3.21541 3.91119 3.20873 3.90648 3.20215 3.90161C3.19557 3.89673 3.18913 3.89169 3.18281 3.88651C3.17649 3.88131 3.17029 3.87597 3.16423 3.87048C3.15816 3.86497 3.15223 3.85933 3.14644 3.85356C3.14066 3.84777 3.13502 3.84184 3.12952 3.83579C3.12403 3.82972 3.11869 3.82354 3.11349 3.81721C3.1083 3.81088 3.10327 3.80441 3.09839 3.79785C3.09352 3.79129 3.08881 3.78458 3.08426 3.77779C3.07971 3.77099 3.07534 3.76408 3.07113 3.75707C3.06693 3.75004 3.0629 3.74291 3.05904 3.73569C3.05518 3.72847 3.0515 3.72119 3.048 3.71378C3.0445 3.70637 3.04119 3.6989 3.03806 3.69135C3.03492 3.68378 3.03198 3.67614 3.02923 3.66845C3.02648 3.66074 3.02391 3.65298 3.02154 3.64515C3.01917 3.63733 3.01698 3.62943 3.01498 3.62151C3.01299 3.61356 3.0112 3.60557 3.00961 3.59755C3.00802 3.58951 3.00662 3.58145 3.00541 3.57337C3.00421 3.56526 3.00321 3.55715 3.00241 3.54901C3.0016 3.54086 3.001 3.5327 3.00061 3.52454C3.0002 3.51637 3 3.50819 3 3.50001Z">
  </path>
  <path fill-rule="evenodd"
    d="M16.2577 9.86125L14.3785 13.1875C14.3653 13.2237 14.351 13.2594 14.3357 13.2948C14.3204 13.3301 14.304 13.365 14.2867 13.3994C14.2694 13.4338 14.2511 13.4677 14.2318 13.501C14.2125 13.5344 14.1923 13.5671 14.1711 13.5993C14.1499 13.6315 14.1278 13.663 14.1048 13.6939C14.0818 13.7248 14.058 13.755 14.0332 13.7846C14.0085 13.8141 13.9829 13.8429 13.9565 13.8709C13.9301 13.899 13.9029 13.9262 13.8749 13.9527C13.8469 13.9792 13.8182 14.0048 13.7887 14.0296C13.7593 14.0544 13.7291 14.0784 13.6983 14.1015C13.6674 14.1245 13.6359 14.1467 13.6038 14.1679C13.5717 14.1892 13.539 14.2095 13.5057 14.2288C13.4724 14.2482 13.4385 14.2666 13.4042 14.284C13.3698 14.3014 13.335 14.3178 13.2996 14.3332C13.2643 14.3486 13.2286 14.363 13.1925 14.3763C13.1563 14.3896 13.1198 14.4019 13.083 14.4131C13.0461 14.4243 13.009 14.4345 12.9715 14.4435C12.9341 14.4526 12.8964 14.4606 12.8585 14.4675C12.8206 14.4744 12.7826 14.4802 12.7443 14.4849C12.7061 14.4896 12.6678 14.4932 12.6293 14.4957C12.5909 14.4981 12.5524 14.4995 12.5139 14.4998C12.4754 14.5 12.4369 14.4992 12.3984 14.4972C12.3599 14.4952 12.3215 14.4922 12.2832 14.488C12.245 14.4838 12.2068 14.4785 12.1688 14.4721C12.1308 14.4657 12.0931 14.4583 12.0555 14.4497C12.018 14.4411 11.9807 14.4315 11.9437 14.4207C11.9067 14.41 11.87 14.3983 11.8337 14.3854C11.7974 14.3726 11.7615 14.3587 11.726 14.3438C11.6905 14.3288 11.6554 14.3129 11.6208 14.296C11.5862 14.279 11.5521 14.2611 11.5186 14.2422C11.485 14.2233 11.452 14.2034 11.4196 14.1826C11.3872 14.1618 11.3554 14.14 11.3243 14.1174C11.2931 14.0947 11.2626 14.0712 11.2328 14.0468C11.203 14.0224 11.174 13.9971 11.1456 13.971C11.1173 13.9449 11.0898 13.918 11.063 13.8904C11.0362 13.8627 11.0102 13.8342 10.9851 13.805C10.9599 13.7759 10.9357 13.746 10.9123 13.7154C10.8888 13.6848 10.8663 13.6536 10.8447 13.6217C10.8231 13.5898 10.8025 13.5573 10.7827 13.5242C10.763 13.4911 10.7442 13.4575 10.7264 13.4233C10.7087 13.3892 10.6919 13.3545 10.6761 13.3194C10.6603 13.2842 10.6455 13.2487 10.6318 13.2127C10.6181 13.1767 10.6054 13.1403 10.5938 13.1036C10.5821 13.0669 10.5716 13.0298 10.5621 12.9925C10.5526 12.9552 10.5442 12.9176 10.5369 12.8798C10.5296 12.842 10.5233 12.804 10.5182 12.7658C10.5131 12.7276 10.5091 12.6893 10.5062 12.6509C10.5033 12.6125 10.5015 12.574 10.5008 12.5355C10.5001 12.497 10.5005 12.4585 10.502 12.42C10.5036 12.3815 10.5062 12.3431 10.51 12.3048C10.5138 12.2664 10.5186 12.2282 10.5246 12.1902C10.5305 12.1521 10.5376 12.1143 10.5457 12.0766C10.5539 12.039 10.5631 12.0016 10.5734 11.9645C10.5837 11.9274 10.5951 11.8906 10.6075 11.8541C10.62 11.8177 10.6335 11.7816 10.648 11.7459C10.6625 11.7102 10.678 11.675 10.6946 11.6402C10.7112 11.6054 10.7287 11.5712 10.7472 11.5374C10.7658 11.5036 10.7853 11.4704 10.8057 11.4378C10.8262 11.4051 10.8476 11.3731 10.8699 11.3417C10.8922 11.3103 10.9154 11.2796 10.9394 11.2495C10.9635 11.2194 10.9885 11.1901 11.0142 11.1615C11.04 11.1328 11.0666 11.105 11.094 11.0779C11.1214 11.0508 11.1495 11.0245 11.1784 10.9991C11.2073 10.9736 11.2369 10.949 11.2673 10.9253C11.2976 10.9015 11.3286 10.8786 11.3602 10.8567C11.3919 10.8347 11.4241 10.8137 11.457 10.7936C11.4898 10.7735 11.5233 10.7544 11.5572 10.7362C11.5912 10.718 11.6257 10.7008 11.6606 10.6847C11.6956 10.6685 11.731 10.6534 11.7668 10.6392C11.8027 10.6251 11.8389 10.612 11.8755 10.6C11.912 10.5879 11.949 10.577 11.9862 10.5671C12.0234 10.5572 12.0609 10.5483 12.0986 10.5406C12.1364 10.5329 12.1743 10.5262 12.2124 10.5207C12.2505 10.5151 12.2888 10.5107 12.3272 10.5073C12.3655 10.504 12.404 10.5018 12.4425 10.5007C12.481 10.4995 12.5195 10.4995 12.558 10.5006C12.5965 10.5017 12.6349 10.504 12.6733 10.5073C12.7117 10.5106 12.7499 10.515 12.788 10.5206C12.8262 10.5261 12.8641 10.5328 12.9018 10.5405C12.9396 10.5482 12.9771 10.557 13.0143 10.5669C13.0515 10.5768 13.0884 10.5878 13.125 10.5998C13.1616 10.6119 13.1978 10.6249 13.2337 10.6391C13.2695 10.6532 13.3049 10.6683 13.3399 10.6845C13.3748 10.7007 13.4093 10.7178 13.4433 10.736C13.4773 10.7541 13.5107 10.7733 13.5435 10.7934C13.5764 10.8135 13.6087 10.8345 13.6403 10.8564C13.672 10.8784 13.703 10.9012 13.7333 10.925C13.7636 10.9487 13.7933 10.9733 13.8222 10.9988C13.8511 11.0242 13.8792 11.0505 13.9066 11.0776C13.934 11.1047 13.9606 11.1325 13.9864 11.1611C14.0122 11.1898 14.0371 11.2191 14.0612 11.2492C14.0853 11.2792 14.1085 11.31 14.1308 11.3413C14.1531 11.3727 14.1745 11.4048 14.1949 11.4374C14.2154 11.47 14.2349 11.5032 14.2535 11.537C14.272 11.5708 14.2895 11.605 14.3061 11.6398C14.3227 11.6746 14.3382 11.7098 14.3527 11.7455L15.7712 9.23525C15.7443 9.20605 15.717 9.17719 15.6893 9.14869C15.6616 9.12017 15.6336 9.09203 15.6052 9.06425C15.5767 9.03648 15.548 9.00908 15.5188 8.98203C15.4897 8.955 15.4602 8.92834 15.4304 8.90208C15.4006 8.8758 15.3705 8.84991 15.34 8.82442C15.3095 8.79892 15.2787 8.77383 15.2476 8.74912C15.2165 8.72442 15.185 8.70014 15.1532 8.67625C15.1215 8.65236 15.0894 8.62889 15.0571 8.60584C15.0247 8.58278 14.992 8.56015 14.9591 8.53794C14.9261 8.51572 14.8929 8.49393 14.8594 8.47258C14.8259 8.45122 14.7921 8.43031 14.7581 8.40983C14.724 8.38935 14.6897 8.36931 14.6551 8.34972C14.6205 8.33012 14.5857 8.31098 14.5507 8.29228C14.5156 8.27359 14.4803 8.25536 14.4448 8.23758C14.4092 8.2198 14.3735 8.20247 14.3375 8.18561C14.3015 8.16875 14.2653 8.15236 14.2289 8.13644C14.1925 8.12052 14.1559 8.10507 14.1191 8.09009C14.0823 8.07511 14.0453 8.06062 14.0081 8.04661C13.9709 8.03259 13.9335 8.01905 13.896 8.00598C13.8585 7.99293 13.8208 7.98037 13.7829 7.9683C13.7451 7.95621 13.7071 7.94462 13.6689 7.93352C13.6308 7.92242 13.5925 7.91182 13.554 7.90172C13.5156 7.8916 13.477 7.882 13.4384 7.87289C13.3997 7.86378 13.3609 7.85516 13.322 7.84705C13.2831 7.83894 13.2441 7.83134 13.205 7.82423C13.1659 7.81714 13.1267 7.81055 13.0874 7.80445C13.0482 7.79837 13.0088 7.79279 12.9694 7.78772C12.93 7.78265 12.8905 7.77808 12.851 7.77403C12.8115 7.76998 12.7719 7.76644 12.7323 7.76341C12.6927 7.76039 12.653 7.75787 12.6133 7.75586C12.5736 7.75386 12.5339 7.75237 12.4942 7.75139C12.4545 7.75041 12.4147 7.74995 12.375 7.75C9.8205 7.75 7.75 9.8205 7.75 12.375C7.75 14.9295 9.8205 17 12.375 17C14.9292 17 17 14.9292 17 12.375C17 11.448 16.7275 10.585 16.2577 9.86125ZM13.6292 13.0367L13.625 13.0345L13.6508 12.989C13.6613 12.964 13.671 12.9388 13.68 12.9132C13.6889 12.8876 13.6969 12.8617 13.7042 12.8356C13.7114 12.8095 13.7178 12.7832 13.7233 12.7567C13.7288 12.7301 13.7334 12.7034 13.7372 12.6766C13.741 12.6498 13.7439 12.6228 13.746 12.5958C13.748 12.5688 13.7491 12.5417 13.7494 12.5147C13.7497 12.4875 13.7491 12.4605 13.7476 12.4334C13.7461 12.4064 13.7437 12.3794 13.7405 12.3525C13.7372 12.3256 13.7331 12.2988 13.7281 12.2722C13.7231 12.2455 13.7173 12.2191 13.7106 12.1928C13.7039 12.1666 13.6963 12.1406 13.6879 12.1148C13.6795 12.089 13.6703 12.0636 13.6603 12.0384C13.6502 12.0133 13.6394 11.9884 13.6277 11.964C13.616 11.9395 13.6036 11.9155 13.5903 11.8918C13.5771 11.8682 13.5631 11.845 13.5484 11.8223C13.5337 11.7995 13.5182 11.7773 13.502 11.7555C13.4858 11.7338 13.4689 11.7126 13.4514 11.692C13.4338 11.6713 13.4156 11.6513 13.3967 11.6319C13.3779 11.6124 13.3584 11.5936 13.3383 11.5754C13.3182 11.5572 13.2976 11.5397 13.2763 11.5229C13.2551 11.506 13.2333 11.4899 13.2111 11.4745C13.1888 11.459 13.166 11.4444 13.1428 11.4304C13.1196 11.4165 13.0959 11.4033 13.0718 11.3909C13.0477 11.3785 13.0233 11.3669 12.9984 11.356C12.9736 11.3452 12.9484 11.3352 12.9229 11.326C12.8974 11.3169 12.8716 11.3085 12.8456 11.301C12.8196 11.2935 12.7933 11.2869 12.7668 11.2811C12.7404 11.2753 12.7137 11.2703 12.6869 11.2663C12.6601 11.2622 12.6333 11.259 12.6063 11.2567C12.5793 11.2544 12.5522 11.253 12.5251 11.2524C12.498 11.2518 12.471 11.2522 12.4439 11.2534C12.4168 11.2546 12.3898 11.2567 12.3629 11.2596C12.3359 11.2626 12.3091 11.2664 12.2824 11.2711C12.2558 11.2758 12.2292 11.2814 12.2029 11.2878C12.1766 11.2943 12.1505 11.3015 12.1247 11.3097C12.0988 11.3178 12.0732 11.3267 12.048 11.3365C12.0227 11.3463 11.9978 11.3569 11.9732 11.3683C11.9486 11.3797 11.9245 11.3919 11.9007 11.4049C11.8769 11.4179 11.8535 11.4316 11.8306 11.4461C11.8078 11.4606 11.7853 11.4758 11.7635 11.4918C11.7415 11.5077 11.7202 11.5244 11.6994 11.5417C11.6785 11.5591 11.6583 11.5771 11.6387 11.5957C11.619 11.6144 11.6 11.6337 11.5816 11.6536C11.5632 11.6735 11.5455 11.694 11.5284 11.715C11.5113 11.7361 11.495 11.7577 11.4793 11.7798C11.4637 11.8019 11.4487 11.8245 11.4345 11.8476C11.4204 11.8706 11.4069 11.8942 11.3943 11.9181C11.3816 11.9421 11.3698 11.9664 11.3587 11.9912C11.3476 12.0159 11.3373 12.041 11.3279 12.0664C11.3184 12.0918 11.3098 12.1174 11.302 12.1434C11.2943 12.1693 11.2873 12.1955 11.2813 12.2219C11.2752 12.2483 11.27 12.2749 11.2656 12.3017C11.2613 12.3284 11.2578 12.3553 11.2552 12.3822C11.2526 12.4092 11.2509 12.4363 11.2501 12.4633C11.2492 12.4904 11.2493 12.5175 11.2502 12.5446C11.2511 12.5717 11.2529 12.5987 11.2556 12.6257C11.2583 12.6526 11.2618 12.6795 11.2662 12.7062C11.2707 12.7329 11.276 12.7595 11.2821 12.7859C11.2882 12.8123 11.2952 12.8384 11.3031 12.8644C11.311 12.8903 11.3196 12.916 11.3292 12.9413C11.3387 12.9667 11.349 12.9917 11.3602 13.0164C11.3713 13.0411 11.3833 13.0654 11.396 13.0894C11.4087 13.1133 11.4222 13.1368 11.4365 13.1598C11.4507 13.1829 11.4657 13.2054 11.4814 13.2275C11.4972 13.2495 11.5136 13.2711 11.5307 13.2921C11.5478 13.3131 11.5656 13.3335 11.5841 13.3534C11.6025 13.3732 11.6216 13.3924 11.6413 13.411C11.661 13.4296 11.6813 13.4476 11.7022 13.4649C11.723 13.4821 11.7444 13.4987 11.7664 13.5146C11.7883 13.5305 11.8108 13.5457 11.8337 13.5601C11.8567 13.5745 11.88 13.5882 11.9039 13.6011C11.9277 13.614 11.9519 13.6262 11.9765 13.6375C12.0011 13.6488 12.0261 13.6594 12.0514 13.6691C12.0767 13.6788 12.1023 13.6877 12.1281 13.6957C12.154 13.7038 12.1801 13.711 12.2065 13.7173C12.2328 13.7237 12.2593 13.7292 12.286 13.7338C12.3127 13.7384 12.3395 13.7422 12.3665 13.745C12.3934 13.7479 12.4204 13.7499 12.4475 13.7511C12.4746 13.7522 12.5017 13.7524 12.5288 13.7518C12.5559 13.7512 12.5829 13.7496 12.6099 13.7472C12.6369 13.7449 12.6638 13.7416 12.6905 13.7375C12.7173 13.7333 12.7439 13.7283 12.7704 13.7224C12.7968 13.7165 12.8231 13.7098 12.8491 13.7022C12.8751 13.6947 12.9009 13.6863 12.9263 13.677C12.9518 13.6677 12.9769 13.6577 13.0017 13.6468C13.0266 13.6359 13.051 13.6242 13.075 13.6117C13.0991 13.5992 13.1227 13.586 13.1459 13.572C13.1691 13.558 13.1918 13.5432 13.2141 13.5277C13.2363 13.5122 13.258 13.496 13.2792 13.4791C13.3004 13.4622 13.321 13.4447 13.341 13.4264C13.361 13.4082 13.3805 13.3893 13.3993 13.3698C13.4181 13.3503 13.4362 13.3302 13.4537 13.3095C13.4712 13.2888 13.488 13.2676 13.5042 13.2458C13.5203 13.224 13.5357 13.2017 13.5504 13.179C13.565 13.1562 13.579 13.133 13.5921 13.1093C13.6053 13.0856 13.6177 13.0615 13.6292 13.037L13.6292 13.0367ZM17.75 12.375C17.75 15.3435 15.3435 17.75 12.375 17.75C9.4065 17.75 7 15.3435 7 12.375C7 9.4065 9.4065 7 12.375 7C15.3435 7 17.75 9.4065 17.75 12.375Z">
  </path>
</svg>