<svg width="24" height="24" viewBox="0 0 24 24">
  <path fill-rule="evenodd"
    d="M2.25986 12.6512L6.13793 15.8023C6.60769 16.1861 7.20739 15.8023 7.20739 15.1861L7.20739 8.81394C7.20739 8.65116 7.15742 8.48838 7.07745 8.34884C6.85757 8.01162 6.43778 7.94185 6.13793 8.19767L2.25986 11.3488C1.93003 11.6512 1.93003 12.2674 2.25986 12.6512ZM2.79959 3.86045L21.1904 3.86045C21.6302 3.86045 21.99 3.44184 21.99 2.93022C21.99 2.41861 21.6302 2 21.1904 2L2.79959 2C2.35982 2 2 2.41861 2 2.93022C2 3.44184 2.35982 3.86045 2.79959 3.86045ZM2.79959 22L21.1904 22C21.6302 22 21.99 21.5814 21.99 21.0698C21.99 20.5582 21.6302 20.1396 21.1904 20.1396L2.79959 20.1396C2.35982 20.1396 2 20.5582 2 21.0698C2 21.5814 2.35982 22 2.79959 22ZM9.59619 9.90697L21.1904 9.90697C21.6302 9.90697 21.99 9.48837 21.99 8.97675C21.99 8.46513 21.6302 8.0465 21.1904 8.0465L9.59619 8.0465C9.15641 8.0465 8.79659 8.4651 8.79659 8.97675C8.79659 9.4884 9.15641 9.90697 9.59619 9.90697ZM9.59619 15.9535L21.2004 15.9535C21.6402 15.9535 22 15.5349 22 15.0232C22 14.5116 21.6402 14.093 21.2004 14.093L9.59619 14.093C9.15641 14.093 8.79659 14.5116 8.79659 15.0232L8.79659 15.0349C8.79659 15.5349 9.15641 15.9535 9.59619 15.9535Z">
  </path>
</svg>