<svg width="24" height="24" viewBox="0 0 24 24">
  <path fill-rule="evenodd"
    d="M21.6568 2L21.9998 2L21.9998 2.318C21.8873 2.21001 21.7767 2.1 21.6568 2ZM17.4998 13.5044C19.2478 13.5044 20.8308 12.8109 21.9998 11.6895L21.9998 12.9854C21.9813 12.9994 21.9653 13.0155 21.9472 13.0294C21.4323 18.0684 17.1753 22 11.9998 22C6.47685 22 1.99988 17.5234 1.99988 12.0009C1.99988 6.50548 6.43285 2.04901 11.9173 2.00451C11.9188 2.00314 11.9201 2.00163 11.9213 2L13.3428 2C13.2971 2.03794 13.2518 2.07651 13.2071 2.1157C13.1624 2.15488 13.1183 2.19468 13.0747 2.23507C13.0311 2.27548 12.9881 2.31647 12.9456 2.35805C12.9031 2.39963 12.8612 2.44179 12.8199 2.48452C12.7786 2.52726 12.7379 2.57056 12.6978 2.61442C12.6576 2.65826 12.6181 2.70265 12.5792 2.74759C12.5403 2.79254 12.502 2.83801 12.4644 2.88399C12.4267 2.92997 12.3897 2.97647 12.3533 3.02347C12.3169 3.07049 12.2812 3.11799 12.2461 3.16599C12.2111 3.21396 12.1766 3.26242 12.1429 3.31135C12.1091 3.36029 12.0761 3.40968 12.0437 3.45953C12.0113 3.50937 11.9796 3.55965 11.9486 3.61035C11.9176 3.66107 11.8873 3.7122 11.8577 3.76376C11.8281 3.8153 11.7992 3.86723 11.7711 3.91957C11.7429 3.97192 11.7154 4.02463 11.6887 4.07771C11.662 4.13081 11.636 4.18427 11.6107 4.23808C11.5855 4.29188 11.561 4.34603 11.5372 4.40052C11.5134 4.45499 11.4904 4.50979 11.4682 4.56491C11.4459 4.62001 11.4244 4.67542 11.4037 4.73112C11.3829 4.78685 11.363 4.84282 11.3438 4.89906C11.3246 4.95533 11.3061 5.01184 11.2885 5.0686C11.2708 5.12535 11.254 5.18234 11.2379 5.23957C11.2218 5.29677 11.2065 5.35421 11.192 5.41186C11.1775 5.4695 11.1638 5.52733 11.1509 5.58535C11.138 5.64337 11.1259 5.70156 11.1145 5.75992C11.1032 5.81827 11.0927 5.87676 11.083 5.9354C11.0733 5.99405 11.0644 6.05281 11.0563 6.1117C11.0482 6.17057 11.0409 6.22955 11.0344 6.28864C11.028 6.34774 11.0223 6.4069 11.0174 6.46615C11.0126 6.52538 11.0086 6.58468 11.0054 6.64404C11.0021 6.70338 10.9997 6.76277 10.9981 6.82218C10.9966 6.88161 10.9958 6.94104 10.9958 7.00047C10.9958 10.593 13.9078 13.5044 17.4998 13.5044ZM9.99983 7.00047C9.99983 5.54398 10.4218 4.18898 11.1403 3.0385C6.57036 3.4715 2.99437 7.31697 2.99437 12.0009C2.99437 16.9739 7.02636 21.0059 11.9998 21.0059C16.3888 21.0059 20.0398 17.8644 20.8383 13.7089C20.7738 13.7413 20.7088 13.7726 20.6434 13.8031C20.5781 13.8335 20.5122 13.863 20.446 13.8915C20.3798 13.92 20.3131 13.9476 20.2461 13.9742C20.179 14.0008 20.1116 14.0264 20.0438 14.0511C19.976 14.0757 19.9079 14.0993 19.8394 14.122C19.7709 14.1447 19.7022 14.1663 19.633 14.187C19.5639 14.2077 19.4945 14.2273 19.4249 14.246C19.3552 14.2647 19.2853 14.2823 19.2151 14.2989C19.1449 14.3156 19.0745 14.3312 19.0039 14.3457C18.9332 14.3603 18.8624 14.3739 18.7914 14.3864C18.7203 14.3989 18.6491 14.4104 18.5778 14.4209C18.5064 14.4314 18.4349 14.4408 18.3633 14.4492C18.2916 14.4576 18.2199 14.465 18.148 14.4713C18.0762 14.4776 18.0043 14.4829 17.9323 14.4871C17.8603 14.4913 17.7882 14.4945 17.7161 14.4967C17.644 14.4988 17.5719 14.4999 17.4998 14.4999C13.3573 14.4999 9.99983 11.142 9.99983 7.00047Z">
  </path>
</svg>