<svg width="24" height="24" viewBox="0 0 24 24">
  <path fill-rule="evenodd"
    d="M22.08 17.304C21.48 16.752 20.784 16.2 20.28 15.864C19.632 15.408 18.936 14.952 18.288 14.664C17.28 14.16 16.896 14.064 16.632 14.064C16.176 14.064 15.792 14.304 15.432 14.76C15.24 15.048 15.024 15.456 14.88 15.816C14.784 16.056 14.592 16.464 14.472 16.608C14.28 16.56 13.728 16.32 12.816 15.72C11.976 15.12 11.064 14.376 10.368 13.728C9.67199 13.032 8.97599 12.12 8.37599 11.28C7.77599 10.392 7.53599 9.84 7.48799 9.624C7.63199 9.528 8.03999 9.336 8.27999 9.216C8.63999 9.072 9.02399 8.928 9.33599 8.664C9.83999 8.304 10.032 7.92 10.032 7.464C10.032 7.224 9.98399 6.816 9.43199 5.808C9.14399 5.208 8.68799 4.512 8.23199 3.816C7.87199 3.312 7.31999 2.616 6.79199 2.016C6.14399 1.368 5.68799 1.056 5.23199 1.056C4.12799 1.056 2.87999 2.664 2.54399 3.096C2.08799 3.696 0.983994 5.352 0.983994 6.84C0.983994 8.232 1.94399 10.08 2.73599 11.4C3.79199 13.104 5.27999 15 6.88799 16.656L7.39199 17.16C9.04799 18.768 10.896 20.256 12.648 21.312C13.2 21.672 13.848 22.008 14.496 22.32C14.592 22.368 14.64 22.368 14.736 22.368C15.096 22.368 15.384 22.08 15.384 21.72C15.384 21.48 15.24 21.216 14.976 21.12C14.472 20.88 13.92 20.568 13.32 20.208C11.664 19.2 9.91199 17.808 8.32799 16.248L7.82399 15.744C6.26399 14.136 4.87199 12.384 3.86399 10.752C2.85599 9.144 2.30399 7.752 2.30399 6.912C2.30399 6.168 2.75999 5.064 3.55199 4.008C3.91199 3.552 4.24799 3.12 4.60799 2.808C4.96799 2.496 5.15999 2.4 5.25599 2.4C5.49599 2.496 6.26399 3.144 7.29599 4.704C7.70399 5.304 8.08799 5.904 8.35199 6.456C8.71199 7.104 8.75999 7.416 8.75999 7.464C8.75999 7.464 8.66399 7.56 8.51999 7.656C8.32799 7.752 8.01599 7.896 7.77599 8.016C7.41599 8.16 7.12799 8.304 6.81599 8.472C6.35999 8.76 6.16799 9.12 6.16799 9.528C6.16799 9.72 6.16799 10.32 7.31999 11.976C7.91999 12.864 8.71199 13.872 9.47999 14.616C10.224 15.36 11.232 16.176 12.12 16.776C13.776 17.88 14.376 17.928 14.568 17.928C14.976 17.928 15.312 17.736 15.624 17.28C15.816 17.04 15.912 16.68 16.08 16.32C16.176 16.08 16.32 15.768 16.44 15.576C16.584 15.48 16.68 15.432 16.68 15.432C16.728 15.432 17.04 15.48 17.688 15.84C18.192 16.128 18.84 16.488 19.44 16.896C20.928 17.952 21.648 18.696 21.744 18.936C21.696 19.032 21.6 19.224 21.336 19.584C21.048 19.944 20.592 20.328 20.136 20.64C19.44 21.144 18.696 21.552 18.096 21.744C17.856 21.84 17.688 22.104 17.688 22.344C17.688 22.704 17.976 22.992 18.336 22.992C18.384 22.992 18.432 22.992 18.48 22.944C18.528 22.944 18.528 22.944 18.576 22.896C19.632 22.536 20.52 21.936 20.976 21.6C21.48 21.24 23.016 19.944 23.016 18.888C23.016 18.408 22.728 17.952 22.08 17.304Z">
  </path>
</svg>