<svg width="24" height="24" viewBox="0 0 24 24">
  <path
    d="M12 1C18.0752 1 23 5.92475 23 12C23 18.0752 18.0752 23 12 23C5.92475 23 1 18.0752 1 12C1 5.92475 5.92475 1 12 1ZM12 2.94119C6.99692 2.94119 2.94119 6.99692 2.94119 12C2.94119 17.0031 6.99692 21.0588 12 21.0588C17.0031 21.0588 21.0588 17.0031 21.0588 12C21.0588 6.99692 17.0031 2.94119 12 2.94119ZM10.0588 7.22729C10.0892 7.22729 10.1194 7.22838 10.1497 7.2305C10.1799 7.23265 10.2101 7.23583 10.2401 7.24008C10.2702 7.24435 10.3 7.24966 10.3296 7.256C10.3593 7.26237 10.3887 7.26975 10.4178 7.27814C10.4469 7.28658 10.4758 7.296 10.5042 7.30643C10.5327 7.31689 10.5608 7.3283 10.5884 7.34072C10.6161 7.35314 10.6433 7.36651 10.67 7.38085C10.6967 7.39518 10.7229 7.41044 10.7486 7.42657L16.103 10.8004C16.1259 10.8148 16.1483 10.8299 16.1703 10.8458C16.1922 10.8616 16.2137 10.8781 16.2346 10.8953C16.2555 10.9125 16.2758 10.9303 16.2956 10.9488C16.3154 10.9673 16.3346 10.9864 16.3532 11.006C16.3718 11.0257 16.3898 11.046 16.4071 11.0667C16.4244 11.0875 16.4411 11.1089 16.4571 11.1307C16.4731 11.1526 16.4884 11.1749 16.5029 11.1977C16.5175 11.2205 16.5314 11.2437 16.5445 11.2674C16.5577 11.2911 16.57 11.3152 16.5816 11.3396C16.5932 11.3641 16.6041 11.3889 16.6142 11.414C16.6242 11.4391 16.6335 11.4645 16.6419 11.4903C16.6504 11.516 16.6581 11.5419 16.6649 11.5681C16.6717 11.5943 16.6778 11.6207 16.6829 11.6473C16.6882 11.6738 16.6925 11.7005 16.696 11.7274C16.6995 11.7542 16.7022 11.7812 16.704 11.8081C16.7058 11.8352 16.7068 11.8622 16.7069 11.8893C16.707 11.9163 16.7063 11.9434 16.7047 11.9704C16.7031 11.9974 16.7007 12.0244 16.6974 12.0513C16.6941 12.0782 16.69 12.1049 16.6851 12.1315C16.6802 12.1581 16.6744 12.1846 16.6678 12.2108C16.6612 12.2371 16.6537 12.2631 16.6455 12.2889C16.6373 12.3147 16.6282 12.3402 16.6184 12.3654C16.6086 12.3906 16.5979 12.4155 16.5865 12.44C16.5751 12.4646 16.563 12.4888 16.55 12.5126C16.5371 12.5364 16.5235 12.5597 16.5091 12.5826C16.4947 12.6056 16.4796 12.6281 16.4638 12.65C16.448 12.672 16.4316 12.6935 16.4144 12.7144C16.3973 12.7354 16.3795 12.7558 16.3611 12.7756C16.3427 12.7955 16.3236 12.8147 16.304 12.8333C16.2844 12.852 16.2642 12.87 16.2434 12.8874C16.2227 12.9048 16.2014 12.9215 16.1796 12.9375C16.1578 12.9536 16.1355 12.9689 16.1127 12.9835L10.7583 16.424C10.7462 16.4318 10.7339 16.4393 10.7215 16.4467C10.7091 16.4541 10.6966 16.4613 10.6839 16.4683C10.6713 16.4753 10.6585 16.482 10.6457 16.4885C10.6328 16.4951 10.6198 16.5014 10.6068 16.5075C10.5937 16.5137 10.5805 16.5195 10.5672 16.5252C10.5539 16.5309 10.5406 16.5363 10.5271 16.5415C10.5137 16.5468 10.5001 16.5518 10.4865 16.5565C10.4729 16.5613 10.4592 16.5659 10.4454 16.5702C10.4316 16.5745 10.4178 16.5786 10.4039 16.5824C10.39 16.5863 10.376 16.5899 10.362 16.5933C10.3479 16.5967 10.3338 16.5998 10.3197 16.6027C10.3056 16.6056 10.2914 16.6083 10.2771 16.6107C10.2629 16.6132 10.2487 16.6154 10.2343 16.6173C10.22 16.6193 10.2057 16.621 10.1913 16.6225C10.177 16.624 10.1626 16.6252 10.1482 16.6262C10.1338 16.6272 10.1194 16.6279 10.105 16.6284C10.0905 16.629 10.0761 16.6292 10.0617 16.6293C10.0472 16.6293 10.0328 16.6291 10.0184 16.6286C10.004 16.6282 9.98955 16.6275 9.97511 16.6266C9.96073 16.6256 9.94634 16.6245 9.93196 16.623C9.9176 16.6216 9.90327 16.62 9.88896 16.6181C9.87466 16.6162 9.86038 16.6141 9.84613 16.6117C9.8319 16.6093 9.81771 16.6067 9.80353 16.6038C9.78939 16.601 9.7753 16.5979 9.76123 16.5946C9.74719 16.5913 9.7332 16.5877 9.71927 16.5839C9.70536 16.5802 9.69148 16.5761 9.67768 16.5719C9.66388 16.5676 9.65016 16.5632 9.63652 16.5584C9.62288 16.5537 9.60932 16.5488 9.59583 16.5436C9.58235 16.5385 9.56898 16.5331 9.55568 16.5275C9.54238 16.5218 9.52917 16.516 9.51606 16.5099C9.50297 16.5039 9.48997 16.4976 9.47707 16.4911C9.46417 16.4846 9.45141 16.4779 9.43872 16.471C9.42606 16.4641 9.41351 16.457 9.40106 16.4496C9.38864 16.4423 9.37633 16.4348 9.36414 16.427C9.35199 16.4193 9.33994 16.4113 9.328 16.4031C9.31611 16.395 9.30432 16.3867 9.29267 16.3781C9.28105 16.3696 9.26958 16.3608 9.25823 16.3519C9.24689 16.343 9.23569 16.3338 9.22465 16.3245C9.21361 16.3152 9.20276 16.3057 9.19204 16.2961C9.18131 16.2864 9.17078 16.2766 9.16037 16.2665C9.14997 16.2565 9.13975 16.2463 9.12969 16.236C9.11966 16.2256 9.10979 16.2151 9.10008 16.2044C9.09039 16.1937 9.08089 16.1828 9.07155 16.1718C9.0622 16.1608 9.05307 16.1496 9.0441 16.1383C9.03516 16.127 9.0264 16.1156 9.0178 16.1039C9.00923 16.0923 9.00084 16.0806 8.99267 16.0687C8.9845 16.0568 8.97653 16.0448 8.96873 16.0326C8.96096 16.0204 8.95339 16.0082 8.94601 15.9957C8.93864 15.9833 8.93147 15.9708 8.92452 15.9581C8.91759 15.9455 8.91085 15.9327 8.90432 15.9198C8.89779 15.907 8.8915 15.894 8.8854 15.8809C8.87932 15.8678 8.87346 15.8546 8.8678 15.8413C8.86218 15.8281 8.85674 15.8147 8.85153 15.8012C8.84633 15.7877 8.84137 15.7742 8.83662 15.7605C8.83189 15.7469 8.82738 15.7332 8.82308 15.7194C8.81878 15.7057 8.81472 15.6918 8.8109 15.6779C8.80708 15.664 8.8035 15.65 8.80015 15.6359C8.79681 15.6219 8.79368 15.6078 8.79078 15.5936C8.78792 15.5795 8.78526 15.5653 8.78285 15.5511C8.78046 15.5369 8.77828 15.5226 8.77635 15.5083C8.77441 15.494 8.77271 15.4796 8.77125 15.4653C8.76982 15.4509 8.7686 15.4365 8.76762 15.4221C8.76666 15.4078 8.76594 15.3933 8.76544 15.3789C8.76496 15.3645 8.76472 15.35 8.7647 15.3356L8.7647 8.52205C8.7647 8.50087 8.76523 8.47972 8.76626 8.45856C8.76732 8.43741 8.76886 8.41629 8.77093 8.39521C8.773 8.37414 8.7756 8.35315 8.77871 8.33218C8.78184 8.31122 8.78545 8.29036 8.78956 8.26958C8.7937 8.24882 8.79835 8.22815 8.8035 8.20761C8.80865 8.18706 8.81427 8.16668 8.82043 8.1464C8.82659 8.12613 8.83322 8.10604 8.84036 8.08608C8.8475 8.06615 8.85512 8.0464 8.86321 8.02682C8.87133 8.00726 8.8799 7.98791 8.88895 7.96875C8.89803 7.94961 8.90753 7.93069 8.91751 7.91201C8.92749 7.89335 8.93795 7.87493 8.94883 7.85675C8.95971 7.8386 8.97104 7.82071 8.9828 7.80309C8.99458 7.78547 9.00676 7.76816 9.01937 7.75115C9.032 7.73414 9.04503 7.71745 9.05846 7.70107C9.07189 7.68472 9.08572 7.66869 9.09994 7.65298C9.11417 7.6373 9.12877 7.62196 9.14373 7.60699C9.15873 7.59202 9.17407 7.5774 9.18975 7.56317C9.20546 7.54895 9.22149 7.53512 9.23784 7.52169C9.25422 7.50826 9.27091 7.49523 9.28792 7.4826C9.30493 7.46999 9.32224 7.45781 9.33983 7.44603C9.35746 7.43427 9.37537 7.42294 9.39352 7.41206C9.41168 7.40118 9.4301 7.39074 9.44878 7.38074C9.46746 7.37076 9.48639 7.36126 9.50552 7.35218C9.52468 7.34313 9.54403 7.33456 9.56359 7.32644C9.58318 7.31835 9.60292 7.31073 9.62285 7.30359C9.64281 7.29648 9.6629 7.28981 9.68315 7.28366C9.70343 7.27753 9.72383 7.27187 9.74438 7.26673C9.76492 7.26158 9.78559 7.25693 9.80635 7.25279C9.82713 7.24868 9.84799 7.24507 9.86893 7.24194C9.88989 7.23886 9.91091 7.23626 9.93198 7.23416C9.95306 7.23209 9.97418 7.23055 9.99533 7.22949C10.0165 7.22848 10.0376 7.22795 10.0588 7.22795L10.0588 7.22729ZM10.7059 9.69387L10.7059 14.1502L14.2078 11.9003L10.7059 9.69387Z">
  </path>
</svg>