<svg width="24" height="24" viewBox="0 0 24 24">
  <path
    d="M-13.2211 -2.3237L-8.02084 -11.5L-13.2211 -20.6763L-13.238 -20.7062L-13.2493 -20.7261L-13.2605 -20.7559C-13.2605 -20.7559 -13.2718 -20.7756 -13.2718 -20.7858C-13.2718 -20.7959 -13.2831 -20.8052 -13.2831 -20.8156C-13.2831 -20.8261 -13.2944 -20.8446 -13.2944 -20.8554C-13.2944 -20.8662 -13.3057 -20.8743 -13.3057 -20.8853C-13.3057 -20.8964 -13.3113 -20.9039 -13.3113 -20.9152C-13.3113 -20.9265 -13.3226 -20.9435 -13.3226 -20.955C-13.3226 -20.9665 -13.3282 -20.9731 -13.3282 -20.9848C-13.3282 -20.9965 -13.3339 -21.0128 -13.3339 -21.0246C-13.3339 -21.0365 -13.3395 -21.0425 -13.3395 -21.0545C-13.3395 -21.0665 -13.3395 -21.0822 -13.3395 -21.0943C-13.3395 -21.1064 -13.3451 -21.122 -13.3451 -21.1341C-13.3451 -21.1463 -13.3451 -21.1518 -13.3451 -21.164C-13.3451 -21.1762 -13.3451 -21.1916 -13.3451 -21.2038C-13.3451 -21.216 -13.3451 -21.2314 -13.3451 -21.2436C-13.3451 -21.2558 -13.3451 -21.2613 -13.3451 -21.2735C-13.3451 -21.2856 -13.3395 -21.3012 -13.3395 -21.3133C-13.3395 -21.3254 -13.3395 -21.3411 -13.3395 -21.3531C-13.3395 -21.3651 -13.3339 -21.3711 -13.3339 -21.3829C-13.3339 -21.3948 -13.3282 -21.4111 -13.3282 -21.4227C-13.3282 -21.4344 -13.3226 -21.4411 -13.3226 -21.4526C-13.3226 -21.4641 -13.3113 -21.4811 -13.3113 -21.4924C-13.3113 -21.5037 -13.3057 -21.5112 -13.3057 -21.5223C-13.3057 -21.5333 -13.2944 -21.5414 -13.2944 -21.5521C-13.2944 -21.5629 -13.2831 -21.5815 -13.2831 -21.5919C-13.2831 -21.6024 -13.2718 -21.6117 -13.2718 -21.6218C-13.2718 -21.6319 -13.2605 -21.6517 -13.2605 -21.6517L-13.2493 -21.6815L-13.238 -21.7014L-13.2211 -21.7313L-13.2041 -21.7611L-13.1929 -21.781L-13.1759 -21.8009C-13.1759 -21.8009 -13.1648 -21.8209 -13.159 -21.8209C-13.1533 -21.8209 -13.148 -21.8408 -13.1421 -21.8408C-13.1362 -21.8408 -13.1256 -21.8607 -13.1195 -21.8607C-13.1134 -21.8607 -13.1089 -21.8806 -13.1026 -21.8806C-13.0964 -21.8806 -13.0921 -21.8905 -13.0857 -21.8905C-13.0793 -21.8905 -13.0697 -21.9104 -13.0631 -21.9104C-13.0566 -21.9104 -13.0528 -21.9204 -13.0462 -21.9204C-13.0396 -21.9204 -13.0304 -21.9303 -13.0237 -21.9303C-13.0169 -21.9303 -13.0135 -21.9403 -13.0067 -21.9403C-13 -21.9403 -12.991 -21.9403 -12.9842 -21.9403C-12.9773 -21.9403 -12.9685 -21.9502 -12.9616 -21.9502C-12.9547 -21.9502 -12.9516 -21.9502 -12.9447 -21.9502C-12.9378 -21.9502 -12.9291 -21.9502 -12.9221 -21.9502C-12.9152 -21.9502 -12.9065 -21.9502 -12.8996 -21.9502C-12.8927 -21.9502 -12.8895 -21.9502 -12.8827 -21.9502C-12.8758 -21.9502 -12.8669 -21.9403 -12.8601 -21.9403C-12.8532 -21.9403 -12.8443 -21.9403 -12.8375 -21.9403C-12.8308 -21.9403 -12.8273 -21.9303 -12.8206 -21.9303C-12.8139 -21.9303 -12.8047 -21.9204 -12.7981 -21.9204C-12.7914 -21.9204 -12.7876 -21.9104 -12.7811 -21.9104C-12.7746 -21.9104 -12.765 -21.8905 -12.7586 -21.8905C-12.7522 -21.8905 -12.7479 -21.8806 -12.7416 -21.8806C-12.7354 -21.8806 -12.7309 -21.8607 -12.7247 -21.8607C-12.7186 -21.8607 -12.7081 -21.8408 -12.7022 -21.8408C-12.6962 -21.8408 -12.691 -21.8209 -12.6852 -21.8209C-12.6795 -21.8209 -12.6683 -21.8009 -12.6683 -21.8009L-12.6514 -21.781L-12.6401 -21.7611L-12.6232 -21.7313L-7.12405 -12.0275L-7.10713 -11.9976L-7.09585 -11.9777L-7.08457 -11.9479C-7.08457 -11.9479 -7.07329 -11.9282 -7.07329 -11.918C-7.07329 -11.9079 -7.06201 -11.8986 -7.06201 -11.8882C-7.06201 -11.8777 -7.05073 -11.8591 -7.05073 -11.8483C-7.05073 -11.8376 -7.03945 -11.8295 -7.03945 -11.8185C-7.03945 -11.8074 -7.03381 -11.7999 -7.03381 -11.7886C-7.03381 -11.7773 -7.02253 -11.7603 -7.02253 -11.7488C-7.02253 -11.7373 -7.01689 -11.7307 -7.01689 -11.719C-7.01689 -11.7073 -7.01125 -11.691 -7.01125 -11.6791C-7.01125 -11.6673 -7.00561 -11.6613 -7.00561 -11.6493C-7.00561 -11.6373 -7.00561 -11.6216 -7.00561 -11.6095C-7.00561 -11.5974 -6.99997 -11.5818 -6.99997 -11.5697C-6.99997 -11.5575 -6.99997 -11.552 -6.99997 -11.5398C-6.99997 -11.5276 -6.99997 -11.5122 -6.99997 -11.5C-6.99997 -11.4878 -6.99997 -11.4724 -6.99997 -11.4602C-6.99997 -11.448 -6.99997 -11.4425 -6.99997 -11.4303C-6.99997 -11.4182 -7.00561 -11.4026 -7.00561 -11.3905C-7.00561 -11.3784 -7.00561 -11.3627 -7.00561 -11.3507C-7.00561 -11.3387 -7.01125 -11.3327 -7.01125 -11.3209C-7.01125 -11.309 -7.01689 -11.2928 -7.01689 -11.281C-7.01689 -11.2694 -7.02253 -11.2627 -7.02253 -11.2512C-7.02253 -11.2397 -7.03381 -11.2227 -7.03381 -11.2114C-7.03381 -11.2001 -7.03945 -11.1926 -7.03945 -11.1815C-7.03945 -11.1705 -7.05073 -11.1625 -7.05073 -11.1517C-7.05073 -11.1409 -7.06201 -11.1223 -7.06201 -11.1118C-7.06201 -11.1014 -7.07329 -11.0921 -7.07329 -11.082C-7.07329 -11.0718 -7.08457 -11.0521 -7.08457 -11.0521L-7.09585 -11.0223L-7.10713 -11.0024L-7.12405 -10.9725L-12.6232 -1.26872L-12.6401 -1.23886L-12.6514 -1.21896L-12.6683 -1.19905C-12.6683 -1.19905 -12.6795 -1.17915 -12.6852 -1.17915C-12.691 -1.17915 -12.6962 -1.15924 -12.7022 -1.15924C-12.7081 -1.15924 -12.7186 -1.13934 -12.7247 -1.13934C-12.7308 -1.13934 -12.7354 -1.11943 -12.7416 -1.11943C-12.7479 -1.11943 -12.7522 -1.10948 -12.7586 -1.10948C-12.765 -1.10948 -12.7746 -1.08957 -12.7811 -1.08957C-12.7876 -1.08957 -12.7914 -1.07962 -12.7981 -1.07962C-12.8047 -1.07962 -12.8139 -1.06967 -12.8206 -1.06967C-12.8273 -1.06967 -12.8307 -1.05972 -12.8375 -1.05972C-12.8443 -1.05972 -12.8532 -1.05972 -12.8601 -1.05972C-12.867 -1.05972 -12.8758 -1.04976 -12.8827 -1.04976C-12.8895 -1.04976 -12.8927 -1.04976 -12.8996 -1.04976C-12.9065 -1.04976 -12.9152 -1.04976 -12.9221 -1.04976C-12.9291 -1.04976 -12.9378 -1.04976 -12.9447 -1.04976C-12.9516 -1.04976 -12.9547 -1.04976 -12.9616 -1.04976C-12.9685 -1.04976 -12.9773 -1.05972 -12.9842 -1.05972C-12.991 -1.05972 -12.9999 -1.05972 -13.0067 -1.05972C-13.0135 -1.05972 -13.0169 -1.06967 -13.0237 -1.06967C-13.0304 -1.06967 -13.0396 -1.07962 -13.0462 -1.07962C-13.0528 -1.07962 -13.0566 -1.08957 -13.0631 -1.08957C-13.0697 -1.08957 -13.0793 -1.10948 -13.0857 -1.10948C-13.0921 -1.10948 -13.0964 -1.11943 -13.1026 -1.11943C-13.1089 -1.11943 -13.1134 -1.13934 -13.1195 -1.13934C-13.1256 -1.13934 -13.1362 -1.15924 -13.1421 -1.15924C-13.148 -1.15924 -13.1533 -1.17915 -13.159 -1.17915C-13.1648 -1.17915 -13.1759 -1.19905 -13.1759 -1.19905L-13.1929 -1.21896L-13.2041 -1.23886L-13.2211 -1.26872L-13.238 -1.29858L-13.2493 -1.31848L-13.2605 -1.34834C-13.2605 -1.34834 -13.2718 -1.36804 -13.2718 -1.3782C-13.2718 -1.38836 -13.2831 -1.39757 -13.2831 -1.40806C-13.2831 -1.41854 -13.2944 -1.43709 -13.2944 -1.44787C-13.2944 -1.45865 -13.3057 -1.46668 -13.3057 -1.47773C-13.3057 -1.48878 -13.3113 -1.49629 -13.3113 -1.50758C-13.3113 -1.51888 -13.3226 -1.53588 -13.3226 -1.54739C-13.3226 -1.5589 -13.3282 -1.56556 -13.3282 -1.57725C-13.3282 -1.58895 -13.3339 -1.6052 -13.3339 -1.61706C-13.3339 -1.62892 -13.3395 -1.63493 -13.3395 -1.64692C-13.3395 -1.65891 -13.3395 -1.67464 -13.3395 -1.68673C-13.3395 -1.69882 -13.3451 -1.71438 -13.3451 -1.72654C-13.3451 -1.73871 -13.3451 -1.74419 -13.3451 -1.7564C-13.3451 -1.76861 -13.3451 -1.78399 -13.3451 -1.79621C-13.3451 -1.80843 -13.3451 -1.82381 -13.3451 -1.83602C-13.3451 -1.84823 -13.3451 -1.85371 -13.3451 -1.86588C-13.3451 -1.87804 -13.3395 -1.89359 -13.3395 -1.90569C-13.3395 -1.91779 -13.3395 -1.93351 -13.3395 -1.9455C-13.3395 -1.95749 -13.3339 -1.96351 -13.3339 -1.97536C-13.3339 -1.98722 -13.3282 -2.00347 -13.3282 -2.01517C-13.3282 -2.02686 -13.3226 -2.03352 -13.3226 -2.04502C-13.3226 -2.05655 -13.3113 -2.07354 -13.3113 -2.08483C-13.3113 -2.09612 -13.3057 -2.10364 -13.3057 -2.11469C-13.3057 -2.12573 -13.2944 -2.13376 -13.2944 -2.14455C-13.2944 -2.15533 -13.2831 -2.17388 -13.2831 -2.18436C-13.2831 -2.19486 -13.2718 -2.20406 -13.2718 -2.21422C-13.2718 -2.22439 -13.2605 -2.24408 -13.2605 -2.24408L-13.2493 -2.27393L-13.238 -2.29384L-13.2211 -2.3237ZM-16.5488 -1C-16.5414 -1 -16.5336 -1 -16.5262 -1C-16.5188 -1 -16.511 -1 -16.5036 -1C-16.4963 -1 -16.4884 -1.00995 -16.4811 -1.00995C-16.4738 -1.00995 -16.4658 -1.01991 -16.4585 -1.01991C-16.4513 -1.01991 -16.4431 -1.01991 -16.436 -1.01991C-16.4288 -1.01991 -16.4205 -1.02986 -16.4134 -1.02986C-16.4063 -1.02986 -16.4034 -1.04976 -16.3965 -1.04976C-16.3895 -1.04976 -16.3807 -1.05972 -16.3739 -1.05972C-16.3671 -1.05972 -16.358 -1.07962 -16.3514 -1.07962C-16.3447 -1.07962 -16.3409 -1.08957 -16.3344 -1.08957C-16.3279 -1.08957 -16.3182 -1.10948 -16.3119 -1.10948C-16.3055 -1.10948 -16.3011 -1.12938 -16.2949 -1.12938C-16.2888 -1.12938 -16.284 -1.15924 -16.278 -1.15924C-16.2721 -1.15924 -16.2668 -1.17915 -16.2611 -1.17915C-16.2554 -1.17915 -16.2442 -1.209 -16.2442 -1.209L-16.2273 -1.22891L-16.2103 -1.25877C-16.2103 -1.25877 -16.1991 -1.27855 -16.1991 -1.28863C-16.1991 -1.29871 -16.1821 -1.30801 -16.1821 -1.31848C-16.1821 -1.32896 -16.1709 -1.34745 -16.1709 -1.35829C-16.1709 -1.36914 -16.1596 -1.37696 -16.1596 -1.38815C-16.1596 -1.39934 -16.1483 -1.40651 -16.1483 -1.41801C-16.1483 -1.42951 -16.137 -1.44603 -16.137 -1.45782C-16.137 -1.46961 -16.1314 -1.47563 -16.1314 -1.48768C-16.1314 -1.49973 -16.1201 -1.5152 -16.1201 -1.52749C-16.1201 -1.53977 -16.1145 -1.55481 -16.1145 -1.5673C-16.1145 -1.57978 -16.1088 -1.59445 -16.1088 -1.60711C-16.1088 -1.61976 -16.1032 -1.62417 -16.1032 -1.63697C-16.1032 -1.64976 -16.0975 -1.66387 -16.0975 -1.67678C-16.0975 -1.68968 -16.0975 -1.7036 -16.0975 -1.71659C-16.0975 -1.72957 -16.0975 -1.74337 -16.0975 -1.7564C-16.0975 -1.76943 -16.0919 -1.78316 -16.0919 -1.79621L-16.0919 -21.2038C-16.0919 -21.2168 -16.0975 -21.2306 -16.0975 -21.2436C-16.0975 -21.2566 -16.0975 -21.2704 -16.0975 -21.2834C-16.0975 -21.2964 -16.0975 -21.3103 -16.0975 -21.3232C-16.0975 -21.3361 -16.1032 -21.3502 -16.1032 -21.363C-16.1032 -21.3758 -16.1088 -21.3802 -16.1088 -21.3929C-16.1088 -21.4055 -16.1145 -21.4202 -16.1145 -21.4327C-16.1145 -21.4452 -16.1201 -21.4602 -16.1201 -21.4725C-16.1201 -21.4848 -16.1314 -21.5003 -16.1314 -21.5123C-16.1314 -21.5244 -16.137 -21.5304 -16.137 -21.5422C-16.137 -21.554 -16.1483 -21.5705 -16.1483 -21.582C-16.1483 -21.5935 -16.1596 -21.6006 -16.1596 -21.6118C-16.1596 -21.623 -16.1709 -21.6408 -16.1709 -21.6517C-16.1709 -21.6625 -16.1821 -21.671 -16.1821 -21.6815C-16.1821 -21.692 -16.1991 -21.7013 -16.1991 -21.7114C-16.1991 -21.7214 -16.2103 -21.7412 -16.2103 -21.7412L-16.2273 -21.7711L-16.2442 -21.791C-16.2442 -21.791 -16.2554 -21.8209 -16.2611 -21.8209C-16.2668 -21.8209 -16.2721 -21.8408 -16.278 -21.8408C-16.284 -21.8408 -16.2888 -21.8706 -16.2949 -21.8706C-16.3011 -21.8706 -16.3055 -21.8905 -16.3119 -21.8905C-16.3182 -21.8905 -16.3279 -21.9104 -16.3344 -21.9104C-16.3409 -21.9104 -16.3447 -21.9204 -16.3514 -21.9204C-16.358 -21.9204 -16.3671 -21.9403 -16.3739 -21.9403C-16.3807 -21.9403 -16.3895 -21.9502 -16.3965 -21.9502C-16.4034 -21.9502 -16.4063 -21.9701 -16.4134 -21.9701C-16.4205 -21.9701 -16.4288 -21.9801 -16.436 -21.9801C-16.4431 -21.9801 -16.4513 -21.99 -16.4585 -21.99C-16.4658 -21.99 -16.4738 -21.99 -16.4811 -21.99C-16.4884 -21.99 -16.4963 -22 -16.5036 -22C-16.511 -22 -16.5188 -22 -16.5262 -22C-16.5336 -22 -16.5357 -22 -16.5431 -22C-16.5505 -22 -16.5583 -22 -16.5657 -22C-16.5731 -22 -16.5809 -22 -16.5882 -22C-16.5956 -22 -16.6035 -21.99 -16.6108 -21.99C-16.6181 -21.99 -16.6261 -21.99 -16.6334 -21.99C-16.6406 -21.99 -16.6488 -21.9801 -16.6559 -21.9801C-16.6631 -21.9801 -16.6714 -21.9701 -16.6785 -21.9701C-16.6856 -21.9701 -16.6884 -21.9502 -16.6954 -21.9502C-16.7024 -21.9502 -16.7111 -21.9403 -16.718 -21.9403C-16.7248 -21.9403 -16.7338 -21.9204 -16.7405 -21.9204C-16.7472 -21.9204 -16.7509 -21.9104 -16.7574 -21.9104C-16.764 -21.9104 -16.7737 -21.8905 -16.78 -21.8905C-16.7863 -21.8905 -16.7908 -21.8706 -16.7969 -21.8706C-16.8031 -21.8706 -16.8079 -21.8408 -16.8138 -21.8408C-16.8198 -21.8408 -16.825 -21.8209 -16.8308 -21.8209C-16.8365 -21.8209 -16.8477 -21.791 -16.8477 -21.791L-16.8646 -21.7711L-16.8815 -21.7412C-16.8815 -21.7412 -16.8928 -21.7214 -16.8928 -21.7114C-16.8928 -21.7013 -16.9097 -21.692 -16.9097 -21.6815C-16.9097 -21.671 -16.921 -21.6625 -16.921 -21.6517C-16.921 -21.6408 -16.9323 -21.623 -16.9323 -21.6118C-16.9323 -21.6007 -16.9436 -21.5935 -16.9436 -21.582C-16.9436 -21.5705 -16.9548 -21.554 -16.9548 -21.5422C-16.9548 -21.5304 -16.9605 -21.5244 -16.9605 -21.5123C-16.9605 -21.5003 -16.9718 -21.4848 -16.9718 -21.4725C-16.9718 -21.4602 -16.9774 -21.4452 -16.9774 -21.4327C-16.9774 -21.4202 -16.983 -21.4055 -16.983 -21.3929C-16.983 -21.3802 -16.9887 -21.3758 -16.9887 -21.363C-16.9887 -21.3502 -16.9943 -21.3361 -16.9943 -21.3232C-16.9943 -21.3103 -16.9943 -21.2964 -16.9943 -21.2834C-16.9943 -21.2704 -16.9943 -21.2566 -16.9943 -21.2436C-16.9943 -21.2306 -17 -21.2168 -17 -21.2038L-17 -1.79621C-17 -1.78318 -16.9943 -1.76941 -16.9943 -1.7564C-16.9943 -1.74339 -16.9943 -1.72955 -16.9943 -1.71659C-16.9943 -1.70362 -16.9943 -1.68966 -16.9943 -1.67678C-16.9943 -1.66389 -16.9887 -1.64974 -16.9887 -1.63697C-16.9887 -1.62419 -16.983 -1.61975 -16.983 -1.60711C-16.983 -1.59447 -16.9774 -1.57977 -16.9774 -1.5673C-16.9774 -1.55483 -16.9718 -1.53976 -16.9718 -1.52749C-16.9718 -1.51522 -16.9605 -1.49971 -16.9605 -1.48768C-16.9605 -1.47564 -16.9548 -1.4696 -16.9548 -1.45782C-16.9548 -1.44604 -16.9436 -1.4295 -16.9436 -1.41801C-16.9436 -1.40652 -16.9323 -1.39933 -16.9323 -1.38815C-16.9323 -1.37698 -16.921 -1.36913 -16.921 -1.35829C-16.921 -1.34746 -16.9097 -1.32895 -16.9097 -1.31848C-16.9097 -1.30802 -16.8928 -1.2987 -16.8928 -1.28863C-16.8928 -1.27855 -16.8815 -1.25877 -16.8815 -1.25877L-16.8646 -1.22891L-16.8477 -1.209C-16.8477 -1.209 -16.8365 -1.17915 -16.8308 -1.17915C-16.8251 -1.17915 -16.8198 -1.15924 -16.8138 -1.15924C-16.8079 -1.15924 -16.8031 -1.13934 -16.7969 -1.13934C-16.7908 -1.13934 -16.7863 -1.10948 -16.78 -1.10948C-16.7737 -1.10948 -16.7639 -1.08957 -16.7574 -1.08957C-16.7509 -1.08957 -16.7472 -1.07962 -16.7405 -1.07962C-16.7338 -1.07962 -16.7248 -1.05972 -16.718 -1.05972C-16.7112 -1.05972 -16.708 -1.04976 -16.701 -1.04976C-16.6941 -1.04976 -16.6856 -1.02986 -16.6785 -1.02986C-16.6714 -1.02986 -16.6631 -1.01991 -16.6559 -1.01991C-16.6488 -1.01991 -16.6406 -1.01991 -16.6334 -1.01991C-16.6261 -1.01991 -16.6181 -1.00995 -16.6108 -1.00995C-16.6035 -1.00995 -16.5956 -1 -16.5882 -1C-16.5809 -1 -16.5731 -1 -16.5657 -1C-16.5583 -1 -16.5561 -1 -16.5488 -1Z">
  </path>
</svg>