<svg width="24" height="24" viewBox="0 0 24 24">
  <path fill-rule="evenodd"
    d="M11.4119 2L11.4119 11.4119L2 11.4119L2 2L11.4119 2ZM9.53688 3.875L3.875 3.875L3.875 9.53688L9.53688 9.53688L9.53688 3.875ZM8.24999 5.12501L8.24999 8.24999L5.12501 8.24999L5.12501 5.12501L8.24999 5.12501ZM11.4119 12.5881L11.4119 22L2 22L2 12.5881L11.4119 12.5881ZM9.53688 14.4631L3.875 14.4631L3.875 20.125L9.53688 20.125L9.53688 14.4631ZM8.24999 15.75L8.24999 18.875L5.12501 18.875L5.12501 15.75L8.24999 15.75ZM22 2L22 11.4119L12.5881 11.4119L12.5881 2L22 2ZM20.125 3.875L14.4631 3.875L14.4631 9.53688L20.125 9.53688L20.125 3.875ZM18.875 5.12501L18.875 8.24999L15.75 8.24999L15.75 5.12501L18.875 5.12501ZM14.5 20.125L14.5 22L12.625 22L12.625 20.125L14.5 20.125ZM18.25 22L18.25 20.125L20.125 20.125L20.125 17.625L22 17.625L22 22L18.25 22L18.25 22ZM16.375 14.5L16.375 18.25L18.25 18.25L18.25 20.125L14.5 20.125L14.5 14.5L16.375 14.5ZM20.125 15.75L20.125 17.625L18.25 17.625L18.25 15.75L20.125 15.75ZM22 12.625L22 15.75L20.125 15.75L20.125 14.5L18.25 14.5L18.25 12.625L22 12.625ZM14.5 12.625L14.5 14.5L12.625 14.5L12.625 12.625L14.5 12.625Z">
  </path>
</svg>