<svg width="24" height="24" viewBox="0 0 24 24">
  <path
    d="M8.41421 1.58579L17.4142 10.5858C18.1953 11.3668 18.1953 12.6332 17.4142 13.4142L8.41421 22.4142Q8.34474 22.4837 8.26879 22.546Q8.19283 22.6084 8.11114 22.6629Q8.02944 22.7175 7.94279 22.7638Q7.85614 22.8102 7.76537 22.8478Q7.67459 22.8854 7.58057 22.9139Q7.48655 22.9424 7.39018 22.9616Q7.29381 22.9807 7.19603 22.9904Q7.09825 23 7 23Q6.90175 23 6.80396 22.9904Q6.70618 22.9807 6.60982 22.9616Q6.51345 22.9424 6.41943 22.9139Q6.32541 22.8854 6.23463 22.8478Q6.14386 22.8102 6.05721 22.7638Q5.97055 22.7175 5.88886 22.6629Q5.80716 22.6084 5.73121 22.546Q5.65526 22.4837 5.58579 22.4142Q5.51631 22.3447 5.45398 22.2688Q5.39165 22.1928 5.33706 22.1111Q5.28247 22.0294 5.23616 21.9428Q5.18984 21.8561 5.15224 21.7654Q5.11464 21.6746 5.08612 21.5806Q5.0576 21.4865 5.03843 21.3902Q5.01926 21.2938 5.00963 21.196Q5 21.0983 5 21Q5 20.9017 5.00963 20.804Q5.01926 20.7062 5.03843 20.6098Q5.0576 20.5135 5.08612 20.4194Q5.11464 20.3254 5.15224 20.2346Q5.18984 20.1439 5.23616 20.0572Q5.28247 19.9706 5.33706 19.8889Q5.39165 19.8072 5.45398 19.7312Q5.51631 19.6553 5.58579 19.5858L14.5858 10.5858L16 12L14.5858 13.4142L5.58579 4.41421Q5.51631 4.34474 5.45398 4.26879Q5.39165 4.19284 5.33706 4.11114Q5.28247 4.02945 5.23616 3.94279Q5.18984 3.85614 5.15224 3.76537Q5.11464 3.67459 5.08612 3.58057Q5.0576 3.48655 5.03843 3.39018Q5.01926 3.29381 5.00963 3.19603Q5 3.09825 5 3Q5 2.90175 5.00963 2.80397Q5.01926 2.70619 5.03843 2.60982Q5.0576 2.51345 5.08612 2.41943Q5.11464 2.32541 5.15224 2.23463Q5.18984 2.14386 5.23616 2.05721Q5.28247 1.97055 5.33706 1.88886Q5.39165 1.80716 5.45398 1.73121Q5.51631 1.65526 5.58579 1.58579Q5.65526 1.51631 5.73121 1.45398Q5.80716 1.39165 5.88886 1.33706Q5.97055 1.28247 6.05721 1.23616Q6.14386 1.18984 6.23463 1.15224Q6.32541 1.11464 6.41943 1.08612Q6.51345 1.0576 6.60982 1.03843Q6.70618 1.01926 6.80397 1.00963Q6.90175 1 7 1Q7.09825 1 7.19603 1.00963Q7.29381 1.01926 7.39018 1.03843Q7.48655 1.0576 7.58057 1.08612Q7.67459 1.11464 7.76537 1.15224Q7.85614 1.18984 7.94279 1.23616Q8.02944 1.28247 8.11114 1.33706Q8.19283 1.39165 8.26879 1.45398Q8.34474 1.51631 8.41421 1.58579Z">
  </path>
</svg>