<svg width="24" height="24" viewBox="0 0 24 24">
  <path
    d="M22.7797 21.5891L17.5203 16.3297C17.4828 16.2922 17.4781 16.2312 17.5109 16.1891C18.0195 15.5586 18.4344 14.8648 18.7531 14.1148C19.2078 13.0367 19.4375 11.8953 19.4375 10.7187C19.4375 9.54219 19.2078 8.40078 18.7531 7.325C18.3125 6.28672 17.6844 5.35391 16.8828 4.55469C16.0812 3.75312 15.1508 3.125 14.1125 2.68672C13.0367 2.22969 11.8953 2 10.7187 2C9.54219 2 8.40078 2.22969 7.325 2.68437C6.28672 3.125 5.35391 3.75312 4.55469 4.55469C3.75312 5.35625 3.125 6.28672 2.68672 7.325C2.22969 8.40078 2 9.54219 2 10.7187C2 11.8953 2.22969 13.0367 2.68438 14.1125C3.125 15.1508 3.75312 16.0836 4.55469 16.8828C5.35625 17.6844 6.28672 18.3125 7.325 18.7508C8.40078 19.2078 9.54219 19.4375 10.7187 19.4375C11.8953 19.4375 13.0367 19.2078 14.1125 18.7531C14.8625 18.4367 15.5562 18.0195 16.1867 17.5109C16.2289 17.4758 16.2898 17.4805 16.3273 17.5203L21.5867 22.7797C21.8797 23.0727 22.3531 23.0727 22.6461 22.7797L22.7773 22.6484C23.0727 22.3555 23.0727 21.882 22.7797 21.5891ZM10.7187 17.75C6.84219 17.75 3.6875 14.5953 3.6875 10.7187C3.6875 6.84219 6.84219 3.6875 10.7187 3.6875C14.5953 3.6875 17.75 6.84219 17.75 10.7187C17.75 14.5953 14.5953 17.75 10.7187 17.75Z">
  </path>
</svg>