<svg width="24" height="24" viewBox="0 0 24 24" >
  <path fill-rule="evenodd" 
    d="M19.7962 12.6937C19.8191 12.4642 19.8333 12.2337 19.8333 12C19.8333 11.7663 19.8191 11.5358 19.7962 11.3063L21.6185 9.91579C22.0132 9.60421 22.1146 9.06737 21.8616 8.64316L19.9183 5.36105C19.6719 4.94421 19.1441 4.74421 18.6446 4.92947L16.5094 5.76737C16.1179 5.49579 15.7079 5.26316 15.2858 5.07263L14.9619 2.84526C14.8856 2.36316 14.4472 2 13.9434 2L10.0557 2C9.54534 2 9.11676 2.35474 9.03607 2.85263L8.71327 5.07263C8.29015 5.26421 7.88012 5.49684 7.48862 5.76737L5.34793 4.92632C4.88665 4.75368 4.3283 4.94421 4.08183 5.36105L2.13853 8.64211C1.88553 9.06947 1.98695 9.60632 2.38826 9.92105L4.20288 11.3063C4.17998 11.5347 4.1658 11.7663 4.1658 12C4.1658 12.2337 4.17998 12.4653 4.20288 12.6937L2.37844 14.0842C1.98695 14.3968 1.88553 14.9326 2.13853 15.3558L4.08292 18.64C4.33048 19.0558 4.87029 19.2558 5.35557 19.0695L7.4908 18.2316C7.88337 18.5032 8.29342 18.7358 8.71436 18.9253L9.03825 21.1558C9.11783 21.6453 9.54641 22 10.0557 22L13.9423 22C14.4461 22 14.8834 21.6368 14.963 21.1474L15.2858 18.9263C15.7079 18.7347 16.1179 18.5032 16.5094 18.2316L18.6501 19.0737C18.77 19.1189 18.8954 19.1411 19.0241 19.1411C19.3905 19.1411 19.733 18.9495 19.9183 18.6389L21.8584 15.3589C22.1125 14.9358 22.0143 14.3989 21.6097 14.0758L19.7962 12.6937ZM19.0547 18.0958L16.6348 17.1453C16.4538 17.0726 16.2488 17.1011 16.095 17.2168C15.6173 17.5747 15.107 17.8642 14.577 18.0768C14.3992 18.1484 14.2738 18.3063 14.2466 18.4905L13.89 20.9484L10.1157 21.0021L9.75142 18.4905C9.72527 18.3063 9.59877 18.1495 9.42102 18.0768C8.89537 17.8663 8.38394 17.5758 7.90302 17.2168C7.80596 17.1453 7.68819 17.1074 7.56932 17.1074C7.50062 17.1074 7.43082 17.12 7.3643 17.1463L5.0295 18.1179L3.06547 14.9032L5.11784 13.3389C5.26833 13.2242 5.34466 13.0411 5.32067 12.8579C5.28141 12.5758 5.25633 12.2905 5.25633 12C5.25633 11.7095 5.28141 11.4242 5.31958 11.1442C5.34466 10.96 5.26833 10.7779 5.11674 10.6632L3.0851 9.16526L4.94444 5.90421L7.36212 6.85368C7.54315 6.92526 7.74816 6.89789 7.90193 6.78316C8.38064 6.42526 8.89319 6.13474 9.42318 5.92C9.60095 5.84842 9.72527 5.69158 9.75254 5.50737L10.0557 3.05263L13.8834 2.99895L14.2477 5.50947C14.2738 5.69368 14.4003 5.85053 14.5781 5.92211C15.1059 6.13474 15.6173 6.42421 16.0972 6.78316C16.252 6.89789 16.457 6.92526 16.637 6.85474L18.9718 5.88421L20.9369 9.09684L18.8834 10.6632C18.733 10.7779 18.6555 10.96 18.6795 11.1432C18.7166 11.4253 18.7439 11.7105 18.7439 12.0011C18.7439 12.2916 18.7177 12.5768 18.6795 12.8589C18.6555 13.0421 18.733 13.2242 18.8834 13.3389L20.914 14.8347L19.0547 18.0958ZM12.0012 8.03158C9.75254 8.03158 7.92372 9.81158 7.92372 12C7.92372 14.1874 9.75254 15.9684 12.0012 15.9684C14.2498 15.9684 16.0775 14.1884 16.0775 12C16.0775 9.81158 14.2487 8.03158 12.0012 8.03158ZM12.0012 14.9158C10.3545 14.9158 9.01423 13.6084 9.01423 12C9.01423 10.3916 10.3545 9.08421 12.0012 9.08421C13.6479 9.08421 14.987 10.3926 14.987 12C14.987 13.6074 13.6468 14.9158 12.0012 14.9158Z">
  </path>
</svg>