<svg width="24" height="24" viewBox="0 0 24 24">
  <path fill-rule="evenodd"
    d="M16.9984 2.00233L16.4424 3.0334C19.1832 4.73246 20.888 7.8955 20.888 11.2866C20.888 16.5397 16.9006 20.813 11.9989 20.813C7.09719 20.813 3.10978 16.5374 3.10978 11.2843C3.10978 7.89317 4.81247 4.73246 7.55543 3.03107L6.99946 2C3.91552 3.91086 2 7.46957 2 11.282C2 17.1914 6.48691 22 12.0011 22C17.5153 22 22 17.1938 22 11.2843C22 7.46957 20.0845 3.91319 16.9984 2.00233Z">
  </path>
  <path fill-rule="evenodd"
    d="M11.3227 9.73749L10.7227 8.69921C9.66094 9.31327 9 10.457 9 11.6828C9 13.5812 10.5445 15.1281 12.4453 15.1281C14.3461 15.1281 15.8906 13.5836 15.8906 11.6828L15.8906 11.5351L11.018 2.2L14.8617 2.2L14.8617 1L9.03984 1L14.6883 11.8234C14.6156 12.9976 13.6383 13.9305 12.4477 13.9305C11.2102 13.9305 10.2023 12.9226 10.2023 11.6851C10.2 10.8859 10.6289 10.1383 11.3227 9.73749Z">
  </path>
</svg>